%TF.GenerationSoftware,KiCad,Pcbnew,8.0.5-1.fc40*%
%TF.CreationDate,2024-10-08T11:33:05-07:00*%
%TF.ProjectId,stm32simh,73746d33-3273-4696-9d68-2e6b69636164,rev?*%
%TF.SameCoordinates,Original*%
%TF.FileFunction,Drillmap*%
%TF.FilePolarity,Positive*%
%FSLAX45Y45*%
G04 Gerber Fmt 4.5, Leading zero omitted, Abs format (unit mm)*
G04 Created by KiCad (PCBNEW 8.0.5-1.fc40) date 2024-10-08 11:33:05*
%MOMM*%
%LPD*%
G01*
G04 APERTURE LIST*
%ADD10C,0.100000*%
%ADD11C,0.200000*%
%ADD12C,0.160000*%
%ADD13C,0.220000*%
G04 APERTURE END LIST*
D10*
X10920000Y-2770000D02*
X18920000Y-2770000D01*
X18920000Y-10770000D01*
X10920000Y-10770000D01*
X10920000Y-2770000D01*
D11*
D10*
X11280000Y-9350000D02*
X11300000Y-9370000D01*
X11300000Y-9350000D02*
X11280000Y-9370000D01*
X11372000Y-6746000D02*
X11392000Y-6766000D01*
X11392000Y-6746000D02*
X11372000Y-6766000D01*
X11390000Y-6800000D02*
X11410000Y-6820000D01*
X11410000Y-6800000D02*
X11390000Y-6820000D01*
X11395641Y-6863308D02*
X11415641Y-6883308D01*
X11415641Y-6863308D02*
X11395641Y-6883308D01*
X11400000Y-7090000D02*
X11420000Y-7110000D01*
X11420000Y-7090000D02*
X11400000Y-7110000D01*
X11405448Y-6651791D02*
X11425448Y-6671791D01*
X11425448Y-6651791D02*
X11405448Y-6671791D01*
X11420000Y-6710000D02*
X11440000Y-6730000D01*
X11440000Y-6710000D02*
X11420000Y-6730000D01*
X11460000Y-7138850D02*
X11480000Y-7158850D01*
X11480000Y-7138850D02*
X11460000Y-7158850D01*
X11468850Y-6925458D02*
X11488850Y-6945458D01*
X11488850Y-6925458D02*
X11468850Y-6945458D01*
X11480000Y-9260000D02*
X11500000Y-9280000D01*
X11500000Y-9260000D02*
X11480000Y-9280000D01*
X11496672Y-7186339D02*
X11516672Y-7206339D01*
X11516672Y-7186339D02*
X11496672Y-7206339D01*
X11558267Y-7193828D02*
X11578267Y-7213828D01*
X11578267Y-7193828D02*
X11558267Y-7213828D01*
X11570000Y-7770000D02*
X11590000Y-7790000D01*
X11590000Y-7770000D02*
X11570000Y-7790000D01*
X11570000Y-9640000D02*
X11590000Y-9660000D01*
X11590000Y-9640000D02*
X11570000Y-9660000D01*
X11573374Y-7263374D02*
X11593374Y-7283374D01*
X11593374Y-7263374D02*
X11573374Y-7283374D01*
X11743286Y-7747629D02*
X11763286Y-7767629D01*
X11763286Y-7747629D02*
X11743286Y-7767629D01*
X11790000Y-5680000D02*
X11810000Y-5700000D01*
X11810000Y-5680000D02*
X11790000Y-5700000D01*
X11790000Y-6030000D02*
X11810000Y-6050000D01*
X11810000Y-6030000D02*
X11790000Y-6050000D01*
X11790000Y-8120000D02*
X11810000Y-8140000D01*
X11810000Y-8120000D02*
X11790000Y-8140000D01*
X11820000Y-6380000D02*
X11840000Y-6400000D01*
X11840000Y-6380000D02*
X11820000Y-6400000D01*
X11840000Y-6270000D02*
X11860000Y-6290000D01*
X11860000Y-6270000D02*
X11840000Y-6290000D01*
X11850000Y-6330000D02*
X11870000Y-6350000D01*
X11870000Y-6330000D02*
X11850000Y-6350000D01*
X11860000Y-7701150D02*
X11880000Y-7721150D01*
X11880000Y-7701150D02*
X11860000Y-7721150D01*
X11890000Y-5680000D02*
X11910000Y-5700000D01*
X11910000Y-5680000D02*
X11890000Y-5700000D01*
X11890000Y-8120000D02*
X11910000Y-8140000D01*
X11910000Y-8120000D02*
X11890000Y-8140000D01*
X11920000Y-7580000D02*
X11940000Y-7600000D01*
X11940000Y-7580000D02*
X11920000Y-7600000D01*
X11970000Y-7610000D02*
X11990000Y-7630000D01*
X11990000Y-7610000D02*
X11970000Y-7630000D01*
X11979542Y-6260458D02*
X11999542Y-6280458D01*
X11999542Y-6260458D02*
X11979542Y-6280458D01*
X12005253Y-7656657D02*
X12025253Y-7676657D01*
X12025253Y-7656657D02*
X12005253Y-7676657D01*
X12027477Y-6224371D02*
X12047477Y-6244371D01*
X12047477Y-6224371D02*
X12027477Y-6244371D01*
X12065000Y-7651150D02*
X12085000Y-7671150D01*
X12085000Y-7651150D02*
X12065000Y-7671150D01*
X12071846Y-6186307D02*
X12091846Y-6206307D01*
X12091846Y-6186307D02*
X12071846Y-6206307D01*
X12110000Y-6460000D02*
X12130000Y-6480000D01*
X12130000Y-6460000D02*
X12110000Y-6480000D01*
X12120000Y-7651150D02*
X12140000Y-7671150D01*
X12140000Y-7651150D02*
X12120000Y-7671150D01*
X12180000Y-6160000D02*
X12200000Y-6180000D01*
X12200000Y-6160000D02*
X12180000Y-6180000D01*
X12180000Y-8030000D02*
X12200000Y-8050000D01*
X12200000Y-8030000D02*
X12180000Y-8050000D01*
X12190000Y-7625750D02*
X12210000Y-7645750D01*
X12210000Y-7625750D02*
X12190000Y-7645750D01*
X12200000Y-6980000D02*
X12220000Y-7000000D01*
X12220000Y-6980000D02*
X12200000Y-7000000D01*
X12223979Y-7576299D02*
X12243979Y-7596299D01*
X12243979Y-7576299D02*
X12223979Y-7596299D01*
X12240000Y-6110000D02*
X12260000Y-6130000D01*
X12260000Y-6110000D02*
X12240000Y-6130000D01*
X12270000Y-7500000D02*
X12290000Y-7520000D01*
X12290000Y-7500000D02*
X12270000Y-7520000D01*
X12275000Y-6065000D02*
X12295000Y-6085000D01*
X12295000Y-6065000D02*
X12275000Y-6085000D01*
X12320000Y-6930000D02*
X12340000Y-6950000D01*
X12340000Y-6930000D02*
X12320000Y-6950000D01*
X12360000Y-8010000D02*
X12380000Y-8030000D01*
X12380000Y-8010000D02*
X12360000Y-8030000D01*
X12390000Y-9450000D02*
X12410000Y-9470000D01*
X12410000Y-9450000D02*
X12390000Y-9470000D01*
X12580000Y-6530000D02*
X12600000Y-6550000D01*
X12600000Y-6530000D02*
X12580000Y-6550000D01*
X12680000Y-5240000D02*
X12700000Y-5260000D01*
X12700000Y-5240000D02*
X12680000Y-5260000D01*
X12940000Y-4430000D02*
X12960000Y-4450000D01*
X12960000Y-4430000D02*
X12940000Y-4450000D01*
X13007340Y-8692658D02*
X13027340Y-8712658D01*
X13027340Y-8692658D02*
X13007340Y-8712658D01*
X13089000Y-8910000D02*
X13109000Y-8930000D01*
X13109000Y-8910000D02*
X13089000Y-8930000D01*
X13089000Y-9250000D02*
X13109000Y-9270000D01*
X13109000Y-9250000D02*
X13089000Y-9270000D01*
X13090000Y-9610000D02*
X13110000Y-9630000D01*
X13110000Y-9610000D02*
X13090000Y-9630000D01*
X13240000Y-8230000D02*
X13260000Y-8250000D01*
X13260000Y-8230000D02*
X13240000Y-8250000D01*
X13260000Y-8950000D02*
X13280000Y-8970000D01*
X13280000Y-8950000D02*
X13260000Y-8970000D01*
X13260000Y-9340000D02*
X13280000Y-9360000D01*
X13280000Y-9340000D02*
X13260000Y-9360000D01*
X13260000Y-9490000D02*
X13280000Y-9510000D01*
X13280000Y-9490000D02*
X13260000Y-9510000D01*
X13270000Y-9100000D02*
X13290000Y-9120000D01*
X13290000Y-9100000D02*
X13270000Y-9120000D01*
X13278750Y-4150000D02*
X13298750Y-4170000D01*
X13298750Y-4150000D02*
X13278750Y-4170000D01*
X13330000Y-9730000D02*
X13350000Y-9750000D01*
X13350000Y-9730000D02*
X13330000Y-9750000D01*
X13460000Y-8020000D02*
X13480000Y-8040000D01*
X13480000Y-8020000D02*
X13460000Y-8040000D01*
X13500000Y-9200000D02*
X13520000Y-9220000D01*
X13520000Y-9200000D02*
X13500000Y-9220000D01*
X13530000Y-8400000D02*
X13550000Y-8420000D01*
X13550000Y-8400000D02*
X13530000Y-8420000D01*
X13530000Y-10240000D02*
X13550000Y-10260000D01*
X13550000Y-10240000D02*
X13530000Y-10260000D01*
X13560000Y-7890000D02*
X13580000Y-7910000D01*
X13580000Y-7890000D02*
X13560000Y-7910000D01*
X13570000Y-7790000D02*
X13590000Y-7810000D01*
X13590000Y-7790000D02*
X13570000Y-7810000D01*
X13580000Y-6560000D02*
X13600000Y-6580000D01*
X13600000Y-6560000D02*
X13580000Y-6580000D01*
X13580000Y-6660000D02*
X13600000Y-6680000D01*
X13600000Y-6660000D02*
X13580000Y-6680000D01*
X13610211Y-6366914D02*
X13630211Y-6386914D01*
X13630211Y-6366914D02*
X13610211Y-6386914D01*
X13663260Y-6394946D02*
X13683260Y-6414946D01*
X13683260Y-6394946D02*
X13663260Y-6414946D01*
X13681364Y-6297246D02*
X13701364Y-6317246D01*
X13701364Y-6297246D02*
X13681364Y-6317246D01*
X13690000Y-8930000D02*
X13710000Y-8950000D01*
X13710000Y-8930000D02*
X13690000Y-8950000D01*
X13780000Y-5960000D02*
X13800000Y-5980000D01*
X13800000Y-5960000D02*
X13780000Y-5980000D01*
X13790000Y-8310000D02*
X13810000Y-8330000D01*
X13810000Y-8310000D02*
X13790000Y-8330000D01*
X13814500Y-8880000D02*
X13834500Y-8900000D01*
X13834500Y-8880000D02*
X13814500Y-8900000D01*
X13900000Y-5880000D02*
X13920000Y-5900000D01*
X13920000Y-5880000D02*
X13900000Y-5900000D01*
X13920000Y-6700000D02*
X13940000Y-6720000D01*
X13940000Y-6700000D02*
X13920000Y-6720000D01*
X13920000Y-6470000D02*
X13940000Y-6490000D01*
X13940000Y-6470000D02*
X13920000Y-6490000D01*
X13936000Y-5802000D02*
X13956000Y-5822000D01*
X13956000Y-5802000D02*
X13936000Y-5822000D01*
X13940000Y-7140000D02*
X13960000Y-7160000D01*
X13960000Y-7140000D02*
X13940000Y-7160000D01*
X13950000Y-5560000D02*
X13970000Y-5580000D01*
X13970000Y-5560000D02*
X13950000Y-5580000D01*
X13970000Y-8160000D02*
X13990000Y-8180000D01*
X13990000Y-8160000D02*
X13970000Y-8180000D01*
X13980000Y-6870000D02*
X14000000Y-6890000D01*
X14000000Y-6870000D02*
X13980000Y-6890000D01*
X14050000Y-6980000D02*
X14070000Y-7000000D01*
X14070000Y-6980000D02*
X14050000Y-7000000D01*
X14090000Y-6930000D02*
X14110000Y-6950000D01*
X14110000Y-6930000D02*
X14090000Y-6950000D01*
X14098750Y-8230000D02*
X14118750Y-8250000D01*
X14118750Y-8230000D02*
X14098750Y-8250000D01*
X14110000Y-8520000D02*
X14130000Y-8540000D01*
X14130000Y-8520000D02*
X14110000Y-8540000D01*
X14120000Y-8300000D02*
X14140000Y-8320000D01*
X14140000Y-8300000D02*
X14120000Y-8320000D01*
X14150000Y-8930000D02*
X14170000Y-8950000D01*
X14170000Y-8930000D02*
X14150000Y-8950000D01*
X14190000Y-7880000D02*
X14210000Y-7900000D01*
X14210000Y-7880000D02*
X14190000Y-7900000D01*
X14198750Y-6010000D02*
X14218750Y-6030000D01*
X14218750Y-6010000D02*
X14198750Y-6030000D01*
X14210000Y-5550000D02*
X14230000Y-5570000D01*
X14230000Y-5550000D02*
X14210000Y-5570000D01*
X14210000Y-6430000D02*
X14230000Y-6450000D01*
X14230000Y-6430000D02*
X14210000Y-6450000D01*
X14210000Y-8600000D02*
X14230000Y-8620000D01*
X14230000Y-8600000D02*
X14210000Y-8620000D01*
X14254500Y-8959880D02*
X14274500Y-8979880D01*
X14274500Y-8959880D02*
X14254500Y-8979880D01*
X14290000Y-7900000D02*
X14310000Y-7920000D01*
X14310000Y-7900000D02*
X14290000Y-7920000D01*
X14298750Y-6290000D02*
X14318750Y-6310000D01*
X14318750Y-6290000D02*
X14298750Y-6310000D01*
X14319542Y-8639542D02*
X14339542Y-8659542D01*
X14339542Y-8639542D02*
X14319542Y-8659542D01*
X14348750Y-6250000D02*
X14368750Y-6270000D01*
X14368750Y-6250000D02*
X14348750Y-6270000D01*
X14350000Y-4430000D02*
X14370000Y-4450000D01*
X14370000Y-4430000D02*
X14350000Y-4450000D01*
X14365000Y-8959880D02*
X14385000Y-8979880D01*
X14385000Y-8959880D02*
X14365000Y-8979880D01*
X14372561Y-8608938D02*
X14392561Y-8628938D01*
X14392561Y-8608938D02*
X14372561Y-8628938D01*
X14380000Y-7360000D02*
X14400000Y-7380000D01*
X14400000Y-7360000D02*
X14380000Y-7380000D01*
X14400000Y-6210000D02*
X14420000Y-6230000D01*
X14420000Y-6210000D02*
X14400000Y-6230000D01*
X14430000Y-4630000D02*
X14450000Y-4650000D01*
X14450000Y-4630000D02*
X14430000Y-4650000D01*
X14430000Y-7890000D02*
X14450000Y-7910000D01*
X14450000Y-7890000D02*
X14430000Y-7910000D01*
X14463327Y-4155558D02*
X14483327Y-4175558D01*
X14483327Y-4155558D02*
X14463327Y-4175558D01*
X14480000Y-5660000D02*
X14500000Y-5680000D01*
X14500000Y-5660000D02*
X14480000Y-5680000D01*
X14480000Y-8150000D02*
X14500000Y-8170000D01*
X14500000Y-8150000D02*
X14480000Y-8170000D01*
X14518420Y-4131580D02*
X14538420Y-4151580D01*
X14538420Y-4131580D02*
X14518420Y-4151580D01*
X14519500Y-8880000D02*
X14539500Y-8900000D01*
X14539500Y-8880000D02*
X14519500Y-8900000D01*
X14520000Y-7290450D02*
X14540000Y-7310450D01*
X14540000Y-7290450D02*
X14520000Y-7310450D01*
X14560000Y-4730000D02*
X14580000Y-4750000D01*
X14580000Y-4730000D02*
X14560000Y-4750000D01*
X14570000Y-5020000D02*
X14590000Y-5040000D01*
X14590000Y-5020000D02*
X14570000Y-5040000D01*
X14580000Y-3890000D02*
X14600000Y-3910000D01*
X14600000Y-3890000D02*
X14580000Y-3910000D01*
X14580000Y-4020001D02*
X14600000Y-4040001D01*
X14600000Y-4020001D02*
X14580000Y-4040001D01*
X14580000Y-5660000D02*
X14600000Y-5680000D01*
X14600000Y-5660000D02*
X14580000Y-5680000D01*
X14590000Y-8540000D02*
X14610000Y-8560000D01*
X14610000Y-8540000D02*
X14590000Y-8560000D01*
X14600000Y-4080000D02*
X14620000Y-4100000D01*
X14620000Y-4080000D02*
X14600000Y-4100000D01*
X14610000Y-4430000D02*
X14630000Y-4450000D01*
X14630000Y-4430000D02*
X14610000Y-4450000D01*
X14610000Y-7241600D02*
X14630000Y-7261600D01*
X14630000Y-7241600D02*
X14610000Y-7261600D01*
X14610000Y-8260000D02*
X14630000Y-8280000D01*
X14630000Y-8260000D02*
X14610000Y-8280000D01*
X14680000Y-7192750D02*
X14700000Y-7212750D01*
X14700000Y-7192750D02*
X14680000Y-7212750D01*
X14690000Y-8260000D02*
X14710000Y-8280000D01*
X14710000Y-8260000D02*
X14690000Y-8280000D01*
X14740000Y-5040000D02*
X14760000Y-5060000D01*
X14760000Y-5040000D02*
X14740000Y-5060000D01*
X14740000Y-10120000D02*
X14760000Y-10140000D01*
X14760000Y-10120000D02*
X14740000Y-10140000D01*
X14748750Y-6030000D02*
X14768750Y-6050000D01*
X14768750Y-6030000D02*
X14748750Y-6050000D01*
X14780000Y-6090000D02*
X14800000Y-6110000D01*
X14800000Y-6090000D02*
X14780000Y-6110000D01*
X14790000Y-4610000D02*
X14810000Y-4630000D01*
X14810000Y-4610000D02*
X14790000Y-4630000D01*
X14820000Y-6140000D02*
X14840000Y-6160000D01*
X14840000Y-6140000D02*
X14820000Y-6160000D01*
X14900000Y-6610000D02*
X14920000Y-6630000D01*
X14920000Y-6610000D02*
X14900000Y-6630000D01*
X14931500Y-6652000D02*
X14951500Y-6672000D01*
X14951500Y-6652000D02*
X14931500Y-6672000D01*
X14942725Y-4562082D02*
X14962725Y-4582082D01*
X14962725Y-4562082D02*
X14942725Y-4582082D01*
X14980000Y-5660000D02*
X15000000Y-5680000D01*
X15000000Y-5660000D02*
X14980000Y-5680000D01*
X15020000Y-8260000D02*
X15040000Y-8280000D01*
X15040000Y-8260000D02*
X15020000Y-8280000D01*
X15030000Y-4140000D02*
X15050000Y-4160000D01*
X15050000Y-4140000D02*
X15030000Y-4160000D01*
X15030000Y-4320000D02*
X15050000Y-4340000D01*
X15050000Y-4320000D02*
X15030000Y-4340000D01*
X15040000Y-5070000D02*
X15060000Y-5090000D01*
X15060000Y-5070000D02*
X15040000Y-5090000D01*
X15057684Y-4513232D02*
X15077684Y-4533232D01*
X15077684Y-4513232D02*
X15057684Y-4533232D01*
X15070000Y-4740000D02*
X15090000Y-4760000D01*
X15090000Y-4740000D02*
X15070000Y-4760000D01*
X15080000Y-5660000D02*
X15100000Y-5680000D01*
X15100000Y-5660000D02*
X15080000Y-5680000D01*
X15090000Y-6640000D02*
X15110000Y-6660000D01*
X15110000Y-6640000D02*
X15090000Y-6660000D01*
X15120000Y-8260000D02*
X15140000Y-8280000D01*
X15140000Y-8260000D02*
X15120000Y-8280000D01*
X15140000Y-3940000D02*
X15160000Y-3960000D01*
X15160000Y-3940000D02*
X15140000Y-3960000D01*
X15160000Y-4810000D02*
X15180000Y-4830000D01*
X15180000Y-4810000D02*
X15160000Y-4830000D01*
X15210000Y-4550000D02*
X15230000Y-4570000D01*
X15230000Y-4550000D02*
X15210000Y-4570000D01*
X15210000Y-6070000D02*
X15230000Y-6090000D01*
X15230000Y-6070000D02*
X15210000Y-6090000D01*
X15220000Y-4140000D02*
X15240000Y-4160000D01*
X15240000Y-4140000D02*
X15220000Y-4160000D01*
X15220000Y-4320000D02*
X15240000Y-4340000D01*
X15240000Y-4320000D02*
X15220000Y-4340000D01*
X15430000Y-4300000D02*
X15450000Y-4320000D01*
X15450000Y-4300000D02*
X15430000Y-4320000D01*
X15450000Y-7920000D02*
X15470000Y-7940000D01*
X15470000Y-7920000D02*
X15450000Y-7940000D01*
X15490000Y-4538000D02*
X15510000Y-4558000D01*
X15510000Y-4538000D02*
X15490000Y-4558000D01*
X15580000Y-7690000D02*
X15600000Y-7710000D01*
X15600000Y-7690000D02*
X15580000Y-7710000D01*
X15630000Y-5660000D02*
X15650000Y-5680000D01*
X15650000Y-5660000D02*
X15630000Y-5680000D01*
X15648750Y-7860000D02*
X15668750Y-7880000D01*
X15668750Y-7860000D02*
X15648750Y-7880000D01*
X15660000Y-8192340D02*
X15680000Y-8212340D01*
X15680000Y-8192340D02*
X15660000Y-8212340D01*
X15660000Y-8290000D02*
X15680000Y-8310000D01*
X15680000Y-8290000D02*
X15660000Y-8310000D01*
X15730000Y-5330000D02*
X15750000Y-5350000D01*
X15750000Y-5330000D02*
X15730000Y-5350000D01*
X15730000Y-5660000D02*
X15750000Y-5680000D01*
X15750000Y-5660000D02*
X15730000Y-5680000D01*
X15750000Y-7200000D02*
X15770000Y-7220000D01*
X15770000Y-7200000D02*
X15750000Y-7220000D01*
X15750000Y-7810000D02*
X15770000Y-7830000D01*
X15770000Y-7810000D02*
X15750000Y-7830000D01*
X15770000Y-7390000D02*
X15790000Y-7410000D01*
X15790000Y-7390000D02*
X15770000Y-7410000D01*
X15790000Y-7340000D02*
X15810000Y-7360000D01*
X15810000Y-7340000D02*
X15790000Y-7360000D01*
X15800000Y-7140000D02*
X15820000Y-7160000D01*
X15820000Y-7140000D02*
X15800000Y-7160000D01*
X15807340Y-7740000D02*
X15827340Y-7760000D01*
X15827340Y-7740000D02*
X15807340Y-7760000D01*
X15810000Y-7290000D02*
X15830000Y-7310000D01*
X15830000Y-7290000D02*
X15810000Y-7310000D01*
X15810000Y-7600000D02*
X15830000Y-7620000D01*
X15830000Y-7600000D02*
X15810000Y-7620000D01*
X15810000Y-8400000D02*
X15830000Y-8420000D01*
X15830000Y-8400000D02*
X15810000Y-8420000D01*
X15820000Y-7230000D02*
X15840000Y-7250000D01*
X15840000Y-7230000D02*
X15820000Y-7250000D01*
X15890000Y-8570000D02*
X15910000Y-8590000D01*
X15910000Y-8570000D02*
X15890000Y-8590000D01*
X15960000Y-5540000D02*
X15980000Y-5560000D01*
X15980000Y-5540000D02*
X15960000Y-5560000D01*
X16020000Y-8390000D02*
X16040000Y-8410000D01*
X16040000Y-8390000D02*
X16020000Y-8410000D01*
X16050000Y-5900000D02*
X16070000Y-5920000D01*
X16070000Y-5900000D02*
X16050000Y-5920000D01*
X16100000Y-6510000D02*
X16120000Y-6530000D01*
X16120000Y-6510000D02*
X16100000Y-6530000D01*
X16140000Y-7550000D02*
X16160000Y-7570000D01*
X16160000Y-7550000D02*
X16140000Y-7570000D01*
X16150000Y-7390000D02*
X16170000Y-7410000D01*
X16170000Y-7390000D02*
X16150000Y-7410000D01*
X16170000Y-7050000D02*
X16190000Y-7070000D01*
X16190000Y-7050000D02*
X16170000Y-7070000D01*
X16170000Y-7790000D02*
X16190000Y-7810000D01*
X16190000Y-7790000D02*
X16170000Y-7810000D01*
X16170000Y-8260000D02*
X16190000Y-8280000D01*
X16190000Y-8260000D02*
X16170000Y-8280000D01*
X16180000Y-5490000D02*
X16200000Y-5510000D01*
X16200000Y-5490000D02*
X16180000Y-5510000D01*
X16180000Y-6360000D02*
X16200000Y-6380000D01*
X16200000Y-6360000D02*
X16180000Y-6380000D01*
X16180000Y-7150000D02*
X16200000Y-7170000D01*
X16200000Y-7150000D02*
X16180000Y-7170000D01*
X16210000Y-6310000D02*
X16230000Y-6330000D01*
X16230000Y-6310000D02*
X16210000Y-6330000D01*
X16290000Y-8070000D02*
X16310000Y-8090000D01*
X16310000Y-8070000D02*
X16290000Y-8090000D01*
X16300000Y-6030000D02*
X16320000Y-6050000D01*
X16320000Y-6030000D02*
X16300000Y-6050000D01*
X16320000Y-7620000D02*
X16340000Y-7640000D01*
X16340000Y-7620000D02*
X16320000Y-7640000D01*
X16385000Y-6975000D02*
X16405000Y-6995000D01*
X16405000Y-6975000D02*
X16385000Y-6995000D01*
X16430000Y-5690000D02*
X16450000Y-5710000D01*
X16450000Y-5690000D02*
X16430000Y-5710000D01*
X16440000Y-6920000D02*
X16460000Y-6940000D01*
X16460000Y-6920000D02*
X16440000Y-6940000D01*
X16520000Y-7450000D02*
X16540000Y-7470000D01*
X16540000Y-7450000D02*
X16520000Y-7470000D01*
X16520000Y-7800000D02*
X16540000Y-7820000D01*
X16540000Y-7800000D02*
X16520000Y-7820000D01*
X16580000Y-6430000D02*
X16600000Y-6450000D01*
X16600000Y-6430000D02*
X16580000Y-6450000D01*
X16580000Y-7140000D02*
X16600000Y-7160000D01*
X16600000Y-7140000D02*
X16580000Y-7160000D01*
X16610000Y-7510000D02*
X16630000Y-7530000D01*
X16630000Y-7510000D02*
X16610000Y-7530000D01*
X16640000Y-6900000D02*
X16660000Y-6920000D01*
X16660000Y-6900000D02*
X16640000Y-6920000D01*
X16850000Y-6590000D02*
X16870000Y-6610000D01*
X16870000Y-6590000D02*
X16850000Y-6610000D01*
X17090000Y-7510000D02*
X17110000Y-7530000D01*
X17110000Y-7510000D02*
X17090000Y-7530000D01*
X17100000Y-7070000D02*
X17120000Y-7090000D01*
X17120000Y-7070000D02*
X17100000Y-7090000D01*
X17210000Y-6810000D02*
X17230000Y-6830000D01*
X17230000Y-6810000D02*
X17210000Y-6830000D01*
X17354880Y-6570000D02*
X17374880Y-6590000D01*
X17374880Y-6570000D02*
X17354880Y-6590000D01*
X17360000Y-7330000D02*
X17380000Y-7350000D01*
X17380000Y-7330000D02*
X17360000Y-7350000D01*
X17400000Y-6950000D02*
X17420000Y-6970000D01*
X17420000Y-6950000D02*
X17400000Y-6970000D01*
X17418480Y-7173591D02*
X17438480Y-7193591D01*
X17438480Y-7173591D02*
X17418480Y-7193591D01*
X17490120Y-7240121D02*
X17510120Y-7260121D01*
X17510120Y-7240121D02*
X17490120Y-7260121D01*
X17654999Y-7414999D02*
X17674999Y-7434999D01*
X17674999Y-7414999D02*
X17654999Y-7434999D01*
X17760000Y-3770000D02*
X17780000Y-3790000D01*
X17780000Y-3770000D02*
X17760000Y-3790000D01*
X17760000Y-3940000D02*
X17780000Y-3960000D01*
X17780000Y-3940000D02*
X17760000Y-3960000D01*
X17930000Y-3140000D02*
X17950000Y-3160000D01*
X17950000Y-3140000D02*
X17930000Y-3160000D01*
X17980000Y-6650000D02*
X18000000Y-6670000D01*
X18000000Y-6650000D02*
X17980000Y-6670000D01*
X17990000Y-7650000D02*
X18010000Y-7670000D01*
X18010000Y-7650000D02*
X17990000Y-7670000D01*
X18000000Y-7430000D02*
X18020000Y-7450000D01*
X18020000Y-7430000D02*
X18000000Y-7450000D01*
X18260000Y-6450000D02*
X18280000Y-6470000D01*
X18280000Y-6450000D02*
X18260000Y-6470000D01*
X18340000Y-9610000D02*
X18360000Y-9630000D01*
X18360000Y-9610000D02*
X18340000Y-9630000D01*
X18700000Y-6269999D02*
X18720000Y-6289999D01*
X18720000Y-6269999D02*
X18700000Y-6289999D01*
X13835000Y-3930000D02*
G75*
G02*
X13805000Y-3930000I-15000J0D01*
G01*
X13805000Y-3930000D02*
G75*
G02*
X13835000Y-3930000I15000J0D01*
G01*
X13835000Y-4170000D02*
G75*
G02*
X13805000Y-4170000I-15000J0D01*
G01*
X13805000Y-4170000D02*
G75*
G02*
X13835000Y-4170000I15000J0D01*
G01*
X13835000Y-4410000D02*
G75*
G02*
X13805000Y-4410000I-15000J0D01*
G01*
X13805000Y-4410000D02*
G75*
G02*
X13835000Y-4410000I15000J0D01*
G01*
X13835000Y-4560000D02*
G75*
G02*
X13805000Y-4560000I-15000J0D01*
G01*
X13805000Y-4560000D02*
G75*
G02*
X13835000Y-4560000I15000J0D01*
G01*
X14455000Y-3670000D02*
G75*
G02*
X14425000Y-3670000I-15000J0D01*
G01*
X14425000Y-3670000D02*
G75*
G02*
X14455000Y-3670000I15000J0D01*
G01*
X14905000Y-3690000D02*
G75*
G02*
X14875000Y-3690000I-15000J0D01*
G01*
X14875000Y-3690000D02*
G75*
G02*
X14905000Y-3690000I15000J0D01*
G01*
X17457400Y-5597600D02*
G75*
G02*
X17427400Y-5597600I-15000J0D01*
G01*
X17427400Y-5597600D02*
G75*
G02*
X17457400Y-5597600I15000J0D01*
G01*
X17462480Y-5003240D02*
G75*
G02*
X17432480Y-5003240I-15000J0D01*
G01*
X17432480Y-5003240D02*
G75*
G02*
X17462480Y-5003240I15000J0D01*
G01*
X17464779Y-4564900D02*
G75*
G02*
X17434779Y-4564900I-15000J0D01*
G01*
X17434779Y-4564900D02*
G75*
G02*
X17464779Y-4564900I15000J0D01*
G01*
X17574240Y-5094680D02*
G75*
G02*
X17544240Y-5094680I-15000J0D01*
G01*
X17544240Y-5094680D02*
G75*
G02*
X17574240Y-5094680I15000J0D01*
G01*
X17711400Y-4652720D02*
G75*
G02*
X17681400Y-4652720I-15000J0D01*
G01*
X17681400Y-4652720D02*
G75*
G02*
X17711400Y-4652720I15000J0D01*
G01*
X17813000Y-4520640D02*
G75*
G02*
X17783000Y-4520640I-15000J0D01*
G01*
X17783000Y-4520640D02*
G75*
G02*
X17813000Y-4520640I15000J0D01*
G01*
X18014540Y-4647640D02*
G75*
G02*
X17984540Y-4647640I-15000J0D01*
G01*
X17984540Y-4647640D02*
G75*
G02*
X18014540Y-4647640I15000J0D01*
G01*
X18021280Y-4977840D02*
G75*
G02*
X17991280Y-4977840I-15000J0D01*
G01*
X17991280Y-4977840D02*
G75*
G02*
X18021280Y-4977840I15000J0D01*
G01*
X18021280Y-5109920D02*
G75*
G02*
X17991280Y-5109920I-15000J0D01*
G01*
X17991280Y-5109920D02*
G75*
G02*
X18021280Y-5109920I15000J0D01*
G01*
X18204160Y-4972760D02*
G75*
G02*
X18174160Y-4972760I-15000J0D01*
G01*
X18174160Y-4972760D02*
G75*
G02*
X18204160Y-4972760I15000J0D01*
G01*
X18224480Y-4566360D02*
G75*
G02*
X18194480Y-4566360I-15000J0D01*
G01*
X18194480Y-4566360D02*
G75*
G02*
X18224480Y-4566360I15000J0D01*
G01*
X18234640Y-5597600D02*
G75*
G02*
X18204640Y-5597600I-15000J0D01*
G01*
X18204640Y-5597600D02*
G75*
G02*
X18234640Y-5597600I15000J0D01*
G01*
X18139500Y-6588000D02*
X18139500Y-6648000D01*
X18109500Y-6618000D02*
X18169500Y-6618000D01*
X18084500Y-6648000D02*
X18194500Y-6648000D01*
X18194500Y-6588000D02*
G75*
G02*
X18194500Y-6648000I0J-30000D01*
G01*
X18194500Y-6588000D02*
X18084500Y-6588000D01*
X18084500Y-6588000D02*
G75*
G03*
X18084500Y-6648000I0J-30000D01*
G01*
X18139500Y-7452000D02*
X18139500Y-7512000D01*
X18109500Y-7482000D02*
X18169500Y-7482000D01*
X18084500Y-7512000D02*
X18194500Y-7512000D01*
X18194500Y-7452000D02*
G75*
G02*
X18194500Y-7512000I0J-30000D01*
G01*
X18194500Y-7452000D02*
X18084500Y-7452000D01*
X18084500Y-7452000D02*
G75*
G03*
X18084500Y-7512000I0J-30000D01*
G01*
X18557500Y-6588000D02*
X18557500Y-6648000D01*
X18527500Y-6618000D02*
X18587500Y-6618000D01*
X18527500Y-6648000D02*
X18587500Y-6648000D01*
X18587500Y-6588000D02*
G75*
G02*
X18587500Y-6648000I0J-30000D01*
G01*
X18587500Y-6588000D02*
X18527500Y-6588000D01*
X18527500Y-6588000D02*
G75*
G03*
X18527500Y-6648000I0J-30000D01*
G01*
X18557500Y-7452000D02*
X18557500Y-7512000D01*
X18527500Y-7482000D02*
X18587500Y-7482000D01*
X18527500Y-7512000D02*
X18587500Y-7512000D01*
X18587500Y-7452000D02*
G75*
G02*
X18587500Y-7512000I0J-30000D01*
G01*
X18587500Y-7452000D02*
X18527500Y-7452000D01*
X18527500Y-7452000D02*
G75*
G03*
X18527500Y-7512000I0J-30000D01*
G01*
X11698967Y-3446467D02*
X11698967Y-3383533D01*
X11636033Y-3383533D01*
X11636033Y-3446467D01*
X11698967Y-3446467D01*
X11952967Y-3294467D02*
X11952967Y-3231533D01*
X11890033Y-3231533D01*
X11890033Y-3294467D01*
X11952967Y-3294467D01*
X12709967Y-3446467D02*
X12709967Y-3383533D01*
X12647033Y-3383533D01*
X12647033Y-3446467D01*
X12709967Y-3446467D01*
X12963967Y-3294467D02*
X12963967Y-3231533D01*
X12901033Y-3231533D01*
X12901033Y-3294467D01*
X12963967Y-3294467D01*
X11855500Y-4686000D02*
X11900500Y-4641000D01*
X11855500Y-4596000D01*
X11810500Y-4641000D01*
X11855500Y-4686000D01*
X11982500Y-4432000D02*
X12027500Y-4387000D01*
X11982500Y-4342000D01*
X11937500Y-4387000D01*
X11982500Y-4432000D01*
X12109500Y-4686000D02*
X12154500Y-4641000D01*
X12109500Y-4596000D01*
X12064500Y-4641000D01*
X12109500Y-4686000D01*
X12236500Y-4432000D02*
X12281500Y-4387000D01*
X12236500Y-4342000D01*
X12191500Y-4387000D01*
X12236500Y-4432000D01*
X12363500Y-4686000D02*
X12408500Y-4641000D01*
X12363500Y-4596000D01*
X12318500Y-4641000D01*
X12363500Y-4686000D01*
X12490500Y-4432000D02*
X12535500Y-4387000D01*
X12490500Y-4342000D01*
X12445500Y-4387000D01*
X12490500Y-4432000D01*
X12617500Y-4686000D02*
X12662500Y-4641000D01*
X12617500Y-4596000D01*
X12572500Y-4641000D01*
X12617500Y-4686000D01*
X12744500Y-4432000D02*
X12789500Y-4387000D01*
X12744500Y-4342000D01*
X12699500Y-4387000D01*
X12744500Y-4432000D01*
X18600000Y-8275000D02*
X18700000Y-8375000D01*
X18700000Y-8275000D02*
X18600000Y-8375000D01*
X18700000Y-8325000D02*
G75*
G02*
X18600000Y-8325000I-50000J0D01*
G01*
X18600000Y-8325000D02*
G75*
G02*
X18700000Y-8325000I50000J0D01*
G01*
X18600000Y-8529000D02*
X18700000Y-8629000D01*
X18700000Y-8529000D02*
X18600000Y-8629000D01*
X18700000Y-8579000D02*
G75*
G02*
X18600000Y-8579000I-50000J0D01*
G01*
X18600000Y-8579000D02*
G75*
G02*
X18700000Y-8579000I50000J0D01*
G01*
X18600000Y-8783000D02*
X18700000Y-8883000D01*
X18700000Y-8783000D02*
X18600000Y-8883000D01*
X18700000Y-8833000D02*
G75*
G02*
X18600000Y-8833000I-50000J0D01*
G01*
X18600000Y-8833000D02*
G75*
G02*
X18700000Y-8833000I50000J0D01*
G01*
D12*
X11442500Y-3978000D02*
X11602500Y-4138000D01*
X11602500Y-3978000D02*
X11442500Y-4138000D01*
X11522500Y-3978000D02*
X11522500Y-4138000D01*
X11442500Y-4058000D02*
X11602500Y-4058000D01*
X12997500Y-3978000D02*
X13157500Y-4138000D01*
X13157500Y-3978000D02*
X12997500Y-4138000D01*
X13077500Y-3978000D02*
X13077500Y-4138000D01*
X12997500Y-4058000D02*
X13157500Y-4058000D01*
D13*
X11100000Y-2980000D02*
X11320000Y-3200000D01*
X11320000Y-2980000D02*
X11100000Y-3200000D01*
X11287782Y-3167782D02*
X11287782Y-3012217D01*
X11132218Y-3012217D01*
X11132218Y-3167782D01*
X11287782Y-3167782D01*
X11100000Y-10380000D02*
X11320000Y-10600000D01*
X11320000Y-10380000D02*
X11100000Y-10600000D01*
X11287782Y-10567783D02*
X11287782Y-10412218D01*
X11132218Y-10412218D01*
X11132218Y-10567783D01*
X11287782Y-10567783D01*
X18510000Y-2980000D02*
X18730000Y-3200000D01*
X18730000Y-2980000D02*
X18510000Y-3200000D01*
X18697783Y-3167782D02*
X18697783Y-3012217D01*
X18542218Y-3012217D01*
X18542218Y-3167782D01*
X18697783Y-3167782D01*
X18510000Y-10380000D02*
X18730000Y-10600000D01*
X18730000Y-10380000D02*
X18510000Y-10600000D01*
X18697783Y-10567783D02*
X18697783Y-10412218D01*
X18542218Y-10412218D01*
X18542218Y-10567783D01*
X18697783Y-10567783D01*
D11*
X11175777Y-11086484D02*
X11175777Y-10886484D01*
X11175777Y-10886484D02*
X11223396Y-10886484D01*
X11223396Y-10886484D02*
X11251967Y-10896008D01*
X11251967Y-10896008D02*
X11271015Y-10915055D01*
X11271015Y-10915055D02*
X11280539Y-10934103D01*
X11280539Y-10934103D02*
X11290062Y-10972198D01*
X11290062Y-10972198D02*
X11290062Y-11000770D01*
X11290062Y-11000770D02*
X11280539Y-11038865D01*
X11280539Y-11038865D02*
X11271015Y-11057912D01*
X11271015Y-11057912D02*
X11251967Y-11076960D01*
X11251967Y-11076960D02*
X11223396Y-11086484D01*
X11223396Y-11086484D02*
X11175777Y-11086484D01*
X11375777Y-11086484D02*
X11375777Y-10953150D01*
X11375777Y-10991246D02*
X11385301Y-10972198D01*
X11385301Y-10972198D02*
X11394824Y-10962674D01*
X11394824Y-10962674D02*
X11413872Y-10953150D01*
X11413872Y-10953150D02*
X11432920Y-10953150D01*
X11499586Y-11086484D02*
X11499586Y-10953150D01*
X11499586Y-10886484D02*
X11490062Y-10896008D01*
X11490062Y-10896008D02*
X11499586Y-10905531D01*
X11499586Y-10905531D02*
X11509110Y-10896008D01*
X11509110Y-10896008D02*
X11499586Y-10886484D01*
X11499586Y-10886484D02*
X11499586Y-10905531D01*
X11623396Y-11086484D02*
X11604348Y-11076960D01*
X11604348Y-11076960D02*
X11594824Y-11057912D01*
X11594824Y-11057912D02*
X11594824Y-10886484D01*
X11728158Y-11086484D02*
X11709110Y-11076960D01*
X11709110Y-11076960D02*
X11699586Y-11057912D01*
X11699586Y-11057912D02*
X11699586Y-10886484D01*
X11956729Y-11086484D02*
X11956729Y-10886484D01*
X11956729Y-10886484D02*
X12023396Y-11029341D01*
X12023396Y-11029341D02*
X12090062Y-10886484D01*
X12090062Y-10886484D02*
X12090062Y-11086484D01*
X12271015Y-11086484D02*
X12271015Y-10981722D01*
X12271015Y-10981722D02*
X12261491Y-10962674D01*
X12261491Y-10962674D02*
X12242443Y-10953150D01*
X12242443Y-10953150D02*
X12204348Y-10953150D01*
X12204348Y-10953150D02*
X12185301Y-10962674D01*
X12271015Y-11076960D02*
X12251967Y-11086484D01*
X12251967Y-11086484D02*
X12204348Y-11086484D01*
X12204348Y-11086484D02*
X12185301Y-11076960D01*
X12185301Y-11076960D02*
X12175777Y-11057912D01*
X12175777Y-11057912D02*
X12175777Y-11038865D01*
X12175777Y-11038865D02*
X12185301Y-11019817D01*
X12185301Y-11019817D02*
X12204348Y-11010293D01*
X12204348Y-11010293D02*
X12251967Y-11010293D01*
X12251967Y-11010293D02*
X12271015Y-11000770D01*
X12366253Y-10953150D02*
X12366253Y-11153150D01*
X12366253Y-10962674D02*
X12385301Y-10953150D01*
X12385301Y-10953150D02*
X12423396Y-10953150D01*
X12423396Y-10953150D02*
X12442443Y-10962674D01*
X12442443Y-10962674D02*
X12451967Y-10972198D01*
X12451967Y-10972198D02*
X12461491Y-10991246D01*
X12461491Y-10991246D02*
X12461491Y-11048389D01*
X12461491Y-11048389D02*
X12451967Y-11067436D01*
X12451967Y-11067436D02*
X12442443Y-11076960D01*
X12442443Y-11076960D02*
X12423396Y-11086484D01*
X12423396Y-11086484D02*
X12385301Y-11086484D01*
X12385301Y-11086484D02*
X12366253Y-11076960D01*
X12547205Y-11067436D02*
X12556729Y-11076960D01*
X12556729Y-11076960D02*
X12547205Y-11086484D01*
X12547205Y-11086484D02*
X12537682Y-11076960D01*
X12537682Y-11076960D02*
X12547205Y-11067436D01*
X12547205Y-11067436D02*
X12547205Y-11086484D01*
X12547205Y-10962674D02*
X12556729Y-10972198D01*
X12556729Y-10972198D02*
X12547205Y-10981722D01*
X12547205Y-10981722D02*
X12537682Y-10972198D01*
X12537682Y-10972198D02*
X12547205Y-10962674D01*
X12547205Y-10962674D02*
X12547205Y-10981722D01*
D10*
X10895000Y-11405000D02*
X10915000Y-11425000D01*
X10915000Y-11405000D02*
X10895000Y-11425000D01*
D11*
X11213872Y-11306484D02*
X11232920Y-11306484D01*
X11232920Y-11306484D02*
X11251967Y-11316008D01*
X11251967Y-11316008D02*
X11261491Y-11325531D01*
X11261491Y-11325531D02*
X11271015Y-11344579D01*
X11271015Y-11344579D02*
X11280539Y-11382674D01*
X11280539Y-11382674D02*
X11280539Y-11430293D01*
X11280539Y-11430293D02*
X11271015Y-11468388D01*
X11271015Y-11468388D02*
X11261491Y-11487436D01*
X11261491Y-11487436D02*
X11251967Y-11496960D01*
X11251967Y-11496960D02*
X11232920Y-11506484D01*
X11232920Y-11506484D02*
X11213872Y-11506484D01*
X11213872Y-11506484D02*
X11194824Y-11496960D01*
X11194824Y-11496960D02*
X11185301Y-11487436D01*
X11185301Y-11487436D02*
X11175777Y-11468388D01*
X11175777Y-11468388D02*
X11166253Y-11430293D01*
X11166253Y-11430293D02*
X11166253Y-11382674D01*
X11166253Y-11382674D02*
X11175777Y-11344579D01*
X11175777Y-11344579D02*
X11185301Y-11325531D01*
X11185301Y-11325531D02*
X11194824Y-11316008D01*
X11194824Y-11316008D02*
X11213872Y-11306484D01*
X11366253Y-11487436D02*
X11375777Y-11496960D01*
X11375777Y-11496960D02*
X11366253Y-11506484D01*
X11366253Y-11506484D02*
X11356729Y-11496960D01*
X11356729Y-11496960D02*
X11366253Y-11487436D01*
X11366253Y-11487436D02*
X11366253Y-11506484D01*
X11451967Y-11325531D02*
X11461491Y-11316008D01*
X11461491Y-11316008D02*
X11480539Y-11306484D01*
X11480539Y-11306484D02*
X11528158Y-11306484D01*
X11528158Y-11306484D02*
X11547205Y-11316008D01*
X11547205Y-11316008D02*
X11556729Y-11325531D01*
X11556729Y-11325531D02*
X11566253Y-11344579D01*
X11566253Y-11344579D02*
X11566253Y-11363627D01*
X11566253Y-11363627D02*
X11556729Y-11392198D01*
X11556729Y-11392198D02*
X11442443Y-11506484D01*
X11442443Y-11506484D02*
X11566253Y-11506484D01*
X11690062Y-11306484D02*
X11709110Y-11306484D01*
X11709110Y-11306484D02*
X11728158Y-11316008D01*
X11728158Y-11316008D02*
X11737682Y-11325531D01*
X11737682Y-11325531D02*
X11747205Y-11344579D01*
X11747205Y-11344579D02*
X11756729Y-11382674D01*
X11756729Y-11382674D02*
X11756729Y-11430293D01*
X11756729Y-11430293D02*
X11747205Y-11468388D01*
X11747205Y-11468388D02*
X11737682Y-11487436D01*
X11737682Y-11487436D02*
X11728158Y-11496960D01*
X11728158Y-11496960D02*
X11709110Y-11506484D01*
X11709110Y-11506484D02*
X11690062Y-11506484D01*
X11690062Y-11506484D02*
X11671015Y-11496960D01*
X11671015Y-11496960D02*
X11661491Y-11487436D01*
X11661491Y-11487436D02*
X11651967Y-11468388D01*
X11651967Y-11468388D02*
X11642443Y-11430293D01*
X11642443Y-11430293D02*
X11642443Y-11382674D01*
X11642443Y-11382674D02*
X11651967Y-11344579D01*
X11651967Y-11344579D02*
X11661491Y-11325531D01*
X11661491Y-11325531D02*
X11671015Y-11316008D01*
X11671015Y-11316008D02*
X11690062Y-11306484D01*
X11880539Y-11306484D02*
X11899586Y-11306484D01*
X11899586Y-11306484D02*
X11918634Y-11316008D01*
X11918634Y-11316008D02*
X11928158Y-11325531D01*
X11928158Y-11325531D02*
X11937682Y-11344579D01*
X11937682Y-11344579D02*
X11947205Y-11382674D01*
X11947205Y-11382674D02*
X11947205Y-11430293D01*
X11947205Y-11430293D02*
X11937682Y-11468388D01*
X11937682Y-11468388D02*
X11928158Y-11487436D01*
X11928158Y-11487436D02*
X11918634Y-11496960D01*
X11918634Y-11496960D02*
X11899586Y-11506484D01*
X11899586Y-11506484D02*
X11880539Y-11506484D01*
X11880539Y-11506484D02*
X11861491Y-11496960D01*
X11861491Y-11496960D02*
X11851967Y-11487436D01*
X11851967Y-11487436D02*
X11842443Y-11468388D01*
X11842443Y-11468388D02*
X11832920Y-11430293D01*
X11832920Y-11430293D02*
X11832920Y-11382674D01*
X11832920Y-11382674D02*
X11842443Y-11344579D01*
X11842443Y-11344579D02*
X11851967Y-11325531D01*
X11851967Y-11325531D02*
X11861491Y-11316008D01*
X11861491Y-11316008D02*
X11880539Y-11306484D01*
X12032920Y-11506484D02*
X12032920Y-11373150D01*
X12032920Y-11392198D02*
X12042443Y-11382674D01*
X12042443Y-11382674D02*
X12061491Y-11373150D01*
X12061491Y-11373150D02*
X12090063Y-11373150D01*
X12090063Y-11373150D02*
X12109110Y-11382674D01*
X12109110Y-11382674D02*
X12118634Y-11401722D01*
X12118634Y-11401722D02*
X12118634Y-11506484D01*
X12118634Y-11401722D02*
X12128158Y-11382674D01*
X12128158Y-11382674D02*
X12147205Y-11373150D01*
X12147205Y-11373150D02*
X12175777Y-11373150D01*
X12175777Y-11373150D02*
X12194824Y-11382674D01*
X12194824Y-11382674D02*
X12204348Y-11401722D01*
X12204348Y-11401722D02*
X12204348Y-11506484D01*
X12299586Y-11506484D02*
X12299586Y-11373150D01*
X12299586Y-11392198D02*
X12309110Y-11382674D01*
X12309110Y-11382674D02*
X12328158Y-11373150D01*
X12328158Y-11373150D02*
X12356729Y-11373150D01*
X12356729Y-11373150D02*
X12375777Y-11382674D01*
X12375777Y-11382674D02*
X12385301Y-11401722D01*
X12385301Y-11401722D02*
X12385301Y-11506484D01*
X12385301Y-11401722D02*
X12394824Y-11382674D01*
X12394824Y-11382674D02*
X12413872Y-11373150D01*
X12413872Y-11373150D02*
X12442443Y-11373150D01*
X12442443Y-11373150D02*
X12461491Y-11382674D01*
X12461491Y-11382674D02*
X12471015Y-11401722D01*
X12471015Y-11401722D02*
X12471015Y-11506484D01*
X12861491Y-11296960D02*
X12690063Y-11554103D01*
X13118634Y-11306484D02*
X13137682Y-11306484D01*
X13137682Y-11306484D02*
X13156729Y-11316008D01*
X13156729Y-11316008D02*
X13166253Y-11325531D01*
X13166253Y-11325531D02*
X13175777Y-11344579D01*
X13175777Y-11344579D02*
X13185301Y-11382674D01*
X13185301Y-11382674D02*
X13185301Y-11430293D01*
X13185301Y-11430293D02*
X13175777Y-11468388D01*
X13175777Y-11468388D02*
X13166253Y-11487436D01*
X13166253Y-11487436D02*
X13156729Y-11496960D01*
X13156729Y-11496960D02*
X13137682Y-11506484D01*
X13137682Y-11506484D02*
X13118634Y-11506484D01*
X13118634Y-11506484D02*
X13099586Y-11496960D01*
X13099586Y-11496960D02*
X13090063Y-11487436D01*
X13090063Y-11487436D02*
X13080539Y-11468388D01*
X13080539Y-11468388D02*
X13071015Y-11430293D01*
X13071015Y-11430293D02*
X13071015Y-11382674D01*
X13071015Y-11382674D02*
X13080539Y-11344579D01*
X13080539Y-11344579D02*
X13090063Y-11325531D01*
X13090063Y-11325531D02*
X13099586Y-11316008D01*
X13099586Y-11316008D02*
X13118634Y-11306484D01*
X13271015Y-11487436D02*
X13280539Y-11496960D01*
X13280539Y-11496960D02*
X13271015Y-11506484D01*
X13271015Y-11506484D02*
X13261491Y-11496960D01*
X13261491Y-11496960D02*
X13271015Y-11487436D01*
X13271015Y-11487436D02*
X13271015Y-11506484D01*
X13404348Y-11306484D02*
X13423396Y-11306484D01*
X13423396Y-11306484D02*
X13442444Y-11316008D01*
X13442444Y-11316008D02*
X13451967Y-11325531D01*
X13451967Y-11325531D02*
X13461491Y-11344579D01*
X13461491Y-11344579D02*
X13471015Y-11382674D01*
X13471015Y-11382674D02*
X13471015Y-11430293D01*
X13471015Y-11430293D02*
X13461491Y-11468388D01*
X13461491Y-11468388D02*
X13451967Y-11487436D01*
X13451967Y-11487436D02*
X13442444Y-11496960D01*
X13442444Y-11496960D02*
X13423396Y-11506484D01*
X13423396Y-11506484D02*
X13404348Y-11506484D01*
X13404348Y-11506484D02*
X13385301Y-11496960D01*
X13385301Y-11496960D02*
X13375777Y-11487436D01*
X13375777Y-11487436D02*
X13366253Y-11468388D01*
X13366253Y-11468388D02*
X13356729Y-11430293D01*
X13356729Y-11430293D02*
X13356729Y-11382674D01*
X13356729Y-11382674D02*
X13366253Y-11344579D01*
X13366253Y-11344579D02*
X13375777Y-11325531D01*
X13375777Y-11325531D02*
X13385301Y-11316008D01*
X13385301Y-11316008D02*
X13404348Y-11306484D01*
X13594825Y-11306484D02*
X13613872Y-11306484D01*
X13613872Y-11306484D02*
X13632920Y-11316008D01*
X13632920Y-11316008D02*
X13642444Y-11325531D01*
X13642444Y-11325531D02*
X13651967Y-11344579D01*
X13651967Y-11344579D02*
X13661491Y-11382674D01*
X13661491Y-11382674D02*
X13661491Y-11430293D01*
X13661491Y-11430293D02*
X13651967Y-11468388D01*
X13651967Y-11468388D02*
X13642444Y-11487436D01*
X13642444Y-11487436D02*
X13632920Y-11496960D01*
X13632920Y-11496960D02*
X13613872Y-11506484D01*
X13613872Y-11506484D02*
X13594825Y-11506484D01*
X13594825Y-11506484D02*
X13575777Y-11496960D01*
X13575777Y-11496960D02*
X13566253Y-11487436D01*
X13566253Y-11487436D02*
X13556729Y-11468388D01*
X13556729Y-11468388D02*
X13547206Y-11430293D01*
X13547206Y-11430293D02*
X13547206Y-11382674D01*
X13547206Y-11382674D02*
X13556729Y-11344579D01*
X13556729Y-11344579D02*
X13566253Y-11325531D01*
X13566253Y-11325531D02*
X13575777Y-11316008D01*
X13575777Y-11316008D02*
X13594825Y-11306484D01*
X13728158Y-11306484D02*
X13861491Y-11306484D01*
X13861491Y-11306484D02*
X13775777Y-11506484D01*
X13947206Y-11506484D02*
X13985301Y-11506484D01*
X13985301Y-11506484D02*
X14004348Y-11496960D01*
X14004348Y-11496960D02*
X14013872Y-11487436D01*
X14013872Y-11487436D02*
X14032920Y-11458865D01*
X14032920Y-11458865D02*
X14042444Y-11420769D01*
X14042444Y-11420769D02*
X14042444Y-11344579D01*
X14042444Y-11344579D02*
X14032920Y-11325531D01*
X14032920Y-11325531D02*
X14023396Y-11316008D01*
X14023396Y-11316008D02*
X14004348Y-11306484D01*
X14004348Y-11306484D02*
X13966253Y-11306484D01*
X13966253Y-11306484D02*
X13947206Y-11316008D01*
X13947206Y-11316008D02*
X13937682Y-11325531D01*
X13937682Y-11325531D02*
X13928158Y-11344579D01*
X13928158Y-11344579D02*
X13928158Y-11392198D01*
X13928158Y-11392198D02*
X13937682Y-11411246D01*
X13937682Y-11411246D02*
X13947206Y-11420769D01*
X13947206Y-11420769D02*
X13966253Y-11430293D01*
X13966253Y-11430293D02*
X14004348Y-11430293D01*
X14004348Y-11430293D02*
X14023396Y-11420769D01*
X14023396Y-11420769D02*
X14032920Y-11411246D01*
X14032920Y-11411246D02*
X14042444Y-11392198D01*
X14118634Y-11306484D02*
X14118634Y-11344579D01*
X14194825Y-11306484D02*
X14194825Y-11344579D01*
X14490063Y-11582674D02*
X14480539Y-11573150D01*
X14480539Y-11573150D02*
X14461491Y-11544579D01*
X14461491Y-11544579D02*
X14451968Y-11525531D01*
X14451968Y-11525531D02*
X14442444Y-11496960D01*
X14442444Y-11496960D02*
X14432920Y-11449341D01*
X14432920Y-11449341D02*
X14432920Y-11411246D01*
X14432920Y-11411246D02*
X14442444Y-11363627D01*
X14442444Y-11363627D02*
X14451968Y-11335055D01*
X14451968Y-11335055D02*
X14461491Y-11316008D01*
X14461491Y-11316008D02*
X14480539Y-11287436D01*
X14480539Y-11287436D02*
X14490063Y-11277912D01*
X14556729Y-11325531D02*
X14566253Y-11316008D01*
X14566253Y-11316008D02*
X14585301Y-11306484D01*
X14585301Y-11306484D02*
X14632920Y-11306484D01*
X14632920Y-11306484D02*
X14651968Y-11316008D01*
X14651968Y-11316008D02*
X14661491Y-11325531D01*
X14661491Y-11325531D02*
X14671015Y-11344579D01*
X14671015Y-11344579D02*
X14671015Y-11363627D01*
X14671015Y-11363627D02*
X14661491Y-11392198D01*
X14661491Y-11392198D02*
X14547206Y-11506484D01*
X14547206Y-11506484D02*
X14671015Y-11506484D01*
X14861491Y-11506484D02*
X14747206Y-11506484D01*
X14804348Y-11506484D02*
X14804348Y-11306484D01*
X14804348Y-11306484D02*
X14785301Y-11335055D01*
X14785301Y-11335055D02*
X14766253Y-11354103D01*
X14766253Y-11354103D02*
X14747206Y-11363627D01*
X14928158Y-11306484D02*
X15051968Y-11306484D01*
X15051968Y-11306484D02*
X14985301Y-11382674D01*
X14985301Y-11382674D02*
X15013872Y-11382674D01*
X15013872Y-11382674D02*
X15032920Y-11392198D01*
X15032920Y-11392198D02*
X15042444Y-11401722D01*
X15042444Y-11401722D02*
X15051968Y-11420769D01*
X15051968Y-11420769D02*
X15051968Y-11468388D01*
X15051968Y-11468388D02*
X15042444Y-11487436D01*
X15042444Y-11487436D02*
X15032920Y-11496960D01*
X15032920Y-11496960D02*
X15013872Y-11506484D01*
X15013872Y-11506484D02*
X14956729Y-11506484D01*
X14956729Y-11506484D02*
X14937682Y-11496960D01*
X14937682Y-11496960D02*
X14928158Y-11487436D01*
X15290063Y-11506484D02*
X15290063Y-11306484D01*
X15375777Y-11506484D02*
X15375777Y-11401722D01*
X15375777Y-11401722D02*
X15366253Y-11382674D01*
X15366253Y-11382674D02*
X15347206Y-11373150D01*
X15347206Y-11373150D02*
X15318634Y-11373150D01*
X15318634Y-11373150D02*
X15299587Y-11382674D01*
X15299587Y-11382674D02*
X15290063Y-11392198D01*
X15499587Y-11506484D02*
X15480539Y-11496960D01*
X15480539Y-11496960D02*
X15471015Y-11487436D01*
X15471015Y-11487436D02*
X15461491Y-11468388D01*
X15461491Y-11468388D02*
X15461491Y-11411246D01*
X15461491Y-11411246D02*
X15471015Y-11392198D01*
X15471015Y-11392198D02*
X15480539Y-11382674D01*
X15480539Y-11382674D02*
X15499587Y-11373150D01*
X15499587Y-11373150D02*
X15528158Y-11373150D01*
X15528158Y-11373150D02*
X15547206Y-11382674D01*
X15547206Y-11382674D02*
X15556730Y-11392198D01*
X15556730Y-11392198D02*
X15566253Y-11411246D01*
X15566253Y-11411246D02*
X15566253Y-11468388D01*
X15566253Y-11468388D02*
X15556730Y-11487436D01*
X15556730Y-11487436D02*
X15547206Y-11496960D01*
X15547206Y-11496960D02*
X15528158Y-11506484D01*
X15528158Y-11506484D02*
X15499587Y-11506484D01*
X15680539Y-11506484D02*
X15661491Y-11496960D01*
X15661491Y-11496960D02*
X15651968Y-11477912D01*
X15651968Y-11477912D02*
X15651968Y-11306484D01*
X15832920Y-11496960D02*
X15813872Y-11506484D01*
X15813872Y-11506484D02*
X15775777Y-11506484D01*
X15775777Y-11506484D02*
X15756730Y-11496960D01*
X15756730Y-11496960D02*
X15747206Y-11477912D01*
X15747206Y-11477912D02*
X15747206Y-11401722D01*
X15747206Y-11401722D02*
X15756730Y-11382674D01*
X15756730Y-11382674D02*
X15775777Y-11373150D01*
X15775777Y-11373150D02*
X15813872Y-11373150D01*
X15813872Y-11373150D02*
X15832920Y-11382674D01*
X15832920Y-11382674D02*
X15842444Y-11401722D01*
X15842444Y-11401722D02*
X15842444Y-11420769D01*
X15842444Y-11420769D02*
X15747206Y-11439817D01*
X15918634Y-11496960D02*
X15937682Y-11506484D01*
X15937682Y-11506484D02*
X15975777Y-11506484D01*
X15975777Y-11506484D02*
X15994825Y-11496960D01*
X15994825Y-11496960D02*
X16004349Y-11477912D01*
X16004349Y-11477912D02*
X16004349Y-11468388D01*
X16004349Y-11468388D02*
X15994825Y-11449341D01*
X15994825Y-11449341D02*
X15975777Y-11439817D01*
X15975777Y-11439817D02*
X15947206Y-11439817D01*
X15947206Y-11439817D02*
X15928158Y-11430293D01*
X15928158Y-11430293D02*
X15918634Y-11411246D01*
X15918634Y-11411246D02*
X15918634Y-11401722D01*
X15918634Y-11401722D02*
X15928158Y-11382674D01*
X15928158Y-11382674D02*
X15947206Y-11373150D01*
X15947206Y-11373150D02*
X15975777Y-11373150D01*
X15975777Y-11373150D02*
X15994825Y-11382674D01*
X16071015Y-11582674D02*
X16080539Y-11573150D01*
X16080539Y-11573150D02*
X16099587Y-11544579D01*
X16099587Y-11544579D02*
X16109111Y-11525531D01*
X16109111Y-11525531D02*
X16118634Y-11496960D01*
X16118634Y-11496960D02*
X16128158Y-11449341D01*
X16128158Y-11449341D02*
X16128158Y-11411246D01*
X16128158Y-11411246D02*
X16118634Y-11363627D01*
X16118634Y-11363627D02*
X16109111Y-11335055D01*
X16109111Y-11335055D02*
X16099587Y-11316008D01*
X16099587Y-11316008D02*
X16080539Y-11287436D01*
X16080539Y-11287436D02*
X16071015Y-11277912D01*
D10*
X10915000Y-11679000D02*
G75*
G02*
X10885000Y-11679000I-15000J0D01*
G01*
X10885000Y-11679000D02*
G75*
G02*
X10915000Y-11679000I15000J0D01*
G01*
D11*
X11213872Y-11570484D02*
X11232920Y-11570484D01*
X11232920Y-11570484D02*
X11251967Y-11580008D01*
X11251967Y-11580008D02*
X11261491Y-11589531D01*
X11261491Y-11589531D02*
X11271015Y-11608579D01*
X11271015Y-11608579D02*
X11280539Y-11646674D01*
X11280539Y-11646674D02*
X11280539Y-11694293D01*
X11280539Y-11694293D02*
X11271015Y-11732388D01*
X11271015Y-11732388D02*
X11261491Y-11751436D01*
X11261491Y-11751436D02*
X11251967Y-11760960D01*
X11251967Y-11760960D02*
X11232920Y-11770484D01*
X11232920Y-11770484D02*
X11213872Y-11770484D01*
X11213872Y-11770484D02*
X11194824Y-11760960D01*
X11194824Y-11760960D02*
X11185301Y-11751436D01*
X11185301Y-11751436D02*
X11175777Y-11732388D01*
X11175777Y-11732388D02*
X11166253Y-11694293D01*
X11166253Y-11694293D02*
X11166253Y-11646674D01*
X11166253Y-11646674D02*
X11175777Y-11608579D01*
X11175777Y-11608579D02*
X11185301Y-11589531D01*
X11185301Y-11589531D02*
X11194824Y-11580008D01*
X11194824Y-11580008D02*
X11213872Y-11570484D01*
X11366253Y-11751436D02*
X11375777Y-11760960D01*
X11375777Y-11760960D02*
X11366253Y-11770484D01*
X11366253Y-11770484D02*
X11356729Y-11760960D01*
X11356729Y-11760960D02*
X11366253Y-11751436D01*
X11366253Y-11751436D02*
X11366253Y-11770484D01*
X11442443Y-11570484D02*
X11566253Y-11570484D01*
X11566253Y-11570484D02*
X11499586Y-11646674D01*
X11499586Y-11646674D02*
X11528158Y-11646674D01*
X11528158Y-11646674D02*
X11547205Y-11656198D01*
X11547205Y-11656198D02*
X11556729Y-11665722D01*
X11556729Y-11665722D02*
X11566253Y-11684769D01*
X11566253Y-11684769D02*
X11566253Y-11732388D01*
X11566253Y-11732388D02*
X11556729Y-11751436D01*
X11556729Y-11751436D02*
X11547205Y-11760960D01*
X11547205Y-11760960D02*
X11528158Y-11770484D01*
X11528158Y-11770484D02*
X11471015Y-11770484D01*
X11471015Y-11770484D02*
X11451967Y-11760960D01*
X11451967Y-11760960D02*
X11442443Y-11751436D01*
X11690062Y-11570484D02*
X11709110Y-11570484D01*
X11709110Y-11570484D02*
X11728158Y-11580008D01*
X11728158Y-11580008D02*
X11737682Y-11589531D01*
X11737682Y-11589531D02*
X11747205Y-11608579D01*
X11747205Y-11608579D02*
X11756729Y-11646674D01*
X11756729Y-11646674D02*
X11756729Y-11694293D01*
X11756729Y-11694293D02*
X11747205Y-11732388D01*
X11747205Y-11732388D02*
X11737682Y-11751436D01*
X11737682Y-11751436D02*
X11728158Y-11760960D01*
X11728158Y-11760960D02*
X11709110Y-11770484D01*
X11709110Y-11770484D02*
X11690062Y-11770484D01*
X11690062Y-11770484D02*
X11671015Y-11760960D01*
X11671015Y-11760960D02*
X11661491Y-11751436D01*
X11661491Y-11751436D02*
X11651967Y-11732388D01*
X11651967Y-11732388D02*
X11642443Y-11694293D01*
X11642443Y-11694293D02*
X11642443Y-11646674D01*
X11642443Y-11646674D02*
X11651967Y-11608579D01*
X11651967Y-11608579D02*
X11661491Y-11589531D01*
X11661491Y-11589531D02*
X11671015Y-11580008D01*
X11671015Y-11580008D02*
X11690062Y-11570484D01*
X11880539Y-11570484D02*
X11899586Y-11570484D01*
X11899586Y-11570484D02*
X11918634Y-11580008D01*
X11918634Y-11580008D02*
X11928158Y-11589531D01*
X11928158Y-11589531D02*
X11937682Y-11608579D01*
X11937682Y-11608579D02*
X11947205Y-11646674D01*
X11947205Y-11646674D02*
X11947205Y-11694293D01*
X11947205Y-11694293D02*
X11937682Y-11732388D01*
X11937682Y-11732388D02*
X11928158Y-11751436D01*
X11928158Y-11751436D02*
X11918634Y-11760960D01*
X11918634Y-11760960D02*
X11899586Y-11770484D01*
X11899586Y-11770484D02*
X11880539Y-11770484D01*
X11880539Y-11770484D02*
X11861491Y-11760960D01*
X11861491Y-11760960D02*
X11851967Y-11751436D01*
X11851967Y-11751436D02*
X11842443Y-11732388D01*
X11842443Y-11732388D02*
X11832920Y-11694293D01*
X11832920Y-11694293D02*
X11832920Y-11646674D01*
X11832920Y-11646674D02*
X11842443Y-11608579D01*
X11842443Y-11608579D02*
X11851967Y-11589531D01*
X11851967Y-11589531D02*
X11861491Y-11580008D01*
X11861491Y-11580008D02*
X11880539Y-11570484D01*
X12032920Y-11770484D02*
X12032920Y-11637150D01*
X12032920Y-11656198D02*
X12042443Y-11646674D01*
X12042443Y-11646674D02*
X12061491Y-11637150D01*
X12061491Y-11637150D02*
X12090063Y-11637150D01*
X12090063Y-11637150D02*
X12109110Y-11646674D01*
X12109110Y-11646674D02*
X12118634Y-11665722D01*
X12118634Y-11665722D02*
X12118634Y-11770484D01*
X12118634Y-11665722D02*
X12128158Y-11646674D01*
X12128158Y-11646674D02*
X12147205Y-11637150D01*
X12147205Y-11637150D02*
X12175777Y-11637150D01*
X12175777Y-11637150D02*
X12194824Y-11646674D01*
X12194824Y-11646674D02*
X12204348Y-11665722D01*
X12204348Y-11665722D02*
X12204348Y-11770484D01*
X12299586Y-11770484D02*
X12299586Y-11637150D01*
X12299586Y-11656198D02*
X12309110Y-11646674D01*
X12309110Y-11646674D02*
X12328158Y-11637150D01*
X12328158Y-11637150D02*
X12356729Y-11637150D01*
X12356729Y-11637150D02*
X12375777Y-11646674D01*
X12375777Y-11646674D02*
X12385301Y-11665722D01*
X12385301Y-11665722D02*
X12385301Y-11770484D01*
X12385301Y-11665722D02*
X12394824Y-11646674D01*
X12394824Y-11646674D02*
X12413872Y-11637150D01*
X12413872Y-11637150D02*
X12442443Y-11637150D01*
X12442443Y-11637150D02*
X12461491Y-11646674D01*
X12461491Y-11646674D02*
X12471015Y-11665722D01*
X12471015Y-11665722D02*
X12471015Y-11770484D01*
X12861491Y-11560960D02*
X12690063Y-11818103D01*
X13118634Y-11570484D02*
X13137682Y-11570484D01*
X13137682Y-11570484D02*
X13156729Y-11580008D01*
X13156729Y-11580008D02*
X13166253Y-11589531D01*
X13166253Y-11589531D02*
X13175777Y-11608579D01*
X13175777Y-11608579D02*
X13185301Y-11646674D01*
X13185301Y-11646674D02*
X13185301Y-11694293D01*
X13185301Y-11694293D02*
X13175777Y-11732388D01*
X13175777Y-11732388D02*
X13166253Y-11751436D01*
X13166253Y-11751436D02*
X13156729Y-11760960D01*
X13156729Y-11760960D02*
X13137682Y-11770484D01*
X13137682Y-11770484D02*
X13118634Y-11770484D01*
X13118634Y-11770484D02*
X13099586Y-11760960D01*
X13099586Y-11760960D02*
X13090063Y-11751436D01*
X13090063Y-11751436D02*
X13080539Y-11732388D01*
X13080539Y-11732388D02*
X13071015Y-11694293D01*
X13071015Y-11694293D02*
X13071015Y-11646674D01*
X13071015Y-11646674D02*
X13080539Y-11608579D01*
X13080539Y-11608579D02*
X13090063Y-11589531D01*
X13090063Y-11589531D02*
X13099586Y-11580008D01*
X13099586Y-11580008D02*
X13118634Y-11570484D01*
X13271015Y-11751436D02*
X13280539Y-11760960D01*
X13280539Y-11760960D02*
X13271015Y-11770484D01*
X13271015Y-11770484D02*
X13261491Y-11760960D01*
X13261491Y-11760960D02*
X13271015Y-11751436D01*
X13271015Y-11751436D02*
X13271015Y-11770484D01*
X13404348Y-11570484D02*
X13423396Y-11570484D01*
X13423396Y-11570484D02*
X13442444Y-11580008D01*
X13442444Y-11580008D02*
X13451967Y-11589531D01*
X13451967Y-11589531D02*
X13461491Y-11608579D01*
X13461491Y-11608579D02*
X13471015Y-11646674D01*
X13471015Y-11646674D02*
X13471015Y-11694293D01*
X13471015Y-11694293D02*
X13461491Y-11732388D01*
X13461491Y-11732388D02*
X13451967Y-11751436D01*
X13451967Y-11751436D02*
X13442444Y-11760960D01*
X13442444Y-11760960D02*
X13423396Y-11770484D01*
X13423396Y-11770484D02*
X13404348Y-11770484D01*
X13404348Y-11770484D02*
X13385301Y-11760960D01*
X13385301Y-11760960D02*
X13375777Y-11751436D01*
X13375777Y-11751436D02*
X13366253Y-11732388D01*
X13366253Y-11732388D02*
X13356729Y-11694293D01*
X13356729Y-11694293D02*
X13356729Y-11646674D01*
X13356729Y-11646674D02*
X13366253Y-11608579D01*
X13366253Y-11608579D02*
X13375777Y-11589531D01*
X13375777Y-11589531D02*
X13385301Y-11580008D01*
X13385301Y-11580008D02*
X13404348Y-11570484D01*
X13661491Y-11770484D02*
X13547206Y-11770484D01*
X13604348Y-11770484D02*
X13604348Y-11570484D01*
X13604348Y-11570484D02*
X13585301Y-11599055D01*
X13585301Y-11599055D02*
X13566253Y-11618103D01*
X13566253Y-11618103D02*
X13547206Y-11627627D01*
X13851967Y-11770484D02*
X13737682Y-11770484D01*
X13794825Y-11770484D02*
X13794825Y-11570484D01*
X13794825Y-11570484D02*
X13775777Y-11599055D01*
X13775777Y-11599055D02*
X13756729Y-11618103D01*
X13756729Y-11618103D02*
X13737682Y-11627627D01*
X13966253Y-11656198D02*
X13947206Y-11646674D01*
X13947206Y-11646674D02*
X13937682Y-11637150D01*
X13937682Y-11637150D02*
X13928158Y-11618103D01*
X13928158Y-11618103D02*
X13928158Y-11608579D01*
X13928158Y-11608579D02*
X13937682Y-11589531D01*
X13937682Y-11589531D02*
X13947206Y-11580008D01*
X13947206Y-11580008D02*
X13966253Y-11570484D01*
X13966253Y-11570484D02*
X14004348Y-11570484D01*
X14004348Y-11570484D02*
X14023396Y-11580008D01*
X14023396Y-11580008D02*
X14032920Y-11589531D01*
X14032920Y-11589531D02*
X14042444Y-11608579D01*
X14042444Y-11608579D02*
X14042444Y-11618103D01*
X14042444Y-11618103D02*
X14032920Y-11637150D01*
X14032920Y-11637150D02*
X14023396Y-11646674D01*
X14023396Y-11646674D02*
X14004348Y-11656198D01*
X14004348Y-11656198D02*
X13966253Y-11656198D01*
X13966253Y-11656198D02*
X13947206Y-11665722D01*
X13947206Y-11665722D02*
X13937682Y-11675246D01*
X13937682Y-11675246D02*
X13928158Y-11694293D01*
X13928158Y-11694293D02*
X13928158Y-11732388D01*
X13928158Y-11732388D02*
X13937682Y-11751436D01*
X13937682Y-11751436D02*
X13947206Y-11760960D01*
X13947206Y-11760960D02*
X13966253Y-11770484D01*
X13966253Y-11770484D02*
X14004348Y-11770484D01*
X14004348Y-11770484D02*
X14023396Y-11760960D01*
X14023396Y-11760960D02*
X14032920Y-11751436D01*
X14032920Y-11751436D02*
X14042444Y-11732388D01*
X14042444Y-11732388D02*
X14042444Y-11694293D01*
X14042444Y-11694293D02*
X14032920Y-11675246D01*
X14032920Y-11675246D02*
X14023396Y-11665722D01*
X14023396Y-11665722D02*
X14004348Y-11656198D01*
X14118634Y-11570484D02*
X14118634Y-11608579D01*
X14194825Y-11570484D02*
X14194825Y-11608579D01*
X14490063Y-11846674D02*
X14480539Y-11837150D01*
X14480539Y-11837150D02*
X14461491Y-11808579D01*
X14461491Y-11808579D02*
X14451968Y-11789531D01*
X14451968Y-11789531D02*
X14442444Y-11760960D01*
X14442444Y-11760960D02*
X14432920Y-11713341D01*
X14432920Y-11713341D02*
X14432920Y-11675246D01*
X14432920Y-11675246D02*
X14442444Y-11627627D01*
X14442444Y-11627627D02*
X14451968Y-11599055D01*
X14451968Y-11599055D02*
X14461491Y-11580008D01*
X14461491Y-11580008D02*
X14480539Y-11551436D01*
X14480539Y-11551436D02*
X14490063Y-11541912D01*
X14671015Y-11770484D02*
X14556729Y-11770484D01*
X14613872Y-11770484D02*
X14613872Y-11570484D01*
X14613872Y-11570484D02*
X14594825Y-11599055D01*
X14594825Y-11599055D02*
X14575777Y-11618103D01*
X14575777Y-11618103D02*
X14556729Y-11627627D01*
X14785301Y-11656198D02*
X14766253Y-11646674D01*
X14766253Y-11646674D02*
X14756729Y-11637150D01*
X14756729Y-11637150D02*
X14747206Y-11618103D01*
X14747206Y-11618103D02*
X14747206Y-11608579D01*
X14747206Y-11608579D02*
X14756729Y-11589531D01*
X14756729Y-11589531D02*
X14766253Y-11580008D01*
X14766253Y-11580008D02*
X14785301Y-11570484D01*
X14785301Y-11570484D02*
X14823396Y-11570484D01*
X14823396Y-11570484D02*
X14842444Y-11580008D01*
X14842444Y-11580008D02*
X14851968Y-11589531D01*
X14851968Y-11589531D02*
X14861491Y-11608579D01*
X14861491Y-11608579D02*
X14861491Y-11618103D01*
X14861491Y-11618103D02*
X14851968Y-11637150D01*
X14851968Y-11637150D02*
X14842444Y-11646674D01*
X14842444Y-11646674D02*
X14823396Y-11656198D01*
X14823396Y-11656198D02*
X14785301Y-11656198D01*
X14785301Y-11656198D02*
X14766253Y-11665722D01*
X14766253Y-11665722D02*
X14756729Y-11675246D01*
X14756729Y-11675246D02*
X14747206Y-11694293D01*
X14747206Y-11694293D02*
X14747206Y-11732388D01*
X14747206Y-11732388D02*
X14756729Y-11751436D01*
X14756729Y-11751436D02*
X14766253Y-11760960D01*
X14766253Y-11760960D02*
X14785301Y-11770484D01*
X14785301Y-11770484D02*
X14823396Y-11770484D01*
X14823396Y-11770484D02*
X14842444Y-11760960D01*
X14842444Y-11760960D02*
X14851968Y-11751436D01*
X14851968Y-11751436D02*
X14861491Y-11732388D01*
X14861491Y-11732388D02*
X14861491Y-11694293D01*
X14861491Y-11694293D02*
X14851968Y-11675246D01*
X14851968Y-11675246D02*
X14842444Y-11665722D01*
X14842444Y-11665722D02*
X14823396Y-11656198D01*
X15099587Y-11770484D02*
X15099587Y-11570484D01*
X15185301Y-11770484D02*
X15185301Y-11665722D01*
X15185301Y-11665722D02*
X15175777Y-11646674D01*
X15175777Y-11646674D02*
X15156730Y-11637150D01*
X15156730Y-11637150D02*
X15128158Y-11637150D01*
X15128158Y-11637150D02*
X15109110Y-11646674D01*
X15109110Y-11646674D02*
X15099587Y-11656198D01*
X15309110Y-11770484D02*
X15290063Y-11760960D01*
X15290063Y-11760960D02*
X15280539Y-11751436D01*
X15280539Y-11751436D02*
X15271015Y-11732388D01*
X15271015Y-11732388D02*
X15271015Y-11675246D01*
X15271015Y-11675246D02*
X15280539Y-11656198D01*
X15280539Y-11656198D02*
X15290063Y-11646674D01*
X15290063Y-11646674D02*
X15309110Y-11637150D01*
X15309110Y-11637150D02*
X15337682Y-11637150D01*
X15337682Y-11637150D02*
X15356730Y-11646674D01*
X15356730Y-11646674D02*
X15366253Y-11656198D01*
X15366253Y-11656198D02*
X15375777Y-11675246D01*
X15375777Y-11675246D02*
X15375777Y-11732388D01*
X15375777Y-11732388D02*
X15366253Y-11751436D01*
X15366253Y-11751436D02*
X15356730Y-11760960D01*
X15356730Y-11760960D02*
X15337682Y-11770484D01*
X15337682Y-11770484D02*
X15309110Y-11770484D01*
X15490063Y-11770484D02*
X15471015Y-11760960D01*
X15471015Y-11760960D02*
X15461491Y-11741912D01*
X15461491Y-11741912D02*
X15461491Y-11570484D01*
X15642444Y-11760960D02*
X15623396Y-11770484D01*
X15623396Y-11770484D02*
X15585301Y-11770484D01*
X15585301Y-11770484D02*
X15566253Y-11760960D01*
X15566253Y-11760960D02*
X15556730Y-11741912D01*
X15556730Y-11741912D02*
X15556730Y-11665722D01*
X15556730Y-11665722D02*
X15566253Y-11646674D01*
X15566253Y-11646674D02*
X15585301Y-11637150D01*
X15585301Y-11637150D02*
X15623396Y-11637150D01*
X15623396Y-11637150D02*
X15642444Y-11646674D01*
X15642444Y-11646674D02*
X15651968Y-11665722D01*
X15651968Y-11665722D02*
X15651968Y-11684769D01*
X15651968Y-11684769D02*
X15556730Y-11703817D01*
X15728158Y-11760960D02*
X15747206Y-11770484D01*
X15747206Y-11770484D02*
X15785301Y-11770484D01*
X15785301Y-11770484D02*
X15804349Y-11760960D01*
X15804349Y-11760960D02*
X15813872Y-11741912D01*
X15813872Y-11741912D02*
X15813872Y-11732388D01*
X15813872Y-11732388D02*
X15804349Y-11713341D01*
X15804349Y-11713341D02*
X15785301Y-11703817D01*
X15785301Y-11703817D02*
X15756730Y-11703817D01*
X15756730Y-11703817D02*
X15737682Y-11694293D01*
X15737682Y-11694293D02*
X15728158Y-11675246D01*
X15728158Y-11675246D02*
X15728158Y-11665722D01*
X15728158Y-11665722D02*
X15737682Y-11646674D01*
X15737682Y-11646674D02*
X15756730Y-11637150D01*
X15756730Y-11637150D02*
X15785301Y-11637150D01*
X15785301Y-11637150D02*
X15804349Y-11646674D01*
X15880539Y-11846674D02*
X15890063Y-11837150D01*
X15890063Y-11837150D02*
X15909111Y-11808579D01*
X15909111Y-11808579D02*
X15918634Y-11789531D01*
X15918634Y-11789531D02*
X15928158Y-11760960D01*
X15928158Y-11760960D02*
X15937682Y-11713341D01*
X15937682Y-11713341D02*
X15937682Y-11675246D01*
X15937682Y-11675246D02*
X15928158Y-11627627D01*
X15928158Y-11627627D02*
X15918634Y-11599055D01*
X15918634Y-11599055D02*
X15909111Y-11580008D01*
X15909111Y-11580008D02*
X15890063Y-11551436D01*
X15890063Y-11551436D02*
X15880539Y-11541912D01*
D10*
X10885000Y-11913000D02*
X10885000Y-11973000D01*
X10855000Y-11943000D02*
X10915000Y-11943000D01*
D11*
X11213872Y-11834484D02*
X11232920Y-11834484D01*
X11232920Y-11834484D02*
X11251967Y-11844008D01*
X11251967Y-11844008D02*
X11261491Y-11853531D01*
X11261491Y-11853531D02*
X11271015Y-11872579D01*
X11271015Y-11872579D02*
X11280539Y-11910674D01*
X11280539Y-11910674D02*
X11280539Y-11958293D01*
X11280539Y-11958293D02*
X11271015Y-11996388D01*
X11271015Y-11996388D02*
X11261491Y-12015436D01*
X11261491Y-12015436D02*
X11251967Y-12024960D01*
X11251967Y-12024960D02*
X11232920Y-12034484D01*
X11232920Y-12034484D02*
X11213872Y-12034484D01*
X11213872Y-12034484D02*
X11194824Y-12024960D01*
X11194824Y-12024960D02*
X11185301Y-12015436D01*
X11185301Y-12015436D02*
X11175777Y-11996388D01*
X11175777Y-11996388D02*
X11166253Y-11958293D01*
X11166253Y-11958293D02*
X11166253Y-11910674D01*
X11166253Y-11910674D02*
X11175777Y-11872579D01*
X11175777Y-11872579D02*
X11185301Y-11853531D01*
X11185301Y-11853531D02*
X11194824Y-11844008D01*
X11194824Y-11844008D02*
X11213872Y-11834484D01*
X11366253Y-12015436D02*
X11375777Y-12024960D01*
X11375777Y-12024960D02*
X11366253Y-12034484D01*
X11366253Y-12034484D02*
X11356729Y-12024960D01*
X11356729Y-12024960D02*
X11366253Y-12015436D01*
X11366253Y-12015436D02*
X11366253Y-12034484D01*
X11547205Y-11834484D02*
X11509110Y-11834484D01*
X11509110Y-11834484D02*
X11490062Y-11844008D01*
X11490062Y-11844008D02*
X11480539Y-11853531D01*
X11480539Y-11853531D02*
X11461491Y-11882103D01*
X11461491Y-11882103D02*
X11451967Y-11920198D01*
X11451967Y-11920198D02*
X11451967Y-11996388D01*
X11451967Y-11996388D02*
X11461491Y-12015436D01*
X11461491Y-12015436D02*
X11471015Y-12024960D01*
X11471015Y-12024960D02*
X11490062Y-12034484D01*
X11490062Y-12034484D02*
X11528158Y-12034484D01*
X11528158Y-12034484D02*
X11547205Y-12024960D01*
X11547205Y-12024960D02*
X11556729Y-12015436D01*
X11556729Y-12015436D02*
X11566253Y-11996388D01*
X11566253Y-11996388D02*
X11566253Y-11948769D01*
X11566253Y-11948769D02*
X11556729Y-11929722D01*
X11556729Y-11929722D02*
X11547205Y-11920198D01*
X11547205Y-11920198D02*
X11528158Y-11910674D01*
X11528158Y-11910674D02*
X11490062Y-11910674D01*
X11490062Y-11910674D02*
X11471015Y-11920198D01*
X11471015Y-11920198D02*
X11461491Y-11929722D01*
X11461491Y-11929722D02*
X11451967Y-11948769D01*
X11690062Y-11834484D02*
X11709110Y-11834484D01*
X11709110Y-11834484D02*
X11728158Y-11844008D01*
X11728158Y-11844008D02*
X11737682Y-11853531D01*
X11737682Y-11853531D02*
X11747205Y-11872579D01*
X11747205Y-11872579D02*
X11756729Y-11910674D01*
X11756729Y-11910674D02*
X11756729Y-11958293D01*
X11756729Y-11958293D02*
X11747205Y-11996388D01*
X11747205Y-11996388D02*
X11737682Y-12015436D01*
X11737682Y-12015436D02*
X11728158Y-12024960D01*
X11728158Y-12024960D02*
X11709110Y-12034484D01*
X11709110Y-12034484D02*
X11690062Y-12034484D01*
X11690062Y-12034484D02*
X11671015Y-12024960D01*
X11671015Y-12024960D02*
X11661491Y-12015436D01*
X11661491Y-12015436D02*
X11651967Y-11996388D01*
X11651967Y-11996388D02*
X11642443Y-11958293D01*
X11642443Y-11958293D02*
X11642443Y-11910674D01*
X11642443Y-11910674D02*
X11651967Y-11872579D01*
X11651967Y-11872579D02*
X11661491Y-11853531D01*
X11661491Y-11853531D02*
X11671015Y-11844008D01*
X11671015Y-11844008D02*
X11690062Y-11834484D01*
X11880539Y-11834484D02*
X11899586Y-11834484D01*
X11899586Y-11834484D02*
X11918634Y-11844008D01*
X11918634Y-11844008D02*
X11928158Y-11853531D01*
X11928158Y-11853531D02*
X11937682Y-11872579D01*
X11937682Y-11872579D02*
X11947205Y-11910674D01*
X11947205Y-11910674D02*
X11947205Y-11958293D01*
X11947205Y-11958293D02*
X11937682Y-11996388D01*
X11937682Y-11996388D02*
X11928158Y-12015436D01*
X11928158Y-12015436D02*
X11918634Y-12024960D01*
X11918634Y-12024960D02*
X11899586Y-12034484D01*
X11899586Y-12034484D02*
X11880539Y-12034484D01*
X11880539Y-12034484D02*
X11861491Y-12024960D01*
X11861491Y-12024960D02*
X11851967Y-12015436D01*
X11851967Y-12015436D02*
X11842443Y-11996388D01*
X11842443Y-11996388D02*
X11832920Y-11958293D01*
X11832920Y-11958293D02*
X11832920Y-11910674D01*
X11832920Y-11910674D02*
X11842443Y-11872579D01*
X11842443Y-11872579D02*
X11851967Y-11853531D01*
X11851967Y-11853531D02*
X11861491Y-11844008D01*
X11861491Y-11844008D02*
X11880539Y-11834484D01*
X12032920Y-12034484D02*
X12032920Y-11901150D01*
X12032920Y-11920198D02*
X12042443Y-11910674D01*
X12042443Y-11910674D02*
X12061491Y-11901150D01*
X12061491Y-11901150D02*
X12090063Y-11901150D01*
X12090063Y-11901150D02*
X12109110Y-11910674D01*
X12109110Y-11910674D02*
X12118634Y-11929722D01*
X12118634Y-11929722D02*
X12118634Y-12034484D01*
X12118634Y-11929722D02*
X12128158Y-11910674D01*
X12128158Y-11910674D02*
X12147205Y-11901150D01*
X12147205Y-11901150D02*
X12175777Y-11901150D01*
X12175777Y-11901150D02*
X12194824Y-11910674D01*
X12194824Y-11910674D02*
X12204348Y-11929722D01*
X12204348Y-11929722D02*
X12204348Y-12034484D01*
X12299586Y-12034484D02*
X12299586Y-11901150D01*
X12299586Y-11920198D02*
X12309110Y-11910674D01*
X12309110Y-11910674D02*
X12328158Y-11901150D01*
X12328158Y-11901150D02*
X12356729Y-11901150D01*
X12356729Y-11901150D02*
X12375777Y-11910674D01*
X12375777Y-11910674D02*
X12385301Y-11929722D01*
X12385301Y-11929722D02*
X12385301Y-12034484D01*
X12385301Y-11929722D02*
X12394824Y-11910674D01*
X12394824Y-11910674D02*
X12413872Y-11901150D01*
X12413872Y-11901150D02*
X12442443Y-11901150D01*
X12442443Y-11901150D02*
X12461491Y-11910674D01*
X12461491Y-11910674D02*
X12471015Y-11929722D01*
X12471015Y-11929722D02*
X12471015Y-12034484D01*
X12861491Y-11824960D02*
X12690063Y-12082103D01*
X13118634Y-11834484D02*
X13137682Y-11834484D01*
X13137682Y-11834484D02*
X13156729Y-11844008D01*
X13156729Y-11844008D02*
X13166253Y-11853531D01*
X13166253Y-11853531D02*
X13175777Y-11872579D01*
X13175777Y-11872579D02*
X13185301Y-11910674D01*
X13185301Y-11910674D02*
X13185301Y-11958293D01*
X13185301Y-11958293D02*
X13175777Y-11996388D01*
X13175777Y-11996388D02*
X13166253Y-12015436D01*
X13166253Y-12015436D02*
X13156729Y-12024960D01*
X13156729Y-12024960D02*
X13137682Y-12034484D01*
X13137682Y-12034484D02*
X13118634Y-12034484D01*
X13118634Y-12034484D02*
X13099586Y-12024960D01*
X13099586Y-12024960D02*
X13090063Y-12015436D01*
X13090063Y-12015436D02*
X13080539Y-11996388D01*
X13080539Y-11996388D02*
X13071015Y-11958293D01*
X13071015Y-11958293D02*
X13071015Y-11910674D01*
X13071015Y-11910674D02*
X13080539Y-11872579D01*
X13080539Y-11872579D02*
X13090063Y-11853531D01*
X13090063Y-11853531D02*
X13099586Y-11844008D01*
X13099586Y-11844008D02*
X13118634Y-11834484D01*
X13271015Y-12015436D02*
X13280539Y-12024960D01*
X13280539Y-12024960D02*
X13271015Y-12034484D01*
X13271015Y-12034484D02*
X13261491Y-12024960D01*
X13261491Y-12024960D02*
X13271015Y-12015436D01*
X13271015Y-12015436D02*
X13271015Y-12034484D01*
X13404348Y-11834484D02*
X13423396Y-11834484D01*
X13423396Y-11834484D02*
X13442444Y-11844008D01*
X13442444Y-11844008D02*
X13451967Y-11853531D01*
X13451967Y-11853531D02*
X13461491Y-11872579D01*
X13461491Y-11872579D02*
X13471015Y-11910674D01*
X13471015Y-11910674D02*
X13471015Y-11958293D01*
X13471015Y-11958293D02*
X13461491Y-11996388D01*
X13461491Y-11996388D02*
X13451967Y-12015436D01*
X13451967Y-12015436D02*
X13442444Y-12024960D01*
X13442444Y-12024960D02*
X13423396Y-12034484D01*
X13423396Y-12034484D02*
X13404348Y-12034484D01*
X13404348Y-12034484D02*
X13385301Y-12024960D01*
X13385301Y-12024960D02*
X13375777Y-12015436D01*
X13375777Y-12015436D02*
X13366253Y-11996388D01*
X13366253Y-11996388D02*
X13356729Y-11958293D01*
X13356729Y-11958293D02*
X13356729Y-11910674D01*
X13356729Y-11910674D02*
X13366253Y-11872579D01*
X13366253Y-11872579D02*
X13375777Y-11853531D01*
X13375777Y-11853531D02*
X13385301Y-11844008D01*
X13385301Y-11844008D02*
X13404348Y-11834484D01*
X13547206Y-11853531D02*
X13556729Y-11844008D01*
X13556729Y-11844008D02*
X13575777Y-11834484D01*
X13575777Y-11834484D02*
X13623396Y-11834484D01*
X13623396Y-11834484D02*
X13642444Y-11844008D01*
X13642444Y-11844008D02*
X13651967Y-11853531D01*
X13651967Y-11853531D02*
X13661491Y-11872579D01*
X13661491Y-11872579D02*
X13661491Y-11891627D01*
X13661491Y-11891627D02*
X13651967Y-11920198D01*
X13651967Y-11920198D02*
X13537682Y-12034484D01*
X13537682Y-12034484D02*
X13661491Y-12034484D01*
X13728158Y-11834484D02*
X13851967Y-11834484D01*
X13851967Y-11834484D02*
X13785301Y-11910674D01*
X13785301Y-11910674D02*
X13813872Y-11910674D01*
X13813872Y-11910674D02*
X13832920Y-11920198D01*
X13832920Y-11920198D02*
X13842444Y-11929722D01*
X13842444Y-11929722D02*
X13851967Y-11948769D01*
X13851967Y-11948769D02*
X13851967Y-11996388D01*
X13851967Y-11996388D02*
X13842444Y-12015436D01*
X13842444Y-12015436D02*
X13832920Y-12024960D01*
X13832920Y-12024960D02*
X13813872Y-12034484D01*
X13813872Y-12034484D02*
X13756729Y-12034484D01*
X13756729Y-12034484D02*
X13737682Y-12024960D01*
X13737682Y-12024960D02*
X13728158Y-12015436D01*
X14023396Y-11834484D02*
X13985301Y-11834484D01*
X13985301Y-11834484D02*
X13966253Y-11844008D01*
X13966253Y-11844008D02*
X13956729Y-11853531D01*
X13956729Y-11853531D02*
X13937682Y-11882103D01*
X13937682Y-11882103D02*
X13928158Y-11920198D01*
X13928158Y-11920198D02*
X13928158Y-11996388D01*
X13928158Y-11996388D02*
X13937682Y-12015436D01*
X13937682Y-12015436D02*
X13947206Y-12024960D01*
X13947206Y-12024960D02*
X13966253Y-12034484D01*
X13966253Y-12034484D02*
X14004348Y-12034484D01*
X14004348Y-12034484D02*
X14023396Y-12024960D01*
X14023396Y-12024960D02*
X14032920Y-12015436D01*
X14032920Y-12015436D02*
X14042444Y-11996388D01*
X14042444Y-11996388D02*
X14042444Y-11948769D01*
X14042444Y-11948769D02*
X14032920Y-11929722D01*
X14032920Y-11929722D02*
X14023396Y-11920198D01*
X14023396Y-11920198D02*
X14004348Y-11910674D01*
X14004348Y-11910674D02*
X13966253Y-11910674D01*
X13966253Y-11910674D02*
X13947206Y-11920198D01*
X13947206Y-11920198D02*
X13937682Y-11929722D01*
X13937682Y-11929722D02*
X13928158Y-11948769D01*
X14118634Y-11834484D02*
X14118634Y-11872579D01*
X14194825Y-11834484D02*
X14194825Y-11872579D01*
X14490063Y-12110674D02*
X14480539Y-12101150D01*
X14480539Y-12101150D02*
X14461491Y-12072579D01*
X14461491Y-12072579D02*
X14451968Y-12053531D01*
X14451968Y-12053531D02*
X14442444Y-12024960D01*
X14442444Y-12024960D02*
X14432920Y-11977341D01*
X14432920Y-11977341D02*
X14432920Y-11939246D01*
X14432920Y-11939246D02*
X14442444Y-11891627D01*
X14442444Y-11891627D02*
X14451968Y-11863055D01*
X14451968Y-11863055D02*
X14461491Y-11844008D01*
X14461491Y-11844008D02*
X14480539Y-11815436D01*
X14480539Y-11815436D02*
X14490063Y-11805912D01*
X14604348Y-11834484D02*
X14623396Y-11834484D01*
X14623396Y-11834484D02*
X14642444Y-11844008D01*
X14642444Y-11844008D02*
X14651968Y-11853531D01*
X14651968Y-11853531D02*
X14661491Y-11872579D01*
X14661491Y-11872579D02*
X14671015Y-11910674D01*
X14671015Y-11910674D02*
X14671015Y-11958293D01*
X14671015Y-11958293D02*
X14661491Y-11996388D01*
X14661491Y-11996388D02*
X14651968Y-12015436D01*
X14651968Y-12015436D02*
X14642444Y-12024960D01*
X14642444Y-12024960D02*
X14623396Y-12034484D01*
X14623396Y-12034484D02*
X14604348Y-12034484D01*
X14604348Y-12034484D02*
X14585301Y-12024960D01*
X14585301Y-12024960D02*
X14575777Y-12015436D01*
X14575777Y-12015436D02*
X14566253Y-11996388D01*
X14566253Y-11996388D02*
X14556729Y-11958293D01*
X14556729Y-11958293D02*
X14556729Y-11910674D01*
X14556729Y-11910674D02*
X14566253Y-11872579D01*
X14566253Y-11872579D02*
X14575777Y-11853531D01*
X14575777Y-11853531D02*
X14585301Y-11844008D01*
X14585301Y-11844008D02*
X14604348Y-11834484D01*
X14909110Y-12034484D02*
X14909110Y-11834484D01*
X14994825Y-12034484D02*
X14994825Y-11929722D01*
X14994825Y-11929722D02*
X14985301Y-11910674D01*
X14985301Y-11910674D02*
X14966253Y-11901150D01*
X14966253Y-11901150D02*
X14937682Y-11901150D01*
X14937682Y-11901150D02*
X14918634Y-11910674D01*
X14918634Y-11910674D02*
X14909110Y-11920198D01*
X15118634Y-12034484D02*
X15099587Y-12024960D01*
X15099587Y-12024960D02*
X15090063Y-12015436D01*
X15090063Y-12015436D02*
X15080539Y-11996388D01*
X15080539Y-11996388D02*
X15080539Y-11939246D01*
X15080539Y-11939246D02*
X15090063Y-11920198D01*
X15090063Y-11920198D02*
X15099587Y-11910674D01*
X15099587Y-11910674D02*
X15118634Y-11901150D01*
X15118634Y-11901150D02*
X15147206Y-11901150D01*
X15147206Y-11901150D02*
X15166253Y-11910674D01*
X15166253Y-11910674D02*
X15175777Y-11920198D01*
X15175777Y-11920198D02*
X15185301Y-11939246D01*
X15185301Y-11939246D02*
X15185301Y-11996388D01*
X15185301Y-11996388D02*
X15175777Y-12015436D01*
X15175777Y-12015436D02*
X15166253Y-12024960D01*
X15166253Y-12024960D02*
X15147206Y-12034484D01*
X15147206Y-12034484D02*
X15118634Y-12034484D01*
X15299587Y-12034484D02*
X15280539Y-12024960D01*
X15280539Y-12024960D02*
X15271015Y-12005912D01*
X15271015Y-12005912D02*
X15271015Y-11834484D01*
X15451968Y-12024960D02*
X15432920Y-12034484D01*
X15432920Y-12034484D02*
X15394825Y-12034484D01*
X15394825Y-12034484D02*
X15375777Y-12024960D01*
X15375777Y-12024960D02*
X15366253Y-12005912D01*
X15366253Y-12005912D02*
X15366253Y-11929722D01*
X15366253Y-11929722D02*
X15375777Y-11910674D01*
X15375777Y-11910674D02*
X15394825Y-11901150D01*
X15394825Y-11901150D02*
X15432920Y-11901150D01*
X15432920Y-11901150D02*
X15451968Y-11910674D01*
X15451968Y-11910674D02*
X15461491Y-11929722D01*
X15461491Y-11929722D02*
X15461491Y-11948769D01*
X15461491Y-11948769D02*
X15366253Y-11967817D01*
X15537682Y-12024960D02*
X15556730Y-12034484D01*
X15556730Y-12034484D02*
X15594825Y-12034484D01*
X15594825Y-12034484D02*
X15613872Y-12024960D01*
X15613872Y-12024960D02*
X15623396Y-12005912D01*
X15623396Y-12005912D02*
X15623396Y-11996388D01*
X15623396Y-11996388D02*
X15613872Y-11977341D01*
X15613872Y-11977341D02*
X15594825Y-11967817D01*
X15594825Y-11967817D02*
X15566253Y-11967817D01*
X15566253Y-11967817D02*
X15547206Y-11958293D01*
X15547206Y-11958293D02*
X15537682Y-11939246D01*
X15537682Y-11939246D02*
X15537682Y-11929722D01*
X15537682Y-11929722D02*
X15547206Y-11910674D01*
X15547206Y-11910674D02*
X15566253Y-11901150D01*
X15566253Y-11901150D02*
X15594825Y-11901150D01*
X15594825Y-11901150D02*
X15613872Y-11910674D01*
X15861492Y-11958293D02*
X16013873Y-11958293D01*
X15937682Y-12034484D02*
X15937682Y-11882103D01*
X16347206Y-11901150D02*
X16347206Y-12034484D01*
X16299587Y-11824960D02*
X16251968Y-11967817D01*
X16251968Y-11967817D02*
X16375777Y-11967817D01*
X16594825Y-12024960D02*
X16613873Y-12034484D01*
X16613873Y-12034484D02*
X16651968Y-12034484D01*
X16651968Y-12034484D02*
X16671015Y-12024960D01*
X16671015Y-12024960D02*
X16680539Y-12005912D01*
X16680539Y-12005912D02*
X16680539Y-11996388D01*
X16680539Y-11996388D02*
X16671015Y-11977341D01*
X16671015Y-11977341D02*
X16651968Y-11967817D01*
X16651968Y-11967817D02*
X16623396Y-11967817D01*
X16623396Y-11967817D02*
X16604349Y-11958293D01*
X16604349Y-11958293D02*
X16594825Y-11939246D01*
X16594825Y-11939246D02*
X16594825Y-11929722D01*
X16594825Y-11929722D02*
X16604349Y-11910674D01*
X16604349Y-11910674D02*
X16623396Y-11901150D01*
X16623396Y-11901150D02*
X16651968Y-11901150D01*
X16651968Y-11901150D02*
X16671015Y-11910674D01*
X16794825Y-12034484D02*
X16775777Y-12024960D01*
X16775777Y-12024960D02*
X16766254Y-12005912D01*
X16766254Y-12005912D02*
X16766254Y-11834484D01*
X16899587Y-12034484D02*
X16880539Y-12024960D01*
X16880539Y-12024960D02*
X16871016Y-12015436D01*
X16871016Y-12015436D02*
X16861492Y-11996388D01*
X16861492Y-11996388D02*
X16861492Y-11939246D01*
X16861492Y-11939246D02*
X16871016Y-11920198D01*
X16871016Y-11920198D02*
X16880539Y-11910674D01*
X16880539Y-11910674D02*
X16899587Y-11901150D01*
X16899587Y-11901150D02*
X16928158Y-11901150D01*
X16928158Y-11901150D02*
X16947206Y-11910674D01*
X16947206Y-11910674D02*
X16956730Y-11920198D01*
X16956730Y-11920198D02*
X16966254Y-11939246D01*
X16966254Y-11939246D02*
X16966254Y-11996388D01*
X16966254Y-11996388D02*
X16956730Y-12015436D01*
X16956730Y-12015436D02*
X16947206Y-12024960D01*
X16947206Y-12024960D02*
X16928158Y-12034484D01*
X16928158Y-12034484D02*
X16899587Y-12034484D01*
X17023397Y-11901150D02*
X17099587Y-11901150D01*
X17051968Y-11834484D02*
X17051968Y-12005912D01*
X17051968Y-12005912D02*
X17061492Y-12024960D01*
X17061492Y-12024960D02*
X17080539Y-12034484D01*
X17080539Y-12034484D02*
X17099587Y-12034484D01*
X17156730Y-12024960D02*
X17175777Y-12034484D01*
X17175777Y-12034484D02*
X17213873Y-12034484D01*
X17213873Y-12034484D02*
X17232920Y-12024960D01*
X17232920Y-12024960D02*
X17242444Y-12005912D01*
X17242444Y-12005912D02*
X17242444Y-11996388D01*
X17242444Y-11996388D02*
X17232920Y-11977341D01*
X17232920Y-11977341D02*
X17213873Y-11967817D01*
X17213873Y-11967817D02*
X17185301Y-11967817D01*
X17185301Y-11967817D02*
X17166254Y-11958293D01*
X17166254Y-11958293D02*
X17156730Y-11939246D01*
X17156730Y-11939246D02*
X17156730Y-11929722D01*
X17156730Y-11929722D02*
X17166254Y-11910674D01*
X17166254Y-11910674D02*
X17185301Y-11901150D01*
X17185301Y-11901150D02*
X17213873Y-11901150D01*
X17213873Y-11901150D02*
X17232920Y-11910674D01*
X17309111Y-12110674D02*
X17318635Y-12101150D01*
X17318635Y-12101150D02*
X17337682Y-12072579D01*
X17337682Y-12072579D02*
X17347206Y-12053531D01*
X17347206Y-12053531D02*
X17356730Y-12024960D01*
X17356730Y-12024960D02*
X17366254Y-11977341D01*
X17366254Y-11977341D02*
X17366254Y-11939246D01*
X17366254Y-11939246D02*
X17356730Y-11891627D01*
X17356730Y-11891627D02*
X17347206Y-11863055D01*
X17347206Y-11863055D02*
X17337682Y-11844008D01*
X17337682Y-11844008D02*
X17318635Y-11815436D01*
X17318635Y-11815436D02*
X17309111Y-11805912D01*
D10*
X10901967Y-12238467D02*
X10901967Y-12175533D01*
X10839033Y-12175533D01*
X10839033Y-12238467D01*
X10901967Y-12238467D01*
D11*
X11213872Y-12098484D02*
X11232920Y-12098484D01*
X11232920Y-12098484D02*
X11251967Y-12108008D01*
X11251967Y-12108008D02*
X11261491Y-12117531D01*
X11261491Y-12117531D02*
X11271015Y-12136579D01*
X11271015Y-12136579D02*
X11280539Y-12174674D01*
X11280539Y-12174674D02*
X11280539Y-12222293D01*
X11280539Y-12222293D02*
X11271015Y-12260388D01*
X11271015Y-12260388D02*
X11261491Y-12279436D01*
X11261491Y-12279436D02*
X11251967Y-12288960D01*
X11251967Y-12288960D02*
X11232920Y-12298484D01*
X11232920Y-12298484D02*
X11213872Y-12298484D01*
X11213872Y-12298484D02*
X11194824Y-12288960D01*
X11194824Y-12288960D02*
X11185301Y-12279436D01*
X11185301Y-12279436D02*
X11175777Y-12260388D01*
X11175777Y-12260388D02*
X11166253Y-12222293D01*
X11166253Y-12222293D02*
X11166253Y-12174674D01*
X11166253Y-12174674D02*
X11175777Y-12136579D01*
X11175777Y-12136579D02*
X11185301Y-12117531D01*
X11185301Y-12117531D02*
X11194824Y-12108008D01*
X11194824Y-12108008D02*
X11213872Y-12098484D01*
X11366253Y-12279436D02*
X11375777Y-12288960D01*
X11375777Y-12288960D02*
X11366253Y-12298484D01*
X11366253Y-12298484D02*
X11356729Y-12288960D01*
X11356729Y-12288960D02*
X11366253Y-12279436D01*
X11366253Y-12279436D02*
X11366253Y-12298484D01*
X11490062Y-12184198D02*
X11471015Y-12174674D01*
X11471015Y-12174674D02*
X11461491Y-12165150D01*
X11461491Y-12165150D02*
X11451967Y-12146103D01*
X11451967Y-12146103D02*
X11451967Y-12136579D01*
X11451967Y-12136579D02*
X11461491Y-12117531D01*
X11461491Y-12117531D02*
X11471015Y-12108008D01*
X11471015Y-12108008D02*
X11490062Y-12098484D01*
X11490062Y-12098484D02*
X11528158Y-12098484D01*
X11528158Y-12098484D02*
X11547205Y-12108008D01*
X11547205Y-12108008D02*
X11556729Y-12117531D01*
X11556729Y-12117531D02*
X11566253Y-12136579D01*
X11566253Y-12136579D02*
X11566253Y-12146103D01*
X11566253Y-12146103D02*
X11556729Y-12165150D01*
X11556729Y-12165150D02*
X11547205Y-12174674D01*
X11547205Y-12174674D02*
X11528158Y-12184198D01*
X11528158Y-12184198D02*
X11490062Y-12184198D01*
X11490062Y-12184198D02*
X11471015Y-12193722D01*
X11471015Y-12193722D02*
X11461491Y-12203246D01*
X11461491Y-12203246D02*
X11451967Y-12222293D01*
X11451967Y-12222293D02*
X11451967Y-12260388D01*
X11451967Y-12260388D02*
X11461491Y-12279436D01*
X11461491Y-12279436D02*
X11471015Y-12288960D01*
X11471015Y-12288960D02*
X11490062Y-12298484D01*
X11490062Y-12298484D02*
X11528158Y-12298484D01*
X11528158Y-12298484D02*
X11547205Y-12288960D01*
X11547205Y-12288960D02*
X11556729Y-12279436D01*
X11556729Y-12279436D02*
X11566253Y-12260388D01*
X11566253Y-12260388D02*
X11566253Y-12222293D01*
X11566253Y-12222293D02*
X11556729Y-12203246D01*
X11556729Y-12203246D02*
X11547205Y-12193722D01*
X11547205Y-12193722D02*
X11528158Y-12184198D01*
X11661491Y-12298484D02*
X11699586Y-12298484D01*
X11699586Y-12298484D02*
X11718634Y-12288960D01*
X11718634Y-12288960D02*
X11728158Y-12279436D01*
X11728158Y-12279436D02*
X11747205Y-12250865D01*
X11747205Y-12250865D02*
X11756729Y-12212769D01*
X11756729Y-12212769D02*
X11756729Y-12136579D01*
X11756729Y-12136579D02*
X11747205Y-12117531D01*
X11747205Y-12117531D02*
X11737682Y-12108008D01*
X11737682Y-12108008D02*
X11718634Y-12098484D01*
X11718634Y-12098484D02*
X11680539Y-12098484D01*
X11680539Y-12098484D02*
X11661491Y-12108008D01*
X11661491Y-12108008D02*
X11651967Y-12117531D01*
X11651967Y-12117531D02*
X11642443Y-12136579D01*
X11642443Y-12136579D02*
X11642443Y-12184198D01*
X11642443Y-12184198D02*
X11651967Y-12203246D01*
X11651967Y-12203246D02*
X11661491Y-12212769D01*
X11661491Y-12212769D02*
X11680539Y-12222293D01*
X11680539Y-12222293D02*
X11718634Y-12222293D01*
X11718634Y-12222293D02*
X11737682Y-12212769D01*
X11737682Y-12212769D02*
X11747205Y-12203246D01*
X11747205Y-12203246D02*
X11756729Y-12184198D01*
X11880539Y-12098484D02*
X11899586Y-12098484D01*
X11899586Y-12098484D02*
X11918634Y-12108008D01*
X11918634Y-12108008D02*
X11928158Y-12117531D01*
X11928158Y-12117531D02*
X11937682Y-12136579D01*
X11937682Y-12136579D02*
X11947205Y-12174674D01*
X11947205Y-12174674D02*
X11947205Y-12222293D01*
X11947205Y-12222293D02*
X11937682Y-12260388D01*
X11937682Y-12260388D02*
X11928158Y-12279436D01*
X11928158Y-12279436D02*
X11918634Y-12288960D01*
X11918634Y-12288960D02*
X11899586Y-12298484D01*
X11899586Y-12298484D02*
X11880539Y-12298484D01*
X11880539Y-12298484D02*
X11861491Y-12288960D01*
X11861491Y-12288960D02*
X11851967Y-12279436D01*
X11851967Y-12279436D02*
X11842443Y-12260388D01*
X11842443Y-12260388D02*
X11832920Y-12222293D01*
X11832920Y-12222293D02*
X11832920Y-12174674D01*
X11832920Y-12174674D02*
X11842443Y-12136579D01*
X11842443Y-12136579D02*
X11851967Y-12117531D01*
X11851967Y-12117531D02*
X11861491Y-12108008D01*
X11861491Y-12108008D02*
X11880539Y-12098484D01*
X12032920Y-12298484D02*
X12032920Y-12165150D01*
X12032920Y-12184198D02*
X12042443Y-12174674D01*
X12042443Y-12174674D02*
X12061491Y-12165150D01*
X12061491Y-12165150D02*
X12090063Y-12165150D01*
X12090063Y-12165150D02*
X12109110Y-12174674D01*
X12109110Y-12174674D02*
X12118634Y-12193722D01*
X12118634Y-12193722D02*
X12118634Y-12298484D01*
X12118634Y-12193722D02*
X12128158Y-12174674D01*
X12128158Y-12174674D02*
X12147205Y-12165150D01*
X12147205Y-12165150D02*
X12175777Y-12165150D01*
X12175777Y-12165150D02*
X12194824Y-12174674D01*
X12194824Y-12174674D02*
X12204348Y-12193722D01*
X12204348Y-12193722D02*
X12204348Y-12298484D01*
X12299586Y-12298484D02*
X12299586Y-12165150D01*
X12299586Y-12184198D02*
X12309110Y-12174674D01*
X12309110Y-12174674D02*
X12328158Y-12165150D01*
X12328158Y-12165150D02*
X12356729Y-12165150D01*
X12356729Y-12165150D02*
X12375777Y-12174674D01*
X12375777Y-12174674D02*
X12385301Y-12193722D01*
X12385301Y-12193722D02*
X12385301Y-12298484D01*
X12385301Y-12193722D02*
X12394824Y-12174674D01*
X12394824Y-12174674D02*
X12413872Y-12165150D01*
X12413872Y-12165150D02*
X12442443Y-12165150D01*
X12442443Y-12165150D02*
X12461491Y-12174674D01*
X12461491Y-12174674D02*
X12471015Y-12193722D01*
X12471015Y-12193722D02*
X12471015Y-12298484D01*
X12861491Y-12088960D02*
X12690063Y-12346103D01*
X13118634Y-12098484D02*
X13137682Y-12098484D01*
X13137682Y-12098484D02*
X13156729Y-12108008D01*
X13156729Y-12108008D02*
X13166253Y-12117531D01*
X13166253Y-12117531D02*
X13175777Y-12136579D01*
X13175777Y-12136579D02*
X13185301Y-12174674D01*
X13185301Y-12174674D02*
X13185301Y-12222293D01*
X13185301Y-12222293D02*
X13175777Y-12260388D01*
X13175777Y-12260388D02*
X13166253Y-12279436D01*
X13166253Y-12279436D02*
X13156729Y-12288960D01*
X13156729Y-12288960D02*
X13137682Y-12298484D01*
X13137682Y-12298484D02*
X13118634Y-12298484D01*
X13118634Y-12298484D02*
X13099586Y-12288960D01*
X13099586Y-12288960D02*
X13090063Y-12279436D01*
X13090063Y-12279436D02*
X13080539Y-12260388D01*
X13080539Y-12260388D02*
X13071015Y-12222293D01*
X13071015Y-12222293D02*
X13071015Y-12174674D01*
X13071015Y-12174674D02*
X13080539Y-12136579D01*
X13080539Y-12136579D02*
X13090063Y-12117531D01*
X13090063Y-12117531D02*
X13099586Y-12108008D01*
X13099586Y-12108008D02*
X13118634Y-12098484D01*
X13271015Y-12279436D02*
X13280539Y-12288960D01*
X13280539Y-12288960D02*
X13271015Y-12298484D01*
X13271015Y-12298484D02*
X13261491Y-12288960D01*
X13261491Y-12288960D02*
X13271015Y-12279436D01*
X13271015Y-12279436D02*
X13271015Y-12298484D01*
X13404348Y-12098484D02*
X13423396Y-12098484D01*
X13423396Y-12098484D02*
X13442444Y-12108008D01*
X13442444Y-12108008D02*
X13451967Y-12117531D01*
X13451967Y-12117531D02*
X13461491Y-12136579D01*
X13461491Y-12136579D02*
X13471015Y-12174674D01*
X13471015Y-12174674D02*
X13471015Y-12222293D01*
X13471015Y-12222293D02*
X13461491Y-12260388D01*
X13461491Y-12260388D02*
X13451967Y-12279436D01*
X13451967Y-12279436D02*
X13442444Y-12288960D01*
X13442444Y-12288960D02*
X13423396Y-12298484D01*
X13423396Y-12298484D02*
X13404348Y-12298484D01*
X13404348Y-12298484D02*
X13385301Y-12288960D01*
X13385301Y-12288960D02*
X13375777Y-12279436D01*
X13375777Y-12279436D02*
X13366253Y-12260388D01*
X13366253Y-12260388D02*
X13356729Y-12222293D01*
X13356729Y-12222293D02*
X13356729Y-12174674D01*
X13356729Y-12174674D02*
X13366253Y-12136579D01*
X13366253Y-12136579D02*
X13375777Y-12117531D01*
X13375777Y-12117531D02*
X13385301Y-12108008D01*
X13385301Y-12108008D02*
X13404348Y-12098484D01*
X13537682Y-12098484D02*
X13661491Y-12098484D01*
X13661491Y-12098484D02*
X13594825Y-12174674D01*
X13594825Y-12174674D02*
X13623396Y-12174674D01*
X13623396Y-12174674D02*
X13642444Y-12184198D01*
X13642444Y-12184198D02*
X13651967Y-12193722D01*
X13651967Y-12193722D02*
X13661491Y-12212769D01*
X13661491Y-12212769D02*
X13661491Y-12260388D01*
X13661491Y-12260388D02*
X13651967Y-12279436D01*
X13651967Y-12279436D02*
X13642444Y-12288960D01*
X13642444Y-12288960D02*
X13623396Y-12298484D01*
X13623396Y-12298484D02*
X13566253Y-12298484D01*
X13566253Y-12298484D02*
X13547206Y-12288960D01*
X13547206Y-12288960D02*
X13537682Y-12279436D01*
X13842444Y-12098484D02*
X13747206Y-12098484D01*
X13747206Y-12098484D02*
X13737682Y-12193722D01*
X13737682Y-12193722D02*
X13747206Y-12184198D01*
X13747206Y-12184198D02*
X13766253Y-12174674D01*
X13766253Y-12174674D02*
X13813872Y-12174674D01*
X13813872Y-12174674D02*
X13832920Y-12184198D01*
X13832920Y-12184198D02*
X13842444Y-12193722D01*
X13842444Y-12193722D02*
X13851967Y-12212769D01*
X13851967Y-12212769D02*
X13851967Y-12260388D01*
X13851967Y-12260388D02*
X13842444Y-12279436D01*
X13842444Y-12279436D02*
X13832920Y-12288960D01*
X13832920Y-12288960D02*
X13813872Y-12298484D01*
X13813872Y-12298484D02*
X13766253Y-12298484D01*
X13766253Y-12298484D02*
X13747206Y-12288960D01*
X13747206Y-12288960D02*
X13737682Y-12279436D01*
X13975777Y-12098484D02*
X13994825Y-12098484D01*
X13994825Y-12098484D02*
X14013872Y-12108008D01*
X14013872Y-12108008D02*
X14023396Y-12117531D01*
X14023396Y-12117531D02*
X14032920Y-12136579D01*
X14032920Y-12136579D02*
X14042444Y-12174674D01*
X14042444Y-12174674D02*
X14042444Y-12222293D01*
X14042444Y-12222293D02*
X14032920Y-12260388D01*
X14032920Y-12260388D02*
X14023396Y-12279436D01*
X14023396Y-12279436D02*
X14013872Y-12288960D01*
X14013872Y-12288960D02*
X13994825Y-12298484D01*
X13994825Y-12298484D02*
X13975777Y-12298484D01*
X13975777Y-12298484D02*
X13956729Y-12288960D01*
X13956729Y-12288960D02*
X13947206Y-12279436D01*
X13947206Y-12279436D02*
X13937682Y-12260388D01*
X13937682Y-12260388D02*
X13928158Y-12222293D01*
X13928158Y-12222293D02*
X13928158Y-12174674D01*
X13928158Y-12174674D02*
X13937682Y-12136579D01*
X13937682Y-12136579D02*
X13947206Y-12117531D01*
X13947206Y-12117531D02*
X13956729Y-12108008D01*
X13956729Y-12108008D02*
X13975777Y-12098484D01*
X14118634Y-12098484D02*
X14118634Y-12136579D01*
X14194825Y-12098484D02*
X14194825Y-12136579D01*
X14490063Y-12374674D02*
X14480539Y-12365150D01*
X14480539Y-12365150D02*
X14461491Y-12336579D01*
X14461491Y-12336579D02*
X14451968Y-12317531D01*
X14451968Y-12317531D02*
X14442444Y-12288960D01*
X14442444Y-12288960D02*
X14432920Y-12241341D01*
X14432920Y-12241341D02*
X14432920Y-12203246D01*
X14432920Y-12203246D02*
X14442444Y-12155627D01*
X14442444Y-12155627D02*
X14451968Y-12127055D01*
X14451968Y-12127055D02*
X14461491Y-12108008D01*
X14461491Y-12108008D02*
X14480539Y-12079436D01*
X14480539Y-12079436D02*
X14490063Y-12069912D01*
X14651968Y-12165150D02*
X14651968Y-12298484D01*
X14604348Y-12088960D02*
X14556729Y-12231817D01*
X14556729Y-12231817D02*
X14680539Y-12231817D01*
X14909110Y-12298484D02*
X14909110Y-12098484D01*
X14994825Y-12298484D02*
X14994825Y-12193722D01*
X14994825Y-12193722D02*
X14985301Y-12174674D01*
X14985301Y-12174674D02*
X14966253Y-12165150D01*
X14966253Y-12165150D02*
X14937682Y-12165150D01*
X14937682Y-12165150D02*
X14918634Y-12174674D01*
X14918634Y-12174674D02*
X14909110Y-12184198D01*
X15118634Y-12298484D02*
X15099587Y-12288960D01*
X15099587Y-12288960D02*
X15090063Y-12279436D01*
X15090063Y-12279436D02*
X15080539Y-12260388D01*
X15080539Y-12260388D02*
X15080539Y-12203246D01*
X15080539Y-12203246D02*
X15090063Y-12184198D01*
X15090063Y-12184198D02*
X15099587Y-12174674D01*
X15099587Y-12174674D02*
X15118634Y-12165150D01*
X15118634Y-12165150D02*
X15147206Y-12165150D01*
X15147206Y-12165150D02*
X15166253Y-12174674D01*
X15166253Y-12174674D02*
X15175777Y-12184198D01*
X15175777Y-12184198D02*
X15185301Y-12203246D01*
X15185301Y-12203246D02*
X15185301Y-12260388D01*
X15185301Y-12260388D02*
X15175777Y-12279436D01*
X15175777Y-12279436D02*
X15166253Y-12288960D01*
X15166253Y-12288960D02*
X15147206Y-12298484D01*
X15147206Y-12298484D02*
X15118634Y-12298484D01*
X15299587Y-12298484D02*
X15280539Y-12288960D01*
X15280539Y-12288960D02*
X15271015Y-12269912D01*
X15271015Y-12269912D02*
X15271015Y-12098484D01*
X15451968Y-12288960D02*
X15432920Y-12298484D01*
X15432920Y-12298484D02*
X15394825Y-12298484D01*
X15394825Y-12298484D02*
X15375777Y-12288960D01*
X15375777Y-12288960D02*
X15366253Y-12269912D01*
X15366253Y-12269912D02*
X15366253Y-12193722D01*
X15366253Y-12193722D02*
X15375777Y-12174674D01*
X15375777Y-12174674D02*
X15394825Y-12165150D01*
X15394825Y-12165150D02*
X15432920Y-12165150D01*
X15432920Y-12165150D02*
X15451968Y-12174674D01*
X15451968Y-12174674D02*
X15461491Y-12193722D01*
X15461491Y-12193722D02*
X15461491Y-12212769D01*
X15461491Y-12212769D02*
X15366253Y-12231817D01*
X15537682Y-12288960D02*
X15556730Y-12298484D01*
X15556730Y-12298484D02*
X15594825Y-12298484D01*
X15594825Y-12298484D02*
X15613872Y-12288960D01*
X15613872Y-12288960D02*
X15623396Y-12269912D01*
X15623396Y-12269912D02*
X15623396Y-12260388D01*
X15623396Y-12260388D02*
X15613872Y-12241341D01*
X15613872Y-12241341D02*
X15594825Y-12231817D01*
X15594825Y-12231817D02*
X15566253Y-12231817D01*
X15566253Y-12231817D02*
X15547206Y-12222293D01*
X15547206Y-12222293D02*
X15537682Y-12203246D01*
X15537682Y-12203246D02*
X15537682Y-12193722D01*
X15537682Y-12193722D02*
X15547206Y-12174674D01*
X15547206Y-12174674D02*
X15566253Y-12165150D01*
X15566253Y-12165150D02*
X15594825Y-12165150D01*
X15594825Y-12165150D02*
X15613872Y-12174674D01*
X15690063Y-12374674D02*
X15699587Y-12365150D01*
X15699587Y-12365150D02*
X15718634Y-12336579D01*
X15718634Y-12336579D02*
X15728158Y-12317531D01*
X15728158Y-12317531D02*
X15737682Y-12288960D01*
X15737682Y-12288960D02*
X15747206Y-12241341D01*
X15747206Y-12241341D02*
X15747206Y-12203246D01*
X15747206Y-12203246D02*
X15737682Y-12155627D01*
X15737682Y-12155627D02*
X15728158Y-12127055D01*
X15728158Y-12127055D02*
X15718634Y-12108008D01*
X15718634Y-12108008D02*
X15699587Y-12079436D01*
X15699587Y-12079436D02*
X15690063Y-12069912D01*
D10*
X10870000Y-12516000D02*
X10915000Y-12471000D01*
X10870000Y-12426000D01*
X10825000Y-12471000D01*
X10870000Y-12516000D01*
D11*
X11213872Y-12362484D02*
X11232920Y-12362484D01*
X11232920Y-12362484D02*
X11251967Y-12372008D01*
X11251967Y-12372008D02*
X11261491Y-12381531D01*
X11261491Y-12381531D02*
X11271015Y-12400579D01*
X11271015Y-12400579D02*
X11280539Y-12438674D01*
X11280539Y-12438674D02*
X11280539Y-12486293D01*
X11280539Y-12486293D02*
X11271015Y-12524388D01*
X11271015Y-12524388D02*
X11261491Y-12543436D01*
X11261491Y-12543436D02*
X11251967Y-12552960D01*
X11251967Y-12552960D02*
X11232920Y-12562484D01*
X11232920Y-12562484D02*
X11213872Y-12562484D01*
X11213872Y-12562484D02*
X11194824Y-12552960D01*
X11194824Y-12552960D02*
X11185301Y-12543436D01*
X11185301Y-12543436D02*
X11175777Y-12524388D01*
X11175777Y-12524388D02*
X11166253Y-12486293D01*
X11166253Y-12486293D02*
X11166253Y-12438674D01*
X11166253Y-12438674D02*
X11175777Y-12400579D01*
X11175777Y-12400579D02*
X11185301Y-12381531D01*
X11185301Y-12381531D02*
X11194824Y-12372008D01*
X11194824Y-12372008D02*
X11213872Y-12362484D01*
X11366253Y-12543436D02*
X11375777Y-12552960D01*
X11375777Y-12552960D02*
X11366253Y-12562484D01*
X11366253Y-12562484D02*
X11356729Y-12552960D01*
X11356729Y-12552960D02*
X11366253Y-12543436D01*
X11366253Y-12543436D02*
X11366253Y-12562484D01*
X11471015Y-12562484D02*
X11509110Y-12562484D01*
X11509110Y-12562484D02*
X11528158Y-12552960D01*
X11528158Y-12552960D02*
X11537682Y-12543436D01*
X11537682Y-12543436D02*
X11556729Y-12514865D01*
X11556729Y-12514865D02*
X11566253Y-12476769D01*
X11566253Y-12476769D02*
X11566253Y-12400579D01*
X11566253Y-12400579D02*
X11556729Y-12381531D01*
X11556729Y-12381531D02*
X11547205Y-12372008D01*
X11547205Y-12372008D02*
X11528158Y-12362484D01*
X11528158Y-12362484D02*
X11490062Y-12362484D01*
X11490062Y-12362484D02*
X11471015Y-12372008D01*
X11471015Y-12372008D02*
X11461491Y-12381531D01*
X11461491Y-12381531D02*
X11451967Y-12400579D01*
X11451967Y-12400579D02*
X11451967Y-12448198D01*
X11451967Y-12448198D02*
X11461491Y-12467246D01*
X11461491Y-12467246D02*
X11471015Y-12476769D01*
X11471015Y-12476769D02*
X11490062Y-12486293D01*
X11490062Y-12486293D02*
X11528158Y-12486293D01*
X11528158Y-12486293D02*
X11547205Y-12476769D01*
X11547205Y-12476769D02*
X11556729Y-12467246D01*
X11556729Y-12467246D02*
X11566253Y-12448198D01*
X11690062Y-12362484D02*
X11709110Y-12362484D01*
X11709110Y-12362484D02*
X11728158Y-12372008D01*
X11728158Y-12372008D02*
X11737682Y-12381531D01*
X11737682Y-12381531D02*
X11747205Y-12400579D01*
X11747205Y-12400579D02*
X11756729Y-12438674D01*
X11756729Y-12438674D02*
X11756729Y-12486293D01*
X11756729Y-12486293D02*
X11747205Y-12524388D01*
X11747205Y-12524388D02*
X11737682Y-12543436D01*
X11737682Y-12543436D02*
X11728158Y-12552960D01*
X11728158Y-12552960D02*
X11709110Y-12562484D01*
X11709110Y-12562484D02*
X11690062Y-12562484D01*
X11690062Y-12562484D02*
X11671015Y-12552960D01*
X11671015Y-12552960D02*
X11661491Y-12543436D01*
X11661491Y-12543436D02*
X11651967Y-12524388D01*
X11651967Y-12524388D02*
X11642443Y-12486293D01*
X11642443Y-12486293D02*
X11642443Y-12438674D01*
X11642443Y-12438674D02*
X11651967Y-12400579D01*
X11651967Y-12400579D02*
X11661491Y-12381531D01*
X11661491Y-12381531D02*
X11671015Y-12372008D01*
X11671015Y-12372008D02*
X11690062Y-12362484D01*
X11880539Y-12362484D02*
X11899586Y-12362484D01*
X11899586Y-12362484D02*
X11918634Y-12372008D01*
X11918634Y-12372008D02*
X11928158Y-12381531D01*
X11928158Y-12381531D02*
X11937682Y-12400579D01*
X11937682Y-12400579D02*
X11947205Y-12438674D01*
X11947205Y-12438674D02*
X11947205Y-12486293D01*
X11947205Y-12486293D02*
X11937682Y-12524388D01*
X11937682Y-12524388D02*
X11928158Y-12543436D01*
X11928158Y-12543436D02*
X11918634Y-12552960D01*
X11918634Y-12552960D02*
X11899586Y-12562484D01*
X11899586Y-12562484D02*
X11880539Y-12562484D01*
X11880539Y-12562484D02*
X11861491Y-12552960D01*
X11861491Y-12552960D02*
X11851967Y-12543436D01*
X11851967Y-12543436D02*
X11842443Y-12524388D01*
X11842443Y-12524388D02*
X11832920Y-12486293D01*
X11832920Y-12486293D02*
X11832920Y-12438674D01*
X11832920Y-12438674D02*
X11842443Y-12400579D01*
X11842443Y-12400579D02*
X11851967Y-12381531D01*
X11851967Y-12381531D02*
X11861491Y-12372008D01*
X11861491Y-12372008D02*
X11880539Y-12362484D01*
X12032920Y-12562484D02*
X12032920Y-12429150D01*
X12032920Y-12448198D02*
X12042443Y-12438674D01*
X12042443Y-12438674D02*
X12061491Y-12429150D01*
X12061491Y-12429150D02*
X12090063Y-12429150D01*
X12090063Y-12429150D02*
X12109110Y-12438674D01*
X12109110Y-12438674D02*
X12118634Y-12457722D01*
X12118634Y-12457722D02*
X12118634Y-12562484D01*
X12118634Y-12457722D02*
X12128158Y-12438674D01*
X12128158Y-12438674D02*
X12147205Y-12429150D01*
X12147205Y-12429150D02*
X12175777Y-12429150D01*
X12175777Y-12429150D02*
X12194824Y-12438674D01*
X12194824Y-12438674D02*
X12204348Y-12457722D01*
X12204348Y-12457722D02*
X12204348Y-12562484D01*
X12299586Y-12562484D02*
X12299586Y-12429150D01*
X12299586Y-12448198D02*
X12309110Y-12438674D01*
X12309110Y-12438674D02*
X12328158Y-12429150D01*
X12328158Y-12429150D02*
X12356729Y-12429150D01*
X12356729Y-12429150D02*
X12375777Y-12438674D01*
X12375777Y-12438674D02*
X12385301Y-12457722D01*
X12385301Y-12457722D02*
X12385301Y-12562484D01*
X12385301Y-12457722D02*
X12394824Y-12438674D01*
X12394824Y-12438674D02*
X12413872Y-12429150D01*
X12413872Y-12429150D02*
X12442443Y-12429150D01*
X12442443Y-12429150D02*
X12461491Y-12438674D01*
X12461491Y-12438674D02*
X12471015Y-12457722D01*
X12471015Y-12457722D02*
X12471015Y-12562484D01*
X12861491Y-12352960D02*
X12690063Y-12610103D01*
X13118634Y-12362484D02*
X13137682Y-12362484D01*
X13137682Y-12362484D02*
X13156729Y-12372008D01*
X13156729Y-12372008D02*
X13166253Y-12381531D01*
X13166253Y-12381531D02*
X13175777Y-12400579D01*
X13175777Y-12400579D02*
X13185301Y-12438674D01*
X13185301Y-12438674D02*
X13185301Y-12486293D01*
X13185301Y-12486293D02*
X13175777Y-12524388D01*
X13175777Y-12524388D02*
X13166253Y-12543436D01*
X13166253Y-12543436D02*
X13156729Y-12552960D01*
X13156729Y-12552960D02*
X13137682Y-12562484D01*
X13137682Y-12562484D02*
X13118634Y-12562484D01*
X13118634Y-12562484D02*
X13099586Y-12552960D01*
X13099586Y-12552960D02*
X13090063Y-12543436D01*
X13090063Y-12543436D02*
X13080539Y-12524388D01*
X13080539Y-12524388D02*
X13071015Y-12486293D01*
X13071015Y-12486293D02*
X13071015Y-12438674D01*
X13071015Y-12438674D02*
X13080539Y-12400579D01*
X13080539Y-12400579D02*
X13090063Y-12381531D01*
X13090063Y-12381531D02*
X13099586Y-12372008D01*
X13099586Y-12372008D02*
X13118634Y-12362484D01*
X13271015Y-12543436D02*
X13280539Y-12552960D01*
X13280539Y-12552960D02*
X13271015Y-12562484D01*
X13271015Y-12562484D02*
X13261491Y-12552960D01*
X13261491Y-12552960D02*
X13271015Y-12543436D01*
X13271015Y-12543436D02*
X13271015Y-12562484D01*
X13404348Y-12362484D02*
X13423396Y-12362484D01*
X13423396Y-12362484D02*
X13442444Y-12372008D01*
X13442444Y-12372008D02*
X13451967Y-12381531D01*
X13451967Y-12381531D02*
X13461491Y-12400579D01*
X13461491Y-12400579D02*
X13471015Y-12438674D01*
X13471015Y-12438674D02*
X13471015Y-12486293D01*
X13471015Y-12486293D02*
X13461491Y-12524388D01*
X13461491Y-12524388D02*
X13451967Y-12543436D01*
X13451967Y-12543436D02*
X13442444Y-12552960D01*
X13442444Y-12552960D02*
X13423396Y-12562484D01*
X13423396Y-12562484D02*
X13404348Y-12562484D01*
X13404348Y-12562484D02*
X13385301Y-12552960D01*
X13385301Y-12552960D02*
X13375777Y-12543436D01*
X13375777Y-12543436D02*
X13366253Y-12524388D01*
X13366253Y-12524388D02*
X13356729Y-12486293D01*
X13356729Y-12486293D02*
X13356729Y-12438674D01*
X13356729Y-12438674D02*
X13366253Y-12400579D01*
X13366253Y-12400579D02*
X13375777Y-12381531D01*
X13375777Y-12381531D02*
X13385301Y-12372008D01*
X13385301Y-12372008D02*
X13404348Y-12362484D01*
X13537682Y-12362484D02*
X13661491Y-12362484D01*
X13661491Y-12362484D02*
X13594825Y-12438674D01*
X13594825Y-12438674D02*
X13623396Y-12438674D01*
X13623396Y-12438674D02*
X13642444Y-12448198D01*
X13642444Y-12448198D02*
X13651967Y-12457722D01*
X13651967Y-12457722D02*
X13661491Y-12476769D01*
X13661491Y-12476769D02*
X13661491Y-12524388D01*
X13661491Y-12524388D02*
X13651967Y-12543436D01*
X13651967Y-12543436D02*
X13642444Y-12552960D01*
X13642444Y-12552960D02*
X13623396Y-12562484D01*
X13623396Y-12562484D02*
X13566253Y-12562484D01*
X13566253Y-12562484D02*
X13547206Y-12552960D01*
X13547206Y-12552960D02*
X13537682Y-12543436D01*
X13842444Y-12362484D02*
X13747206Y-12362484D01*
X13747206Y-12362484D02*
X13737682Y-12457722D01*
X13737682Y-12457722D02*
X13747206Y-12448198D01*
X13747206Y-12448198D02*
X13766253Y-12438674D01*
X13766253Y-12438674D02*
X13813872Y-12438674D01*
X13813872Y-12438674D02*
X13832920Y-12448198D01*
X13832920Y-12448198D02*
X13842444Y-12457722D01*
X13842444Y-12457722D02*
X13851967Y-12476769D01*
X13851967Y-12476769D02*
X13851967Y-12524388D01*
X13851967Y-12524388D02*
X13842444Y-12543436D01*
X13842444Y-12543436D02*
X13832920Y-12552960D01*
X13832920Y-12552960D02*
X13813872Y-12562484D01*
X13813872Y-12562484D02*
X13766253Y-12562484D01*
X13766253Y-12562484D02*
X13747206Y-12552960D01*
X13747206Y-12552960D02*
X13737682Y-12543436D01*
X14023396Y-12429150D02*
X14023396Y-12562484D01*
X13975777Y-12352960D02*
X13928158Y-12495817D01*
X13928158Y-12495817D02*
X14051967Y-12495817D01*
X14118634Y-12362484D02*
X14118634Y-12400579D01*
X14194825Y-12362484D02*
X14194825Y-12400579D01*
X14490063Y-12638674D02*
X14480539Y-12629150D01*
X14480539Y-12629150D02*
X14461491Y-12600579D01*
X14461491Y-12600579D02*
X14451968Y-12581531D01*
X14451968Y-12581531D02*
X14442444Y-12552960D01*
X14442444Y-12552960D02*
X14432920Y-12505341D01*
X14432920Y-12505341D02*
X14432920Y-12467246D01*
X14432920Y-12467246D02*
X14442444Y-12419627D01*
X14442444Y-12419627D02*
X14451968Y-12391055D01*
X14451968Y-12391055D02*
X14461491Y-12372008D01*
X14461491Y-12372008D02*
X14480539Y-12343436D01*
X14480539Y-12343436D02*
X14490063Y-12333912D01*
X14594825Y-12448198D02*
X14575777Y-12438674D01*
X14575777Y-12438674D02*
X14566253Y-12429150D01*
X14566253Y-12429150D02*
X14556729Y-12410103D01*
X14556729Y-12410103D02*
X14556729Y-12400579D01*
X14556729Y-12400579D02*
X14566253Y-12381531D01*
X14566253Y-12381531D02*
X14575777Y-12372008D01*
X14575777Y-12372008D02*
X14594825Y-12362484D01*
X14594825Y-12362484D02*
X14632920Y-12362484D01*
X14632920Y-12362484D02*
X14651968Y-12372008D01*
X14651968Y-12372008D02*
X14661491Y-12381531D01*
X14661491Y-12381531D02*
X14671015Y-12400579D01*
X14671015Y-12400579D02*
X14671015Y-12410103D01*
X14671015Y-12410103D02*
X14661491Y-12429150D01*
X14661491Y-12429150D02*
X14651968Y-12438674D01*
X14651968Y-12438674D02*
X14632920Y-12448198D01*
X14632920Y-12448198D02*
X14594825Y-12448198D01*
X14594825Y-12448198D02*
X14575777Y-12457722D01*
X14575777Y-12457722D02*
X14566253Y-12467246D01*
X14566253Y-12467246D02*
X14556729Y-12486293D01*
X14556729Y-12486293D02*
X14556729Y-12524388D01*
X14556729Y-12524388D02*
X14566253Y-12543436D01*
X14566253Y-12543436D02*
X14575777Y-12552960D01*
X14575777Y-12552960D02*
X14594825Y-12562484D01*
X14594825Y-12562484D02*
X14632920Y-12562484D01*
X14632920Y-12562484D02*
X14651968Y-12552960D01*
X14651968Y-12552960D02*
X14661491Y-12543436D01*
X14661491Y-12543436D02*
X14671015Y-12524388D01*
X14671015Y-12524388D02*
X14671015Y-12486293D01*
X14671015Y-12486293D02*
X14661491Y-12467246D01*
X14661491Y-12467246D02*
X14651968Y-12457722D01*
X14651968Y-12457722D02*
X14632920Y-12448198D01*
X14909110Y-12562484D02*
X14909110Y-12362484D01*
X14994825Y-12562484D02*
X14994825Y-12457722D01*
X14994825Y-12457722D02*
X14985301Y-12438674D01*
X14985301Y-12438674D02*
X14966253Y-12429150D01*
X14966253Y-12429150D02*
X14937682Y-12429150D01*
X14937682Y-12429150D02*
X14918634Y-12438674D01*
X14918634Y-12438674D02*
X14909110Y-12448198D01*
X15118634Y-12562484D02*
X15099587Y-12552960D01*
X15099587Y-12552960D02*
X15090063Y-12543436D01*
X15090063Y-12543436D02*
X15080539Y-12524388D01*
X15080539Y-12524388D02*
X15080539Y-12467246D01*
X15080539Y-12467246D02*
X15090063Y-12448198D01*
X15090063Y-12448198D02*
X15099587Y-12438674D01*
X15099587Y-12438674D02*
X15118634Y-12429150D01*
X15118634Y-12429150D02*
X15147206Y-12429150D01*
X15147206Y-12429150D02*
X15166253Y-12438674D01*
X15166253Y-12438674D02*
X15175777Y-12448198D01*
X15175777Y-12448198D02*
X15185301Y-12467246D01*
X15185301Y-12467246D02*
X15185301Y-12524388D01*
X15185301Y-12524388D02*
X15175777Y-12543436D01*
X15175777Y-12543436D02*
X15166253Y-12552960D01*
X15166253Y-12552960D02*
X15147206Y-12562484D01*
X15147206Y-12562484D02*
X15118634Y-12562484D01*
X15299587Y-12562484D02*
X15280539Y-12552960D01*
X15280539Y-12552960D02*
X15271015Y-12533912D01*
X15271015Y-12533912D02*
X15271015Y-12362484D01*
X15451968Y-12552960D02*
X15432920Y-12562484D01*
X15432920Y-12562484D02*
X15394825Y-12562484D01*
X15394825Y-12562484D02*
X15375777Y-12552960D01*
X15375777Y-12552960D02*
X15366253Y-12533912D01*
X15366253Y-12533912D02*
X15366253Y-12457722D01*
X15366253Y-12457722D02*
X15375777Y-12438674D01*
X15375777Y-12438674D02*
X15394825Y-12429150D01*
X15394825Y-12429150D02*
X15432920Y-12429150D01*
X15432920Y-12429150D02*
X15451968Y-12438674D01*
X15451968Y-12438674D02*
X15461491Y-12457722D01*
X15461491Y-12457722D02*
X15461491Y-12476769D01*
X15461491Y-12476769D02*
X15366253Y-12495817D01*
X15537682Y-12552960D02*
X15556730Y-12562484D01*
X15556730Y-12562484D02*
X15594825Y-12562484D01*
X15594825Y-12562484D02*
X15613872Y-12552960D01*
X15613872Y-12552960D02*
X15623396Y-12533912D01*
X15623396Y-12533912D02*
X15623396Y-12524388D01*
X15623396Y-12524388D02*
X15613872Y-12505341D01*
X15613872Y-12505341D02*
X15594825Y-12495817D01*
X15594825Y-12495817D02*
X15566253Y-12495817D01*
X15566253Y-12495817D02*
X15547206Y-12486293D01*
X15547206Y-12486293D02*
X15537682Y-12467246D01*
X15537682Y-12467246D02*
X15537682Y-12457722D01*
X15537682Y-12457722D02*
X15547206Y-12438674D01*
X15547206Y-12438674D02*
X15566253Y-12429150D01*
X15566253Y-12429150D02*
X15594825Y-12429150D01*
X15594825Y-12429150D02*
X15613872Y-12438674D01*
X15690063Y-12638674D02*
X15699587Y-12629150D01*
X15699587Y-12629150D02*
X15718634Y-12600579D01*
X15718634Y-12600579D02*
X15728158Y-12581531D01*
X15728158Y-12581531D02*
X15737682Y-12552960D01*
X15737682Y-12552960D02*
X15747206Y-12505341D01*
X15747206Y-12505341D02*
X15747206Y-12467246D01*
X15747206Y-12467246D02*
X15737682Y-12419627D01*
X15737682Y-12419627D02*
X15728158Y-12391055D01*
X15728158Y-12391055D02*
X15718634Y-12372008D01*
X15718634Y-12372008D02*
X15699587Y-12343436D01*
X15699587Y-12343436D02*
X15690063Y-12333912D01*
D10*
X10815000Y-12685000D02*
X10915000Y-12785000D01*
X10915000Y-12685000D02*
X10815000Y-12785000D01*
X10915000Y-12735000D02*
G75*
G02*
X10815000Y-12735000I-50000J0D01*
G01*
X10815000Y-12735000D02*
G75*
G02*
X10915000Y-12735000I50000J0D01*
G01*
D11*
X11280539Y-12826484D02*
X11166253Y-12826484D01*
X11223396Y-12826484D02*
X11223396Y-12626484D01*
X11223396Y-12626484D02*
X11204348Y-12655055D01*
X11204348Y-12655055D02*
X11185301Y-12674103D01*
X11185301Y-12674103D02*
X11166253Y-12683627D01*
X11366253Y-12807436D02*
X11375777Y-12816960D01*
X11375777Y-12816960D02*
X11366253Y-12826484D01*
X11366253Y-12826484D02*
X11356729Y-12816960D01*
X11356729Y-12816960D02*
X11366253Y-12807436D01*
X11366253Y-12807436D02*
X11366253Y-12826484D01*
X11499586Y-12626484D02*
X11518634Y-12626484D01*
X11518634Y-12626484D02*
X11537682Y-12636008D01*
X11537682Y-12636008D02*
X11547205Y-12645531D01*
X11547205Y-12645531D02*
X11556729Y-12664579D01*
X11556729Y-12664579D02*
X11566253Y-12702674D01*
X11566253Y-12702674D02*
X11566253Y-12750293D01*
X11566253Y-12750293D02*
X11556729Y-12788388D01*
X11556729Y-12788388D02*
X11547205Y-12807436D01*
X11547205Y-12807436D02*
X11537682Y-12816960D01*
X11537682Y-12816960D02*
X11518634Y-12826484D01*
X11518634Y-12826484D02*
X11499586Y-12826484D01*
X11499586Y-12826484D02*
X11480539Y-12816960D01*
X11480539Y-12816960D02*
X11471015Y-12807436D01*
X11471015Y-12807436D02*
X11461491Y-12788388D01*
X11461491Y-12788388D02*
X11451967Y-12750293D01*
X11451967Y-12750293D02*
X11451967Y-12702674D01*
X11451967Y-12702674D02*
X11461491Y-12664579D01*
X11461491Y-12664579D02*
X11471015Y-12645531D01*
X11471015Y-12645531D02*
X11480539Y-12636008D01*
X11480539Y-12636008D02*
X11499586Y-12626484D01*
X11690062Y-12626484D02*
X11709110Y-12626484D01*
X11709110Y-12626484D02*
X11728158Y-12636008D01*
X11728158Y-12636008D02*
X11737682Y-12645531D01*
X11737682Y-12645531D02*
X11747205Y-12664579D01*
X11747205Y-12664579D02*
X11756729Y-12702674D01*
X11756729Y-12702674D02*
X11756729Y-12750293D01*
X11756729Y-12750293D02*
X11747205Y-12788388D01*
X11747205Y-12788388D02*
X11737682Y-12807436D01*
X11737682Y-12807436D02*
X11728158Y-12816960D01*
X11728158Y-12816960D02*
X11709110Y-12826484D01*
X11709110Y-12826484D02*
X11690062Y-12826484D01*
X11690062Y-12826484D02*
X11671015Y-12816960D01*
X11671015Y-12816960D02*
X11661491Y-12807436D01*
X11661491Y-12807436D02*
X11651967Y-12788388D01*
X11651967Y-12788388D02*
X11642443Y-12750293D01*
X11642443Y-12750293D02*
X11642443Y-12702674D01*
X11642443Y-12702674D02*
X11651967Y-12664579D01*
X11651967Y-12664579D02*
X11661491Y-12645531D01*
X11661491Y-12645531D02*
X11671015Y-12636008D01*
X11671015Y-12636008D02*
X11690062Y-12626484D01*
X11880539Y-12626484D02*
X11899586Y-12626484D01*
X11899586Y-12626484D02*
X11918634Y-12636008D01*
X11918634Y-12636008D02*
X11928158Y-12645531D01*
X11928158Y-12645531D02*
X11937682Y-12664579D01*
X11937682Y-12664579D02*
X11947205Y-12702674D01*
X11947205Y-12702674D02*
X11947205Y-12750293D01*
X11947205Y-12750293D02*
X11937682Y-12788388D01*
X11937682Y-12788388D02*
X11928158Y-12807436D01*
X11928158Y-12807436D02*
X11918634Y-12816960D01*
X11918634Y-12816960D02*
X11899586Y-12826484D01*
X11899586Y-12826484D02*
X11880539Y-12826484D01*
X11880539Y-12826484D02*
X11861491Y-12816960D01*
X11861491Y-12816960D02*
X11851967Y-12807436D01*
X11851967Y-12807436D02*
X11842443Y-12788388D01*
X11842443Y-12788388D02*
X11832920Y-12750293D01*
X11832920Y-12750293D02*
X11832920Y-12702674D01*
X11832920Y-12702674D02*
X11842443Y-12664579D01*
X11842443Y-12664579D02*
X11851967Y-12645531D01*
X11851967Y-12645531D02*
X11861491Y-12636008D01*
X11861491Y-12636008D02*
X11880539Y-12626484D01*
X12032920Y-12826484D02*
X12032920Y-12693150D01*
X12032920Y-12712198D02*
X12042443Y-12702674D01*
X12042443Y-12702674D02*
X12061491Y-12693150D01*
X12061491Y-12693150D02*
X12090063Y-12693150D01*
X12090063Y-12693150D02*
X12109110Y-12702674D01*
X12109110Y-12702674D02*
X12118634Y-12721722D01*
X12118634Y-12721722D02*
X12118634Y-12826484D01*
X12118634Y-12721722D02*
X12128158Y-12702674D01*
X12128158Y-12702674D02*
X12147205Y-12693150D01*
X12147205Y-12693150D02*
X12175777Y-12693150D01*
X12175777Y-12693150D02*
X12194824Y-12702674D01*
X12194824Y-12702674D02*
X12204348Y-12721722D01*
X12204348Y-12721722D02*
X12204348Y-12826484D01*
X12299586Y-12826484D02*
X12299586Y-12693150D01*
X12299586Y-12712198D02*
X12309110Y-12702674D01*
X12309110Y-12702674D02*
X12328158Y-12693150D01*
X12328158Y-12693150D02*
X12356729Y-12693150D01*
X12356729Y-12693150D02*
X12375777Y-12702674D01*
X12375777Y-12702674D02*
X12385301Y-12721722D01*
X12385301Y-12721722D02*
X12385301Y-12826484D01*
X12385301Y-12721722D02*
X12394824Y-12702674D01*
X12394824Y-12702674D02*
X12413872Y-12693150D01*
X12413872Y-12693150D02*
X12442443Y-12693150D01*
X12442443Y-12693150D02*
X12461491Y-12702674D01*
X12461491Y-12702674D02*
X12471015Y-12721722D01*
X12471015Y-12721722D02*
X12471015Y-12826484D01*
X12861491Y-12616960D02*
X12690063Y-12874103D01*
X13118634Y-12626484D02*
X13137682Y-12626484D01*
X13137682Y-12626484D02*
X13156729Y-12636008D01*
X13156729Y-12636008D02*
X13166253Y-12645531D01*
X13166253Y-12645531D02*
X13175777Y-12664579D01*
X13175777Y-12664579D02*
X13185301Y-12702674D01*
X13185301Y-12702674D02*
X13185301Y-12750293D01*
X13185301Y-12750293D02*
X13175777Y-12788388D01*
X13175777Y-12788388D02*
X13166253Y-12807436D01*
X13166253Y-12807436D02*
X13156729Y-12816960D01*
X13156729Y-12816960D02*
X13137682Y-12826484D01*
X13137682Y-12826484D02*
X13118634Y-12826484D01*
X13118634Y-12826484D02*
X13099586Y-12816960D01*
X13099586Y-12816960D02*
X13090063Y-12807436D01*
X13090063Y-12807436D02*
X13080539Y-12788388D01*
X13080539Y-12788388D02*
X13071015Y-12750293D01*
X13071015Y-12750293D02*
X13071015Y-12702674D01*
X13071015Y-12702674D02*
X13080539Y-12664579D01*
X13080539Y-12664579D02*
X13090063Y-12645531D01*
X13090063Y-12645531D02*
X13099586Y-12636008D01*
X13099586Y-12636008D02*
X13118634Y-12626484D01*
X13271015Y-12807436D02*
X13280539Y-12816960D01*
X13280539Y-12816960D02*
X13271015Y-12826484D01*
X13271015Y-12826484D02*
X13261491Y-12816960D01*
X13261491Y-12816960D02*
X13271015Y-12807436D01*
X13271015Y-12807436D02*
X13271015Y-12826484D01*
X13404348Y-12626484D02*
X13423396Y-12626484D01*
X13423396Y-12626484D02*
X13442444Y-12636008D01*
X13442444Y-12636008D02*
X13451967Y-12645531D01*
X13451967Y-12645531D02*
X13461491Y-12664579D01*
X13461491Y-12664579D02*
X13471015Y-12702674D01*
X13471015Y-12702674D02*
X13471015Y-12750293D01*
X13471015Y-12750293D02*
X13461491Y-12788388D01*
X13461491Y-12788388D02*
X13451967Y-12807436D01*
X13451967Y-12807436D02*
X13442444Y-12816960D01*
X13442444Y-12816960D02*
X13423396Y-12826484D01*
X13423396Y-12826484D02*
X13404348Y-12826484D01*
X13404348Y-12826484D02*
X13385301Y-12816960D01*
X13385301Y-12816960D02*
X13375777Y-12807436D01*
X13375777Y-12807436D02*
X13366253Y-12788388D01*
X13366253Y-12788388D02*
X13356729Y-12750293D01*
X13356729Y-12750293D02*
X13356729Y-12702674D01*
X13356729Y-12702674D02*
X13366253Y-12664579D01*
X13366253Y-12664579D02*
X13375777Y-12645531D01*
X13375777Y-12645531D02*
X13385301Y-12636008D01*
X13385301Y-12636008D02*
X13404348Y-12626484D01*
X13537682Y-12626484D02*
X13661491Y-12626484D01*
X13661491Y-12626484D02*
X13594825Y-12702674D01*
X13594825Y-12702674D02*
X13623396Y-12702674D01*
X13623396Y-12702674D02*
X13642444Y-12712198D01*
X13642444Y-12712198D02*
X13651967Y-12721722D01*
X13651967Y-12721722D02*
X13661491Y-12740769D01*
X13661491Y-12740769D02*
X13661491Y-12788388D01*
X13661491Y-12788388D02*
X13651967Y-12807436D01*
X13651967Y-12807436D02*
X13642444Y-12816960D01*
X13642444Y-12816960D02*
X13623396Y-12826484D01*
X13623396Y-12826484D02*
X13566253Y-12826484D01*
X13566253Y-12826484D02*
X13547206Y-12816960D01*
X13547206Y-12816960D02*
X13537682Y-12807436D01*
X13756729Y-12826484D02*
X13794825Y-12826484D01*
X13794825Y-12826484D02*
X13813872Y-12816960D01*
X13813872Y-12816960D02*
X13823396Y-12807436D01*
X13823396Y-12807436D02*
X13842444Y-12778865D01*
X13842444Y-12778865D02*
X13851967Y-12740769D01*
X13851967Y-12740769D02*
X13851967Y-12664579D01*
X13851967Y-12664579D02*
X13842444Y-12645531D01*
X13842444Y-12645531D02*
X13832920Y-12636008D01*
X13832920Y-12636008D02*
X13813872Y-12626484D01*
X13813872Y-12626484D02*
X13775777Y-12626484D01*
X13775777Y-12626484D02*
X13756729Y-12636008D01*
X13756729Y-12636008D02*
X13747206Y-12645531D01*
X13747206Y-12645531D02*
X13737682Y-12664579D01*
X13737682Y-12664579D02*
X13737682Y-12712198D01*
X13737682Y-12712198D02*
X13747206Y-12731246D01*
X13747206Y-12731246D02*
X13756729Y-12740769D01*
X13756729Y-12740769D02*
X13775777Y-12750293D01*
X13775777Y-12750293D02*
X13813872Y-12750293D01*
X13813872Y-12750293D02*
X13832920Y-12740769D01*
X13832920Y-12740769D02*
X13842444Y-12731246D01*
X13842444Y-12731246D02*
X13851967Y-12712198D01*
X14023396Y-12693150D02*
X14023396Y-12826484D01*
X13975777Y-12616960D02*
X13928158Y-12759817D01*
X13928158Y-12759817D02*
X14051967Y-12759817D01*
X14118634Y-12626484D02*
X14118634Y-12664579D01*
X14194825Y-12626484D02*
X14194825Y-12664579D01*
X14490063Y-12902674D02*
X14480539Y-12893150D01*
X14480539Y-12893150D02*
X14461491Y-12864579D01*
X14461491Y-12864579D02*
X14451968Y-12845531D01*
X14451968Y-12845531D02*
X14442444Y-12816960D01*
X14442444Y-12816960D02*
X14432920Y-12769341D01*
X14432920Y-12769341D02*
X14432920Y-12731246D01*
X14432920Y-12731246D02*
X14442444Y-12683627D01*
X14442444Y-12683627D02*
X14451968Y-12655055D01*
X14451968Y-12655055D02*
X14461491Y-12636008D01*
X14461491Y-12636008D02*
X14480539Y-12607436D01*
X14480539Y-12607436D02*
X14490063Y-12597912D01*
X14547206Y-12626484D02*
X14671015Y-12626484D01*
X14671015Y-12626484D02*
X14604348Y-12702674D01*
X14604348Y-12702674D02*
X14632920Y-12702674D01*
X14632920Y-12702674D02*
X14651968Y-12712198D01*
X14651968Y-12712198D02*
X14661491Y-12721722D01*
X14661491Y-12721722D02*
X14671015Y-12740769D01*
X14671015Y-12740769D02*
X14671015Y-12788388D01*
X14671015Y-12788388D02*
X14661491Y-12807436D01*
X14661491Y-12807436D02*
X14651968Y-12816960D01*
X14651968Y-12816960D02*
X14632920Y-12826484D01*
X14632920Y-12826484D02*
X14575777Y-12826484D01*
X14575777Y-12826484D02*
X14556729Y-12816960D01*
X14556729Y-12816960D02*
X14547206Y-12807436D01*
X14909110Y-12826484D02*
X14909110Y-12626484D01*
X14994825Y-12826484D02*
X14994825Y-12721722D01*
X14994825Y-12721722D02*
X14985301Y-12702674D01*
X14985301Y-12702674D02*
X14966253Y-12693150D01*
X14966253Y-12693150D02*
X14937682Y-12693150D01*
X14937682Y-12693150D02*
X14918634Y-12702674D01*
X14918634Y-12702674D02*
X14909110Y-12712198D01*
X15118634Y-12826484D02*
X15099587Y-12816960D01*
X15099587Y-12816960D02*
X15090063Y-12807436D01*
X15090063Y-12807436D02*
X15080539Y-12788388D01*
X15080539Y-12788388D02*
X15080539Y-12731246D01*
X15080539Y-12731246D02*
X15090063Y-12712198D01*
X15090063Y-12712198D02*
X15099587Y-12702674D01*
X15099587Y-12702674D02*
X15118634Y-12693150D01*
X15118634Y-12693150D02*
X15147206Y-12693150D01*
X15147206Y-12693150D02*
X15166253Y-12702674D01*
X15166253Y-12702674D02*
X15175777Y-12712198D01*
X15175777Y-12712198D02*
X15185301Y-12731246D01*
X15185301Y-12731246D02*
X15185301Y-12788388D01*
X15185301Y-12788388D02*
X15175777Y-12807436D01*
X15175777Y-12807436D02*
X15166253Y-12816960D01*
X15166253Y-12816960D02*
X15147206Y-12826484D01*
X15147206Y-12826484D02*
X15118634Y-12826484D01*
X15299587Y-12826484D02*
X15280539Y-12816960D01*
X15280539Y-12816960D02*
X15271015Y-12797912D01*
X15271015Y-12797912D02*
X15271015Y-12626484D01*
X15451968Y-12816960D02*
X15432920Y-12826484D01*
X15432920Y-12826484D02*
X15394825Y-12826484D01*
X15394825Y-12826484D02*
X15375777Y-12816960D01*
X15375777Y-12816960D02*
X15366253Y-12797912D01*
X15366253Y-12797912D02*
X15366253Y-12721722D01*
X15366253Y-12721722D02*
X15375777Y-12702674D01*
X15375777Y-12702674D02*
X15394825Y-12693150D01*
X15394825Y-12693150D02*
X15432920Y-12693150D01*
X15432920Y-12693150D02*
X15451968Y-12702674D01*
X15451968Y-12702674D02*
X15461491Y-12721722D01*
X15461491Y-12721722D02*
X15461491Y-12740769D01*
X15461491Y-12740769D02*
X15366253Y-12759817D01*
X15537682Y-12816960D02*
X15556730Y-12826484D01*
X15556730Y-12826484D02*
X15594825Y-12826484D01*
X15594825Y-12826484D02*
X15613872Y-12816960D01*
X15613872Y-12816960D02*
X15623396Y-12797912D01*
X15623396Y-12797912D02*
X15623396Y-12788388D01*
X15623396Y-12788388D02*
X15613872Y-12769341D01*
X15613872Y-12769341D02*
X15594825Y-12759817D01*
X15594825Y-12759817D02*
X15566253Y-12759817D01*
X15566253Y-12759817D02*
X15547206Y-12750293D01*
X15547206Y-12750293D02*
X15537682Y-12731246D01*
X15537682Y-12731246D02*
X15537682Y-12721722D01*
X15537682Y-12721722D02*
X15547206Y-12702674D01*
X15547206Y-12702674D02*
X15566253Y-12693150D01*
X15566253Y-12693150D02*
X15594825Y-12693150D01*
X15594825Y-12693150D02*
X15613872Y-12702674D01*
X15690063Y-12902674D02*
X15699587Y-12893150D01*
X15699587Y-12893150D02*
X15718634Y-12864579D01*
X15718634Y-12864579D02*
X15728158Y-12845531D01*
X15728158Y-12845531D02*
X15737682Y-12816960D01*
X15737682Y-12816960D02*
X15747206Y-12769341D01*
X15747206Y-12769341D02*
X15747206Y-12731246D01*
X15747206Y-12731246D02*
X15737682Y-12683627D01*
X15737682Y-12683627D02*
X15728158Y-12655055D01*
X15728158Y-12655055D02*
X15718634Y-12636008D01*
X15718634Y-12636008D02*
X15699587Y-12607436D01*
X15699587Y-12607436D02*
X15690063Y-12597912D01*
D12*
X10755000Y-12919000D02*
X10915000Y-13079000D01*
X10915000Y-12919000D02*
X10755000Y-13079000D01*
X10835000Y-12919000D02*
X10835000Y-13079000D01*
X10755000Y-12999000D02*
X10915000Y-12999000D01*
D11*
X11280539Y-13090484D02*
X11166253Y-13090484D01*
X11223396Y-13090484D02*
X11223396Y-12890484D01*
X11223396Y-12890484D02*
X11204348Y-12919055D01*
X11204348Y-12919055D02*
X11185301Y-12938103D01*
X11185301Y-12938103D02*
X11166253Y-12947627D01*
X11366253Y-13071436D02*
X11375777Y-13080960D01*
X11375777Y-13080960D02*
X11366253Y-13090484D01*
X11366253Y-13090484D02*
X11356729Y-13080960D01*
X11356729Y-13080960D02*
X11366253Y-13071436D01*
X11366253Y-13071436D02*
X11366253Y-13090484D01*
X11547205Y-12890484D02*
X11509110Y-12890484D01*
X11509110Y-12890484D02*
X11490062Y-12900008D01*
X11490062Y-12900008D02*
X11480539Y-12909531D01*
X11480539Y-12909531D02*
X11461491Y-12938103D01*
X11461491Y-12938103D02*
X11451967Y-12976198D01*
X11451967Y-12976198D02*
X11451967Y-13052388D01*
X11451967Y-13052388D02*
X11461491Y-13071436D01*
X11461491Y-13071436D02*
X11471015Y-13080960D01*
X11471015Y-13080960D02*
X11490062Y-13090484D01*
X11490062Y-13090484D02*
X11528158Y-13090484D01*
X11528158Y-13090484D02*
X11547205Y-13080960D01*
X11547205Y-13080960D02*
X11556729Y-13071436D01*
X11556729Y-13071436D02*
X11566253Y-13052388D01*
X11566253Y-13052388D02*
X11566253Y-13004769D01*
X11566253Y-13004769D02*
X11556729Y-12985722D01*
X11556729Y-12985722D02*
X11547205Y-12976198D01*
X11547205Y-12976198D02*
X11528158Y-12966674D01*
X11528158Y-12966674D02*
X11490062Y-12966674D01*
X11490062Y-12966674D02*
X11471015Y-12976198D01*
X11471015Y-12976198D02*
X11461491Y-12985722D01*
X11461491Y-12985722D02*
X11451967Y-13004769D01*
X11690062Y-12890484D02*
X11709110Y-12890484D01*
X11709110Y-12890484D02*
X11728158Y-12900008D01*
X11728158Y-12900008D02*
X11737682Y-12909531D01*
X11737682Y-12909531D02*
X11747205Y-12928579D01*
X11747205Y-12928579D02*
X11756729Y-12966674D01*
X11756729Y-12966674D02*
X11756729Y-13014293D01*
X11756729Y-13014293D02*
X11747205Y-13052388D01*
X11747205Y-13052388D02*
X11737682Y-13071436D01*
X11737682Y-13071436D02*
X11728158Y-13080960D01*
X11728158Y-13080960D02*
X11709110Y-13090484D01*
X11709110Y-13090484D02*
X11690062Y-13090484D01*
X11690062Y-13090484D02*
X11671015Y-13080960D01*
X11671015Y-13080960D02*
X11661491Y-13071436D01*
X11661491Y-13071436D02*
X11651967Y-13052388D01*
X11651967Y-13052388D02*
X11642443Y-13014293D01*
X11642443Y-13014293D02*
X11642443Y-12966674D01*
X11642443Y-12966674D02*
X11651967Y-12928579D01*
X11651967Y-12928579D02*
X11661491Y-12909531D01*
X11661491Y-12909531D02*
X11671015Y-12900008D01*
X11671015Y-12900008D02*
X11690062Y-12890484D01*
X11880539Y-12890484D02*
X11899586Y-12890484D01*
X11899586Y-12890484D02*
X11918634Y-12900008D01*
X11918634Y-12900008D02*
X11928158Y-12909531D01*
X11928158Y-12909531D02*
X11937682Y-12928579D01*
X11937682Y-12928579D02*
X11947205Y-12966674D01*
X11947205Y-12966674D02*
X11947205Y-13014293D01*
X11947205Y-13014293D02*
X11937682Y-13052388D01*
X11937682Y-13052388D02*
X11928158Y-13071436D01*
X11928158Y-13071436D02*
X11918634Y-13080960D01*
X11918634Y-13080960D02*
X11899586Y-13090484D01*
X11899586Y-13090484D02*
X11880539Y-13090484D01*
X11880539Y-13090484D02*
X11861491Y-13080960D01*
X11861491Y-13080960D02*
X11851967Y-13071436D01*
X11851967Y-13071436D02*
X11842443Y-13052388D01*
X11842443Y-13052388D02*
X11832920Y-13014293D01*
X11832920Y-13014293D02*
X11832920Y-12966674D01*
X11832920Y-12966674D02*
X11842443Y-12928579D01*
X11842443Y-12928579D02*
X11851967Y-12909531D01*
X11851967Y-12909531D02*
X11861491Y-12900008D01*
X11861491Y-12900008D02*
X11880539Y-12890484D01*
X12032920Y-13090484D02*
X12032920Y-12957150D01*
X12032920Y-12976198D02*
X12042443Y-12966674D01*
X12042443Y-12966674D02*
X12061491Y-12957150D01*
X12061491Y-12957150D02*
X12090063Y-12957150D01*
X12090063Y-12957150D02*
X12109110Y-12966674D01*
X12109110Y-12966674D02*
X12118634Y-12985722D01*
X12118634Y-12985722D02*
X12118634Y-13090484D01*
X12118634Y-12985722D02*
X12128158Y-12966674D01*
X12128158Y-12966674D02*
X12147205Y-12957150D01*
X12147205Y-12957150D02*
X12175777Y-12957150D01*
X12175777Y-12957150D02*
X12194824Y-12966674D01*
X12194824Y-12966674D02*
X12204348Y-12985722D01*
X12204348Y-12985722D02*
X12204348Y-13090484D01*
X12299586Y-13090484D02*
X12299586Y-12957150D01*
X12299586Y-12976198D02*
X12309110Y-12966674D01*
X12309110Y-12966674D02*
X12328158Y-12957150D01*
X12328158Y-12957150D02*
X12356729Y-12957150D01*
X12356729Y-12957150D02*
X12375777Y-12966674D01*
X12375777Y-12966674D02*
X12385301Y-12985722D01*
X12385301Y-12985722D02*
X12385301Y-13090484D01*
X12385301Y-12985722D02*
X12394824Y-12966674D01*
X12394824Y-12966674D02*
X12413872Y-12957150D01*
X12413872Y-12957150D02*
X12442443Y-12957150D01*
X12442443Y-12957150D02*
X12461491Y-12966674D01*
X12461491Y-12966674D02*
X12471015Y-12985722D01*
X12471015Y-12985722D02*
X12471015Y-13090484D01*
X12861491Y-12880960D02*
X12690063Y-13138103D01*
X13118634Y-12890484D02*
X13137682Y-12890484D01*
X13137682Y-12890484D02*
X13156729Y-12900008D01*
X13156729Y-12900008D02*
X13166253Y-12909531D01*
X13166253Y-12909531D02*
X13175777Y-12928579D01*
X13175777Y-12928579D02*
X13185301Y-12966674D01*
X13185301Y-12966674D02*
X13185301Y-13014293D01*
X13185301Y-13014293D02*
X13175777Y-13052388D01*
X13175777Y-13052388D02*
X13166253Y-13071436D01*
X13166253Y-13071436D02*
X13156729Y-13080960D01*
X13156729Y-13080960D02*
X13137682Y-13090484D01*
X13137682Y-13090484D02*
X13118634Y-13090484D01*
X13118634Y-13090484D02*
X13099586Y-13080960D01*
X13099586Y-13080960D02*
X13090063Y-13071436D01*
X13090063Y-13071436D02*
X13080539Y-13052388D01*
X13080539Y-13052388D02*
X13071015Y-13014293D01*
X13071015Y-13014293D02*
X13071015Y-12966674D01*
X13071015Y-12966674D02*
X13080539Y-12928579D01*
X13080539Y-12928579D02*
X13090063Y-12909531D01*
X13090063Y-12909531D02*
X13099586Y-12900008D01*
X13099586Y-12900008D02*
X13118634Y-12890484D01*
X13271015Y-13071436D02*
X13280539Y-13080960D01*
X13280539Y-13080960D02*
X13271015Y-13090484D01*
X13271015Y-13090484D02*
X13261491Y-13080960D01*
X13261491Y-13080960D02*
X13271015Y-13071436D01*
X13271015Y-13071436D02*
X13271015Y-13090484D01*
X13404348Y-12890484D02*
X13423396Y-12890484D01*
X13423396Y-12890484D02*
X13442444Y-12900008D01*
X13442444Y-12900008D02*
X13451967Y-12909531D01*
X13451967Y-12909531D02*
X13461491Y-12928579D01*
X13461491Y-12928579D02*
X13471015Y-12966674D01*
X13471015Y-12966674D02*
X13471015Y-13014293D01*
X13471015Y-13014293D02*
X13461491Y-13052388D01*
X13461491Y-13052388D02*
X13451967Y-13071436D01*
X13451967Y-13071436D02*
X13442444Y-13080960D01*
X13442444Y-13080960D02*
X13423396Y-13090484D01*
X13423396Y-13090484D02*
X13404348Y-13090484D01*
X13404348Y-13090484D02*
X13385301Y-13080960D01*
X13385301Y-13080960D02*
X13375777Y-13071436D01*
X13375777Y-13071436D02*
X13366253Y-13052388D01*
X13366253Y-13052388D02*
X13356729Y-13014293D01*
X13356729Y-13014293D02*
X13356729Y-12966674D01*
X13356729Y-12966674D02*
X13366253Y-12928579D01*
X13366253Y-12928579D02*
X13375777Y-12909531D01*
X13375777Y-12909531D02*
X13385301Y-12900008D01*
X13385301Y-12900008D02*
X13404348Y-12890484D01*
X13642444Y-12890484D02*
X13604348Y-12890484D01*
X13604348Y-12890484D02*
X13585301Y-12900008D01*
X13585301Y-12900008D02*
X13575777Y-12909531D01*
X13575777Y-12909531D02*
X13556729Y-12938103D01*
X13556729Y-12938103D02*
X13547206Y-12976198D01*
X13547206Y-12976198D02*
X13547206Y-13052388D01*
X13547206Y-13052388D02*
X13556729Y-13071436D01*
X13556729Y-13071436D02*
X13566253Y-13080960D01*
X13566253Y-13080960D02*
X13585301Y-13090484D01*
X13585301Y-13090484D02*
X13623396Y-13090484D01*
X13623396Y-13090484D02*
X13642444Y-13080960D01*
X13642444Y-13080960D02*
X13651967Y-13071436D01*
X13651967Y-13071436D02*
X13661491Y-13052388D01*
X13661491Y-13052388D02*
X13661491Y-13004769D01*
X13661491Y-13004769D02*
X13651967Y-12985722D01*
X13651967Y-12985722D02*
X13642444Y-12976198D01*
X13642444Y-12976198D02*
X13623396Y-12966674D01*
X13623396Y-12966674D02*
X13585301Y-12966674D01*
X13585301Y-12966674D02*
X13566253Y-12976198D01*
X13566253Y-12976198D02*
X13556729Y-12985722D01*
X13556729Y-12985722D02*
X13547206Y-13004769D01*
X13728158Y-12890484D02*
X13851967Y-12890484D01*
X13851967Y-12890484D02*
X13785301Y-12966674D01*
X13785301Y-12966674D02*
X13813872Y-12966674D01*
X13813872Y-12966674D02*
X13832920Y-12976198D01*
X13832920Y-12976198D02*
X13842444Y-12985722D01*
X13842444Y-12985722D02*
X13851967Y-13004769D01*
X13851967Y-13004769D02*
X13851967Y-13052388D01*
X13851967Y-13052388D02*
X13842444Y-13071436D01*
X13842444Y-13071436D02*
X13832920Y-13080960D01*
X13832920Y-13080960D02*
X13813872Y-13090484D01*
X13813872Y-13090484D02*
X13756729Y-13090484D01*
X13756729Y-13090484D02*
X13737682Y-13080960D01*
X13737682Y-13080960D02*
X13728158Y-13071436D01*
X13975777Y-12890484D02*
X13994825Y-12890484D01*
X13994825Y-12890484D02*
X14013872Y-12900008D01*
X14013872Y-12900008D02*
X14023396Y-12909531D01*
X14023396Y-12909531D02*
X14032920Y-12928579D01*
X14032920Y-12928579D02*
X14042444Y-12966674D01*
X14042444Y-12966674D02*
X14042444Y-13014293D01*
X14042444Y-13014293D02*
X14032920Y-13052388D01*
X14032920Y-13052388D02*
X14023396Y-13071436D01*
X14023396Y-13071436D02*
X14013872Y-13080960D01*
X14013872Y-13080960D02*
X13994825Y-13090484D01*
X13994825Y-13090484D02*
X13975777Y-13090484D01*
X13975777Y-13090484D02*
X13956729Y-13080960D01*
X13956729Y-13080960D02*
X13947206Y-13071436D01*
X13947206Y-13071436D02*
X13937682Y-13052388D01*
X13937682Y-13052388D02*
X13928158Y-13014293D01*
X13928158Y-13014293D02*
X13928158Y-12966674D01*
X13928158Y-12966674D02*
X13937682Y-12928579D01*
X13937682Y-12928579D02*
X13947206Y-12909531D01*
X13947206Y-12909531D02*
X13956729Y-12900008D01*
X13956729Y-12900008D02*
X13975777Y-12890484D01*
X14118634Y-12890484D02*
X14118634Y-12928579D01*
X14194825Y-12890484D02*
X14194825Y-12928579D01*
X14490063Y-13166674D02*
X14480539Y-13157150D01*
X14480539Y-13157150D02*
X14461491Y-13128579D01*
X14461491Y-13128579D02*
X14451968Y-13109531D01*
X14451968Y-13109531D02*
X14442444Y-13080960D01*
X14442444Y-13080960D02*
X14432920Y-13033341D01*
X14432920Y-13033341D02*
X14432920Y-12995246D01*
X14432920Y-12995246D02*
X14442444Y-12947627D01*
X14442444Y-12947627D02*
X14451968Y-12919055D01*
X14451968Y-12919055D02*
X14461491Y-12900008D01*
X14461491Y-12900008D02*
X14480539Y-12871436D01*
X14480539Y-12871436D02*
X14490063Y-12861912D01*
X14556729Y-12909531D02*
X14566253Y-12900008D01*
X14566253Y-12900008D02*
X14585301Y-12890484D01*
X14585301Y-12890484D02*
X14632920Y-12890484D01*
X14632920Y-12890484D02*
X14651968Y-12900008D01*
X14651968Y-12900008D02*
X14661491Y-12909531D01*
X14661491Y-12909531D02*
X14671015Y-12928579D01*
X14671015Y-12928579D02*
X14671015Y-12947627D01*
X14671015Y-12947627D02*
X14661491Y-12976198D01*
X14661491Y-12976198D02*
X14547206Y-13090484D01*
X14547206Y-13090484D02*
X14671015Y-13090484D01*
X14909110Y-13090484D02*
X14909110Y-12890484D01*
X14994825Y-13090484D02*
X14994825Y-12985722D01*
X14994825Y-12985722D02*
X14985301Y-12966674D01*
X14985301Y-12966674D02*
X14966253Y-12957150D01*
X14966253Y-12957150D02*
X14937682Y-12957150D01*
X14937682Y-12957150D02*
X14918634Y-12966674D01*
X14918634Y-12966674D02*
X14909110Y-12976198D01*
X15118634Y-13090484D02*
X15099587Y-13080960D01*
X15099587Y-13080960D02*
X15090063Y-13071436D01*
X15090063Y-13071436D02*
X15080539Y-13052388D01*
X15080539Y-13052388D02*
X15080539Y-12995246D01*
X15080539Y-12995246D02*
X15090063Y-12976198D01*
X15090063Y-12976198D02*
X15099587Y-12966674D01*
X15099587Y-12966674D02*
X15118634Y-12957150D01*
X15118634Y-12957150D02*
X15147206Y-12957150D01*
X15147206Y-12957150D02*
X15166253Y-12966674D01*
X15166253Y-12966674D02*
X15175777Y-12976198D01*
X15175777Y-12976198D02*
X15185301Y-12995246D01*
X15185301Y-12995246D02*
X15185301Y-13052388D01*
X15185301Y-13052388D02*
X15175777Y-13071436D01*
X15175777Y-13071436D02*
X15166253Y-13080960D01*
X15166253Y-13080960D02*
X15147206Y-13090484D01*
X15147206Y-13090484D02*
X15118634Y-13090484D01*
X15299587Y-13090484D02*
X15280539Y-13080960D01*
X15280539Y-13080960D02*
X15271015Y-13061912D01*
X15271015Y-13061912D02*
X15271015Y-12890484D01*
X15451968Y-13080960D02*
X15432920Y-13090484D01*
X15432920Y-13090484D02*
X15394825Y-13090484D01*
X15394825Y-13090484D02*
X15375777Y-13080960D01*
X15375777Y-13080960D02*
X15366253Y-13061912D01*
X15366253Y-13061912D02*
X15366253Y-12985722D01*
X15366253Y-12985722D02*
X15375777Y-12966674D01*
X15375777Y-12966674D02*
X15394825Y-12957150D01*
X15394825Y-12957150D02*
X15432920Y-12957150D01*
X15432920Y-12957150D02*
X15451968Y-12966674D01*
X15451968Y-12966674D02*
X15461491Y-12985722D01*
X15461491Y-12985722D02*
X15461491Y-13004769D01*
X15461491Y-13004769D02*
X15366253Y-13023817D01*
X15537682Y-13080960D02*
X15556730Y-13090484D01*
X15556730Y-13090484D02*
X15594825Y-13090484D01*
X15594825Y-13090484D02*
X15613872Y-13080960D01*
X15613872Y-13080960D02*
X15623396Y-13061912D01*
X15623396Y-13061912D02*
X15623396Y-13052388D01*
X15623396Y-13052388D02*
X15613872Y-13033341D01*
X15613872Y-13033341D02*
X15594825Y-13023817D01*
X15594825Y-13023817D02*
X15566253Y-13023817D01*
X15566253Y-13023817D02*
X15547206Y-13014293D01*
X15547206Y-13014293D02*
X15537682Y-12995246D01*
X15537682Y-12995246D02*
X15537682Y-12985722D01*
X15537682Y-12985722D02*
X15547206Y-12966674D01*
X15547206Y-12966674D02*
X15566253Y-12957150D01*
X15566253Y-12957150D02*
X15594825Y-12957150D01*
X15594825Y-12957150D02*
X15613872Y-12966674D01*
X15690063Y-13166674D02*
X15699587Y-13157150D01*
X15699587Y-13157150D02*
X15718634Y-13128579D01*
X15718634Y-13128579D02*
X15728158Y-13109531D01*
X15728158Y-13109531D02*
X15737682Y-13080960D01*
X15737682Y-13080960D02*
X15747206Y-13033341D01*
X15747206Y-13033341D02*
X15747206Y-12995246D01*
X15747206Y-12995246D02*
X15737682Y-12947627D01*
X15737682Y-12947627D02*
X15728158Y-12919055D01*
X15728158Y-12919055D02*
X15718634Y-12900008D01*
X15718634Y-12900008D02*
X15699587Y-12871436D01*
X15699587Y-12871436D02*
X15690063Y-12861912D01*
X10715000Y-13179000D02*
X10915000Y-13379000D01*
X10915000Y-13179000D02*
X10715000Y-13379000D01*
X10885711Y-13349711D02*
X10885711Y-13208289D01*
X10744289Y-13208289D01*
X10744289Y-13349711D01*
X10885711Y-13349711D01*
X11166253Y-13189531D02*
X11175777Y-13180008D01*
X11175777Y-13180008D02*
X11194824Y-13170484D01*
X11194824Y-13170484D02*
X11242443Y-13170484D01*
X11242443Y-13170484D02*
X11261491Y-13180008D01*
X11261491Y-13180008D02*
X11271015Y-13189531D01*
X11271015Y-13189531D02*
X11280539Y-13208579D01*
X11280539Y-13208579D02*
X11280539Y-13227627D01*
X11280539Y-13227627D02*
X11271015Y-13256198D01*
X11271015Y-13256198D02*
X11156729Y-13370484D01*
X11156729Y-13370484D02*
X11280539Y-13370484D01*
X11366253Y-13351436D02*
X11375777Y-13360960D01*
X11375777Y-13360960D02*
X11366253Y-13370484D01*
X11366253Y-13370484D02*
X11356729Y-13360960D01*
X11356729Y-13360960D02*
X11366253Y-13351436D01*
X11366253Y-13351436D02*
X11366253Y-13370484D01*
X11451967Y-13189531D02*
X11461491Y-13180008D01*
X11461491Y-13180008D02*
X11480539Y-13170484D01*
X11480539Y-13170484D02*
X11528158Y-13170484D01*
X11528158Y-13170484D02*
X11547205Y-13180008D01*
X11547205Y-13180008D02*
X11556729Y-13189531D01*
X11556729Y-13189531D02*
X11566253Y-13208579D01*
X11566253Y-13208579D02*
X11566253Y-13227627D01*
X11566253Y-13227627D02*
X11556729Y-13256198D01*
X11556729Y-13256198D02*
X11442443Y-13370484D01*
X11442443Y-13370484D02*
X11566253Y-13370484D01*
X11690062Y-13170484D02*
X11709110Y-13170484D01*
X11709110Y-13170484D02*
X11728158Y-13180008D01*
X11728158Y-13180008D02*
X11737682Y-13189531D01*
X11737682Y-13189531D02*
X11747205Y-13208579D01*
X11747205Y-13208579D02*
X11756729Y-13246674D01*
X11756729Y-13246674D02*
X11756729Y-13294293D01*
X11756729Y-13294293D02*
X11747205Y-13332388D01*
X11747205Y-13332388D02*
X11737682Y-13351436D01*
X11737682Y-13351436D02*
X11728158Y-13360960D01*
X11728158Y-13360960D02*
X11709110Y-13370484D01*
X11709110Y-13370484D02*
X11690062Y-13370484D01*
X11690062Y-13370484D02*
X11671015Y-13360960D01*
X11671015Y-13360960D02*
X11661491Y-13351436D01*
X11661491Y-13351436D02*
X11651967Y-13332388D01*
X11651967Y-13332388D02*
X11642443Y-13294293D01*
X11642443Y-13294293D02*
X11642443Y-13246674D01*
X11642443Y-13246674D02*
X11651967Y-13208579D01*
X11651967Y-13208579D02*
X11661491Y-13189531D01*
X11661491Y-13189531D02*
X11671015Y-13180008D01*
X11671015Y-13180008D02*
X11690062Y-13170484D01*
X11880539Y-13170484D02*
X11899586Y-13170484D01*
X11899586Y-13170484D02*
X11918634Y-13180008D01*
X11918634Y-13180008D02*
X11928158Y-13189531D01*
X11928158Y-13189531D02*
X11937682Y-13208579D01*
X11937682Y-13208579D02*
X11947205Y-13246674D01*
X11947205Y-13246674D02*
X11947205Y-13294293D01*
X11947205Y-13294293D02*
X11937682Y-13332388D01*
X11937682Y-13332388D02*
X11928158Y-13351436D01*
X11928158Y-13351436D02*
X11918634Y-13360960D01*
X11918634Y-13360960D02*
X11899586Y-13370484D01*
X11899586Y-13370484D02*
X11880539Y-13370484D01*
X11880539Y-13370484D02*
X11861491Y-13360960D01*
X11861491Y-13360960D02*
X11851967Y-13351436D01*
X11851967Y-13351436D02*
X11842443Y-13332388D01*
X11842443Y-13332388D02*
X11832920Y-13294293D01*
X11832920Y-13294293D02*
X11832920Y-13246674D01*
X11832920Y-13246674D02*
X11842443Y-13208579D01*
X11842443Y-13208579D02*
X11851967Y-13189531D01*
X11851967Y-13189531D02*
X11861491Y-13180008D01*
X11861491Y-13180008D02*
X11880539Y-13170484D01*
X12032920Y-13370484D02*
X12032920Y-13237150D01*
X12032920Y-13256198D02*
X12042443Y-13246674D01*
X12042443Y-13246674D02*
X12061491Y-13237150D01*
X12061491Y-13237150D02*
X12090063Y-13237150D01*
X12090063Y-13237150D02*
X12109110Y-13246674D01*
X12109110Y-13246674D02*
X12118634Y-13265722D01*
X12118634Y-13265722D02*
X12118634Y-13370484D01*
X12118634Y-13265722D02*
X12128158Y-13246674D01*
X12128158Y-13246674D02*
X12147205Y-13237150D01*
X12147205Y-13237150D02*
X12175777Y-13237150D01*
X12175777Y-13237150D02*
X12194824Y-13246674D01*
X12194824Y-13246674D02*
X12204348Y-13265722D01*
X12204348Y-13265722D02*
X12204348Y-13370484D01*
X12299586Y-13370484D02*
X12299586Y-13237150D01*
X12299586Y-13256198D02*
X12309110Y-13246674D01*
X12309110Y-13246674D02*
X12328158Y-13237150D01*
X12328158Y-13237150D02*
X12356729Y-13237150D01*
X12356729Y-13237150D02*
X12375777Y-13246674D01*
X12375777Y-13246674D02*
X12385301Y-13265722D01*
X12385301Y-13265722D02*
X12385301Y-13370484D01*
X12385301Y-13265722D02*
X12394824Y-13246674D01*
X12394824Y-13246674D02*
X12413872Y-13237150D01*
X12413872Y-13237150D02*
X12442443Y-13237150D01*
X12442443Y-13237150D02*
X12461491Y-13246674D01*
X12461491Y-13246674D02*
X12471015Y-13265722D01*
X12471015Y-13265722D02*
X12471015Y-13370484D01*
X12861491Y-13160960D02*
X12690063Y-13418103D01*
X13118634Y-13170484D02*
X13137682Y-13170484D01*
X13137682Y-13170484D02*
X13156729Y-13180008D01*
X13156729Y-13180008D02*
X13166253Y-13189531D01*
X13166253Y-13189531D02*
X13175777Y-13208579D01*
X13175777Y-13208579D02*
X13185301Y-13246674D01*
X13185301Y-13246674D02*
X13185301Y-13294293D01*
X13185301Y-13294293D02*
X13175777Y-13332388D01*
X13175777Y-13332388D02*
X13166253Y-13351436D01*
X13166253Y-13351436D02*
X13156729Y-13360960D01*
X13156729Y-13360960D02*
X13137682Y-13370484D01*
X13137682Y-13370484D02*
X13118634Y-13370484D01*
X13118634Y-13370484D02*
X13099586Y-13360960D01*
X13099586Y-13360960D02*
X13090063Y-13351436D01*
X13090063Y-13351436D02*
X13080539Y-13332388D01*
X13080539Y-13332388D02*
X13071015Y-13294293D01*
X13071015Y-13294293D02*
X13071015Y-13246674D01*
X13071015Y-13246674D02*
X13080539Y-13208579D01*
X13080539Y-13208579D02*
X13090063Y-13189531D01*
X13090063Y-13189531D02*
X13099586Y-13180008D01*
X13099586Y-13180008D02*
X13118634Y-13170484D01*
X13271015Y-13351436D02*
X13280539Y-13360960D01*
X13280539Y-13360960D02*
X13271015Y-13370484D01*
X13271015Y-13370484D02*
X13261491Y-13360960D01*
X13261491Y-13360960D02*
X13271015Y-13351436D01*
X13271015Y-13351436D02*
X13271015Y-13370484D01*
X13404348Y-13170484D02*
X13423396Y-13170484D01*
X13423396Y-13170484D02*
X13442444Y-13180008D01*
X13442444Y-13180008D02*
X13451967Y-13189531D01*
X13451967Y-13189531D02*
X13461491Y-13208579D01*
X13461491Y-13208579D02*
X13471015Y-13246674D01*
X13471015Y-13246674D02*
X13471015Y-13294293D01*
X13471015Y-13294293D02*
X13461491Y-13332388D01*
X13461491Y-13332388D02*
X13451967Y-13351436D01*
X13451967Y-13351436D02*
X13442444Y-13360960D01*
X13442444Y-13360960D02*
X13423396Y-13370484D01*
X13423396Y-13370484D02*
X13404348Y-13370484D01*
X13404348Y-13370484D02*
X13385301Y-13360960D01*
X13385301Y-13360960D02*
X13375777Y-13351436D01*
X13375777Y-13351436D02*
X13366253Y-13332388D01*
X13366253Y-13332388D02*
X13356729Y-13294293D01*
X13356729Y-13294293D02*
X13356729Y-13246674D01*
X13356729Y-13246674D02*
X13366253Y-13208579D01*
X13366253Y-13208579D02*
X13375777Y-13189531D01*
X13375777Y-13189531D02*
X13385301Y-13180008D01*
X13385301Y-13180008D02*
X13404348Y-13170484D01*
X13585301Y-13256198D02*
X13566253Y-13246674D01*
X13566253Y-13246674D02*
X13556729Y-13237150D01*
X13556729Y-13237150D02*
X13547206Y-13218103D01*
X13547206Y-13218103D02*
X13547206Y-13208579D01*
X13547206Y-13208579D02*
X13556729Y-13189531D01*
X13556729Y-13189531D02*
X13566253Y-13180008D01*
X13566253Y-13180008D02*
X13585301Y-13170484D01*
X13585301Y-13170484D02*
X13623396Y-13170484D01*
X13623396Y-13170484D02*
X13642444Y-13180008D01*
X13642444Y-13180008D02*
X13651967Y-13189531D01*
X13651967Y-13189531D02*
X13661491Y-13208579D01*
X13661491Y-13208579D02*
X13661491Y-13218103D01*
X13661491Y-13218103D02*
X13651967Y-13237150D01*
X13651967Y-13237150D02*
X13642444Y-13246674D01*
X13642444Y-13246674D02*
X13623396Y-13256198D01*
X13623396Y-13256198D02*
X13585301Y-13256198D01*
X13585301Y-13256198D02*
X13566253Y-13265722D01*
X13566253Y-13265722D02*
X13556729Y-13275246D01*
X13556729Y-13275246D02*
X13547206Y-13294293D01*
X13547206Y-13294293D02*
X13547206Y-13332388D01*
X13547206Y-13332388D02*
X13556729Y-13351436D01*
X13556729Y-13351436D02*
X13566253Y-13360960D01*
X13566253Y-13360960D02*
X13585301Y-13370484D01*
X13585301Y-13370484D02*
X13623396Y-13370484D01*
X13623396Y-13370484D02*
X13642444Y-13360960D01*
X13642444Y-13360960D02*
X13651967Y-13351436D01*
X13651967Y-13351436D02*
X13661491Y-13332388D01*
X13661491Y-13332388D02*
X13661491Y-13294293D01*
X13661491Y-13294293D02*
X13651967Y-13275246D01*
X13651967Y-13275246D02*
X13642444Y-13265722D01*
X13642444Y-13265722D02*
X13623396Y-13256198D01*
X13832920Y-13170484D02*
X13794825Y-13170484D01*
X13794825Y-13170484D02*
X13775777Y-13180008D01*
X13775777Y-13180008D02*
X13766253Y-13189531D01*
X13766253Y-13189531D02*
X13747206Y-13218103D01*
X13747206Y-13218103D02*
X13737682Y-13256198D01*
X13737682Y-13256198D02*
X13737682Y-13332388D01*
X13737682Y-13332388D02*
X13747206Y-13351436D01*
X13747206Y-13351436D02*
X13756729Y-13360960D01*
X13756729Y-13360960D02*
X13775777Y-13370484D01*
X13775777Y-13370484D02*
X13813872Y-13370484D01*
X13813872Y-13370484D02*
X13832920Y-13360960D01*
X13832920Y-13360960D02*
X13842444Y-13351436D01*
X13842444Y-13351436D02*
X13851967Y-13332388D01*
X13851967Y-13332388D02*
X13851967Y-13284769D01*
X13851967Y-13284769D02*
X13842444Y-13265722D01*
X13842444Y-13265722D02*
X13832920Y-13256198D01*
X13832920Y-13256198D02*
X13813872Y-13246674D01*
X13813872Y-13246674D02*
X13775777Y-13246674D01*
X13775777Y-13246674D02*
X13756729Y-13256198D01*
X13756729Y-13256198D02*
X13747206Y-13265722D01*
X13747206Y-13265722D02*
X13737682Y-13284769D01*
X14023396Y-13170484D02*
X13985301Y-13170484D01*
X13985301Y-13170484D02*
X13966253Y-13180008D01*
X13966253Y-13180008D02*
X13956729Y-13189531D01*
X13956729Y-13189531D02*
X13937682Y-13218103D01*
X13937682Y-13218103D02*
X13928158Y-13256198D01*
X13928158Y-13256198D02*
X13928158Y-13332388D01*
X13928158Y-13332388D02*
X13937682Y-13351436D01*
X13937682Y-13351436D02*
X13947206Y-13360960D01*
X13947206Y-13360960D02*
X13966253Y-13370484D01*
X13966253Y-13370484D02*
X14004348Y-13370484D01*
X14004348Y-13370484D02*
X14023396Y-13360960D01*
X14023396Y-13360960D02*
X14032920Y-13351436D01*
X14032920Y-13351436D02*
X14042444Y-13332388D01*
X14042444Y-13332388D02*
X14042444Y-13284769D01*
X14042444Y-13284769D02*
X14032920Y-13265722D01*
X14032920Y-13265722D02*
X14023396Y-13256198D01*
X14023396Y-13256198D02*
X14004348Y-13246674D01*
X14004348Y-13246674D02*
X13966253Y-13246674D01*
X13966253Y-13246674D02*
X13947206Y-13256198D01*
X13947206Y-13256198D02*
X13937682Y-13265722D01*
X13937682Y-13265722D02*
X13928158Y-13284769D01*
X14118634Y-13170484D02*
X14118634Y-13208579D01*
X14194825Y-13170484D02*
X14194825Y-13208579D01*
X14490063Y-13446674D02*
X14480539Y-13437150D01*
X14480539Y-13437150D02*
X14461491Y-13408579D01*
X14461491Y-13408579D02*
X14451968Y-13389531D01*
X14451968Y-13389531D02*
X14442444Y-13360960D01*
X14442444Y-13360960D02*
X14432920Y-13313341D01*
X14432920Y-13313341D02*
X14432920Y-13275246D01*
X14432920Y-13275246D02*
X14442444Y-13227627D01*
X14442444Y-13227627D02*
X14451968Y-13199055D01*
X14451968Y-13199055D02*
X14461491Y-13180008D01*
X14461491Y-13180008D02*
X14480539Y-13151436D01*
X14480539Y-13151436D02*
X14490063Y-13141912D01*
X14651968Y-13237150D02*
X14651968Y-13370484D01*
X14604348Y-13160960D02*
X14556729Y-13303817D01*
X14556729Y-13303817D02*
X14680539Y-13303817D01*
X14909110Y-13370484D02*
X14909110Y-13170484D01*
X14994825Y-13370484D02*
X14994825Y-13265722D01*
X14994825Y-13265722D02*
X14985301Y-13246674D01*
X14985301Y-13246674D02*
X14966253Y-13237150D01*
X14966253Y-13237150D02*
X14937682Y-13237150D01*
X14937682Y-13237150D02*
X14918634Y-13246674D01*
X14918634Y-13246674D02*
X14909110Y-13256198D01*
X15118634Y-13370484D02*
X15099587Y-13360960D01*
X15099587Y-13360960D02*
X15090063Y-13351436D01*
X15090063Y-13351436D02*
X15080539Y-13332388D01*
X15080539Y-13332388D02*
X15080539Y-13275246D01*
X15080539Y-13275246D02*
X15090063Y-13256198D01*
X15090063Y-13256198D02*
X15099587Y-13246674D01*
X15099587Y-13246674D02*
X15118634Y-13237150D01*
X15118634Y-13237150D02*
X15147206Y-13237150D01*
X15147206Y-13237150D02*
X15166253Y-13246674D01*
X15166253Y-13246674D02*
X15175777Y-13256198D01*
X15175777Y-13256198D02*
X15185301Y-13275246D01*
X15185301Y-13275246D02*
X15185301Y-13332388D01*
X15185301Y-13332388D02*
X15175777Y-13351436D01*
X15175777Y-13351436D02*
X15166253Y-13360960D01*
X15166253Y-13360960D02*
X15147206Y-13370484D01*
X15147206Y-13370484D02*
X15118634Y-13370484D01*
X15299587Y-13370484D02*
X15280539Y-13360960D01*
X15280539Y-13360960D02*
X15271015Y-13341912D01*
X15271015Y-13341912D02*
X15271015Y-13170484D01*
X15451968Y-13360960D02*
X15432920Y-13370484D01*
X15432920Y-13370484D02*
X15394825Y-13370484D01*
X15394825Y-13370484D02*
X15375777Y-13360960D01*
X15375777Y-13360960D02*
X15366253Y-13341912D01*
X15366253Y-13341912D02*
X15366253Y-13265722D01*
X15366253Y-13265722D02*
X15375777Y-13246674D01*
X15375777Y-13246674D02*
X15394825Y-13237150D01*
X15394825Y-13237150D02*
X15432920Y-13237150D01*
X15432920Y-13237150D02*
X15451968Y-13246674D01*
X15451968Y-13246674D02*
X15461491Y-13265722D01*
X15461491Y-13265722D02*
X15461491Y-13284769D01*
X15461491Y-13284769D02*
X15366253Y-13303817D01*
X15537682Y-13360960D02*
X15556730Y-13370484D01*
X15556730Y-13370484D02*
X15594825Y-13370484D01*
X15594825Y-13370484D02*
X15613872Y-13360960D01*
X15613872Y-13360960D02*
X15623396Y-13341912D01*
X15623396Y-13341912D02*
X15623396Y-13332388D01*
X15623396Y-13332388D02*
X15613872Y-13313341D01*
X15613872Y-13313341D02*
X15594825Y-13303817D01*
X15594825Y-13303817D02*
X15566253Y-13303817D01*
X15566253Y-13303817D02*
X15547206Y-13294293D01*
X15547206Y-13294293D02*
X15537682Y-13275246D01*
X15537682Y-13275246D02*
X15537682Y-13265722D01*
X15537682Y-13265722D02*
X15547206Y-13246674D01*
X15547206Y-13246674D02*
X15566253Y-13237150D01*
X15566253Y-13237150D02*
X15594825Y-13237150D01*
X15594825Y-13237150D02*
X15613872Y-13246674D01*
X15690063Y-13446674D02*
X15699587Y-13437150D01*
X15699587Y-13437150D02*
X15718634Y-13408579D01*
X15718634Y-13408579D02*
X15728158Y-13389531D01*
X15728158Y-13389531D02*
X15737682Y-13360960D01*
X15737682Y-13360960D02*
X15747206Y-13313341D01*
X15747206Y-13313341D02*
X15747206Y-13275246D01*
X15747206Y-13275246D02*
X15737682Y-13227627D01*
X15737682Y-13227627D02*
X15728158Y-13199055D01*
X15728158Y-13199055D02*
X15718634Y-13180008D01*
X15718634Y-13180008D02*
X15699587Y-13151436D01*
X15699587Y-13151436D02*
X15690063Y-13141912D01*
M02*
