M48
; DRILL file {KiCad 8.0.5-1.fc40} date 2024-10-08T11:33:03-0700
; FORMAT={-:-/ absolute / metric / decimal}
; #@! TF.CreationDate,2024-10-08T11:33:03-07:00
; #@! TF.GenerationSoftware,Kicad,Pcbnew,8.0.5-1.fc40
; #@! TF.FileFunction,Plated,1,4,PTH
FMAT,2
METRIC
; #@! TA.AperFunction,Plated,PTH,ViaDrill
T1C0.200
; #@! TA.AperFunction,Plated,PTH,ViaDrill
T2C0.300
; #@! TA.AperFunction,Plated,PTH,ComponentDrill
T3C0.600
; #@! TA.AperFunction,Plated,PTH,ComponentDrill
T4C0.890
; #@! TA.AperFunction,Plated,PTH,ComponentDrill
T5C0.900
; #@! TA.AperFunction,Plated,PTH,ComponentDrill
T6C1.000
; #@! TA.AperFunction,Plated,PTH,ComponentDrill
T7C1.600
; #@! TA.AperFunction,Plated,PTH,ComponentDrill
T8C2.200
%
G90
G05
T1
X112.9Y-93.6
X113.82Y-67.56
X114.0Y-68.1
X114.056Y-68.733
X114.1Y-71.0
X114.154Y-66.618
X114.3Y-67.2
X114.7Y-71.489
X114.788Y-69.355
X114.9Y-92.7
X115.067Y-71.963
X115.683Y-72.038
X115.8Y-77.8
X115.8Y-96.5
X115.834Y-72.734
X117.533Y-77.576
X118.0Y-56.9
X118.0Y-60.4
X118.0Y-81.3
X118.3Y-63.9
X118.5Y-62.8
X118.6Y-63.4
X118.7Y-77.111
X119.0Y-56.9
X119.0Y-81.3
X119.3Y-75.9
X119.8Y-76.2
X119.895Y-62.705
X120.153Y-76.667
X120.375Y-62.344
X120.75Y-76.611
X120.818Y-61.963
X121.2Y-64.7
X121.3Y-76.611
X121.9Y-61.7
X121.9Y-80.4
X122.0Y-76.358
X122.1Y-69.9
X122.34Y-75.863
X122.5Y-61.2
X122.8Y-75.1
X122.85Y-60.75
X123.3Y-69.4
X123.7Y-80.2
X124.0Y-94.6
X125.9Y-65.4
X126.9Y-52.5
X129.5Y-44.4
X130.173Y-87.027
X130.99Y-89.2
X130.99Y-92.6
X131.0Y-96.2
X132.5Y-82.4
X132.7Y-89.6
X132.7Y-93.5
X132.7Y-95.0
X132.8Y-91.1
X132.887Y-41.6
X133.4Y-97.4
X134.7Y-80.3
X135.1Y-92.1
X135.4Y-84.1
X135.4Y-102.5
X135.7Y-79.0
X135.8Y-78.0
X135.9Y-65.7
X135.9Y-66.7
X136.202Y-63.769
X136.733Y-64.049
X136.914Y-63.072
X137.0Y-89.4
X137.9Y-59.7
X138.0Y-83.2
X138.245Y-88.9
X139.1Y-58.9
X139.3Y-67.1
X139.3Y-64.8
X139.46Y-58.12
X139.5Y-71.5
X139.6Y-55.7
X139.8Y-81.7
X139.9Y-68.8
X140.6Y-69.9
X141.0Y-69.4
X141.088Y-82.4
X141.2Y-85.3
X141.3Y-83.1
X141.6Y-89.4
X142.0Y-78.9
X142.088Y-60.2
X142.2Y-55.6
X142.2Y-64.4
X142.2Y-86.1
X142.645Y-89.699
X143.0Y-79.1
X143.088Y-63.0
X143.295Y-86.495
X143.588Y-62.6
X143.6Y-44.4
X143.75Y-89.699
X143.826Y-86.189
X143.9Y-73.7
X144.1Y-62.2
X144.4Y-46.4
X144.4Y-79.0
X144.733Y-41.656
X144.9Y-56.7
X144.9Y-81.6
X145.284Y-41.416
X145.295Y-88.9
X145.3Y-73.005
X145.7Y-47.4
X145.8Y-50.3
X145.9Y-39.0
X145.9Y-40.3
X145.9Y-56.7
X146.0Y-85.5
X146.1Y-40.9
X146.2Y-44.4
X146.2Y-72.516
X146.2Y-82.7
X146.9Y-72.028
X147.0Y-82.7
X147.5Y-50.5
X147.5Y-101.3
X147.588Y-60.4
X147.9Y-61.0
X148.0Y-46.2
X148.3Y-61.5
X149.1Y-66.2
X149.415Y-66.62
X149.527Y-45.721
X149.9Y-56.7
X150.3Y-82.7
X150.4Y-41.5
X150.4Y-43.3
X150.5Y-50.8
X150.677Y-45.232
X150.8Y-47.5
X150.9Y-56.7
X151.0Y-66.5
X151.3Y-82.7
X151.5Y-39.5
X151.7Y-48.2
X152.2Y-45.6
X152.2Y-60.8
X152.3Y-41.5
X152.3Y-43.3
X154.4Y-43.1
X154.6Y-79.3
X155.0Y-45.48
X155.9Y-77.0
X156.4Y-56.7
X156.588Y-78.7
X156.7Y-82.023
X156.7Y-83.0
X157.4Y-53.4
X157.4Y-56.7
X157.6Y-72.1
X157.6Y-78.2
X157.8Y-74.0
X158.0Y-73.5
X158.1Y-71.5
X158.173Y-77.5
X158.2Y-73.0
X158.2Y-76.1
X158.2Y-84.1
X158.3Y-72.4
X159.0Y-85.8
X159.7Y-55.5
X160.3Y-84.0
X160.6Y-59.1
X161.1Y-65.2
X161.5Y-75.6
X161.6Y-74.0
X161.8Y-70.6
X161.8Y-78.0
X161.8Y-82.7
X161.9Y-55.0
X161.9Y-63.7
X161.9Y-71.6
X162.2Y-63.2
X163.0Y-80.8
X163.1Y-60.4
X163.3Y-76.3
X163.95Y-69.85
X164.4Y-57.0
X164.5Y-69.3
X165.3Y-74.6
X165.3Y-78.1
X165.9Y-64.4
X165.9Y-71.5
X166.2Y-75.2
X166.5Y-69.1
X168.6Y-66.0
X171.0Y-75.2
X171.1Y-70.8
X172.2Y-68.2
X173.649Y-65.8
X173.7Y-73.4
X174.1Y-69.6
X174.285Y-71.836
X175.001Y-72.501
X176.65Y-74.25
X177.7Y-37.8
X177.7Y-39.5
X179.4Y-31.5
X179.9Y-66.6
X180.0Y-76.6
X180.1Y-74.4
X182.7Y-64.6
X183.5Y-96.2
X187.1Y-62.8
T2
X138.2Y-39.3
X138.2Y-41.7
X138.2Y-44.1
X138.2Y-45.6
X144.4Y-36.7
X148.9Y-36.9
X174.424Y-55.976
X174.475Y-50.032
X174.498Y-45.649
X175.592Y-50.947
X176.964Y-46.527
X177.98Y-45.206
X179.995Y-46.476
X180.063Y-49.778
X180.063Y-51.099
X181.892Y-49.728
X182.095Y-45.664
X182.196Y-55.976
T4
X116.675Y-34.15
X119.215Y-32.63
X126.785Y-34.15
X129.325Y-32.63
T5
X118.555Y-46.41
X119.825Y-43.87
X121.095Y-46.41
X122.365Y-43.87
X123.635Y-46.41
X124.905Y-43.87
X126.175Y-46.41
X127.445Y-43.87
T6
X186.5Y-83.25
X186.5Y-85.79
X186.5Y-88.33
T7
X115.225Y-40.58
X130.775Y-40.58
T8
X112.1Y-30.9
X112.1Y-104.9
X186.2Y-30.9
X186.2Y-104.9
T3
X180.845Y-66.18G85X181.945Y-66.18
G05
X180.845Y-74.82G85X181.945Y-74.82
G05
X185.275Y-66.18G85X185.875Y-66.18
G05
X185.275Y-74.82G85X185.875Y-74.82
G05
M30
