%TF.GenerationSoftware,KiCad,Pcbnew,8.0.5-1.fc40*%
%TF.CreationDate,2024-10-08T11:33:05-07:00*%
%TF.ProjectId,stm32simh,73746d33-3273-4696-9d68-2e6b69636164,rev?*%
%TF.SameCoordinates,Original*%
%TF.FileFunction,Drillmap*%
%TF.FilePolarity,Positive*%
%FSLAX45Y45*%
G04 Gerber Fmt 4.5, Leading zero omitted, Abs format (unit mm)*
G04 Created by KiCad (PCBNEW 8.0.5-1.fc40) date 2024-10-08 11:33:05*
%MOMM*%
%LPD*%
G01*
G04 APERTURE LIST*
%ADD10C,0.100000*%
%ADD11C,0.200000*%
%ADD12C,0.325000*%
G04 APERTURE END LIST*
D10*
X10920000Y-2770000D02*
X18920000Y-2770000D01*
X18920000Y-10770000D01*
X10920000Y-10770000D01*
X10920000Y-2770000D01*
D11*
D10*
X18157000Y-6728500D02*
X18222000Y-6793500D01*
X18222000Y-6728500D02*
X18157000Y-6793500D01*
X18157000Y-7306500D02*
X18222000Y-7371500D01*
X18222000Y-7306500D02*
X18157000Y-7371500D01*
D12*
X11891000Y-3753000D02*
G75*
G02*
X11566000Y-3753000I-162500J0D01*
G01*
X11566000Y-3753000D02*
G75*
G02*
X11891000Y-3753000I162500J0D01*
G01*
X13034000Y-3753000D02*
G75*
G02*
X12709000Y-3753000I-162500J0D01*
G01*
X12709000Y-3753000D02*
G75*
G02*
X13034000Y-3753000I162500J0D01*
G01*
D11*
X11175777Y-11086484D02*
X11175777Y-10886484D01*
X11175777Y-10886484D02*
X11223396Y-10886484D01*
X11223396Y-10886484D02*
X11251967Y-10896008D01*
X11251967Y-10896008D02*
X11271015Y-10915055D01*
X11271015Y-10915055D02*
X11280539Y-10934103D01*
X11280539Y-10934103D02*
X11290062Y-10972198D01*
X11290062Y-10972198D02*
X11290062Y-11000770D01*
X11290062Y-11000770D02*
X11280539Y-11038865D01*
X11280539Y-11038865D02*
X11271015Y-11057912D01*
X11271015Y-11057912D02*
X11251967Y-11076960D01*
X11251967Y-11076960D02*
X11223396Y-11086484D01*
X11223396Y-11086484D02*
X11175777Y-11086484D01*
X11375777Y-11086484D02*
X11375777Y-10953150D01*
X11375777Y-10991246D02*
X11385301Y-10972198D01*
X11385301Y-10972198D02*
X11394824Y-10962674D01*
X11394824Y-10962674D02*
X11413872Y-10953150D01*
X11413872Y-10953150D02*
X11432920Y-10953150D01*
X11499586Y-11086484D02*
X11499586Y-10953150D01*
X11499586Y-10886484D02*
X11490062Y-10896008D01*
X11490062Y-10896008D02*
X11499586Y-10905531D01*
X11499586Y-10905531D02*
X11509110Y-10896008D01*
X11509110Y-10896008D02*
X11499586Y-10886484D01*
X11499586Y-10886484D02*
X11499586Y-10905531D01*
X11623396Y-11086484D02*
X11604348Y-11076960D01*
X11604348Y-11076960D02*
X11594824Y-11057912D01*
X11594824Y-11057912D02*
X11594824Y-10886484D01*
X11728158Y-11086484D02*
X11709110Y-11076960D01*
X11709110Y-11076960D02*
X11699586Y-11057912D01*
X11699586Y-11057912D02*
X11699586Y-10886484D01*
X11956729Y-11086484D02*
X11956729Y-10886484D01*
X11956729Y-10886484D02*
X12023396Y-11029341D01*
X12023396Y-11029341D02*
X12090062Y-10886484D01*
X12090062Y-10886484D02*
X12090062Y-11086484D01*
X12271015Y-11086484D02*
X12271015Y-10981722D01*
X12271015Y-10981722D02*
X12261491Y-10962674D01*
X12261491Y-10962674D02*
X12242443Y-10953150D01*
X12242443Y-10953150D02*
X12204348Y-10953150D01*
X12204348Y-10953150D02*
X12185301Y-10962674D01*
X12271015Y-11076960D02*
X12251967Y-11086484D01*
X12251967Y-11086484D02*
X12204348Y-11086484D01*
X12204348Y-11086484D02*
X12185301Y-11076960D01*
X12185301Y-11076960D02*
X12175777Y-11057912D01*
X12175777Y-11057912D02*
X12175777Y-11038865D01*
X12175777Y-11038865D02*
X12185301Y-11019817D01*
X12185301Y-11019817D02*
X12204348Y-11010293D01*
X12204348Y-11010293D02*
X12251967Y-11010293D01*
X12251967Y-11010293D02*
X12271015Y-11000770D01*
X12366253Y-10953150D02*
X12366253Y-11153150D01*
X12366253Y-10962674D02*
X12385301Y-10953150D01*
X12385301Y-10953150D02*
X12423396Y-10953150D01*
X12423396Y-10953150D02*
X12442443Y-10962674D01*
X12442443Y-10962674D02*
X12451967Y-10972198D01*
X12451967Y-10972198D02*
X12461491Y-10991246D01*
X12461491Y-10991246D02*
X12461491Y-11048389D01*
X12461491Y-11048389D02*
X12451967Y-11067436D01*
X12451967Y-11067436D02*
X12442443Y-11076960D01*
X12442443Y-11076960D02*
X12423396Y-11086484D01*
X12423396Y-11086484D02*
X12385301Y-11086484D01*
X12385301Y-11086484D02*
X12366253Y-11076960D01*
X12547205Y-11067436D02*
X12556729Y-11076960D01*
X12556729Y-11076960D02*
X12547205Y-11086484D01*
X12547205Y-11086484D02*
X12537682Y-11076960D01*
X12537682Y-11076960D02*
X12547205Y-11067436D01*
X12547205Y-11067436D02*
X12547205Y-11086484D01*
X12547205Y-10962674D02*
X12556729Y-10972198D01*
X12556729Y-10972198D02*
X12547205Y-10981722D01*
X12547205Y-10981722D02*
X12537682Y-10972198D01*
X12537682Y-10972198D02*
X12547205Y-10962674D01*
X12547205Y-10962674D02*
X12547205Y-10981722D01*
D10*
X10850000Y-11382500D02*
X10915000Y-11447500D01*
X10915000Y-11382500D02*
X10850000Y-11447500D01*
D11*
X11213872Y-11306484D02*
X11232920Y-11306484D01*
X11232920Y-11306484D02*
X11251967Y-11316008D01*
X11251967Y-11316008D02*
X11261491Y-11325531D01*
X11261491Y-11325531D02*
X11271015Y-11344579D01*
X11271015Y-11344579D02*
X11280539Y-11382674D01*
X11280539Y-11382674D02*
X11280539Y-11430293D01*
X11280539Y-11430293D02*
X11271015Y-11468388D01*
X11271015Y-11468388D02*
X11261491Y-11487436D01*
X11261491Y-11487436D02*
X11251967Y-11496960D01*
X11251967Y-11496960D02*
X11232920Y-11506484D01*
X11232920Y-11506484D02*
X11213872Y-11506484D01*
X11213872Y-11506484D02*
X11194824Y-11496960D01*
X11194824Y-11496960D02*
X11185301Y-11487436D01*
X11185301Y-11487436D02*
X11175777Y-11468388D01*
X11175777Y-11468388D02*
X11166253Y-11430293D01*
X11166253Y-11430293D02*
X11166253Y-11382674D01*
X11166253Y-11382674D02*
X11175777Y-11344579D01*
X11175777Y-11344579D02*
X11185301Y-11325531D01*
X11185301Y-11325531D02*
X11194824Y-11316008D01*
X11194824Y-11316008D02*
X11213872Y-11306484D01*
X11366253Y-11487436D02*
X11375777Y-11496960D01*
X11375777Y-11496960D02*
X11366253Y-11506484D01*
X11366253Y-11506484D02*
X11356729Y-11496960D01*
X11356729Y-11496960D02*
X11366253Y-11487436D01*
X11366253Y-11487436D02*
X11366253Y-11506484D01*
X11547205Y-11306484D02*
X11509110Y-11306484D01*
X11509110Y-11306484D02*
X11490062Y-11316008D01*
X11490062Y-11316008D02*
X11480539Y-11325531D01*
X11480539Y-11325531D02*
X11461491Y-11354103D01*
X11461491Y-11354103D02*
X11451967Y-11392198D01*
X11451967Y-11392198D02*
X11451967Y-11468388D01*
X11451967Y-11468388D02*
X11461491Y-11487436D01*
X11461491Y-11487436D02*
X11471015Y-11496960D01*
X11471015Y-11496960D02*
X11490062Y-11506484D01*
X11490062Y-11506484D02*
X11528158Y-11506484D01*
X11528158Y-11506484D02*
X11547205Y-11496960D01*
X11547205Y-11496960D02*
X11556729Y-11487436D01*
X11556729Y-11487436D02*
X11566253Y-11468388D01*
X11566253Y-11468388D02*
X11566253Y-11420769D01*
X11566253Y-11420769D02*
X11556729Y-11401722D01*
X11556729Y-11401722D02*
X11547205Y-11392198D01*
X11547205Y-11392198D02*
X11528158Y-11382674D01*
X11528158Y-11382674D02*
X11490062Y-11382674D01*
X11490062Y-11382674D02*
X11471015Y-11392198D01*
X11471015Y-11392198D02*
X11461491Y-11401722D01*
X11461491Y-11401722D02*
X11451967Y-11420769D01*
X11747205Y-11306484D02*
X11651967Y-11306484D01*
X11651967Y-11306484D02*
X11642443Y-11401722D01*
X11642443Y-11401722D02*
X11651967Y-11392198D01*
X11651967Y-11392198D02*
X11671015Y-11382674D01*
X11671015Y-11382674D02*
X11718634Y-11382674D01*
X11718634Y-11382674D02*
X11737682Y-11392198D01*
X11737682Y-11392198D02*
X11747205Y-11401722D01*
X11747205Y-11401722D02*
X11756729Y-11420769D01*
X11756729Y-11420769D02*
X11756729Y-11468388D01*
X11756729Y-11468388D02*
X11747205Y-11487436D01*
X11747205Y-11487436D02*
X11737682Y-11496960D01*
X11737682Y-11496960D02*
X11718634Y-11506484D01*
X11718634Y-11506484D02*
X11671015Y-11506484D01*
X11671015Y-11506484D02*
X11651967Y-11496960D01*
X11651967Y-11496960D02*
X11642443Y-11487436D01*
X11880539Y-11306484D02*
X11899586Y-11306484D01*
X11899586Y-11306484D02*
X11918634Y-11316008D01*
X11918634Y-11316008D02*
X11928158Y-11325531D01*
X11928158Y-11325531D02*
X11937682Y-11344579D01*
X11937682Y-11344579D02*
X11947205Y-11382674D01*
X11947205Y-11382674D02*
X11947205Y-11430293D01*
X11947205Y-11430293D02*
X11937682Y-11468388D01*
X11937682Y-11468388D02*
X11928158Y-11487436D01*
X11928158Y-11487436D02*
X11918634Y-11496960D01*
X11918634Y-11496960D02*
X11899586Y-11506484D01*
X11899586Y-11506484D02*
X11880539Y-11506484D01*
X11880539Y-11506484D02*
X11861491Y-11496960D01*
X11861491Y-11496960D02*
X11851967Y-11487436D01*
X11851967Y-11487436D02*
X11842443Y-11468388D01*
X11842443Y-11468388D02*
X11832920Y-11430293D01*
X11832920Y-11430293D02*
X11832920Y-11382674D01*
X11832920Y-11382674D02*
X11842443Y-11344579D01*
X11842443Y-11344579D02*
X11851967Y-11325531D01*
X11851967Y-11325531D02*
X11861491Y-11316008D01*
X11861491Y-11316008D02*
X11880539Y-11306484D01*
X12032920Y-11506484D02*
X12032920Y-11373150D01*
X12032920Y-11392198D02*
X12042443Y-11382674D01*
X12042443Y-11382674D02*
X12061491Y-11373150D01*
X12061491Y-11373150D02*
X12090063Y-11373150D01*
X12090063Y-11373150D02*
X12109110Y-11382674D01*
X12109110Y-11382674D02*
X12118634Y-11401722D01*
X12118634Y-11401722D02*
X12118634Y-11506484D01*
X12118634Y-11401722D02*
X12128158Y-11382674D01*
X12128158Y-11382674D02*
X12147205Y-11373150D01*
X12147205Y-11373150D02*
X12175777Y-11373150D01*
X12175777Y-11373150D02*
X12194824Y-11382674D01*
X12194824Y-11382674D02*
X12204348Y-11401722D01*
X12204348Y-11401722D02*
X12204348Y-11506484D01*
X12299586Y-11506484D02*
X12299586Y-11373150D01*
X12299586Y-11392198D02*
X12309110Y-11382674D01*
X12309110Y-11382674D02*
X12328158Y-11373150D01*
X12328158Y-11373150D02*
X12356729Y-11373150D01*
X12356729Y-11373150D02*
X12375777Y-11382674D01*
X12375777Y-11382674D02*
X12385301Y-11401722D01*
X12385301Y-11401722D02*
X12385301Y-11506484D01*
X12385301Y-11401722D02*
X12394824Y-11382674D01*
X12394824Y-11382674D02*
X12413872Y-11373150D01*
X12413872Y-11373150D02*
X12442443Y-11373150D01*
X12442443Y-11373150D02*
X12461491Y-11382674D01*
X12461491Y-11382674D02*
X12471015Y-11401722D01*
X12471015Y-11401722D02*
X12471015Y-11506484D01*
X12861491Y-11296960D02*
X12690063Y-11554103D01*
X13118634Y-11306484D02*
X13137682Y-11306484D01*
X13137682Y-11306484D02*
X13156729Y-11316008D01*
X13156729Y-11316008D02*
X13166253Y-11325531D01*
X13166253Y-11325531D02*
X13175777Y-11344579D01*
X13175777Y-11344579D02*
X13185301Y-11382674D01*
X13185301Y-11382674D02*
X13185301Y-11430293D01*
X13185301Y-11430293D02*
X13175777Y-11468388D01*
X13175777Y-11468388D02*
X13166253Y-11487436D01*
X13166253Y-11487436D02*
X13156729Y-11496960D01*
X13156729Y-11496960D02*
X13137682Y-11506484D01*
X13137682Y-11506484D02*
X13118634Y-11506484D01*
X13118634Y-11506484D02*
X13099586Y-11496960D01*
X13099586Y-11496960D02*
X13090063Y-11487436D01*
X13090063Y-11487436D02*
X13080539Y-11468388D01*
X13080539Y-11468388D02*
X13071015Y-11430293D01*
X13071015Y-11430293D02*
X13071015Y-11382674D01*
X13071015Y-11382674D02*
X13080539Y-11344579D01*
X13080539Y-11344579D02*
X13090063Y-11325531D01*
X13090063Y-11325531D02*
X13099586Y-11316008D01*
X13099586Y-11316008D02*
X13118634Y-11306484D01*
X13271015Y-11487436D02*
X13280539Y-11496960D01*
X13280539Y-11496960D02*
X13271015Y-11506484D01*
X13271015Y-11506484D02*
X13261491Y-11496960D01*
X13261491Y-11496960D02*
X13271015Y-11487436D01*
X13271015Y-11487436D02*
X13271015Y-11506484D01*
X13404348Y-11306484D02*
X13423396Y-11306484D01*
X13423396Y-11306484D02*
X13442444Y-11316008D01*
X13442444Y-11316008D02*
X13451967Y-11325531D01*
X13451967Y-11325531D02*
X13461491Y-11344579D01*
X13461491Y-11344579D02*
X13471015Y-11382674D01*
X13471015Y-11382674D02*
X13471015Y-11430293D01*
X13471015Y-11430293D02*
X13461491Y-11468388D01*
X13461491Y-11468388D02*
X13451967Y-11487436D01*
X13451967Y-11487436D02*
X13442444Y-11496960D01*
X13442444Y-11496960D02*
X13423396Y-11506484D01*
X13423396Y-11506484D02*
X13404348Y-11506484D01*
X13404348Y-11506484D02*
X13385301Y-11496960D01*
X13385301Y-11496960D02*
X13375777Y-11487436D01*
X13375777Y-11487436D02*
X13366253Y-11468388D01*
X13366253Y-11468388D02*
X13356729Y-11430293D01*
X13356729Y-11430293D02*
X13356729Y-11382674D01*
X13356729Y-11382674D02*
X13366253Y-11344579D01*
X13366253Y-11344579D02*
X13375777Y-11325531D01*
X13375777Y-11325531D02*
X13385301Y-11316008D01*
X13385301Y-11316008D02*
X13404348Y-11306484D01*
X13547206Y-11325531D02*
X13556729Y-11316008D01*
X13556729Y-11316008D02*
X13575777Y-11306484D01*
X13575777Y-11306484D02*
X13623396Y-11306484D01*
X13623396Y-11306484D02*
X13642444Y-11316008D01*
X13642444Y-11316008D02*
X13651967Y-11325531D01*
X13651967Y-11325531D02*
X13661491Y-11344579D01*
X13661491Y-11344579D02*
X13661491Y-11363627D01*
X13661491Y-11363627D02*
X13651967Y-11392198D01*
X13651967Y-11392198D02*
X13537682Y-11506484D01*
X13537682Y-11506484D02*
X13661491Y-11506484D01*
X13842444Y-11306484D02*
X13747206Y-11306484D01*
X13747206Y-11306484D02*
X13737682Y-11401722D01*
X13737682Y-11401722D02*
X13747206Y-11392198D01*
X13747206Y-11392198D02*
X13766253Y-11382674D01*
X13766253Y-11382674D02*
X13813872Y-11382674D01*
X13813872Y-11382674D02*
X13832920Y-11392198D01*
X13832920Y-11392198D02*
X13842444Y-11401722D01*
X13842444Y-11401722D02*
X13851967Y-11420769D01*
X13851967Y-11420769D02*
X13851967Y-11468388D01*
X13851967Y-11468388D02*
X13842444Y-11487436D01*
X13842444Y-11487436D02*
X13832920Y-11496960D01*
X13832920Y-11496960D02*
X13813872Y-11506484D01*
X13813872Y-11506484D02*
X13766253Y-11506484D01*
X13766253Y-11506484D02*
X13747206Y-11496960D01*
X13747206Y-11496960D02*
X13737682Y-11487436D01*
X14023396Y-11306484D02*
X13985301Y-11306484D01*
X13985301Y-11306484D02*
X13966253Y-11316008D01*
X13966253Y-11316008D02*
X13956729Y-11325531D01*
X13956729Y-11325531D02*
X13937682Y-11354103D01*
X13937682Y-11354103D02*
X13928158Y-11392198D01*
X13928158Y-11392198D02*
X13928158Y-11468388D01*
X13928158Y-11468388D02*
X13937682Y-11487436D01*
X13937682Y-11487436D02*
X13947206Y-11496960D01*
X13947206Y-11496960D02*
X13966253Y-11506484D01*
X13966253Y-11506484D02*
X14004348Y-11506484D01*
X14004348Y-11506484D02*
X14023396Y-11496960D01*
X14023396Y-11496960D02*
X14032920Y-11487436D01*
X14032920Y-11487436D02*
X14042444Y-11468388D01*
X14042444Y-11468388D02*
X14042444Y-11420769D01*
X14042444Y-11420769D02*
X14032920Y-11401722D01*
X14032920Y-11401722D02*
X14023396Y-11392198D01*
X14023396Y-11392198D02*
X14004348Y-11382674D01*
X14004348Y-11382674D02*
X13966253Y-11382674D01*
X13966253Y-11382674D02*
X13947206Y-11392198D01*
X13947206Y-11392198D02*
X13937682Y-11401722D01*
X13937682Y-11401722D02*
X13928158Y-11420769D01*
X14118634Y-11306484D02*
X14118634Y-11344579D01*
X14194825Y-11306484D02*
X14194825Y-11344579D01*
X14490063Y-11582674D02*
X14480539Y-11573150D01*
X14480539Y-11573150D02*
X14461491Y-11544579D01*
X14461491Y-11544579D02*
X14451968Y-11525531D01*
X14451968Y-11525531D02*
X14442444Y-11496960D01*
X14442444Y-11496960D02*
X14432920Y-11449341D01*
X14432920Y-11449341D02*
X14432920Y-11411246D01*
X14432920Y-11411246D02*
X14442444Y-11363627D01*
X14442444Y-11363627D02*
X14451968Y-11335055D01*
X14451968Y-11335055D02*
X14461491Y-11316008D01*
X14461491Y-11316008D02*
X14480539Y-11287436D01*
X14480539Y-11287436D02*
X14490063Y-11277912D01*
X14556729Y-11325531D02*
X14566253Y-11316008D01*
X14566253Y-11316008D02*
X14585301Y-11306484D01*
X14585301Y-11306484D02*
X14632920Y-11306484D01*
X14632920Y-11306484D02*
X14651968Y-11316008D01*
X14651968Y-11316008D02*
X14661491Y-11325531D01*
X14661491Y-11325531D02*
X14671015Y-11344579D01*
X14671015Y-11344579D02*
X14671015Y-11363627D01*
X14671015Y-11363627D02*
X14661491Y-11392198D01*
X14661491Y-11392198D02*
X14547206Y-11506484D01*
X14547206Y-11506484D02*
X14671015Y-11506484D01*
X14909110Y-11506484D02*
X14909110Y-11306484D01*
X14994825Y-11506484D02*
X14994825Y-11401722D01*
X14994825Y-11401722D02*
X14985301Y-11382674D01*
X14985301Y-11382674D02*
X14966253Y-11373150D01*
X14966253Y-11373150D02*
X14937682Y-11373150D01*
X14937682Y-11373150D02*
X14918634Y-11382674D01*
X14918634Y-11382674D02*
X14909110Y-11392198D01*
X15118634Y-11506484D02*
X15099587Y-11496960D01*
X15099587Y-11496960D02*
X15090063Y-11487436D01*
X15090063Y-11487436D02*
X15080539Y-11468388D01*
X15080539Y-11468388D02*
X15080539Y-11411246D01*
X15080539Y-11411246D02*
X15090063Y-11392198D01*
X15090063Y-11392198D02*
X15099587Y-11382674D01*
X15099587Y-11382674D02*
X15118634Y-11373150D01*
X15118634Y-11373150D02*
X15147206Y-11373150D01*
X15147206Y-11373150D02*
X15166253Y-11382674D01*
X15166253Y-11382674D02*
X15175777Y-11392198D01*
X15175777Y-11392198D02*
X15185301Y-11411246D01*
X15185301Y-11411246D02*
X15185301Y-11468388D01*
X15185301Y-11468388D02*
X15175777Y-11487436D01*
X15175777Y-11487436D02*
X15166253Y-11496960D01*
X15166253Y-11496960D02*
X15147206Y-11506484D01*
X15147206Y-11506484D02*
X15118634Y-11506484D01*
X15299587Y-11506484D02*
X15280539Y-11496960D01*
X15280539Y-11496960D02*
X15271015Y-11477912D01*
X15271015Y-11477912D02*
X15271015Y-11306484D01*
X15451968Y-11496960D02*
X15432920Y-11506484D01*
X15432920Y-11506484D02*
X15394825Y-11506484D01*
X15394825Y-11506484D02*
X15375777Y-11496960D01*
X15375777Y-11496960D02*
X15366253Y-11477912D01*
X15366253Y-11477912D02*
X15366253Y-11401722D01*
X15366253Y-11401722D02*
X15375777Y-11382674D01*
X15375777Y-11382674D02*
X15394825Y-11373150D01*
X15394825Y-11373150D02*
X15432920Y-11373150D01*
X15432920Y-11373150D02*
X15451968Y-11382674D01*
X15451968Y-11382674D02*
X15461491Y-11401722D01*
X15461491Y-11401722D02*
X15461491Y-11420769D01*
X15461491Y-11420769D02*
X15366253Y-11439817D01*
X15537682Y-11496960D02*
X15556730Y-11506484D01*
X15556730Y-11506484D02*
X15594825Y-11506484D01*
X15594825Y-11506484D02*
X15613872Y-11496960D01*
X15613872Y-11496960D02*
X15623396Y-11477912D01*
X15623396Y-11477912D02*
X15623396Y-11468388D01*
X15623396Y-11468388D02*
X15613872Y-11449341D01*
X15613872Y-11449341D02*
X15594825Y-11439817D01*
X15594825Y-11439817D02*
X15566253Y-11439817D01*
X15566253Y-11439817D02*
X15547206Y-11430293D01*
X15547206Y-11430293D02*
X15537682Y-11411246D01*
X15537682Y-11411246D02*
X15537682Y-11401722D01*
X15537682Y-11401722D02*
X15547206Y-11382674D01*
X15547206Y-11382674D02*
X15566253Y-11373150D01*
X15566253Y-11373150D02*
X15594825Y-11373150D01*
X15594825Y-11373150D02*
X15613872Y-11382674D01*
X15690063Y-11582674D02*
X15699587Y-11573150D01*
X15699587Y-11573150D02*
X15718634Y-11544579D01*
X15718634Y-11544579D02*
X15728158Y-11525531D01*
X15728158Y-11525531D02*
X15737682Y-11496960D01*
X15737682Y-11496960D02*
X15747206Y-11449341D01*
X15747206Y-11449341D02*
X15747206Y-11411246D01*
X15747206Y-11411246D02*
X15737682Y-11363627D01*
X15737682Y-11363627D02*
X15728158Y-11335055D01*
X15728158Y-11335055D02*
X15718634Y-11316008D01*
X15718634Y-11316008D02*
X15699587Y-11287436D01*
X15699587Y-11287436D02*
X15690063Y-11277912D01*
X16051968Y-11582674D02*
X16042444Y-11573150D01*
X16042444Y-11573150D02*
X16023396Y-11544579D01*
X16023396Y-11544579D02*
X16013872Y-11525531D01*
X16013872Y-11525531D02*
X16004349Y-11496960D01*
X16004349Y-11496960D02*
X15994825Y-11449341D01*
X15994825Y-11449341D02*
X15994825Y-11411246D01*
X15994825Y-11411246D02*
X16004349Y-11363627D01*
X16004349Y-11363627D02*
X16013872Y-11335055D01*
X16013872Y-11335055D02*
X16023396Y-11316008D01*
X16023396Y-11316008D02*
X16042444Y-11287436D01*
X16042444Y-11287436D02*
X16051968Y-11277912D01*
X16128158Y-11373150D02*
X16128158Y-11506484D01*
X16128158Y-11392198D02*
X16137682Y-11382674D01*
X16137682Y-11382674D02*
X16156730Y-11373150D01*
X16156730Y-11373150D02*
X16185301Y-11373150D01*
X16185301Y-11373150D02*
X16204349Y-11382674D01*
X16204349Y-11382674D02*
X16213872Y-11401722D01*
X16213872Y-11401722D02*
X16213872Y-11506484D01*
X16337682Y-11506484D02*
X16318634Y-11496960D01*
X16318634Y-11496960D02*
X16309111Y-11487436D01*
X16309111Y-11487436D02*
X16299587Y-11468388D01*
X16299587Y-11468388D02*
X16299587Y-11411246D01*
X16299587Y-11411246D02*
X16309111Y-11392198D01*
X16309111Y-11392198D02*
X16318634Y-11382674D01*
X16318634Y-11382674D02*
X16337682Y-11373150D01*
X16337682Y-11373150D02*
X16366253Y-11373150D01*
X16366253Y-11373150D02*
X16385301Y-11382674D01*
X16385301Y-11382674D02*
X16394825Y-11392198D01*
X16394825Y-11392198D02*
X16404349Y-11411246D01*
X16404349Y-11411246D02*
X16404349Y-11468388D01*
X16404349Y-11468388D02*
X16394825Y-11487436D01*
X16394825Y-11487436D02*
X16385301Y-11496960D01*
X16385301Y-11496960D02*
X16366253Y-11506484D01*
X16366253Y-11506484D02*
X16337682Y-11506484D01*
X16461492Y-11373150D02*
X16537682Y-11373150D01*
X16490063Y-11306484D02*
X16490063Y-11477912D01*
X16490063Y-11477912D02*
X16499587Y-11496960D01*
X16499587Y-11496960D02*
X16518634Y-11506484D01*
X16518634Y-11506484D02*
X16537682Y-11506484D01*
X16756730Y-11373150D02*
X16756730Y-11573150D01*
X16756730Y-11382674D02*
X16775777Y-11373150D01*
X16775777Y-11373150D02*
X16813873Y-11373150D01*
X16813873Y-11373150D02*
X16832920Y-11382674D01*
X16832920Y-11382674D02*
X16842444Y-11392198D01*
X16842444Y-11392198D02*
X16851968Y-11411246D01*
X16851968Y-11411246D02*
X16851968Y-11468388D01*
X16851968Y-11468388D02*
X16842444Y-11487436D01*
X16842444Y-11487436D02*
X16832920Y-11496960D01*
X16832920Y-11496960D02*
X16813873Y-11506484D01*
X16813873Y-11506484D02*
X16775777Y-11506484D01*
X16775777Y-11506484D02*
X16756730Y-11496960D01*
X16966254Y-11506484D02*
X16947206Y-11496960D01*
X16947206Y-11496960D02*
X16937682Y-11477912D01*
X16937682Y-11477912D02*
X16937682Y-11306484D01*
X17128158Y-11506484D02*
X17128158Y-11401722D01*
X17128158Y-11401722D02*
X17118635Y-11382674D01*
X17118635Y-11382674D02*
X17099587Y-11373150D01*
X17099587Y-11373150D02*
X17061492Y-11373150D01*
X17061492Y-11373150D02*
X17042444Y-11382674D01*
X17128158Y-11496960D02*
X17109111Y-11506484D01*
X17109111Y-11506484D02*
X17061492Y-11506484D01*
X17061492Y-11506484D02*
X17042444Y-11496960D01*
X17042444Y-11496960D02*
X17032920Y-11477912D01*
X17032920Y-11477912D02*
X17032920Y-11458865D01*
X17032920Y-11458865D02*
X17042444Y-11439817D01*
X17042444Y-11439817D02*
X17061492Y-11430293D01*
X17061492Y-11430293D02*
X17109111Y-11430293D01*
X17109111Y-11430293D02*
X17128158Y-11420769D01*
X17194825Y-11373150D02*
X17271015Y-11373150D01*
X17223396Y-11306484D02*
X17223396Y-11477912D01*
X17223396Y-11477912D02*
X17232920Y-11496960D01*
X17232920Y-11496960D02*
X17251968Y-11506484D01*
X17251968Y-11506484D02*
X17271015Y-11506484D01*
X17413873Y-11496960D02*
X17394825Y-11506484D01*
X17394825Y-11506484D02*
X17356730Y-11506484D01*
X17356730Y-11506484D02*
X17337682Y-11496960D01*
X17337682Y-11496960D02*
X17328158Y-11477912D01*
X17328158Y-11477912D02*
X17328158Y-11401722D01*
X17328158Y-11401722D02*
X17337682Y-11382674D01*
X17337682Y-11382674D02*
X17356730Y-11373150D01*
X17356730Y-11373150D02*
X17394825Y-11373150D01*
X17394825Y-11373150D02*
X17413873Y-11382674D01*
X17413873Y-11382674D02*
X17423396Y-11401722D01*
X17423396Y-11401722D02*
X17423396Y-11420769D01*
X17423396Y-11420769D02*
X17328158Y-11439817D01*
X17594825Y-11506484D02*
X17594825Y-11306484D01*
X17594825Y-11496960D02*
X17575777Y-11506484D01*
X17575777Y-11506484D02*
X17537682Y-11506484D01*
X17537682Y-11506484D02*
X17518635Y-11496960D01*
X17518635Y-11496960D02*
X17509111Y-11487436D01*
X17509111Y-11487436D02*
X17499587Y-11468388D01*
X17499587Y-11468388D02*
X17499587Y-11411246D01*
X17499587Y-11411246D02*
X17509111Y-11392198D01*
X17509111Y-11392198D02*
X17518635Y-11382674D01*
X17518635Y-11382674D02*
X17537682Y-11373150D01*
X17537682Y-11373150D02*
X17575777Y-11373150D01*
X17575777Y-11373150D02*
X17594825Y-11382674D01*
X17671016Y-11582674D02*
X17680539Y-11573150D01*
X17680539Y-11573150D02*
X17699587Y-11544579D01*
X17699587Y-11544579D02*
X17709111Y-11525531D01*
X17709111Y-11525531D02*
X17718635Y-11496960D01*
X17718635Y-11496960D02*
X17728158Y-11449341D01*
X17728158Y-11449341D02*
X17728158Y-11411246D01*
X17728158Y-11411246D02*
X17718635Y-11363627D01*
X17718635Y-11363627D02*
X17709111Y-11335055D01*
X17709111Y-11335055D02*
X17699587Y-11316008D01*
X17699587Y-11316008D02*
X17680539Y-11287436D01*
X17680539Y-11287436D02*
X17671016Y-11277912D01*
X10915000Y-11679000D02*
G75*
G02*
X10715000Y-11679000I-100000J0D01*
G01*
X10715000Y-11679000D02*
G75*
G02*
X10915000Y-11679000I100000J0D01*
G01*
X11156729Y-11570484D02*
X11280539Y-11570484D01*
X11280539Y-11570484D02*
X11213872Y-11646674D01*
X11213872Y-11646674D02*
X11242443Y-11646674D01*
X11242443Y-11646674D02*
X11261491Y-11656198D01*
X11261491Y-11656198D02*
X11271015Y-11665722D01*
X11271015Y-11665722D02*
X11280539Y-11684769D01*
X11280539Y-11684769D02*
X11280539Y-11732388D01*
X11280539Y-11732388D02*
X11271015Y-11751436D01*
X11271015Y-11751436D02*
X11261491Y-11760960D01*
X11261491Y-11760960D02*
X11242443Y-11770484D01*
X11242443Y-11770484D02*
X11185301Y-11770484D01*
X11185301Y-11770484D02*
X11166253Y-11760960D01*
X11166253Y-11760960D02*
X11156729Y-11751436D01*
X11366253Y-11751436D02*
X11375777Y-11760960D01*
X11375777Y-11760960D02*
X11366253Y-11770484D01*
X11366253Y-11770484D02*
X11356729Y-11760960D01*
X11356729Y-11760960D02*
X11366253Y-11751436D01*
X11366253Y-11751436D02*
X11366253Y-11770484D01*
X11451967Y-11589531D02*
X11461491Y-11580008D01*
X11461491Y-11580008D02*
X11480539Y-11570484D01*
X11480539Y-11570484D02*
X11528158Y-11570484D01*
X11528158Y-11570484D02*
X11547205Y-11580008D01*
X11547205Y-11580008D02*
X11556729Y-11589531D01*
X11556729Y-11589531D02*
X11566253Y-11608579D01*
X11566253Y-11608579D02*
X11566253Y-11627627D01*
X11566253Y-11627627D02*
X11556729Y-11656198D01*
X11556729Y-11656198D02*
X11442443Y-11770484D01*
X11442443Y-11770484D02*
X11566253Y-11770484D01*
X11747205Y-11570484D02*
X11651967Y-11570484D01*
X11651967Y-11570484D02*
X11642443Y-11665722D01*
X11642443Y-11665722D02*
X11651967Y-11656198D01*
X11651967Y-11656198D02*
X11671015Y-11646674D01*
X11671015Y-11646674D02*
X11718634Y-11646674D01*
X11718634Y-11646674D02*
X11737682Y-11656198D01*
X11737682Y-11656198D02*
X11747205Y-11665722D01*
X11747205Y-11665722D02*
X11756729Y-11684769D01*
X11756729Y-11684769D02*
X11756729Y-11732388D01*
X11756729Y-11732388D02*
X11747205Y-11751436D01*
X11747205Y-11751436D02*
X11737682Y-11760960D01*
X11737682Y-11760960D02*
X11718634Y-11770484D01*
X11718634Y-11770484D02*
X11671015Y-11770484D01*
X11671015Y-11770484D02*
X11651967Y-11760960D01*
X11651967Y-11760960D02*
X11642443Y-11751436D01*
X11880539Y-11570484D02*
X11899586Y-11570484D01*
X11899586Y-11570484D02*
X11918634Y-11580008D01*
X11918634Y-11580008D02*
X11928158Y-11589531D01*
X11928158Y-11589531D02*
X11937682Y-11608579D01*
X11937682Y-11608579D02*
X11947205Y-11646674D01*
X11947205Y-11646674D02*
X11947205Y-11694293D01*
X11947205Y-11694293D02*
X11937682Y-11732388D01*
X11937682Y-11732388D02*
X11928158Y-11751436D01*
X11928158Y-11751436D02*
X11918634Y-11760960D01*
X11918634Y-11760960D02*
X11899586Y-11770484D01*
X11899586Y-11770484D02*
X11880539Y-11770484D01*
X11880539Y-11770484D02*
X11861491Y-11760960D01*
X11861491Y-11760960D02*
X11851967Y-11751436D01*
X11851967Y-11751436D02*
X11842443Y-11732388D01*
X11842443Y-11732388D02*
X11832920Y-11694293D01*
X11832920Y-11694293D02*
X11832920Y-11646674D01*
X11832920Y-11646674D02*
X11842443Y-11608579D01*
X11842443Y-11608579D02*
X11851967Y-11589531D01*
X11851967Y-11589531D02*
X11861491Y-11580008D01*
X11861491Y-11580008D02*
X11880539Y-11570484D01*
X12032920Y-11770484D02*
X12032920Y-11637150D01*
X12032920Y-11656198D02*
X12042443Y-11646674D01*
X12042443Y-11646674D02*
X12061491Y-11637150D01*
X12061491Y-11637150D02*
X12090063Y-11637150D01*
X12090063Y-11637150D02*
X12109110Y-11646674D01*
X12109110Y-11646674D02*
X12118634Y-11665722D01*
X12118634Y-11665722D02*
X12118634Y-11770484D01*
X12118634Y-11665722D02*
X12128158Y-11646674D01*
X12128158Y-11646674D02*
X12147205Y-11637150D01*
X12147205Y-11637150D02*
X12175777Y-11637150D01*
X12175777Y-11637150D02*
X12194824Y-11646674D01*
X12194824Y-11646674D02*
X12204348Y-11665722D01*
X12204348Y-11665722D02*
X12204348Y-11770484D01*
X12299586Y-11770484D02*
X12299586Y-11637150D01*
X12299586Y-11656198D02*
X12309110Y-11646674D01*
X12309110Y-11646674D02*
X12328158Y-11637150D01*
X12328158Y-11637150D02*
X12356729Y-11637150D01*
X12356729Y-11637150D02*
X12375777Y-11646674D01*
X12375777Y-11646674D02*
X12385301Y-11665722D01*
X12385301Y-11665722D02*
X12385301Y-11770484D01*
X12385301Y-11665722D02*
X12394824Y-11646674D01*
X12394824Y-11646674D02*
X12413872Y-11637150D01*
X12413872Y-11637150D02*
X12442443Y-11637150D01*
X12442443Y-11637150D02*
X12461491Y-11646674D01*
X12461491Y-11646674D02*
X12471015Y-11665722D01*
X12471015Y-11665722D02*
X12471015Y-11770484D01*
X12861491Y-11560960D02*
X12690063Y-11818103D01*
X13118634Y-11570484D02*
X13137682Y-11570484D01*
X13137682Y-11570484D02*
X13156729Y-11580008D01*
X13156729Y-11580008D02*
X13166253Y-11589531D01*
X13166253Y-11589531D02*
X13175777Y-11608579D01*
X13175777Y-11608579D02*
X13185301Y-11646674D01*
X13185301Y-11646674D02*
X13185301Y-11694293D01*
X13185301Y-11694293D02*
X13175777Y-11732388D01*
X13175777Y-11732388D02*
X13166253Y-11751436D01*
X13166253Y-11751436D02*
X13156729Y-11760960D01*
X13156729Y-11760960D02*
X13137682Y-11770484D01*
X13137682Y-11770484D02*
X13118634Y-11770484D01*
X13118634Y-11770484D02*
X13099586Y-11760960D01*
X13099586Y-11760960D02*
X13090063Y-11751436D01*
X13090063Y-11751436D02*
X13080539Y-11732388D01*
X13080539Y-11732388D02*
X13071015Y-11694293D01*
X13071015Y-11694293D02*
X13071015Y-11646674D01*
X13071015Y-11646674D02*
X13080539Y-11608579D01*
X13080539Y-11608579D02*
X13090063Y-11589531D01*
X13090063Y-11589531D02*
X13099586Y-11580008D01*
X13099586Y-11580008D02*
X13118634Y-11570484D01*
X13271015Y-11751436D02*
X13280539Y-11760960D01*
X13280539Y-11760960D02*
X13271015Y-11770484D01*
X13271015Y-11770484D02*
X13261491Y-11760960D01*
X13261491Y-11760960D02*
X13271015Y-11751436D01*
X13271015Y-11751436D02*
X13271015Y-11770484D01*
X13471015Y-11770484D02*
X13356729Y-11770484D01*
X13413872Y-11770484D02*
X13413872Y-11570484D01*
X13413872Y-11570484D02*
X13394825Y-11599055D01*
X13394825Y-11599055D02*
X13375777Y-11618103D01*
X13375777Y-11618103D02*
X13356729Y-11627627D01*
X13547206Y-11589531D02*
X13556729Y-11580008D01*
X13556729Y-11580008D02*
X13575777Y-11570484D01*
X13575777Y-11570484D02*
X13623396Y-11570484D01*
X13623396Y-11570484D02*
X13642444Y-11580008D01*
X13642444Y-11580008D02*
X13651967Y-11589531D01*
X13651967Y-11589531D02*
X13661491Y-11608579D01*
X13661491Y-11608579D02*
X13661491Y-11627627D01*
X13661491Y-11627627D02*
X13651967Y-11656198D01*
X13651967Y-11656198D02*
X13537682Y-11770484D01*
X13537682Y-11770484D02*
X13661491Y-11770484D01*
X13775777Y-11656198D02*
X13756729Y-11646674D01*
X13756729Y-11646674D02*
X13747206Y-11637150D01*
X13747206Y-11637150D02*
X13737682Y-11618103D01*
X13737682Y-11618103D02*
X13737682Y-11608579D01*
X13737682Y-11608579D02*
X13747206Y-11589531D01*
X13747206Y-11589531D02*
X13756729Y-11580008D01*
X13756729Y-11580008D02*
X13775777Y-11570484D01*
X13775777Y-11570484D02*
X13813872Y-11570484D01*
X13813872Y-11570484D02*
X13832920Y-11580008D01*
X13832920Y-11580008D02*
X13842444Y-11589531D01*
X13842444Y-11589531D02*
X13851967Y-11608579D01*
X13851967Y-11608579D02*
X13851967Y-11618103D01*
X13851967Y-11618103D02*
X13842444Y-11637150D01*
X13842444Y-11637150D02*
X13832920Y-11646674D01*
X13832920Y-11646674D02*
X13813872Y-11656198D01*
X13813872Y-11656198D02*
X13775777Y-11656198D01*
X13775777Y-11656198D02*
X13756729Y-11665722D01*
X13756729Y-11665722D02*
X13747206Y-11675246D01*
X13747206Y-11675246D02*
X13737682Y-11694293D01*
X13737682Y-11694293D02*
X13737682Y-11732388D01*
X13737682Y-11732388D02*
X13747206Y-11751436D01*
X13747206Y-11751436D02*
X13756729Y-11760960D01*
X13756729Y-11760960D02*
X13775777Y-11770484D01*
X13775777Y-11770484D02*
X13813872Y-11770484D01*
X13813872Y-11770484D02*
X13832920Y-11760960D01*
X13832920Y-11760960D02*
X13842444Y-11751436D01*
X13842444Y-11751436D02*
X13851967Y-11732388D01*
X13851967Y-11732388D02*
X13851967Y-11694293D01*
X13851967Y-11694293D02*
X13842444Y-11675246D01*
X13842444Y-11675246D02*
X13832920Y-11665722D01*
X13832920Y-11665722D02*
X13813872Y-11656198D01*
X13975777Y-11570484D02*
X13994825Y-11570484D01*
X13994825Y-11570484D02*
X14013872Y-11580008D01*
X14013872Y-11580008D02*
X14023396Y-11589531D01*
X14023396Y-11589531D02*
X14032920Y-11608579D01*
X14032920Y-11608579D02*
X14042444Y-11646674D01*
X14042444Y-11646674D02*
X14042444Y-11694293D01*
X14042444Y-11694293D02*
X14032920Y-11732388D01*
X14032920Y-11732388D02*
X14023396Y-11751436D01*
X14023396Y-11751436D02*
X14013872Y-11760960D01*
X14013872Y-11760960D02*
X13994825Y-11770484D01*
X13994825Y-11770484D02*
X13975777Y-11770484D01*
X13975777Y-11770484D02*
X13956729Y-11760960D01*
X13956729Y-11760960D02*
X13947206Y-11751436D01*
X13947206Y-11751436D02*
X13937682Y-11732388D01*
X13937682Y-11732388D02*
X13928158Y-11694293D01*
X13928158Y-11694293D02*
X13928158Y-11646674D01*
X13928158Y-11646674D02*
X13937682Y-11608579D01*
X13937682Y-11608579D02*
X13947206Y-11589531D01*
X13947206Y-11589531D02*
X13956729Y-11580008D01*
X13956729Y-11580008D02*
X13975777Y-11570484D01*
X14118634Y-11570484D02*
X14118634Y-11608579D01*
X14194825Y-11570484D02*
X14194825Y-11608579D01*
X14490063Y-11846674D02*
X14480539Y-11837150D01*
X14480539Y-11837150D02*
X14461491Y-11808579D01*
X14461491Y-11808579D02*
X14451968Y-11789531D01*
X14451968Y-11789531D02*
X14442444Y-11760960D01*
X14442444Y-11760960D02*
X14432920Y-11713341D01*
X14432920Y-11713341D02*
X14432920Y-11675246D01*
X14432920Y-11675246D02*
X14442444Y-11627627D01*
X14442444Y-11627627D02*
X14451968Y-11599055D01*
X14451968Y-11599055D02*
X14461491Y-11580008D01*
X14461491Y-11580008D02*
X14480539Y-11551436D01*
X14480539Y-11551436D02*
X14490063Y-11541912D01*
X14556729Y-11589531D02*
X14566253Y-11580008D01*
X14566253Y-11580008D02*
X14585301Y-11570484D01*
X14585301Y-11570484D02*
X14632920Y-11570484D01*
X14632920Y-11570484D02*
X14651968Y-11580008D01*
X14651968Y-11580008D02*
X14661491Y-11589531D01*
X14661491Y-11589531D02*
X14671015Y-11608579D01*
X14671015Y-11608579D02*
X14671015Y-11627627D01*
X14671015Y-11627627D02*
X14661491Y-11656198D01*
X14661491Y-11656198D02*
X14547206Y-11770484D01*
X14547206Y-11770484D02*
X14671015Y-11770484D01*
X14909110Y-11770484D02*
X14909110Y-11570484D01*
X14994825Y-11770484D02*
X14994825Y-11665722D01*
X14994825Y-11665722D02*
X14985301Y-11646674D01*
X14985301Y-11646674D02*
X14966253Y-11637150D01*
X14966253Y-11637150D02*
X14937682Y-11637150D01*
X14937682Y-11637150D02*
X14918634Y-11646674D01*
X14918634Y-11646674D02*
X14909110Y-11656198D01*
X15118634Y-11770484D02*
X15099587Y-11760960D01*
X15099587Y-11760960D02*
X15090063Y-11751436D01*
X15090063Y-11751436D02*
X15080539Y-11732388D01*
X15080539Y-11732388D02*
X15080539Y-11675246D01*
X15080539Y-11675246D02*
X15090063Y-11656198D01*
X15090063Y-11656198D02*
X15099587Y-11646674D01*
X15099587Y-11646674D02*
X15118634Y-11637150D01*
X15118634Y-11637150D02*
X15147206Y-11637150D01*
X15147206Y-11637150D02*
X15166253Y-11646674D01*
X15166253Y-11646674D02*
X15175777Y-11656198D01*
X15175777Y-11656198D02*
X15185301Y-11675246D01*
X15185301Y-11675246D02*
X15185301Y-11732388D01*
X15185301Y-11732388D02*
X15175777Y-11751436D01*
X15175777Y-11751436D02*
X15166253Y-11760960D01*
X15166253Y-11760960D02*
X15147206Y-11770484D01*
X15147206Y-11770484D02*
X15118634Y-11770484D01*
X15299587Y-11770484D02*
X15280539Y-11760960D01*
X15280539Y-11760960D02*
X15271015Y-11741912D01*
X15271015Y-11741912D02*
X15271015Y-11570484D01*
X15451968Y-11760960D02*
X15432920Y-11770484D01*
X15432920Y-11770484D02*
X15394825Y-11770484D01*
X15394825Y-11770484D02*
X15375777Y-11760960D01*
X15375777Y-11760960D02*
X15366253Y-11741912D01*
X15366253Y-11741912D02*
X15366253Y-11665722D01*
X15366253Y-11665722D02*
X15375777Y-11646674D01*
X15375777Y-11646674D02*
X15394825Y-11637150D01*
X15394825Y-11637150D02*
X15432920Y-11637150D01*
X15432920Y-11637150D02*
X15451968Y-11646674D01*
X15451968Y-11646674D02*
X15461491Y-11665722D01*
X15461491Y-11665722D02*
X15461491Y-11684769D01*
X15461491Y-11684769D02*
X15366253Y-11703817D01*
X15537682Y-11760960D02*
X15556730Y-11770484D01*
X15556730Y-11770484D02*
X15594825Y-11770484D01*
X15594825Y-11770484D02*
X15613872Y-11760960D01*
X15613872Y-11760960D02*
X15623396Y-11741912D01*
X15623396Y-11741912D02*
X15623396Y-11732388D01*
X15623396Y-11732388D02*
X15613872Y-11713341D01*
X15613872Y-11713341D02*
X15594825Y-11703817D01*
X15594825Y-11703817D02*
X15566253Y-11703817D01*
X15566253Y-11703817D02*
X15547206Y-11694293D01*
X15547206Y-11694293D02*
X15537682Y-11675246D01*
X15537682Y-11675246D02*
X15537682Y-11665722D01*
X15537682Y-11665722D02*
X15547206Y-11646674D01*
X15547206Y-11646674D02*
X15566253Y-11637150D01*
X15566253Y-11637150D02*
X15594825Y-11637150D01*
X15594825Y-11637150D02*
X15613872Y-11646674D01*
X15690063Y-11846674D02*
X15699587Y-11837150D01*
X15699587Y-11837150D02*
X15718634Y-11808579D01*
X15718634Y-11808579D02*
X15728158Y-11789531D01*
X15728158Y-11789531D02*
X15737682Y-11760960D01*
X15737682Y-11760960D02*
X15747206Y-11713341D01*
X15747206Y-11713341D02*
X15747206Y-11675246D01*
X15747206Y-11675246D02*
X15737682Y-11627627D01*
X15737682Y-11627627D02*
X15728158Y-11599055D01*
X15728158Y-11599055D02*
X15718634Y-11580008D01*
X15718634Y-11580008D02*
X15699587Y-11551436D01*
X15699587Y-11551436D02*
X15690063Y-11541912D01*
X16051968Y-11846674D02*
X16042444Y-11837150D01*
X16042444Y-11837150D02*
X16023396Y-11808579D01*
X16023396Y-11808579D02*
X16013872Y-11789531D01*
X16013872Y-11789531D02*
X16004349Y-11760960D01*
X16004349Y-11760960D02*
X15994825Y-11713341D01*
X15994825Y-11713341D02*
X15994825Y-11675246D01*
X15994825Y-11675246D02*
X16004349Y-11627627D01*
X16004349Y-11627627D02*
X16013872Y-11599055D01*
X16013872Y-11599055D02*
X16023396Y-11580008D01*
X16023396Y-11580008D02*
X16042444Y-11551436D01*
X16042444Y-11551436D02*
X16051968Y-11541912D01*
X16128158Y-11637150D02*
X16128158Y-11770484D01*
X16128158Y-11656198D02*
X16137682Y-11646674D01*
X16137682Y-11646674D02*
X16156730Y-11637150D01*
X16156730Y-11637150D02*
X16185301Y-11637150D01*
X16185301Y-11637150D02*
X16204349Y-11646674D01*
X16204349Y-11646674D02*
X16213872Y-11665722D01*
X16213872Y-11665722D02*
X16213872Y-11770484D01*
X16337682Y-11770484D02*
X16318634Y-11760960D01*
X16318634Y-11760960D02*
X16309111Y-11751436D01*
X16309111Y-11751436D02*
X16299587Y-11732388D01*
X16299587Y-11732388D02*
X16299587Y-11675246D01*
X16299587Y-11675246D02*
X16309111Y-11656198D01*
X16309111Y-11656198D02*
X16318634Y-11646674D01*
X16318634Y-11646674D02*
X16337682Y-11637150D01*
X16337682Y-11637150D02*
X16366253Y-11637150D01*
X16366253Y-11637150D02*
X16385301Y-11646674D01*
X16385301Y-11646674D02*
X16394825Y-11656198D01*
X16394825Y-11656198D02*
X16404349Y-11675246D01*
X16404349Y-11675246D02*
X16404349Y-11732388D01*
X16404349Y-11732388D02*
X16394825Y-11751436D01*
X16394825Y-11751436D02*
X16385301Y-11760960D01*
X16385301Y-11760960D02*
X16366253Y-11770484D01*
X16366253Y-11770484D02*
X16337682Y-11770484D01*
X16461492Y-11637150D02*
X16537682Y-11637150D01*
X16490063Y-11570484D02*
X16490063Y-11741912D01*
X16490063Y-11741912D02*
X16499587Y-11760960D01*
X16499587Y-11760960D02*
X16518634Y-11770484D01*
X16518634Y-11770484D02*
X16537682Y-11770484D01*
X16756730Y-11637150D02*
X16756730Y-11837150D01*
X16756730Y-11646674D02*
X16775777Y-11637150D01*
X16775777Y-11637150D02*
X16813873Y-11637150D01*
X16813873Y-11637150D02*
X16832920Y-11646674D01*
X16832920Y-11646674D02*
X16842444Y-11656198D01*
X16842444Y-11656198D02*
X16851968Y-11675246D01*
X16851968Y-11675246D02*
X16851968Y-11732388D01*
X16851968Y-11732388D02*
X16842444Y-11751436D01*
X16842444Y-11751436D02*
X16832920Y-11760960D01*
X16832920Y-11760960D02*
X16813873Y-11770484D01*
X16813873Y-11770484D02*
X16775777Y-11770484D01*
X16775777Y-11770484D02*
X16756730Y-11760960D01*
X16966254Y-11770484D02*
X16947206Y-11760960D01*
X16947206Y-11760960D02*
X16937682Y-11741912D01*
X16937682Y-11741912D02*
X16937682Y-11570484D01*
X17128158Y-11770484D02*
X17128158Y-11665722D01*
X17128158Y-11665722D02*
X17118635Y-11646674D01*
X17118635Y-11646674D02*
X17099587Y-11637150D01*
X17099587Y-11637150D02*
X17061492Y-11637150D01*
X17061492Y-11637150D02*
X17042444Y-11646674D01*
X17128158Y-11760960D02*
X17109111Y-11770484D01*
X17109111Y-11770484D02*
X17061492Y-11770484D01*
X17061492Y-11770484D02*
X17042444Y-11760960D01*
X17042444Y-11760960D02*
X17032920Y-11741912D01*
X17032920Y-11741912D02*
X17032920Y-11722865D01*
X17032920Y-11722865D02*
X17042444Y-11703817D01*
X17042444Y-11703817D02*
X17061492Y-11694293D01*
X17061492Y-11694293D02*
X17109111Y-11694293D01*
X17109111Y-11694293D02*
X17128158Y-11684769D01*
X17194825Y-11637150D02*
X17271015Y-11637150D01*
X17223396Y-11570484D02*
X17223396Y-11741912D01*
X17223396Y-11741912D02*
X17232920Y-11760960D01*
X17232920Y-11760960D02*
X17251968Y-11770484D01*
X17251968Y-11770484D02*
X17271015Y-11770484D01*
X17413873Y-11760960D02*
X17394825Y-11770484D01*
X17394825Y-11770484D02*
X17356730Y-11770484D01*
X17356730Y-11770484D02*
X17337682Y-11760960D01*
X17337682Y-11760960D02*
X17328158Y-11741912D01*
X17328158Y-11741912D02*
X17328158Y-11665722D01*
X17328158Y-11665722D02*
X17337682Y-11646674D01*
X17337682Y-11646674D02*
X17356730Y-11637150D01*
X17356730Y-11637150D02*
X17394825Y-11637150D01*
X17394825Y-11637150D02*
X17413873Y-11646674D01*
X17413873Y-11646674D02*
X17423396Y-11665722D01*
X17423396Y-11665722D02*
X17423396Y-11684769D01*
X17423396Y-11684769D02*
X17328158Y-11703817D01*
X17594825Y-11770484D02*
X17594825Y-11570484D01*
X17594825Y-11760960D02*
X17575777Y-11770484D01*
X17575777Y-11770484D02*
X17537682Y-11770484D01*
X17537682Y-11770484D02*
X17518635Y-11760960D01*
X17518635Y-11760960D02*
X17509111Y-11751436D01*
X17509111Y-11751436D02*
X17499587Y-11732388D01*
X17499587Y-11732388D02*
X17499587Y-11675246D01*
X17499587Y-11675246D02*
X17509111Y-11656198D01*
X17509111Y-11656198D02*
X17518635Y-11646674D01*
X17518635Y-11646674D02*
X17537682Y-11637150D01*
X17537682Y-11637150D02*
X17575777Y-11637150D01*
X17575777Y-11637150D02*
X17594825Y-11646674D01*
X17671016Y-11846674D02*
X17680539Y-11837150D01*
X17680539Y-11837150D02*
X17699587Y-11808579D01*
X17699587Y-11808579D02*
X17709111Y-11789531D01*
X17709111Y-11789531D02*
X17718635Y-11760960D01*
X17718635Y-11760960D02*
X17728158Y-11713341D01*
X17728158Y-11713341D02*
X17728158Y-11675246D01*
X17728158Y-11675246D02*
X17718635Y-11627627D01*
X17718635Y-11627627D02*
X17709111Y-11599055D01*
X17709111Y-11599055D02*
X17699587Y-11580008D01*
X17699587Y-11580008D02*
X17680539Y-11551436D01*
X17680539Y-11551436D02*
X17671016Y-11541912D01*
M02*
