G04 #@! TF.GenerationSoftware,KiCad,Pcbnew,8.0.5-1.fc40*
G04 #@! TF.CreationDate,2024-10-08T11:32:39-07:00*
G04 #@! TF.ProjectId,stm32simh,73746d33-3273-4696-9d68-2e6b69636164,rev?*
G04 #@! TF.SameCoordinates,Original*
G04 #@! TF.FileFunction,Copper,L1,Top*
G04 #@! TF.FilePolarity,Positive*
%FSLAX46Y46*%
G04 Gerber Fmt 4.6, Leading zero omitted, Abs format (unit mm)*
G04 Created by KiCad (PCBNEW 8.0.5-1.fc40) date 2024-10-08 11:32:39*
%MOMM*%
%LPD*%
G01*
G04 APERTURE LIST*
G04 Aperture macros list*
%AMRoundRect*
0 Rectangle with rounded corners*
0 $1 Rounding radius*
0 $2 $3 $4 $5 $6 $7 $8 $9 X,Y pos of 4 corners*
0 Add a 4 corners polygon primitive as box body*
4,1,4,$2,$3,$4,$5,$6,$7,$8,$9,$2,$3,0*
0 Add four circle primitives for the rounded corners*
1,1,$1+$1,$2,$3*
1,1,$1+$1,$4,$5*
1,1,$1+$1,$6,$7*
1,1,$1+$1,$8,$9*
0 Add four rect primitives between the rounded corners*
20,1,$1+$1,$2,$3,$4,$5,0*
20,1,$1+$1,$4,$5,$6,$7,0*
20,1,$1+$1,$6,$7,$8,$9,0*
20,1,$1+$1,$8,$9,$2,$3,0*%
G04 Aperture macros list end*
G04 #@! TA.AperFunction,EtchedComponent*
%ADD10C,0.000000*%
G04 #@! TD*
G04 #@! TA.AperFunction,SMDPad,CuDef*
%ADD11RoundRect,0.135000X-0.185000X0.135000X-0.185000X-0.135000X0.185000X-0.135000X0.185000X0.135000X0*%
G04 #@! TD*
G04 #@! TA.AperFunction,SMDPad,CuDef*
%ADD12RoundRect,0.225000X0.250000X-0.225000X0.250000X0.225000X-0.250000X0.225000X-0.250000X-0.225000X0*%
G04 #@! TD*
G04 #@! TA.AperFunction,SMDPad,CuDef*
%ADD13RoundRect,0.218750X0.218750X0.256250X-0.218750X0.256250X-0.218750X-0.256250X0.218750X-0.256250X0*%
G04 #@! TD*
G04 #@! TA.AperFunction,SMDPad,CuDef*
%ADD14RoundRect,0.135000X0.185000X-0.135000X0.185000X0.135000X-0.185000X0.135000X-0.185000X-0.135000X0*%
G04 #@! TD*
G04 #@! TA.AperFunction,SMDPad,CuDef*
%ADD15RoundRect,0.140000X0.170000X-0.140000X0.170000X0.140000X-0.170000X0.140000X-0.170000X-0.140000X0*%
G04 #@! TD*
G04 #@! TA.AperFunction,ComponentPad*
%ADD16C,3.800000*%
G04 #@! TD*
G04 #@! TA.AperFunction,SMDPad,CuDef*
%ADD17RoundRect,0.135000X-0.135000X-0.185000X0.135000X-0.185000X0.135000X0.185000X-0.135000X0.185000X0*%
G04 #@! TD*
G04 #@! TA.AperFunction,SMDPad,CuDef*
%ADD18RoundRect,0.140000X-0.140000X-0.170000X0.140000X-0.170000X0.140000X0.170000X-0.140000X0.170000X0*%
G04 #@! TD*
G04 #@! TA.AperFunction,SMDPad,CuDef*
%ADD19RoundRect,0.250000X-0.262500X-0.450000X0.262500X-0.450000X0.262500X0.450000X-0.262500X0.450000X0*%
G04 #@! TD*
G04 #@! TA.AperFunction,ComponentPad*
%ADD20R,1.700000X1.700000*%
G04 #@! TD*
G04 #@! TA.AperFunction,ComponentPad*
%ADD21O,1.700000X1.700000*%
G04 #@! TD*
G04 #@! TA.AperFunction,SMDPad,CuDef*
%ADD22RoundRect,0.250000X-0.250000X-0.475000X0.250000X-0.475000X0.250000X0.475000X-0.250000X0.475000X0*%
G04 #@! TD*
G04 #@! TA.AperFunction,SMDPad,CuDef*
%ADD23RoundRect,0.140000X0.140000X0.170000X-0.140000X0.170000X-0.140000X-0.170000X0.140000X-0.170000X0*%
G04 #@! TD*
G04 #@! TA.AperFunction,SMDPad,CuDef*
%ADD24RoundRect,0.250000X0.250000X0.475000X-0.250000X0.475000X-0.250000X-0.475000X0.250000X-0.475000X0*%
G04 #@! TD*
G04 #@! TA.AperFunction,SMDPad,CuDef*
%ADD25RoundRect,0.175000X-0.175000X-0.425000X0.175000X-0.425000X0.175000X0.425000X-0.175000X0.425000X0*%
G04 #@! TD*
G04 #@! TA.AperFunction,SMDPad,CuDef*
%ADD26RoundRect,0.200000X-0.300000X-0.200000X0.300000X-0.200000X0.300000X0.200000X-0.300000X0.200000X0*%
G04 #@! TD*
G04 #@! TA.AperFunction,SMDPad,CuDef*
%ADD27RoundRect,0.250000X-0.250000X-0.350000X0.250000X-0.350000X0.250000X0.350000X-0.250000X0.350000X0*%
G04 #@! TD*
G04 #@! TA.AperFunction,SMDPad,CuDef*
%ADD28RoundRect,0.250000X-0.250000X-1.150000X0.250000X-1.150000X0.250000X1.150000X-0.250000X1.150000X0*%
G04 #@! TD*
G04 #@! TA.AperFunction,SMDPad,CuDef*
%ADD29RoundRect,0.325000X-0.325000X-0.625000X0.325000X-0.625000X0.325000X0.625000X-0.325000X0.625000X0*%
G04 #@! TD*
G04 #@! TA.AperFunction,SMDPad,CuDef*
%ADD30RoundRect,0.062500X0.062500X-0.375000X0.062500X0.375000X-0.062500X0.375000X-0.062500X-0.375000X0*%
G04 #@! TD*
G04 #@! TA.AperFunction,SMDPad,CuDef*
%ADD31RoundRect,0.062500X0.375000X-0.062500X0.375000X0.062500X-0.375000X0.062500X-0.375000X-0.062500X0*%
G04 #@! TD*
G04 #@! TA.AperFunction,HeatsinkPad*
%ADD32R,2.500000X2.500000*%
G04 #@! TD*
G04 #@! TA.AperFunction,SMDPad,CuDef*
%ADD33RoundRect,0.140000X-0.170000X0.140000X-0.170000X-0.140000X0.170000X-0.140000X0.170000X0.140000X0*%
G04 #@! TD*
G04 #@! TA.AperFunction,SMDPad,CuDef*
%ADD34RoundRect,0.150000X0.500000X-0.150000X0.500000X0.150000X-0.500000X0.150000X-0.500000X-0.150000X0*%
G04 #@! TD*
G04 #@! TA.AperFunction,SMDPad,CuDef*
%ADD35RoundRect,0.075000X0.575000X-0.075000X0.575000X0.075000X-0.575000X0.075000X-0.575000X-0.075000X0*%
G04 #@! TD*
G04 #@! TA.AperFunction,ComponentPad*
%ADD36O,2.100000X1.000000*%
G04 #@! TD*
G04 #@! TA.AperFunction,ComponentPad*
%ADD37O,1.600000X1.000000*%
G04 #@! TD*
G04 #@! TA.AperFunction,SMDPad,CuDef*
%ADD38RoundRect,0.225000X-0.225000X-0.250000X0.225000X-0.250000X0.225000X0.250000X-0.225000X0.250000X0*%
G04 #@! TD*
G04 #@! TA.AperFunction,SMDPad,CuDef*
%ADD39RoundRect,0.150000X-0.637500X-0.150000X0.637500X-0.150000X0.637500X0.150000X-0.637500X0.150000X0*%
G04 #@! TD*
G04 #@! TA.AperFunction,SMDPad,CuDef*
%ADD40R,2.600000X3.600000*%
G04 #@! TD*
G04 #@! TA.AperFunction,ComponentPad*
%ADD41C,1.890000*%
G04 #@! TD*
G04 #@! TA.AperFunction,ComponentPad*
%ADD42R,1.900000X1.900000*%
G04 #@! TD*
G04 #@! TA.AperFunction,ComponentPad*
%ADD43C,1.900000*%
G04 #@! TD*
G04 #@! TA.AperFunction,ComponentPad*
%ADD44C,2.600000*%
G04 #@! TD*
G04 #@! TA.AperFunction,SMDPad,CuDef*
%ADD45RoundRect,0.147500X-0.147500X-0.172500X0.147500X-0.172500X0.147500X0.172500X-0.147500X0.172500X0*%
G04 #@! TD*
G04 #@! TA.AperFunction,SMDPad,CuDef*
%ADD46RoundRect,0.218750X-0.256250X0.218750X-0.256250X-0.218750X0.256250X-0.218750X0.256250X0.218750X0*%
G04 #@! TD*
G04 #@! TA.AperFunction,SMDPad,CuDef*
%ADD47RoundRect,0.175000X0.175000X0.325000X-0.175000X0.325000X-0.175000X-0.325000X0.175000X-0.325000X0*%
G04 #@! TD*
G04 #@! TA.AperFunction,SMDPad,CuDef*
%ADD48RoundRect,0.150000X0.200000X0.150000X-0.200000X0.150000X-0.200000X-0.150000X0.200000X-0.150000X0*%
G04 #@! TD*
G04 #@! TA.AperFunction,SMDPad,CuDef*
%ADD49RoundRect,0.075000X0.662500X0.075000X-0.662500X0.075000X-0.662500X-0.075000X0.662500X-0.075000X0*%
G04 #@! TD*
G04 #@! TA.AperFunction,SMDPad,CuDef*
%ADD50RoundRect,0.075000X0.075000X0.662500X-0.075000X0.662500X-0.075000X-0.662500X0.075000X-0.662500X0*%
G04 #@! TD*
G04 #@! TA.AperFunction,SMDPad,CuDef*
%ADD51R,0.600000X1.100000*%
G04 #@! TD*
G04 #@! TA.AperFunction,SMDPad,CuDef*
%ADD52R,1.800000X1.800000*%
G04 #@! TD*
G04 #@! TA.AperFunction,SMDPad,CuDef*
%ADD53R,0.300000X0.300000*%
G04 #@! TD*
G04 #@! TA.AperFunction,SMDPad,CuDef*
%ADD54R,0.900000X0.300000*%
G04 #@! TD*
G04 #@! TA.AperFunction,SMDPad,CuDef*
%ADD55R,0.300000X0.900000*%
G04 #@! TD*
G04 #@! TA.AperFunction,SMDPad,CuDef*
%ADD56RoundRect,0.147500X-0.172500X0.147500X-0.172500X-0.147500X0.172500X-0.147500X0.172500X0.147500X0*%
G04 #@! TD*
G04 #@! TA.AperFunction,SMDPad,CuDef*
%ADD57R,1.500000X1.500000*%
G04 #@! TD*
G04 #@! TA.AperFunction,SMDPad,CuDef*
%ADD58RoundRect,0.135000X0.135000X0.185000X-0.135000X0.185000X-0.135000X-0.185000X0.135000X-0.185000X0*%
G04 #@! TD*
G04 #@! TA.AperFunction,SMDPad,CuDef*
%ADD59RoundRect,0.225000X-0.250000X0.225000X-0.250000X-0.225000X0.250000X-0.225000X0.250000X0.225000X0*%
G04 #@! TD*
G04 #@! TA.AperFunction,SMDPad,CuDef*
%ADD60R,0.300000X1.300000*%
G04 #@! TD*
G04 #@! TA.AperFunction,SMDPad,CuDef*
%ADD61RoundRect,0.218750X-0.218750X-0.256250X0.218750X-0.256250X0.218750X0.256250X-0.218750X0.256250X0*%
G04 #@! TD*
G04 #@! TA.AperFunction,SMDPad,CuDef*
%ADD62R,1.400000X1.200000*%
G04 #@! TD*
G04 #@! TA.AperFunction,SMDPad,CuDef*
%ADD63R,0.700000X2.000000*%
G04 #@! TD*
G04 #@! TA.AperFunction,SMDPad,CuDef*
%ADD64RoundRect,0.150000X0.150000X-0.512500X0.150000X0.512500X-0.150000X0.512500X-0.150000X-0.512500X0*%
G04 #@! TD*
G04 #@! TA.AperFunction,SMDPad,CuDef*
%ADD65RoundRect,0.225000X0.225000X0.250000X-0.225000X0.250000X-0.225000X-0.250000X0.225000X-0.250000X0*%
G04 #@! TD*
G04 #@! TA.AperFunction,SMDPad,CuDef*
%ADD66C,0.500000*%
G04 #@! TD*
G04 #@! TA.AperFunction,SMDPad,CuDef*
%ADD67RoundRect,0.218750X0.256250X-0.218750X0.256250X0.218750X-0.256250X0.218750X-0.256250X-0.218750X0*%
G04 #@! TD*
G04 #@! TA.AperFunction,ViaPad*
%ADD68C,0.350000*%
G04 #@! TD*
G04 #@! TA.AperFunction,ViaPad*
%ADD69C,0.450000*%
G04 #@! TD*
G04 #@! TA.AperFunction,ViaPad*
%ADD70C,0.600000*%
G04 #@! TD*
G04 #@! TA.AperFunction,Conductor*
%ADD71C,0.203200*%
G04 #@! TD*
G04 #@! TA.AperFunction,Conductor*
%ADD72C,0.127000*%
G04 #@! TD*
G04 #@! TA.AperFunction,Conductor*
%ADD73C,0.304800*%
G04 #@! TD*
G04 #@! TA.AperFunction,Conductor*
%ADD74C,0.152400*%
G04 #@! TD*
G04 #@! TA.AperFunction,Conductor*
%ADD75C,0.406400*%
G04 #@! TD*
G04 APERTURE END LIST*
D10*
G04 #@! TA.AperFunction,EtchedComponent*
G36*
X161550000Y-56500000D02*
G01*
X161050000Y-56500000D01*
X161050000Y-55500000D01*
X161550000Y-55500000D01*
X161550000Y-56500000D01*
G37*
G04 #@! TD.AperFunction*
D11*
X175150000Y-52859000D03*
X175150000Y-53879000D03*
D12*
X141000000Y-57275000D03*
X141000000Y-55725000D03*
D13*
X187087500Y-61600000D03*
X185512500Y-61600000D03*
D14*
X181400000Y-62410000D03*
X181400000Y-61390000D03*
D15*
X169250000Y-66980000D03*
X169250000Y-66020000D03*
D16*
X186200000Y-30900000D03*
D17*
X180845000Y-64570000D03*
X181865000Y-64570000D03*
D18*
X170520000Y-67500000D03*
X171480000Y-67500000D03*
D14*
X155250000Y-56760000D03*
X155250000Y-55740000D03*
D19*
X135187500Y-44100000D03*
X137012500Y-44100000D03*
D20*
X186500000Y-88330000D03*
D21*
X186500000Y-85790000D03*
X186500000Y-83250000D03*
D15*
X136600000Y-78780000D03*
X136600000Y-77820000D03*
D22*
X170800000Y-65750000D03*
X172700000Y-65750000D03*
D23*
X147680000Y-41250000D03*
X146720000Y-41250000D03*
D24*
X168950000Y-64250000D03*
X167050000Y-64250000D03*
D11*
X152250000Y-100990000D03*
X152250000Y-102010000D03*
D22*
X145850000Y-36900000D03*
X147750000Y-36900000D03*
D25*
X143745000Y-87810000D03*
X142645000Y-87810000D03*
X141545000Y-87810000D03*
X140445000Y-87810000D03*
X139345000Y-87810000D03*
X138245000Y-87810000D03*
X137145000Y-87810000D03*
X136045000Y-87810000D03*
X135095000Y-87810000D03*
D26*
X134145000Y-98310000D03*
D27*
X134145000Y-92110000D03*
D28*
X134145000Y-102460000D03*
D27*
X145295000Y-87810000D03*
D29*
X147645000Y-102910000D03*
D17*
X164890000Y-70000000D03*
X165910000Y-70000000D03*
D30*
X150075000Y-44312500D03*
X150575000Y-44312500D03*
X151075000Y-44312500D03*
X151575000Y-44312500D03*
X152075000Y-44312500D03*
X152575000Y-44312500D03*
D31*
X153262500Y-43625000D03*
X153262500Y-43125000D03*
X153262500Y-42625000D03*
X153262500Y-42125000D03*
X153262500Y-41625000D03*
X153262500Y-41125000D03*
D30*
X152575000Y-40437500D03*
X152075000Y-40437500D03*
X151575000Y-40437500D03*
X151075000Y-40437500D03*
X150575000Y-40437500D03*
X150075000Y-40437500D03*
D31*
X149387500Y-41125000D03*
X149387500Y-41625000D03*
X149387500Y-42125000D03*
X149387500Y-42625000D03*
X149387500Y-43125000D03*
X149387500Y-43625000D03*
D32*
X151325000Y-42375000D03*
D22*
X179950000Y-48119000D03*
X181850000Y-48119000D03*
D18*
X148420000Y-50700000D03*
X149380000Y-50700000D03*
X144920000Y-57500000D03*
X145880000Y-57500000D03*
D33*
X161100000Y-70620000D03*
X161100000Y-71580000D03*
D15*
X161100000Y-64480000D03*
X161100000Y-63520000D03*
D34*
X180755000Y-73700000D03*
X180755000Y-72900000D03*
D35*
X180755000Y-71750000D03*
X180755000Y-70750000D03*
X180755000Y-70250000D03*
X180755000Y-69250000D03*
D34*
X180755000Y-68100000D03*
X180755000Y-67300000D03*
X180755000Y-67300000D03*
X180755000Y-68100000D03*
D35*
X180755000Y-68750000D03*
X180755000Y-69750000D03*
X180755000Y-71250000D03*
X180755000Y-72250000D03*
D34*
X180755000Y-72900000D03*
X180755000Y-73700000D03*
D36*
X181395000Y-74820000D03*
D37*
X185575000Y-74820000D03*
D36*
X181395000Y-66180000D03*
D37*
X185575000Y-66180000D03*
D17*
X178690000Y-39450000D03*
X179710000Y-39450000D03*
D38*
X176625000Y-55619000D03*
X178175000Y-55619000D03*
D17*
X130990000Y-91500000D03*
X132010000Y-91500000D03*
D19*
X135187500Y-46500000D03*
X137012500Y-46500000D03*
D39*
X117187500Y-93600000D03*
X117187500Y-94600000D03*
X117187500Y-95600000D03*
X117187500Y-96600000D03*
X117187500Y-97600000D03*
X122512500Y-97600000D03*
X122512500Y-96600000D03*
X122512500Y-95600000D03*
X122512500Y-94600000D03*
X122512500Y-93600000D03*
D40*
X156100000Y-96250000D03*
X185400000Y-96250000D03*
D41*
X116675000Y-34150000D03*
X119215000Y-32630000D03*
X126785000Y-34150000D03*
X129325000Y-32630000D03*
D42*
X127445000Y-43870000D03*
D43*
X126175000Y-46410000D03*
X124905000Y-43870000D03*
X123635000Y-46410000D03*
X122365000Y-43870000D03*
X121095000Y-46410000D03*
X119825000Y-43870000D03*
X118555000Y-46410000D03*
D44*
X130775000Y-40580000D03*
X115225000Y-40580000D03*
D22*
X142850000Y-84600000D03*
X144750000Y-84600000D03*
D45*
X144465000Y-45500000D03*
X145435000Y-45500000D03*
D46*
X169500000Y-75722500D03*
X169500000Y-77297500D03*
D18*
X161020000Y-62500000D03*
X161980000Y-62500000D03*
D47*
X175700000Y-74250000D03*
D48*
X175700000Y-72550000D03*
X173700000Y-72550000D03*
X173700000Y-74450000D03*
D17*
X130990000Y-90250000D03*
X132010000Y-90250000D03*
D16*
X112100000Y-30900000D03*
D18*
X118020000Y-80600000D03*
X118980000Y-80600000D03*
D49*
X159500000Y-78500000D03*
X159500000Y-78000000D03*
X159500000Y-77500000D03*
X159500000Y-77000000D03*
X159500000Y-76500000D03*
X159500000Y-76000000D03*
X159500000Y-75500000D03*
X159500000Y-75000000D03*
X159500000Y-74500000D03*
X159500000Y-74000000D03*
X159500000Y-73500000D03*
X159500000Y-73000000D03*
X159500000Y-72500000D03*
X159500000Y-72000000D03*
X159500000Y-71500000D03*
X159500000Y-71000000D03*
X159500000Y-70500000D03*
X159500000Y-70000000D03*
X159500000Y-69500000D03*
X159500000Y-69000000D03*
X159500000Y-68500000D03*
X159500000Y-68000000D03*
X159500000Y-67500000D03*
X159500000Y-67000000D03*
X159500000Y-66500000D03*
X159500000Y-66000000D03*
X159500000Y-65500000D03*
X159500000Y-65000000D03*
X159500000Y-64500000D03*
X159500000Y-64000000D03*
X159500000Y-63500000D03*
X159500000Y-63000000D03*
X159500000Y-62500000D03*
X159500000Y-62000000D03*
X159500000Y-61500000D03*
X159500000Y-61000000D03*
D50*
X157587500Y-59087500D03*
X157087500Y-59087500D03*
X156587500Y-59087500D03*
X156087500Y-59087500D03*
X155587500Y-59087500D03*
X155087500Y-59087500D03*
X154587500Y-59087500D03*
X154087500Y-59087500D03*
X153587500Y-59087500D03*
X153087500Y-59087500D03*
X152587500Y-59087500D03*
X152087500Y-59087500D03*
X151587500Y-59087500D03*
X151087500Y-59087500D03*
X150587500Y-59087500D03*
X150087500Y-59087500D03*
X149587500Y-59087500D03*
X149087500Y-59087500D03*
X148587500Y-59087500D03*
X148087500Y-59087500D03*
X147587500Y-59087500D03*
X147087500Y-59087500D03*
X146587500Y-59087500D03*
X146087500Y-59087500D03*
X145587500Y-59087500D03*
X145087500Y-59087500D03*
X144587500Y-59087500D03*
X144087500Y-59087500D03*
X143587500Y-59087500D03*
X143087500Y-59087500D03*
X142587500Y-59087500D03*
X142087500Y-59087500D03*
X141587500Y-59087500D03*
X141087500Y-59087500D03*
X140587500Y-59087500D03*
X140087500Y-59087500D03*
D49*
X138175000Y-61000000D03*
X138175000Y-61500000D03*
X138175000Y-62000000D03*
X138175000Y-62500000D03*
X138175000Y-63000000D03*
X138175000Y-63500000D03*
X138175000Y-64000000D03*
X138175000Y-64500000D03*
X138175000Y-65000000D03*
X138175000Y-65500000D03*
X138175000Y-66000000D03*
X138175000Y-66500000D03*
X138175000Y-67000000D03*
X138175000Y-67500000D03*
X138175000Y-68000000D03*
X138175000Y-68500000D03*
X138175000Y-69000000D03*
X138175000Y-69500000D03*
X138175000Y-70000000D03*
X138175000Y-70500000D03*
X138175000Y-71000000D03*
X138175000Y-71500000D03*
X138175000Y-72000000D03*
X138175000Y-72500000D03*
X138175000Y-73000000D03*
X138175000Y-73500000D03*
X138175000Y-74000000D03*
X138175000Y-74500000D03*
X138175000Y-75000000D03*
X138175000Y-75500000D03*
X138175000Y-76000000D03*
X138175000Y-76500000D03*
X138175000Y-77000000D03*
X138175000Y-77500000D03*
X138175000Y-78000000D03*
X138175000Y-78500000D03*
D50*
X140087500Y-80412500D03*
X140587500Y-80412500D03*
X141087500Y-80412500D03*
X141587500Y-80412500D03*
X142087500Y-80412500D03*
X142587500Y-80412500D03*
X143087500Y-80412500D03*
X143587500Y-80412500D03*
X144087500Y-80412500D03*
X144587500Y-80412500D03*
X145087500Y-80412500D03*
X145587500Y-80412500D03*
X146087500Y-80412500D03*
X146587500Y-80412500D03*
X147087500Y-80412500D03*
X147587500Y-80412500D03*
X148087500Y-80412500D03*
X148587500Y-80412500D03*
X149087500Y-80412500D03*
X149587500Y-80412500D03*
X150087500Y-80412500D03*
X150587500Y-80412500D03*
X151087500Y-80412500D03*
X151587500Y-80412500D03*
X152087500Y-80412500D03*
X152587500Y-80412500D03*
X153087500Y-80412500D03*
X153587500Y-80412500D03*
X154087500Y-80412500D03*
X154587500Y-80412500D03*
X155087500Y-80412500D03*
X155587500Y-80412500D03*
X156087500Y-80412500D03*
X156587500Y-80412500D03*
X157087500Y-80412500D03*
X157587500Y-80412500D03*
D14*
X154250000Y-56760000D03*
X154250000Y-55740000D03*
D51*
X162550000Y-75500000D03*
X163950000Y-75500000D03*
D52*
X168750000Y-70250000D03*
D53*
X170000000Y-71500000D03*
D54*
X170300000Y-71000000D03*
X170300000Y-70500000D03*
X170300000Y-70000000D03*
X170300000Y-69500000D03*
D53*
X170000000Y-69000000D03*
D55*
X169500000Y-68700000D03*
X169000000Y-68700000D03*
X168500000Y-68700000D03*
X168000000Y-68700000D03*
D53*
X167500000Y-69000000D03*
D54*
X167200000Y-69500000D03*
X167200000Y-70000000D03*
X167200000Y-70500000D03*
X167200000Y-71000000D03*
D53*
X167500000Y-71500000D03*
D55*
X168000000Y-71800000D03*
X168500000Y-71800000D03*
X169000000Y-71800000D03*
X169500000Y-71800000D03*
D15*
X136700000Y-66680000D03*
X136700000Y-65720000D03*
D19*
X135187500Y-41700000D03*
X137012500Y-41700000D03*
D11*
X166250000Y-76000000D03*
X166250000Y-77020000D03*
D33*
X155000000Y-43700000D03*
X155000000Y-44660000D03*
D56*
X182900000Y-62415000D03*
X182900000Y-63385000D03*
D57*
X170200000Y-31500000D03*
X178000000Y-31500000D03*
D58*
X135510000Y-35600000D03*
X134490000Y-35600000D03*
D17*
X130990000Y-93750000D03*
X132010000Y-93750000D03*
D15*
X145600000Y-49360000D03*
X145600000Y-48400000D03*
D58*
X181865000Y-76570000D03*
X180845000Y-76570000D03*
D23*
X147930000Y-44250000D03*
X146970000Y-44250000D03*
D46*
X167750000Y-75722500D03*
X167750000Y-77297500D03*
D59*
X126900000Y-49825000D03*
X126900000Y-51375000D03*
D16*
X112100000Y-104900000D03*
D17*
X146690000Y-39000000D03*
X147710000Y-39000000D03*
D23*
X152680000Y-47400000D03*
X151720000Y-47400000D03*
D60*
X112750000Y-78950000D03*
X113250000Y-78950000D03*
X113750000Y-78950000D03*
X114250000Y-78950000D03*
X114750000Y-78950000D03*
X115250000Y-78950000D03*
X115750000Y-78950000D03*
X116250000Y-78950000D03*
X116750000Y-78950000D03*
X117250000Y-78950000D03*
X117750000Y-78950000D03*
X118250000Y-78950000D03*
X118750000Y-78950000D03*
X119250000Y-78950000D03*
X119750000Y-78950000D03*
X120250000Y-78950000D03*
X120750000Y-78950000D03*
X121250000Y-78950000D03*
X121750000Y-78950000D03*
X122250000Y-78950000D03*
X122750000Y-78950000D03*
X123250000Y-78950000D03*
X123750000Y-78950000D03*
X124250000Y-78950000D03*
X124250000Y-59250000D03*
X123750000Y-59250000D03*
X123250000Y-59250000D03*
X122750000Y-59250000D03*
X122250000Y-59250000D03*
X121750000Y-59250000D03*
X121250000Y-59250000D03*
X120750000Y-59250000D03*
X120250000Y-59250000D03*
X119750000Y-59250000D03*
X119250000Y-59250000D03*
X118750000Y-59250000D03*
X118250000Y-59250000D03*
X117750000Y-59250000D03*
X117250000Y-59250000D03*
X116750000Y-59250000D03*
X116250000Y-59250000D03*
X115750000Y-59250000D03*
X115250000Y-59250000D03*
X114750000Y-59250000D03*
X114250000Y-59250000D03*
X113750000Y-59250000D03*
X113250000Y-59250000D03*
X112750000Y-59250000D03*
D22*
X161450000Y-58000000D03*
X163350000Y-58000000D03*
D58*
X145410000Y-44100000D03*
X144390000Y-44100000D03*
D33*
X157500000Y-82020000D03*
X157500000Y-82980000D03*
D61*
X178912500Y-37700000D03*
X180487500Y-37700000D03*
D16*
X186200000Y-104900000D03*
D62*
X147250000Y-49230000D03*
X149450000Y-49230000D03*
X149450000Y-47530000D03*
X147250000Y-47530000D03*
D17*
X134480000Y-33800000D03*
X135500000Y-33800000D03*
D15*
X139750000Y-57480000D03*
X139750000Y-56520000D03*
D46*
X157300000Y-88712500D03*
X157300000Y-90287500D03*
D18*
X156420000Y-57500000D03*
X157380000Y-57500000D03*
D17*
X130990000Y-95000000D03*
X132010000Y-95000000D03*
D23*
X114850000Y-93600000D03*
X113890000Y-93600000D03*
D58*
X161810000Y-80800000D03*
X160790000Y-80800000D03*
D63*
X176675000Y-48869000D03*
X178125000Y-48869000D03*
D18*
X160820000Y-81870000D03*
X161780000Y-81870000D03*
D23*
X152680000Y-46300000D03*
X151720000Y-46300000D03*
X146680000Y-81900000D03*
X145720000Y-81900000D03*
D18*
X164020000Y-77000000D03*
X164980000Y-77000000D03*
D64*
X176450000Y-53756500D03*
X177400000Y-53756500D03*
X178350000Y-53756500D03*
X178350000Y-51481500D03*
X176450000Y-51481500D03*
D11*
X171000000Y-76000000D03*
X171000000Y-77020000D03*
D18*
X140420000Y-86100000D03*
X141380000Y-86100000D03*
D65*
X137175000Y-80200000D03*
X135625000Y-80200000D03*
D66*
X161300000Y-56500000D03*
X161300000Y-55500000D03*
D18*
X161020000Y-61500000D03*
X161980000Y-61500000D03*
D17*
X130990000Y-88000000D03*
X132010000Y-88000000D03*
D18*
X149920000Y-57500000D03*
X150880000Y-57500000D03*
D19*
X135187500Y-39300000D03*
X137012500Y-39300000D03*
D14*
X153250000Y-56760000D03*
X153250000Y-55740000D03*
D67*
X150500000Y-103537500D03*
X150500000Y-101962500D03*
D33*
X162750000Y-77020000D03*
X162750000Y-77980000D03*
D17*
X146690000Y-40250000D03*
X147710000Y-40250000D03*
D23*
X151300000Y-81900000D03*
X150340000Y-81900000D03*
D18*
X118020000Y-57700000D03*
X118980000Y-57700000D03*
D68*
X142200000Y-55600000D03*
D69*
X183500000Y-96200000D03*
D70*
X182094800Y-45663600D03*
D69*
X135900000Y-65700000D03*
X162200000Y-63200000D03*
X161900000Y-63700000D03*
D68*
X139500000Y-71500000D03*
D69*
X142200000Y-86100000D03*
D68*
X171100000Y-70800000D03*
D69*
X133400000Y-97400000D03*
D68*
X155000000Y-45480000D03*
X182700000Y-64600000D03*
D70*
X174424000Y-55976000D03*
D69*
X179400000Y-31500000D03*
X119000000Y-56900000D03*
X146000000Y-85500000D03*
X126900000Y-52500000D03*
X161800000Y-82700000D03*
D68*
X163300000Y-76300000D03*
X152200000Y-45600000D03*
X115799998Y-77800000D03*
X147500000Y-50500000D03*
X187100000Y-62799992D03*
X161600000Y-74000000D03*
D69*
X147500000Y-101300000D03*
D68*
X152300000Y-43300000D03*
D69*
X119000000Y-81300000D03*
D68*
X173648800Y-65800000D03*
D69*
X135100000Y-92100000D03*
D68*
X145295000Y-88900000D03*
D69*
X164400000Y-57000000D03*
X134700000Y-80300000D03*
D68*
X151700000Y-48200000D03*
X165300000Y-74600000D03*
X168600000Y-66000000D03*
D69*
X157400000Y-56700000D03*
D68*
X143600000Y-44400000D03*
D69*
X177700000Y-37800000D03*
D68*
X115800000Y-96500000D03*
X161500000Y-75600000D03*
D69*
X135800000Y-78000000D03*
D68*
X165900000Y-64400000D03*
X150500000Y-50800000D03*
X166500000Y-69100000D03*
D70*
X174474800Y-50032400D03*
D69*
X150900000Y-56700000D03*
D68*
X150800000Y-47500000D03*
X172200000Y-68200000D03*
X150400000Y-41500000D03*
X146100000Y-40900000D03*
X146200000Y-44400000D03*
D70*
X174497790Y-45649002D03*
D69*
X150300000Y-82700000D03*
X148900000Y-36900000D03*
D70*
X177980000Y-45206400D03*
D68*
X145800000Y-50300000D03*
X148000000Y-46200000D03*
D69*
X161900000Y-71600000D03*
D68*
X150400000Y-43300000D03*
X179900000Y-66600000D03*
X145700000Y-47400000D03*
D69*
X145900000Y-56700000D03*
D68*
X138245000Y-88900002D03*
X161800000Y-78000000D03*
X180100000Y-74400000D03*
X154600000Y-79300000D03*
D70*
X181891600Y-49727600D03*
D69*
X146200000Y-82700000D03*
X156700000Y-83000000D03*
D68*
X176649994Y-74249994D03*
D70*
X182196400Y-55976000D03*
D68*
X165300000Y-78100000D03*
X180000000Y-76600000D03*
D69*
X124000000Y-94600000D03*
D68*
X152300000Y-41500000D03*
X139600000Y-55700000D03*
D69*
X135400000Y-102500000D03*
D68*
X112900000Y-93600000D03*
D69*
X177700000Y-39500000D03*
D68*
X131000000Y-96200000D03*
D69*
X163000000Y-80800000D03*
X163100000Y-60400000D03*
D68*
X114900000Y-92700000D03*
X144400000Y-46400000D03*
D69*
X161900000Y-55000000D03*
X130990000Y-89200000D03*
X118000000Y-56900000D03*
D68*
X171000000Y-75200000D03*
D69*
X118000000Y-81300000D03*
D68*
X166200000Y-75200000D03*
D70*
X179995400Y-46476400D03*
D69*
X158200000Y-84100000D03*
X130990000Y-92600000D03*
D68*
X164500000Y-69300000D03*
D69*
X141200000Y-85300000D03*
D70*
X180062800Y-51099200D03*
X176964000Y-46527200D03*
D68*
X154400000Y-43100000D03*
D70*
X180062800Y-49778400D03*
X175592400Y-50946800D03*
D69*
X130173400Y-87026584D03*
X160300000Y-84000000D03*
D68*
X174099996Y-69600000D03*
X173700000Y-73400000D03*
D69*
X144400000Y-36700000D03*
X138200000Y-44100000D03*
X138200000Y-39300000D03*
X138200000Y-41700000D03*
X138200000Y-45600000D03*
X158200000Y-76100000D03*
X159000000Y-85800000D03*
D68*
X175001198Y-72501208D03*
X174284799Y-71835913D03*
X137000000Y-89400000D03*
X132700000Y-89600000D03*
X132800000Y-91100000D03*
X141600000Y-89400000D03*
X138000000Y-83200000D03*
X135400000Y-84100000D03*
X143825608Y-86189378D03*
X141087500Y-82400000D03*
X143749999Y-89698800D03*
X132700000Y-95000000D03*
X143295422Y-86495422D03*
X141300000Y-83100000D03*
X142645001Y-89698800D03*
X132700000Y-93500000D03*
X132500000Y-82400000D03*
X139800000Y-81700000D03*
D69*
X132887498Y-41600000D03*
X129500000Y-44400000D03*
D68*
X150676836Y-45232320D03*
X145284199Y-41415801D03*
X144733272Y-41655576D03*
X149527247Y-45720820D03*
X145900000Y-38999996D03*
X137900000Y-59700000D03*
X139100000Y-58900000D03*
X145900000Y-40300006D03*
X118300000Y-63900000D03*
X136732601Y-64049459D03*
X114300000Y-67200000D03*
X139300000Y-67100000D03*
X136913642Y-63072459D03*
X118500000Y-62800000D03*
X156587500Y-78700000D03*
X122000000Y-76357500D03*
X121900000Y-61700000D03*
X148300000Y-61500000D03*
X143087500Y-63000000D03*
X119895422Y-62704578D03*
X151500000Y-39500000D03*
X152200000Y-60800000D03*
X149415002Y-66620002D03*
X113819998Y-67560002D03*
X144400000Y-79000000D03*
X121300000Y-76611500D03*
X139300004Y-64800000D03*
X125900000Y-65400000D03*
X157800000Y-74000000D03*
X115833744Y-72733744D03*
X165900000Y-71500000D03*
X163950000Y-69850000D03*
X143587500Y-62600000D03*
X120374772Y-62343710D03*
X118600000Y-63400000D03*
X136202106Y-63769140D03*
X158300000Y-72400000D03*
X114700000Y-71488500D03*
X123700000Y-80200000D03*
X157600000Y-78200000D03*
X146900000Y-72027500D03*
X119300000Y-75900000D03*
X143900000Y-73700000D03*
X120750000Y-76611500D03*
X114788500Y-69354578D03*
X139900000Y-68800000D03*
X122500000Y-61200000D03*
X147900004Y-61000000D03*
X121200000Y-64700000D03*
X142200000Y-64400000D03*
X118700000Y-77111500D03*
X143000000Y-79100000D03*
X147587500Y-60400000D03*
X122850000Y-60750000D03*
X122100000Y-69900000D03*
X140600000Y-69900000D03*
X158173400Y-77500000D03*
X122800000Y-75100000D03*
X122339795Y-75862988D03*
X155900000Y-77000000D03*
X151000000Y-66500000D03*
X114000000Y-68100000D03*
X157399996Y-53400000D03*
X159700000Y-55500000D03*
X158000000Y-73500000D03*
X115682672Y-72038282D03*
X158100000Y-71500004D03*
X114056412Y-68733079D03*
X120152530Y-76666574D03*
X145300000Y-73004502D03*
X144100000Y-62200000D03*
X120818464Y-61963072D03*
X142000000Y-78900000D03*
X117532864Y-77576291D03*
X142087500Y-60200000D03*
X118000000Y-60400000D03*
X141000000Y-69400000D03*
X123300000Y-69400000D03*
X115066721Y-71963388D03*
X158200000Y-73000000D03*
X146200000Y-72516000D03*
X119800000Y-76200000D03*
X144900000Y-81600000D03*
X121900000Y-80400000D03*
X149100000Y-66200000D03*
X114154478Y-66617912D03*
X157600000Y-72100000D03*
X114100000Y-71000000D03*
X139460002Y-58119998D03*
D69*
X147000000Y-82700000D03*
X144900000Y-56700000D03*
X149900000Y-56700000D03*
X151300000Y-82700000D03*
X161100000Y-65200004D03*
X161800000Y-70600000D03*
X160600000Y-59100000D03*
X156700000Y-82023400D03*
X135700000Y-79000000D03*
X156400000Y-56700000D03*
X135900000Y-66700000D03*
D71*
X157380000Y-57500000D02*
X157380000Y-56720000D01*
D72*
X166900000Y-69500000D02*
X166500000Y-69100000D01*
D71*
X116400001Y-95600000D02*
X115800000Y-96200001D01*
D72*
X172700000Y-65750000D02*
X173598800Y-65750000D01*
D71*
X150587500Y-59087500D02*
X150587500Y-57792500D01*
X136780000Y-78000000D02*
X136600000Y-77820000D01*
X150587500Y-81652500D02*
X150340000Y-81900000D01*
X118980000Y-57700000D02*
X118980000Y-56920000D01*
D72*
X152200000Y-45820000D02*
X152200000Y-45600000D01*
D71*
X157380000Y-56720000D02*
X157400000Y-56700000D01*
D73*
X163400000Y-58000000D02*
X164400000Y-57000000D01*
D71*
X118750000Y-78950000D02*
X118750000Y-80370000D01*
X115800000Y-96500000D02*
X115800000Y-96999999D01*
D74*
X144390000Y-44100000D02*
X143900000Y-44100000D01*
D71*
X145295000Y-87810000D02*
X145295000Y-88900000D01*
D74*
X161780000Y-82680000D02*
X161800000Y-82700000D01*
X146450000Y-41250000D02*
X146100000Y-40900000D01*
X175700000Y-74250000D02*
X176649988Y-74250000D01*
X146720000Y-41250000D02*
X146450000Y-41250000D01*
D72*
X171500000Y-67500000D02*
X172200000Y-68200000D01*
D71*
X118750000Y-80370000D02*
X118980000Y-80600000D01*
D74*
X187087500Y-62787492D02*
X187100000Y-62799992D01*
D71*
X145880000Y-56720000D02*
X145900000Y-56700000D01*
X156720000Y-82980000D02*
X156700000Y-83000000D01*
X150880000Y-56720000D02*
X150900000Y-56700000D01*
X126900000Y-51375000D02*
X126900000Y-52500000D01*
D74*
X138175000Y-71500000D02*
X139500000Y-71500000D01*
D71*
X161880000Y-71580000D02*
X161900000Y-71600000D01*
D72*
X180030000Y-76570000D02*
X180000000Y-76600000D01*
X167050000Y-64250000D02*
X166050000Y-64250000D01*
X151720000Y-46300000D02*
X152200000Y-45820000D01*
D71*
X118750000Y-59250000D02*
X118750000Y-57930000D01*
D72*
X151720000Y-47400000D02*
X151720000Y-46300000D01*
D71*
X150587500Y-80412500D02*
X150587500Y-81652500D01*
X135980000Y-77820000D02*
X135800000Y-78000000D01*
D72*
X173598800Y-65750000D02*
X173648800Y-65800000D01*
D71*
X161100000Y-63520000D02*
X161720000Y-63520000D01*
X150340000Y-81900000D02*
X150340000Y-82660000D01*
D72*
X115750000Y-78950000D02*
X115750000Y-77849998D01*
D71*
X145880000Y-57500000D02*
X145880000Y-56720000D01*
X138175000Y-78000000D02*
X136780000Y-78000000D01*
D74*
X187087500Y-61600000D02*
X187087500Y-62787492D01*
D71*
X134145000Y-92110000D02*
X135090000Y-92110000D01*
D74*
X122512500Y-94600000D02*
X124000000Y-94600000D01*
D71*
X149872500Y-102910000D02*
X150500000Y-103537500D01*
X135625000Y-80200000D02*
X134800000Y-80200000D01*
D74*
X180100000Y-74355000D02*
X180100000Y-74400000D01*
D71*
X134800000Y-80200000D02*
X134700000Y-80300000D01*
X139750000Y-55850000D02*
X139600000Y-55700000D01*
X142075000Y-55725000D02*
X142200000Y-55600000D01*
D72*
X170800000Y-70500000D02*
X171100000Y-70800000D01*
D71*
X161980000Y-62980000D02*
X162200000Y-63200000D01*
D72*
X151720000Y-47400000D02*
X151720000Y-48180000D01*
D71*
X116400001Y-97600000D02*
X117187500Y-97600000D01*
X118750000Y-57930000D02*
X118980000Y-57700000D01*
X161980000Y-62500000D02*
X161980000Y-61500000D01*
X113890000Y-93600000D02*
X112900000Y-93600000D01*
X160520000Y-71000000D02*
X161100000Y-71580000D01*
D72*
X154587500Y-79312500D02*
X154600000Y-79300000D01*
X151720000Y-48180000D02*
X151700000Y-48200000D01*
D71*
X136980000Y-66000000D02*
X136700000Y-65720000D01*
X157087500Y-59087500D02*
X157087500Y-57792500D01*
X138175000Y-66000000D02*
X136980000Y-66000000D01*
D74*
X161780000Y-81870000D02*
X161780000Y-82680000D01*
X146970000Y-44250000D02*
X146350000Y-44250000D01*
D71*
X145587500Y-59087500D02*
X145587500Y-57792500D01*
D74*
X178912500Y-37700000D02*
X177800000Y-37700000D01*
D71*
X135360000Y-102460000D02*
X135400000Y-102500000D01*
D74*
X180755000Y-73700000D02*
X180100000Y-74355000D01*
D71*
X118980000Y-80600000D02*
X118980000Y-81280000D01*
D72*
X180845000Y-76570000D02*
X180030000Y-76570000D01*
D71*
X150587500Y-57792500D02*
X150880000Y-57500000D01*
D74*
X143900000Y-44100000D02*
X143600000Y-44400000D01*
D71*
X150880000Y-57500000D02*
X150880000Y-56720000D01*
X161720000Y-63520000D02*
X161900000Y-63700000D01*
X118980000Y-81280000D02*
X119000000Y-81300000D01*
D73*
X141380000Y-86100000D02*
X142200000Y-86100000D01*
D71*
X147645000Y-101445000D02*
X147500000Y-101300000D01*
X183550000Y-96250000D02*
X183500000Y-96200000D01*
X161980000Y-62500000D02*
X161980000Y-62980000D01*
X150340000Y-82660000D02*
X150300000Y-82700000D01*
D72*
X154587500Y-80412500D02*
X154587500Y-79312500D01*
D71*
X134145000Y-102460000D02*
X135360000Y-102460000D01*
X115800000Y-96200001D02*
X115800000Y-96500000D01*
X134145000Y-98145000D02*
X133400000Y-97400000D01*
D74*
X181865000Y-64570000D02*
X182670000Y-64570000D01*
D71*
X159500000Y-71000000D02*
X160520000Y-71000000D01*
D74*
X180600000Y-67300000D02*
X179900000Y-66600000D01*
D71*
X117187500Y-95600000D02*
X116400001Y-95600000D01*
D74*
X176649988Y-74250000D02*
X176649994Y-74249994D01*
D71*
X145720000Y-81900000D02*
X145720000Y-82220000D01*
D73*
X145100000Y-84600000D02*
X146000000Y-85500000D01*
D71*
X118980000Y-56920000D02*
X119000000Y-56900000D01*
D74*
X182670000Y-64570000D02*
X182700000Y-64600000D01*
D71*
X157087500Y-57792500D02*
X157380000Y-57500000D01*
X185400000Y-96250000D02*
X183550000Y-96250000D01*
X178000000Y-31500000D02*
X179400000Y-31500000D01*
X145720000Y-82220000D02*
X146200000Y-82700000D01*
X145587500Y-57792500D02*
X145880000Y-57500000D01*
D72*
X155000000Y-44660000D02*
X155000000Y-45480000D01*
D71*
X147645000Y-102910000D02*
X149872500Y-102910000D01*
D72*
X166050000Y-64250000D02*
X165900000Y-64400000D01*
D71*
X115800000Y-96999999D02*
X116400001Y-97600000D01*
X157500000Y-82980000D02*
X156720000Y-82980000D01*
X147645000Y-102910000D02*
X147645000Y-101445000D01*
D72*
X115750000Y-77849998D02*
X115799998Y-77800000D01*
D71*
X147750000Y-36900000D02*
X148900000Y-36900000D01*
X161100000Y-71580000D02*
X161880000Y-71580000D01*
D72*
X170300000Y-70500000D02*
X170800000Y-70500000D01*
D74*
X177800000Y-37700000D02*
X177700000Y-37800000D01*
D71*
X136600000Y-77820000D02*
X135980000Y-77820000D01*
X138245000Y-87810000D02*
X138245000Y-88900002D01*
X141000000Y-55725000D02*
X142075000Y-55725000D01*
X139750000Y-56520000D02*
X139750000Y-55850000D01*
X136700000Y-65720000D02*
X135920000Y-65720000D01*
D72*
X169250000Y-66020000D02*
X168620000Y-66020000D01*
D71*
X159500000Y-63500000D02*
X161080000Y-63500000D01*
X145587500Y-80412500D02*
X145587500Y-81767500D01*
X135090000Y-92110000D02*
X135100000Y-92100000D01*
D72*
X168620000Y-66020000D02*
X168600000Y-66000000D01*
D74*
X146350000Y-44250000D02*
X146200000Y-44400000D01*
D71*
X135920000Y-65720000D02*
X135900000Y-65700000D01*
D72*
X164890000Y-69690000D02*
X164500000Y-69300000D01*
X157087500Y-79675001D02*
X157278001Y-79484500D01*
D74*
X162120000Y-60400000D02*
X163100000Y-60400000D01*
D71*
X118020000Y-81280000D02*
X118000000Y-81300000D01*
D74*
X153925000Y-42625000D02*
X153262500Y-42625000D01*
D71*
X118250000Y-57930000D02*
X118020000Y-57700000D01*
D73*
X141920000Y-84600000D02*
X142850000Y-84600000D01*
D72*
X158200000Y-79909948D02*
X158200000Y-84100000D01*
D74*
X161810000Y-80800000D02*
X163000000Y-80800000D01*
X159500000Y-62500000D02*
X159500000Y-63000000D01*
D71*
X118250000Y-78950000D02*
X118250000Y-80370000D01*
D74*
X161020000Y-61500000D02*
X162120000Y-60400000D01*
D72*
X171000000Y-76000000D02*
X171000000Y-75200000D01*
D73*
X141220000Y-85300000D02*
X141920000Y-84600000D01*
D71*
X130990000Y-89200000D02*
X130990000Y-96190000D01*
X118020000Y-80600000D02*
X118020000Y-81280000D01*
D74*
X178690000Y-39450000D02*
X177750000Y-39450000D01*
D71*
X114850000Y-93600000D02*
X117187500Y-93600000D01*
X130990000Y-96190000D02*
X131000000Y-96200000D01*
D72*
X166250000Y-75250000D02*
X166200000Y-75200000D01*
D73*
X161300000Y-55500000D02*
X161400000Y-55500000D01*
X141200000Y-85320000D02*
X141200000Y-85300000D01*
D71*
X118020000Y-56920000D02*
X118000000Y-56900000D01*
X114850000Y-92750000D02*
X114900000Y-92700000D01*
X130990000Y-88000000D02*
X130990000Y-89200000D01*
X118250000Y-59250000D02*
X118250000Y-57930000D01*
X118250000Y-80370000D02*
X118020000Y-80600000D01*
D74*
X144465000Y-45500000D02*
X144465000Y-46335000D01*
D72*
X166250000Y-76000000D02*
X166250000Y-75250000D01*
D73*
X141200000Y-85300000D02*
X141220000Y-85300000D01*
D74*
X155000000Y-43700000D02*
X154400000Y-43100000D01*
X144465000Y-46335000D02*
X144400000Y-46400000D01*
D72*
X157278001Y-79484500D02*
X157774552Y-79484500D01*
D73*
X161400000Y-55500000D02*
X161900000Y-55000000D01*
D74*
X177750000Y-39450000D02*
X177700000Y-39500000D01*
D73*
X140445000Y-87810000D02*
X140445000Y-86125000D01*
D74*
X161020000Y-62500000D02*
X161020000Y-61500000D01*
X159500000Y-62500000D02*
X161020000Y-62500000D01*
D72*
X157774552Y-79484500D02*
X158200000Y-79909948D01*
X164890000Y-70000000D02*
X164890000Y-69690000D01*
D71*
X118020000Y-57700000D02*
X118020000Y-56920000D01*
X114850000Y-93600000D02*
X114850000Y-92750000D01*
D74*
X154400000Y-43100000D02*
X153925000Y-42625000D01*
D73*
X140420000Y-86100000D02*
X141200000Y-85320000D01*
D72*
X157087500Y-80412500D02*
X157087500Y-79675001D01*
X160790000Y-80800000D02*
X160790000Y-81840000D01*
X157746000Y-79146000D02*
X159136000Y-79146000D01*
D71*
X122512500Y-93600000D02*
X123599984Y-93600000D01*
D72*
X166877000Y-66500000D02*
X164900000Y-66500000D01*
X158762501Y-66500000D02*
X157013500Y-68249001D01*
D74*
X157042800Y-39542800D02*
X164900000Y-47400000D01*
D72*
X159136000Y-79146000D02*
X160790000Y-80800000D01*
D74*
X164900000Y-47400000D02*
X164900000Y-66500000D01*
D72*
X160820000Y-81870000D02*
X160820000Y-83480000D01*
X159500000Y-66500000D02*
X158762501Y-66500000D01*
D74*
X151575000Y-40437500D02*
X151575000Y-40027738D01*
X157042800Y-39542800D02*
X157107200Y-39542800D01*
D71*
X123599984Y-93600000D02*
X130173400Y-87026584D01*
D74*
X151575000Y-40027738D02*
X152059938Y-39542800D01*
X165150000Y-31500000D02*
X170200000Y-31500000D01*
X157107200Y-39542800D02*
X165150000Y-31500000D01*
X152059938Y-39542800D02*
X157042800Y-39542800D01*
D72*
X168500000Y-68700000D02*
X168500000Y-68123000D01*
X157013500Y-68249001D02*
X157013500Y-78413500D01*
X168500000Y-68123000D02*
X166877000Y-66500000D01*
X164900000Y-66500000D02*
X159500000Y-66500000D01*
X157013500Y-78413500D02*
X157746000Y-79146000D01*
X160820000Y-83480000D02*
X160300000Y-84000000D01*
X159500000Y-74500000D02*
X162950000Y-74500000D01*
X163950000Y-75500000D02*
X163950000Y-76930000D01*
X162950000Y-74500000D02*
X163950000Y-75500000D01*
X162550000Y-75500000D02*
X162550000Y-76820000D01*
X159500000Y-75000000D02*
X162050000Y-75000000D01*
X162050000Y-75000000D02*
X162550000Y-75500000D01*
D71*
X139141100Y-78702834D02*
X139141100Y-77641100D01*
X137643934Y-80200000D02*
X139141100Y-78702834D01*
X137175000Y-80200000D02*
X137643934Y-80200000D01*
X139141100Y-77641100D02*
X139000000Y-77500000D01*
X139000000Y-77500000D02*
X138175000Y-77500000D01*
X141000000Y-57275000D02*
X140587500Y-57687500D01*
X140587500Y-57687500D02*
X140587500Y-59087500D01*
D72*
X170000000Y-69000000D02*
X170000000Y-68020000D01*
X170000000Y-68020000D02*
X170520000Y-67500000D01*
X170520000Y-67500000D02*
X170520000Y-66030000D01*
X169500000Y-67230000D02*
X169250000Y-66980000D01*
X168950000Y-64250000D02*
X174150000Y-64250000D01*
X169500000Y-68700000D02*
X169500000Y-67230000D01*
D75*
X175303900Y-53684500D02*
X175220200Y-53768200D01*
X176588000Y-53684500D02*
X175303900Y-53684500D01*
X180910000Y-62410000D02*
X181400000Y-62410000D01*
X181400000Y-62410000D02*
X182895000Y-62410000D01*
D74*
X174200000Y-69600000D02*
X174099996Y-69600000D01*
D75*
X176553400Y-58053400D02*
X180910000Y-62410000D01*
D72*
X174150000Y-64250000D02*
X178450000Y-59950000D01*
D74*
X174150000Y-69549996D02*
X174150000Y-64250000D01*
D75*
X176588000Y-53684500D02*
X176588000Y-55408000D01*
D72*
X169800000Y-66430000D02*
X169800000Y-65100000D01*
X169250000Y-66980000D02*
X169800000Y-66430000D01*
D74*
X173700000Y-74450000D02*
X173700000Y-73400000D01*
D75*
X176553400Y-55442600D02*
X176553400Y-58053400D01*
D74*
X174099996Y-69600000D02*
X174150000Y-69549996D01*
D72*
X169500000Y-68700000D02*
X169000000Y-68700000D01*
X169800000Y-65100000D02*
X168950000Y-64250000D01*
D71*
X146680000Y-45500000D02*
X147930000Y-44250000D01*
X122365000Y-45140000D02*
X122365000Y-43870000D01*
X137012500Y-44100000D02*
X138200000Y-44100000D01*
X144157626Y-44951400D02*
X143509026Y-45600000D01*
X126900000Y-49800000D02*
X123635000Y-46535000D01*
X144400000Y-36700000D02*
X145650000Y-36700000D01*
X137012500Y-46500000D02*
X133712500Y-49800000D01*
X144900000Y-37850000D02*
X144900000Y-40392943D01*
X145850000Y-36900000D02*
X144900000Y-37850000D01*
X137012500Y-39300000D02*
X138200000Y-39300000D01*
X148150000Y-44250000D02*
X148212500Y-44312500D01*
X146295657Y-41788600D02*
X147141400Y-41788600D01*
X148212500Y-44312500D02*
X150075000Y-44312500D01*
X144886400Y-44951400D02*
X144157626Y-44951400D01*
X147830000Y-41100000D02*
X149362500Y-41100000D01*
X137300000Y-46500000D02*
X138200000Y-45600000D01*
X123635000Y-46410000D02*
X122365000Y-45140000D01*
X145435000Y-45500000D02*
X146680000Y-45500000D01*
X137012500Y-41700000D02*
X138200000Y-41700000D01*
X133712500Y-49800000D02*
X126900000Y-49800000D01*
X145435000Y-45500000D02*
X144886400Y-44951400D01*
X144900000Y-40392943D02*
X146295657Y-41788600D01*
X143509026Y-45600000D02*
X138200000Y-45600000D01*
X147141400Y-41788600D02*
X147680000Y-41250000D01*
X147930000Y-44250000D02*
X148150000Y-44250000D01*
D72*
X152680000Y-46300000D02*
X152680000Y-47400000D01*
X152575000Y-46195000D02*
X152575000Y-44312500D01*
X150400000Y-46200000D02*
X151575000Y-45025000D01*
X151575000Y-45025000D02*
X151575000Y-44312500D01*
X147250000Y-49230000D02*
X148400000Y-48080000D01*
X149200000Y-46200000D02*
X150400000Y-46200000D01*
X147040000Y-49360000D02*
X145600000Y-49360000D01*
X148400000Y-48080000D02*
X148400000Y-47000000D01*
X148400000Y-47000000D02*
X149200000Y-46200000D01*
X148420000Y-50700000D02*
X148420000Y-48579000D01*
X148420000Y-48579000D02*
X149450000Y-47549000D01*
X152075000Y-45059148D02*
X152075000Y-44312500D01*
X149604148Y-47530000D02*
X152075000Y-45059148D01*
D71*
X156100000Y-96250000D02*
X156100000Y-91487500D01*
X156100000Y-91487500D02*
X157300000Y-90287500D01*
X157300000Y-87500000D02*
X159000000Y-85800000D01*
X159500000Y-76000000D02*
X158300000Y-76000000D01*
X158300000Y-76000000D02*
X158200000Y-76100000D01*
X157300000Y-88712500D02*
X157300000Y-87500000D01*
D72*
X166250000Y-77020000D02*
X167472500Y-77020000D01*
X167750000Y-75722500D02*
X169000000Y-74472500D01*
X169000000Y-74472500D02*
X169000000Y-71800000D01*
X169797500Y-77000000D02*
X170980000Y-77000000D01*
X169500000Y-71800000D02*
X169500000Y-75722500D01*
X170884778Y-70000000D02*
X170300000Y-70000000D01*
X173434778Y-72550000D02*
X170884778Y-70000000D01*
X179914500Y-70559499D02*
X179914500Y-69900000D01*
X180755000Y-70750000D02*
X176061557Y-70750000D01*
X180755000Y-70750000D02*
X180105001Y-70750000D01*
X180064500Y-69750000D02*
X180755000Y-69750000D01*
X174261557Y-72550000D02*
X173700000Y-72550000D01*
X176061557Y-70750000D02*
X174261557Y-72550000D01*
X179914500Y-69900000D02*
X180064500Y-69750000D01*
X180105001Y-70750000D02*
X179914500Y-70559499D01*
X180755000Y-71250000D02*
X177000000Y-71250000D01*
X181595500Y-70395500D02*
X181450000Y-70250000D01*
X175700000Y-72550000D02*
X175049990Y-72550000D01*
X180755000Y-71250000D02*
X181404999Y-71250000D01*
X177000000Y-71250000D02*
X175700000Y-72550000D01*
X181595500Y-71059499D02*
X181595500Y-70395500D01*
X171948886Y-69500000D02*
X174284799Y-71835913D01*
X170300000Y-69500000D02*
X171948886Y-69500000D01*
X181450000Y-70250000D02*
X180755000Y-70250000D01*
X175049990Y-72550000D02*
X175001198Y-72501208D01*
X181404999Y-71250000D02*
X181595500Y-71059499D01*
D71*
X150500000Y-101962500D02*
X152202500Y-101962500D01*
D74*
X181400000Y-61390000D02*
X185302500Y-61390000D01*
X179710000Y-39450000D02*
X179710000Y-38477500D01*
X179710000Y-38477500D02*
X180487500Y-37700000D01*
D72*
X140042500Y-74630001D02*
X140042500Y-79257500D01*
D71*
X137000000Y-89400000D02*
X137000000Y-87955000D01*
D72*
X138175000Y-73500000D02*
X138912499Y-73500000D01*
D71*
X132050000Y-90250000D02*
X132700000Y-89600000D01*
D72*
X136795000Y-87460000D02*
X137145000Y-87810000D01*
X140042500Y-79257500D02*
X136795000Y-82505000D01*
X136795000Y-82505000D02*
X136795000Y-87460000D01*
X138912499Y-73500000D02*
X140042500Y-74630001D01*
X139345000Y-85955000D02*
X142087500Y-83212500D01*
X142087500Y-83212500D02*
X142087500Y-80412500D01*
X139345000Y-87810000D02*
X139345000Y-85955000D01*
X143587500Y-81652667D02*
X143587500Y-80412500D01*
D71*
X132400000Y-91500000D02*
X132800000Y-91100000D01*
D72*
X143800000Y-85300000D02*
X143800000Y-81865167D01*
D71*
X141600000Y-89400000D02*
X141600000Y-87865000D01*
D72*
X141545000Y-87555000D02*
X143800000Y-85300000D01*
D71*
X132010000Y-91500000D02*
X132400000Y-91500000D01*
D72*
X143800000Y-81865167D02*
X143587500Y-81652667D01*
D71*
X139000000Y-83200000D02*
X138000000Y-83200000D01*
X135095000Y-87810000D02*
X132200000Y-87810000D01*
X140587500Y-81612500D02*
X139000000Y-83200000D01*
X135095000Y-84405000D02*
X135400000Y-84100000D01*
X140587500Y-80412500D02*
X140587500Y-81612500D01*
X135095000Y-87810000D02*
X135095000Y-84405000D01*
X132200000Y-87810000D02*
X132010000Y-88000000D01*
D72*
X139788500Y-79111500D02*
X139788500Y-74876001D01*
X139788500Y-74876001D02*
X138912499Y-74000000D01*
X138912499Y-74000000D02*
X138175000Y-74000000D01*
X136045000Y-82855000D02*
X139788500Y-79111500D01*
X136045000Y-87810000D02*
X136045000Y-82855000D01*
D71*
X143745000Y-89693801D02*
X143749999Y-89698800D01*
X143745000Y-87810000D02*
X143745000Y-89693801D01*
D72*
X141087500Y-80412500D02*
X141087500Y-82400000D01*
X143745000Y-87810000D02*
X143745000Y-86269986D01*
X143745000Y-86269986D02*
X143825608Y-86189378D01*
D71*
X132010000Y-95000000D02*
X132700000Y-95000000D01*
D72*
X141587500Y-80412500D02*
X141587500Y-82812500D01*
X141587500Y-82812500D02*
X141300000Y-83100000D01*
X142645000Y-87145844D02*
X143295422Y-86495422D01*
X142645000Y-87810000D02*
X142645000Y-87145844D01*
D71*
X132450000Y-93750000D02*
X132700000Y-93500000D01*
X142645000Y-87810000D02*
X142645000Y-89698799D01*
X132010000Y-93750000D02*
X132450000Y-93750000D01*
X142645000Y-89698799D02*
X142645001Y-89698800D01*
X118100000Y-96600000D02*
X132300000Y-82400000D01*
X140087500Y-81412500D02*
X139800000Y-81700000D01*
X117187500Y-96600000D02*
X118100000Y-96600000D01*
X132300000Y-82400000D02*
X132500000Y-82400000D01*
X140087500Y-80412500D02*
X140087500Y-81412500D01*
X135900000Y-77000000D02*
X118300000Y-94600000D01*
X138175000Y-77000000D02*
X135900000Y-77000000D01*
X118300000Y-94600000D02*
X117187500Y-94600000D01*
D72*
X179225000Y-74176514D02*
X181107986Y-76059500D01*
X179225000Y-72752448D02*
X179225000Y-74176514D01*
X181107986Y-76059500D02*
X181118568Y-76059500D01*
X181629068Y-76570000D02*
X181865000Y-76570000D01*
X181118568Y-76059500D02*
X181629068Y-76570000D01*
X180227448Y-71750000D02*
X179225000Y-72752448D01*
D73*
X183202400Y-67331299D02*
X182162837Y-68370862D01*
X182162837Y-68370862D02*
X181529138Y-68370862D01*
X182900000Y-63385000D02*
X183202400Y-63687400D01*
X181938400Y-72219876D02*
X181938400Y-68780124D01*
X181258276Y-72900000D02*
X181938400Y-72219876D01*
X181258276Y-68100000D02*
X180755000Y-68100000D01*
X183202400Y-63687400D02*
X183202400Y-67331299D01*
X181938400Y-68780124D02*
X181258276Y-68100000D01*
X181529138Y-68370862D02*
X181258276Y-68100000D01*
X180755000Y-72900000D02*
X181258276Y-72900000D01*
D74*
X180105001Y-68750000D02*
X179398800Y-68043799D01*
X180755000Y-68750000D02*
X180105001Y-68750000D01*
X179398800Y-68043799D02*
X179398800Y-66016200D01*
X179398800Y-66016200D02*
X180845000Y-64570000D01*
D72*
X180892500Y-85192500D02*
X184030000Y-88330000D01*
X184030000Y-88330000D02*
X186500000Y-88330000D01*
X153087500Y-81808265D02*
X156471735Y-85192500D01*
X156471735Y-85192500D02*
X180892500Y-85192500D01*
X153087500Y-80412500D02*
X153087500Y-81808265D01*
X156800000Y-84600000D02*
X183200000Y-84600000D01*
X183200000Y-84600000D02*
X184390000Y-85790000D01*
X153587500Y-80412500D02*
X153587500Y-81387500D01*
X153587500Y-81387500D02*
X156800000Y-84600000D01*
X184390000Y-85790000D02*
X186500000Y-85790000D01*
X135187500Y-39300000D02*
X132887500Y-41600000D01*
X148475001Y-42100000D02*
X148950001Y-41625000D01*
X135187500Y-39300000D02*
X136387500Y-40500000D01*
X148950001Y-41625000D02*
X149387500Y-41625000D01*
X132887500Y-41600000D02*
X132887498Y-41600000D01*
X142903067Y-40500000D02*
X144503067Y-42100000D01*
X144503067Y-42100000D02*
X148475001Y-42100000D01*
X136387500Y-40500000D02*
X142903067Y-40500000D01*
D71*
X134490000Y-35600000D02*
X134290000Y-35400000D01*
X117925000Y-35400000D02*
X116675000Y-34150000D01*
X134290000Y-35400000D02*
X117925000Y-35400000D01*
D72*
X139333332Y-43100000D02*
X139600000Y-42833332D01*
X148908332Y-42625000D02*
X149387500Y-42625000D01*
X135187500Y-44100000D02*
X136187500Y-43100000D01*
X129600000Y-44500000D02*
X129500000Y-44400000D01*
X139600000Y-42833332D02*
X148700000Y-42833332D01*
X136187500Y-43100000D02*
X139333332Y-43100000D01*
X148700000Y-42833332D02*
X148908332Y-42625000D01*
X134787500Y-44500000D02*
X129600000Y-44500000D01*
X133787500Y-45100000D02*
X126135000Y-45100000D01*
X135187500Y-46500000D02*
X136387500Y-45300000D01*
X149312500Y-43200000D02*
X149387500Y-43125000D01*
X135187500Y-46500000D02*
X133787500Y-45100000D01*
X126135000Y-45100000D02*
X124905000Y-43870000D01*
X136387500Y-45300000D02*
X137700000Y-45300000D01*
X137700000Y-45300000D02*
X139800000Y-43200000D01*
X139800000Y-43200000D02*
X149312500Y-43200000D01*
X139166666Y-42600000D02*
X139300000Y-42466666D01*
X133041500Y-43846000D02*
X127469000Y-43846000D01*
X135187500Y-41700000D02*
X136087500Y-42600000D01*
X139300000Y-42466666D02*
X148675001Y-42466666D01*
X136087500Y-42600000D02*
X139166666Y-42600000D01*
X135187500Y-41700000D02*
X133041500Y-43846000D01*
X148675001Y-42466666D02*
X149016667Y-42125000D01*
D71*
X130495000Y-33800000D02*
X129325000Y-32630000D01*
X134480000Y-33800000D02*
X130495000Y-33800000D01*
D75*
X176588000Y-51409500D02*
X176588000Y-48769000D01*
D72*
X165910000Y-70000000D02*
X167200000Y-70000000D01*
D71*
X152250000Y-89902075D02*
X144087500Y-81739575D01*
X152250000Y-100990000D02*
X152250000Y-89902075D01*
X144087500Y-81739575D02*
X144087500Y-80412500D01*
D74*
X145885000Y-43625000D02*
X145410000Y-44100000D01*
X149387500Y-43625000D02*
X145885000Y-43625000D01*
D72*
X135500000Y-33800000D02*
X137668398Y-33800000D01*
X151075000Y-44834156D02*
X150676836Y-45232320D01*
X151075000Y-44312500D02*
X151075000Y-44834156D01*
X137668398Y-33800000D02*
X145284199Y-41415801D01*
X135510000Y-35600000D02*
X138677696Y-35600000D01*
X150575000Y-44312500D02*
X150575000Y-44749999D01*
X149604179Y-45720820D02*
X149527247Y-45720820D01*
X138677696Y-35600000D02*
X144733272Y-41655576D01*
X150575000Y-44749999D02*
X149604179Y-45720820D01*
D74*
X178030800Y-52623200D02*
X175345200Y-52623200D01*
X178488000Y-53684500D02*
X178488000Y-53022001D01*
X178488000Y-53022001D02*
X178030800Y-52623200D01*
X147710000Y-39000000D02*
X149574999Y-39000000D01*
X149574999Y-39000000D02*
X150575000Y-40000001D01*
X150575000Y-40000001D02*
X150575000Y-40437500D01*
X138175000Y-59975000D02*
X137900000Y-59700000D01*
X138175000Y-61000000D02*
X138175000Y-59975000D01*
X145900004Y-39000000D02*
X145900000Y-38999996D01*
X146690000Y-39000000D02*
X145900004Y-39000000D01*
X147710000Y-40250000D02*
X149887500Y-40250000D01*
X149887500Y-40250000D02*
X150075000Y-40437500D01*
X139141100Y-58941100D02*
X139100000Y-58900000D01*
X146690000Y-40250000D02*
X145950006Y-40250000D01*
X138175000Y-61500000D02*
X138912499Y-61500000D01*
X139141100Y-61271399D02*
X139141100Y-58941100D01*
X138912499Y-61500000D02*
X139141100Y-61271399D01*
X145950006Y-40250000D02*
X145900000Y-40300006D01*
D72*
X153699999Y-43125000D02*
X153262500Y-43125000D01*
X154250000Y-55740000D02*
X154250000Y-43675001D01*
X154250000Y-43675001D02*
X153699999Y-43125000D01*
D71*
X154087500Y-59087500D02*
X154087500Y-56922500D01*
D72*
X153250000Y-55740000D02*
X153250000Y-43637500D01*
D71*
X153587500Y-59087500D02*
X153587500Y-57097500D01*
X153587500Y-57097500D02*
X153250000Y-56760000D01*
X154587500Y-59087500D02*
X154587500Y-57422500D01*
X154587500Y-57422500D02*
X155250000Y-56760000D01*
D72*
X155900000Y-55090000D02*
X155900000Y-43500000D01*
X155250000Y-55740000D02*
X155900000Y-55090000D01*
X155900000Y-43500000D02*
X154025000Y-41625000D01*
X154025000Y-41625000D02*
X153262500Y-41625000D01*
X116250000Y-61850000D02*
X118300000Y-63900000D01*
X136782060Y-64000000D02*
X136732601Y-64049459D01*
X116250000Y-59250000D02*
X116250000Y-61850000D01*
X138175000Y-64000000D02*
X136782060Y-64000000D01*
X114500000Y-68874269D02*
X114500000Y-67400000D01*
X114300000Y-69074269D02*
X114500000Y-68874269D01*
X116500000Y-72177486D02*
X114300000Y-69977486D01*
X138175000Y-67000000D02*
X139200000Y-67000000D01*
X114300000Y-69977486D02*
X114300000Y-69074269D01*
X116500000Y-78109500D02*
X116500000Y-72177486D01*
X116250000Y-78359500D02*
X116500000Y-78109500D01*
X139200000Y-67000000D02*
X139300000Y-67100000D01*
X114500000Y-67400000D02*
X114300000Y-67200000D01*
X138175000Y-63000000D02*
X136986101Y-63000000D01*
X136986101Y-63000000D02*
X136913642Y-63072459D01*
X117250000Y-61550000D02*
X118500000Y-62800000D01*
X117250000Y-59250000D02*
X117250000Y-61550000D01*
X158900000Y-43400000D02*
X158900000Y-60484948D01*
X158900000Y-60484948D02*
X158572000Y-60812948D01*
X158762501Y-61500000D02*
X159500000Y-61500000D01*
X152265501Y-39809500D02*
X155309500Y-39809500D01*
X158572000Y-60812948D02*
X158572000Y-61309499D01*
X152075000Y-40000001D02*
X152265501Y-39809500D01*
X152075000Y-40437500D02*
X152075000Y-40000001D01*
X155309500Y-39809500D02*
X158900000Y-43400000D01*
X158572000Y-61309499D02*
X158762501Y-61500000D01*
X115250000Y-68766024D02*
X115531000Y-69047024D01*
X122000000Y-76322370D02*
X122000000Y-76357500D01*
X115531000Y-69853370D02*
X122000000Y-76322370D01*
X115531000Y-69047024D02*
X115531000Y-69853370D01*
X115250000Y-59250000D02*
X115250000Y-68766024D01*
X156587500Y-80412500D02*
X156587500Y-78700000D01*
X121750000Y-61350000D02*
X121750000Y-59250000D01*
X121900000Y-61700000D02*
X121900000Y-61500000D01*
X148587500Y-59087500D02*
X148587500Y-61212500D01*
X148587500Y-61212500D02*
X148300000Y-61500000D01*
X121900000Y-61500000D02*
X121750000Y-61350000D01*
X119750000Y-59250000D02*
X119750000Y-62559156D01*
X143087500Y-59087500D02*
X143087500Y-63000000D01*
X119750000Y-62559156D02*
X119895422Y-62704578D01*
X152200000Y-76062501D02*
X152200000Y-60800000D01*
X148587500Y-80412500D02*
X148587500Y-79675001D01*
X148587500Y-79675001D02*
X152200000Y-76062501D01*
X151075000Y-39925000D02*
X151500000Y-39500000D01*
X151075000Y-40437500D02*
X151075000Y-39925000D01*
X113740978Y-59259022D02*
X113740978Y-67480982D01*
X113740978Y-67480982D02*
X113819998Y-67560002D01*
X149415002Y-66620002D02*
X149415002Y-66469776D01*
X149415002Y-66469776D02*
X149587500Y-66297278D01*
X149587500Y-66297278D02*
X149587500Y-59087500D01*
X114754000Y-59254000D02*
X114754000Y-68629234D01*
X115277000Y-70077000D02*
X121300000Y-76100000D01*
X144400000Y-79000000D02*
X144400000Y-79025000D01*
X114754000Y-68629234D02*
X115277000Y-69152234D01*
X144400000Y-79025000D02*
X144587500Y-79212500D01*
X121300000Y-76100000D02*
X121300000Y-76611500D01*
X115277000Y-69152234D02*
X115277000Y-70077000D01*
X144587500Y-79212500D02*
X144587500Y-80412500D01*
X123750000Y-67550000D02*
X125900000Y-65400000D01*
X138175000Y-64500000D02*
X139000004Y-64500000D01*
X123750000Y-78950000D02*
X123750000Y-67550000D01*
X139000004Y-64500000D02*
X139300004Y-64800000D01*
X159500000Y-74000000D02*
X157800000Y-74000000D01*
X114750000Y-78950000D02*
X114750000Y-73817488D01*
X114750000Y-73817488D02*
X115833744Y-72733744D01*
X159500000Y-68500000D02*
X162600000Y-68500000D01*
X162600000Y-68500000D02*
X163950000Y-69850000D01*
X165900000Y-71500000D02*
X167500000Y-71500000D01*
X120250000Y-59250000D02*
X120250000Y-62218938D01*
X120250000Y-62218938D02*
X120374772Y-62343710D01*
X143587500Y-59087500D02*
X143587500Y-62600000D01*
X118515222Y-63400000D02*
X116750000Y-61634778D01*
X118600000Y-63400000D02*
X118515222Y-63400000D01*
X136471246Y-63500000D02*
X136202106Y-63769140D01*
X138175000Y-63500000D02*
X136471246Y-63500000D01*
X116750000Y-61634778D02*
X116750000Y-59250000D01*
X164938446Y-71988500D02*
X167811500Y-71988500D01*
X159500000Y-69500000D02*
X162449946Y-69500000D01*
X162449946Y-69500000D02*
X164938446Y-71988500D01*
X167811500Y-71988500D02*
X168000000Y-71800000D01*
X159400000Y-72400000D02*
X159500000Y-72500000D01*
X113250000Y-72938500D02*
X114700000Y-71488500D01*
X113250000Y-78950000D02*
X113250000Y-72938500D01*
X158300000Y-72400000D02*
X159400000Y-72400000D01*
X152575000Y-40437500D02*
X154937500Y-40437500D01*
X158182000Y-43682000D02*
X158182000Y-64919499D01*
X154937500Y-40437500D02*
X158182000Y-43682000D01*
X158762501Y-65500000D02*
X159500000Y-65500000D01*
X158182000Y-64919499D02*
X158762501Y-65500000D01*
X157600000Y-78200000D02*
X157800000Y-78000000D01*
X122250000Y-79631000D02*
X122250000Y-78950000D01*
X122819000Y-80200000D02*
X122250000Y-79631000D01*
X123700000Y-80200000D02*
X122819000Y-80200000D01*
X157800000Y-78000000D02*
X159500000Y-78000000D01*
X119388500Y-77197656D02*
X119300000Y-77109156D01*
X119300000Y-77109156D02*
X119300000Y-75900000D01*
X147087500Y-71840000D02*
X146900000Y-72027500D01*
X119388500Y-78811500D02*
X119388500Y-77197656D01*
X147087500Y-59087500D02*
X147087500Y-71840000D01*
X119250000Y-78950000D02*
X119388500Y-78811500D01*
X120750000Y-78950000D02*
X120750000Y-76611500D01*
X144587500Y-73012500D02*
X143900000Y-73700000D01*
X144587500Y-59087500D02*
X144587500Y-73012500D01*
X139900000Y-68487501D02*
X138912499Y-67500000D01*
X138912499Y-67500000D02*
X138175000Y-67500000D01*
X114788500Y-70029290D02*
X114788500Y-69354578D01*
X116819350Y-78880650D02*
X116819350Y-72060140D01*
X116819350Y-72060140D02*
X114788500Y-70029290D01*
X139900000Y-68800000D02*
X139900000Y-68487501D01*
X122250000Y-60950000D02*
X122500000Y-61200000D01*
X148087500Y-60812504D02*
X147900004Y-61000000D01*
X148087500Y-59087500D02*
X148087500Y-60812504D01*
X122250000Y-59250000D02*
X122250000Y-60950000D01*
X142587500Y-59087500D02*
X142587500Y-64012500D01*
X119250000Y-59250000D02*
X119250000Y-62750000D01*
X142587500Y-64012500D02*
X142200000Y-64400000D01*
X119250000Y-62750000D02*
X121200000Y-64700000D01*
X117750000Y-78061500D02*
X118700000Y-77111500D01*
X143000000Y-79100000D02*
X143087500Y-79187500D01*
X143087500Y-79187500D02*
X143087500Y-80412500D01*
X117750000Y-78950000D02*
X117750000Y-78061500D01*
X122750000Y-60650000D02*
X122850000Y-60750000D01*
X147587500Y-59087500D02*
X147587500Y-60400000D01*
X122750000Y-59250000D02*
X122750000Y-60650000D01*
X122681151Y-75513500D02*
X122628722Y-75513500D01*
X140586500Y-67130488D02*
X140586500Y-69886500D01*
X138956012Y-65500000D02*
X140586500Y-67130488D01*
X138175000Y-65500000D02*
X138956012Y-65500000D01*
X122100000Y-74984778D02*
X122100000Y-69900000D01*
X122828295Y-75660644D02*
X122681151Y-75513500D01*
X122628722Y-75513500D02*
X122100000Y-74984778D01*
X122828295Y-78871705D02*
X122828295Y-75660644D01*
X140586500Y-69886500D02*
X140600000Y-69900000D01*
X123909500Y-58409500D02*
X124590500Y-58409500D01*
X123750000Y-59250000D02*
X123750000Y-58569000D01*
X123750000Y-58569000D02*
X123909500Y-58409500D01*
X134681000Y-68500000D02*
X138175000Y-68500000D01*
X124590500Y-58409500D02*
X134681000Y-68500000D01*
X164409156Y-71000000D02*
X167200000Y-71000000D01*
X162409156Y-69000000D02*
X164409156Y-71000000D01*
X159500000Y-69000000D02*
X162409156Y-69000000D01*
X122800000Y-69709156D02*
X122800000Y-63684778D01*
X122800000Y-63684778D02*
X121250000Y-62134778D01*
X159500000Y-77500000D02*
X158173400Y-77500000D01*
X122888500Y-69797656D02*
X122800000Y-69709156D01*
X122800000Y-75100000D02*
X122888500Y-75011500D01*
X122888500Y-75011500D02*
X122888500Y-69797656D01*
X121250000Y-62134778D02*
X121250000Y-59250000D01*
X115785000Y-59285000D02*
X115785000Y-69285000D01*
X156087500Y-77187500D02*
X155900000Y-77000000D01*
X156087500Y-80412500D02*
X156087500Y-77187500D01*
X122339795Y-75839795D02*
X122339795Y-75862988D01*
X115785000Y-69285000D02*
X122339795Y-75839795D01*
X113669152Y-68100000D02*
X114000000Y-68100000D01*
X151087500Y-66412500D02*
X151087500Y-59087500D01*
X151000000Y-66500000D02*
X151087500Y-66412500D01*
X113250000Y-59250000D02*
X113250000Y-67680848D01*
X113250000Y-67680848D02*
X113669152Y-68100000D01*
X159700000Y-60800000D02*
X159700000Y-55500000D01*
X157399996Y-43999996D02*
X157399996Y-53400000D01*
X154525000Y-41125000D02*
X157399996Y-43999996D01*
X159500000Y-61000000D02*
X159700000Y-60800000D01*
X153262500Y-41125000D02*
X154525000Y-41125000D01*
X114250000Y-73470954D02*
X115682672Y-72038282D01*
X158000000Y-73500000D02*
X159500000Y-73500000D01*
X114250000Y-78950000D02*
X114250000Y-73470954D01*
X158100004Y-71500000D02*
X158100000Y-71500004D01*
X113943021Y-68733079D02*
X114056412Y-68733079D01*
X159500000Y-71500000D02*
X158100004Y-71500000D01*
X112750000Y-59250000D02*
X112750000Y-67540058D01*
X112750000Y-67540058D02*
X113943021Y-68733079D01*
X134000000Y-69000000D02*
X138175000Y-69000000D01*
X124250000Y-59250000D02*
X134000000Y-69000000D01*
X146087500Y-59087500D02*
X146087500Y-72037656D01*
X145300000Y-72825156D02*
X145300000Y-73004502D01*
X120250000Y-76764044D02*
X120152530Y-76666574D01*
X146087500Y-72037656D02*
X145300000Y-72825156D01*
X120250000Y-78950000D02*
X120250000Y-76764044D01*
X144087500Y-59087500D02*
X144087500Y-62187500D01*
X144087500Y-62187500D02*
X144100000Y-62200000D01*
X120750000Y-61894608D02*
X120818464Y-61963072D01*
X120750000Y-59250000D02*
X120750000Y-61894608D01*
X117250000Y-78950000D02*
X117250000Y-77859155D01*
X117250000Y-77859155D02*
X117532864Y-77576291D01*
X142587500Y-80412500D02*
X142587500Y-79487500D01*
X142587500Y-79487500D02*
X142000000Y-78900000D01*
X117750000Y-60150000D02*
X118000000Y-60400000D01*
X142087500Y-59087500D02*
X142087500Y-60200000D01*
X117750000Y-59250000D02*
X117750000Y-60150000D01*
X165031236Y-72440500D02*
X168436500Y-72440500D01*
X159500000Y-70000000D02*
X162590736Y-70000000D01*
X168500000Y-72377000D02*
X168500000Y-71800000D01*
X162590736Y-70000000D02*
X165031236Y-72440500D01*
X168436500Y-72440500D02*
X168500000Y-72377000D01*
X138815222Y-65000000D02*
X141000000Y-67184778D01*
X123250000Y-69450000D02*
X123300000Y-69400000D01*
X123250000Y-78950000D02*
X123250000Y-69450000D01*
X141000000Y-67184778D02*
X141000000Y-69400000D01*
X113750000Y-73280109D02*
X115066721Y-71963388D01*
X113750000Y-78950000D02*
X113750000Y-73280109D01*
X158200000Y-73000000D02*
X159500000Y-73000000D01*
X134540210Y-68000000D02*
X138175000Y-68000000D01*
X124695710Y-58155500D02*
X134540210Y-68000000D01*
X123250000Y-59250000D02*
X123250000Y-58569000D01*
X123663500Y-58155500D02*
X124695710Y-58155500D01*
X123250000Y-58569000D02*
X123663500Y-58155500D01*
X119664030Y-76464230D02*
X119750000Y-76378260D01*
X146437501Y-59237499D02*
X146437501Y-72278499D01*
X119664030Y-76868918D02*
X119664030Y-76464230D01*
X146437501Y-72278499D02*
X146200000Y-72516000D01*
X119750000Y-78950000D02*
X119750000Y-76954888D01*
X119750000Y-76250000D02*
X119800000Y-76200000D01*
X146587500Y-59087500D02*
X146437501Y-59237499D01*
X119750000Y-76378260D02*
X119750000Y-76250000D01*
X119750000Y-76954888D02*
X119664030Y-76868918D01*
D74*
X145087500Y-81412500D02*
X145087500Y-80412500D01*
X121250000Y-79750000D02*
X121900000Y-80400000D01*
X144900000Y-81600000D02*
X145087500Y-81412500D01*
X121250000Y-78950000D02*
X121250000Y-79750000D01*
D72*
X124250000Y-74150000D02*
X128900000Y-69500000D01*
X124250000Y-78950000D02*
X124250000Y-74150000D01*
X128900000Y-69500000D02*
X138175000Y-69500000D01*
X149100000Y-66200000D02*
X149100000Y-59100000D01*
X114250000Y-66522390D02*
X114154478Y-66617912D01*
X114250000Y-59250000D02*
X114250000Y-66522390D01*
X112750000Y-78950000D02*
X112750000Y-72350000D01*
X157600000Y-72100000D02*
X157713500Y-71986500D01*
X112750000Y-72350000D02*
X114100000Y-71000000D01*
X157713500Y-71986500D02*
X159486500Y-71986500D01*
D71*
X138175000Y-78500000D02*
X136880000Y-78500000D01*
X136600000Y-78780000D02*
X135920000Y-78780000D01*
X151300000Y-81900000D02*
X151300000Y-82700000D01*
X136880000Y-66500000D02*
X136700000Y-66680000D01*
X156703400Y-82020000D02*
X156700000Y-82023400D01*
X135920000Y-78780000D02*
X135700000Y-79000000D01*
X156420000Y-57500000D02*
X156420000Y-56720000D01*
X151087500Y-81687500D02*
X151300000Y-81900000D01*
X149920000Y-56720000D02*
X149900000Y-56700000D01*
D73*
X161300000Y-56500000D02*
X161300000Y-57850000D01*
D71*
X151087500Y-80412500D02*
X151087500Y-81687500D01*
X145087500Y-59087500D02*
X145087500Y-57667500D01*
X146087500Y-81307500D02*
X146680000Y-81900000D01*
X138175000Y-66500000D02*
X136880000Y-66500000D01*
X159500000Y-70500000D02*
X160980000Y-70500000D01*
X157500000Y-82020000D02*
X156703400Y-82020000D01*
X150087500Y-59087500D02*
X150087500Y-57667500D01*
X146087500Y-80412500D02*
X146087500Y-81307500D01*
X149920000Y-57500000D02*
X149920000Y-56720000D01*
X139750000Y-57480000D02*
X139750000Y-57830000D01*
X161100000Y-64480000D02*
X161100000Y-65200004D01*
X161100000Y-70620000D02*
X161780000Y-70620000D01*
X156587500Y-59087500D02*
X156587500Y-57667500D01*
X146680000Y-82380000D02*
X147000000Y-82700000D01*
X160620000Y-64000000D02*
X161100000Y-64480000D01*
X136880000Y-78500000D02*
X136600000Y-78780000D01*
X161780000Y-70620000D02*
X161800000Y-70600000D01*
X159500000Y-64000000D02*
X160620000Y-64000000D01*
X136700000Y-66680000D02*
X135920000Y-66680000D01*
X156420000Y-56720000D02*
X156400000Y-56700000D01*
X146680000Y-81900000D02*
X146680000Y-82380000D01*
X140087500Y-57817500D02*
X139750000Y-57480000D01*
X140087500Y-59087500D02*
X140087500Y-57817500D01*
X144920000Y-57500000D02*
X144920000Y-56720000D01*
X157600000Y-81920000D02*
X157600000Y-80425000D01*
D73*
X161450000Y-58250000D02*
X160600000Y-59100000D01*
D71*
X135920000Y-66680000D02*
X135900000Y-66700000D01*
X144920000Y-56720000D02*
X144900000Y-56700000D01*
X139750000Y-57830000D02*
X139460002Y-58119998D01*
G04 #@! TA.AperFunction,Conductor*
G36*
X180986531Y-45819213D02*
G01*
X181023076Y-45869513D01*
X181028000Y-45900600D01*
X181028000Y-52319400D01*
X181008787Y-52378531D01*
X180958487Y-52415076D01*
X180927400Y-52420000D01*
X178888211Y-52420000D01*
X178829080Y-52400787D01*
X178792535Y-52350487D01*
X178792535Y-52288313D01*
X178817076Y-52248265D01*
X178830919Y-52234421D01*
X178889014Y-52120402D01*
X178889016Y-52120397D01*
X178903999Y-52025799D01*
X178904000Y-52025798D01*
X178904000Y-51608500D01*
X177796001Y-51608500D01*
X177796001Y-52025792D01*
X177810984Y-52120400D01*
X177824145Y-52146229D01*
X177833870Y-52207638D01*
X177805644Y-52263035D01*
X177750246Y-52291262D01*
X177734509Y-52292500D01*
X177066052Y-52292500D01*
X177006921Y-52273287D01*
X176970376Y-52222987D01*
X176970376Y-52160813D01*
X176976417Y-52146228D01*
X176978211Y-52142706D01*
X176989498Y-52120555D01*
X177004500Y-52025834D01*
X177004500Y-51630337D01*
X177012157Y-51591841D01*
X177014507Y-51586167D01*
X177045699Y-51469759D01*
X177045700Y-51469756D01*
X177045700Y-50937200D01*
X177796000Y-50937200D01*
X177796000Y-51354500D01*
X178223000Y-51354500D01*
X178477000Y-51354500D01*
X178903999Y-51354500D01*
X178903999Y-50937207D01*
X178889014Y-50842596D01*
X178830919Y-50728578D01*
X178740421Y-50638080D01*
X178740422Y-50638080D01*
X178626402Y-50579985D01*
X178626397Y-50579983D01*
X178531799Y-50565000D01*
X178477000Y-50565000D01*
X178477000Y-51354500D01*
X178223000Y-51354500D01*
X178223000Y-50565000D01*
X178222999Y-50564999D01*
X178168208Y-50565000D01*
X178073596Y-50579985D01*
X177959578Y-50638080D01*
X177869080Y-50728578D01*
X177810985Y-50842597D01*
X177810983Y-50842602D01*
X177796000Y-50937200D01*
X177045700Y-50937200D01*
X177045700Y-50206928D01*
X177064913Y-50147797D01*
X177115213Y-50111252D01*
X177123342Y-50109130D01*
X177124297Y-50108734D01*
X177124301Y-50108734D01*
X177208484Y-50052484D01*
X177264734Y-49968301D01*
X177279500Y-49894067D01*
X177279500Y-49894016D01*
X177521001Y-49894016D01*
X177535736Y-49968105D01*
X177591876Y-50052123D01*
X177675894Y-50108263D01*
X177749983Y-50122999D01*
X177998000Y-50122999D01*
X178252000Y-50122999D01*
X178500017Y-50122999D01*
X178574105Y-50108263D01*
X178658123Y-50052123D01*
X178714263Y-49968105D01*
X178729000Y-49894016D01*
X178729000Y-48996000D01*
X178252000Y-48996000D01*
X178252000Y-50122999D01*
X177998000Y-50122999D01*
X177998000Y-48996000D01*
X177521001Y-48996000D01*
X177521001Y-49894016D01*
X177279500Y-49894016D01*
X177279499Y-47843983D01*
X177521000Y-47843983D01*
X177521000Y-48742000D01*
X177998000Y-48742000D01*
X178252000Y-48742000D01*
X178728999Y-48742000D01*
X178728999Y-48642210D01*
X179196001Y-48642210D01*
X179202453Y-48702233D01*
X179202454Y-48702238D01*
X179253098Y-48838021D01*
X179339953Y-48954046D01*
X179455978Y-49040901D01*
X179591764Y-49091546D01*
X179651790Y-49097999D01*
X179823000Y-49097999D01*
X180077000Y-49097999D01*
X180248210Y-49097999D01*
X180308233Y-49091546D01*
X180308238Y-49091545D01*
X180444021Y-49040901D01*
X180560046Y-48954046D01*
X180646901Y-48838021D01*
X180697546Y-48702236D01*
X180697546Y-48702234D01*
X180704000Y-48642210D01*
X180704000Y-48246000D01*
X180077000Y-48246000D01*
X180077000Y-49097999D01*
X179823000Y-49097999D01*
X179823000Y-48246000D01*
X179196001Y-48246000D01*
X179196001Y-48642210D01*
X178728999Y-48642210D01*
X178728999Y-47843983D01*
X178714263Y-47769894D01*
X178658123Y-47685876D01*
X178574105Y-47629736D01*
X178500016Y-47615000D01*
X178252000Y-47615000D01*
X178252000Y-48742000D01*
X177998000Y-48742000D01*
X177998000Y-47615000D01*
X177749983Y-47615000D01*
X177675894Y-47629736D01*
X177591876Y-47685876D01*
X177535736Y-47769894D01*
X177521000Y-47843983D01*
X177279499Y-47843983D01*
X177279499Y-47843934D01*
X177264734Y-47769699D01*
X177264732Y-47769697D01*
X177264732Y-47769695D01*
X177208485Y-47685517D01*
X177208483Y-47685515D01*
X177124302Y-47629267D01*
X177124301Y-47629266D01*
X177124300Y-47629265D01*
X177124299Y-47629265D01*
X177068498Y-47618166D01*
X177050067Y-47614500D01*
X177050066Y-47614500D01*
X176299934Y-47614500D01*
X176225698Y-47629266D01*
X176225695Y-47629267D01*
X176141517Y-47685514D01*
X176141515Y-47685516D01*
X176085265Y-47769700D01*
X176070500Y-47843933D01*
X176070500Y-49894065D01*
X176085227Y-49968105D01*
X176085266Y-49968301D01*
X176113345Y-50010324D01*
X176130300Y-50066214D01*
X176130300Y-50539838D01*
X176111087Y-50598969D01*
X176075373Y-50629472D01*
X176059277Y-50637673D01*
X175968673Y-50728277D01*
X175910502Y-50842444D01*
X175910501Y-50842447D01*
X175895500Y-50937159D01*
X175895500Y-52025840D01*
X175910501Y-52120552D01*
X175910502Y-52120555D01*
X175923583Y-52146228D01*
X175933310Y-52207637D01*
X175905083Y-52263035D01*
X175849686Y-52291261D01*
X175833948Y-52292500D01*
X175413600Y-52292500D01*
X175354469Y-52273287D01*
X175317924Y-52222987D01*
X175313000Y-52191900D01*
X175313000Y-47595789D01*
X179196000Y-47595789D01*
X179196000Y-47992000D01*
X179823000Y-47992000D01*
X180077000Y-47992000D01*
X180703999Y-47992000D01*
X180703999Y-47595789D01*
X180697546Y-47535766D01*
X180697545Y-47535761D01*
X180646901Y-47399978D01*
X180560046Y-47283953D01*
X180444021Y-47197098D01*
X180308235Y-47146453D01*
X180248211Y-47140000D01*
X180077000Y-47140000D01*
X180077000Y-47992000D01*
X179823000Y-47992000D01*
X179823000Y-47140000D01*
X179651789Y-47140000D01*
X179591766Y-47146453D01*
X179591761Y-47146454D01*
X179455978Y-47197098D01*
X179339953Y-47283953D01*
X179253098Y-47399978D01*
X179202453Y-47535763D01*
X179202453Y-47535765D01*
X179196000Y-47595789D01*
X175313000Y-47595789D01*
X175313000Y-45900600D01*
X175332213Y-45841469D01*
X175382513Y-45804924D01*
X175413600Y-45800000D01*
X180927400Y-45800000D01*
X180986531Y-45819213D01*
G37*
G04 #@! TD.AperFunction*
G04 #@! TA.AperFunction,Conductor*
G36*
X148907977Y-46097130D02*
G01*
X148926516Y-46141227D01*
X148908444Y-46185517D01*
X148908211Y-46185751D01*
X148423558Y-46670406D01*
X148277420Y-46816544D01*
X148277419Y-46816545D01*
X148272681Y-46821283D01*
X148272672Y-46821292D01*
X148228475Y-46839593D01*
X148184283Y-46821283D01*
X148176515Y-46811816D01*
X148133123Y-46746876D01*
X148049108Y-46690738D01*
X148049104Y-46690736D01*
X147975017Y-46676000D01*
X147377000Y-46676000D01*
X147377000Y-47594500D01*
X147358694Y-47638694D01*
X147314500Y-47657000D01*
X146296001Y-47657000D01*
X146296001Y-48155018D01*
X146310736Y-48229104D01*
X146310738Y-48229108D01*
X146366876Y-48313123D01*
X146450891Y-48369261D01*
X146450896Y-48369263D01*
X146467899Y-48372645D01*
X146507674Y-48399219D01*
X146517007Y-48446135D01*
X146490433Y-48485910D01*
X146490432Y-48485910D01*
X146439767Y-48519764D01*
X146405971Y-48570342D01*
X146397100Y-48614943D01*
X146397100Y-49081100D01*
X146378794Y-49125294D01*
X146334600Y-49143600D01*
X146097173Y-49143600D01*
X146052979Y-49125294D01*
X146039998Y-49106345D01*
X146038521Y-49103000D01*
X146015828Y-49051604D01*
X145947699Y-48983475D01*
X145929393Y-48939281D01*
X145947699Y-48895087D01*
X145963519Y-48883593D01*
X146004473Y-48862726D01*
X146092726Y-48774473D01*
X146149385Y-48663274D01*
X146149388Y-48663264D01*
X146163998Y-48571020D01*
X146164000Y-48571004D01*
X146164000Y-48527000D01*
X145036001Y-48527000D01*
X145036001Y-48571006D01*
X145050613Y-48663271D01*
X145107273Y-48774473D01*
X145195526Y-48862726D01*
X145236480Y-48883593D01*
X145267547Y-48919967D01*
X145263794Y-48967655D01*
X145252300Y-48983475D01*
X145184173Y-49051602D01*
X145139940Y-49151781D01*
X145137100Y-49176266D01*
X145137100Y-49543733D01*
X145139940Y-49568218D01*
X145139940Y-49568220D01*
X145139941Y-49568221D01*
X145184172Y-49668396D01*
X145261604Y-49745828D01*
X145361779Y-49790059D01*
X145386266Y-49792900D01*
X145813734Y-49792900D01*
X145838221Y-49790059D01*
X145938396Y-49745828D01*
X146015828Y-49668396D01*
X146039998Y-49613654D01*
X146074596Y-49580620D01*
X146097173Y-49576400D01*
X146334601Y-49576400D01*
X146378795Y-49594706D01*
X146397101Y-49638900D01*
X146397101Y-49845058D01*
X146405971Y-49889656D01*
X146405972Y-49889658D01*
X146439766Y-49940234D01*
X146490342Y-49974028D01*
X146534943Y-49982900D01*
X147965056Y-49982899D01*
X148009658Y-49974028D01*
X148060234Y-49940234D01*
X148089134Y-49896982D01*
X148128907Y-49870408D01*
X148175824Y-49879740D01*
X148202399Y-49919514D01*
X148203600Y-49931707D01*
X148203600Y-50202826D01*
X148185294Y-50247020D01*
X148166346Y-50260000D01*
X148111603Y-50284172D01*
X148034173Y-50361602D01*
X147989940Y-50461781D01*
X147987100Y-50486266D01*
X147987100Y-50913733D01*
X147989940Y-50938218D01*
X147989940Y-50938220D01*
X147989941Y-50938221D01*
X148034172Y-51038396D01*
X148111604Y-51115828D01*
X148211779Y-51160059D01*
X148236266Y-51162900D01*
X148603734Y-51162900D01*
X148628221Y-51160059D01*
X148728396Y-51115828D01*
X148796525Y-51047698D01*
X148840718Y-51029393D01*
X148884912Y-51047699D01*
X148896406Y-51063518D01*
X148917274Y-51104474D01*
X149005526Y-51192726D01*
X149116725Y-51249385D01*
X149116735Y-51249388D01*
X149208980Y-51263998D01*
X149208995Y-51263999D01*
X149507000Y-51263999D01*
X149551003Y-51263999D01*
X149551006Y-51263998D01*
X149643271Y-51249386D01*
X149754473Y-51192726D01*
X149842726Y-51104473D01*
X149899385Y-50993274D01*
X149899388Y-50993264D01*
X149913998Y-50901020D01*
X149914000Y-50901004D01*
X149914000Y-50827000D01*
X149507000Y-50827000D01*
X149507000Y-51263999D01*
X149208995Y-51263999D01*
X149253000Y-51263998D01*
X149253000Y-50146499D01*
X149257349Y-50136000D01*
X149507000Y-50136000D01*
X149507000Y-50573000D01*
X149913999Y-50573000D01*
X149913999Y-50498997D01*
X149913998Y-50498993D01*
X149899386Y-50406728D01*
X149842726Y-50295526D01*
X149754474Y-50207274D01*
X149744490Y-50202187D01*
X149713424Y-50165812D01*
X149717177Y-50118124D01*
X149753552Y-50087058D01*
X149772865Y-50083999D01*
X150175015Y-50083999D01*
X150175018Y-50083998D01*
X150249104Y-50069263D01*
X150249108Y-50069261D01*
X150333123Y-50013123D01*
X150389261Y-49929108D01*
X150389263Y-49929104D01*
X150403999Y-49855017D01*
X150404000Y-49855017D01*
X150404000Y-49357000D01*
X149577000Y-49357000D01*
X149577000Y-50073500D01*
X149558694Y-50117694D01*
X149514500Y-50136000D01*
X149507000Y-50136000D01*
X149257349Y-50136000D01*
X149271306Y-50102305D01*
X149315500Y-50083999D01*
X149323000Y-50083999D01*
X149323000Y-49165500D01*
X149341306Y-49121306D01*
X149385500Y-49103000D01*
X150403999Y-49103000D01*
X150403999Y-48604985D01*
X150403998Y-48604981D01*
X150389263Y-48530895D01*
X150389261Y-48530891D01*
X150333123Y-48446876D01*
X150249108Y-48390738D01*
X150249104Y-48390736D01*
X150232098Y-48387354D01*
X150192324Y-48360778D01*
X150182992Y-48313862D01*
X150209568Y-48274088D01*
X150209658Y-48274028D01*
X150260234Y-48240234D01*
X150294028Y-48189658D01*
X150302900Y-48145057D01*
X150302899Y-47163170D01*
X150321204Y-47118978D01*
X150962101Y-46478081D01*
X151006292Y-46459777D01*
X151050486Y-46478083D01*
X151068791Y-46521885D01*
X151092145Y-50247020D01*
X151098520Y-51263998D01*
X151099606Y-51437108D01*
X151081577Y-51481416D01*
X151037499Y-51499999D01*
X151037107Y-51500000D01*
X144962500Y-51500000D01*
X144918306Y-51481694D01*
X144900000Y-51437500D01*
X144900000Y-48228995D01*
X145036000Y-48228995D01*
X145036000Y-48273000D01*
X145473000Y-48273000D01*
X145727000Y-48273000D01*
X146163999Y-48273000D01*
X146163999Y-48228997D01*
X146163998Y-48228993D01*
X146149386Y-48136728D01*
X146092726Y-48025526D01*
X146004473Y-47937273D01*
X145893274Y-47880614D01*
X145893264Y-47880611D01*
X145801020Y-47866001D01*
X145801005Y-47866000D01*
X145727000Y-47866000D01*
X145727000Y-48273000D01*
X145473000Y-48273000D01*
X145473000Y-47866000D01*
X145398998Y-47866000D01*
X145398992Y-47866001D01*
X145306728Y-47880613D01*
X145195526Y-47937273D01*
X145107273Y-48025526D01*
X145050614Y-48136725D01*
X145050611Y-48136735D01*
X145036001Y-48228979D01*
X145036000Y-48228995D01*
X144900000Y-48228995D01*
X144900000Y-46904982D01*
X146296000Y-46904982D01*
X146296000Y-47403000D01*
X147123000Y-47403000D01*
X147123000Y-46676000D01*
X146524985Y-46676000D01*
X146524981Y-46676001D01*
X146450895Y-46690736D01*
X146450891Y-46690738D01*
X146366876Y-46746876D01*
X146310738Y-46830891D01*
X146310736Y-46830895D01*
X146296000Y-46904982D01*
X144900000Y-46904982D01*
X144900000Y-46162170D01*
X144918306Y-46117976D01*
X144962168Y-46099671D01*
X148863687Y-46079058D01*
X148907977Y-46097130D01*
G37*
G04 #@! TD.AperFunction*
G04 #@! TA.AperFunction,Conductor*
G36*
X183272531Y-44819213D02*
G01*
X183309076Y-44869513D01*
X183314000Y-44900600D01*
X183314000Y-57018400D01*
X183294787Y-57077531D01*
X183244487Y-57114076D01*
X183213400Y-57119000D01*
X177111700Y-57119000D01*
X177052569Y-57099787D01*
X177016024Y-57049487D01*
X177011100Y-57018400D01*
X177011100Y-56390527D01*
X177030313Y-56331396D01*
X177076548Y-56296269D01*
X177082163Y-56294175D01*
X177192544Y-56211544D01*
X177275175Y-56101163D01*
X177323360Y-55971973D01*
X177329500Y-55914864D01*
X177329500Y-55323136D01*
X177323360Y-55266027D01*
X177275175Y-55136837D01*
X177192544Y-55026456D01*
X177086012Y-54946706D01*
X177050189Y-54895889D01*
X177045700Y-54866172D01*
X177045700Y-53624243D01*
X177045699Y-53624239D01*
X177015679Y-53512207D01*
X177014508Y-53507835D01*
X177014507Y-53507833D01*
X177012159Y-53502163D01*
X177004500Y-53463663D01*
X177004500Y-53212163D01*
X177004499Y-53212159D01*
X176989498Y-53117447D01*
X176989498Y-53117444D01*
X176980697Y-53100172D01*
X176970970Y-53038764D01*
X176999196Y-52983366D01*
X177054594Y-52955139D01*
X177070332Y-52953900D01*
X177729668Y-52953900D01*
X177788799Y-52973113D01*
X177825344Y-53023413D01*
X177825344Y-53085587D01*
X177819303Y-53100172D01*
X177810501Y-53117444D01*
X177810501Y-53117447D01*
X177795500Y-53212159D01*
X177795500Y-54300840D01*
X177810501Y-54395552D01*
X177810502Y-54395555D01*
X177868674Y-54509723D01*
X177959277Y-54600326D01*
X178073445Y-54658498D01*
X178143966Y-54669667D01*
X178168159Y-54673499D01*
X178168164Y-54673500D01*
X178168166Y-54673500D01*
X178531836Y-54673500D01*
X178531840Y-54673499D01*
X178626555Y-54658498D01*
X178740723Y-54600326D01*
X178831326Y-54509723D01*
X178889498Y-54395555D01*
X178904500Y-54300834D01*
X178904500Y-53212166D01*
X178889498Y-53117445D01*
X178831326Y-53003277D01*
X178827732Y-52996223D01*
X178829668Y-52995236D01*
X178817692Y-52962238D01*
X178816275Y-52962524D01*
X178814970Y-52956057D01*
X178814231Y-52953900D01*
X178805625Y-52928769D01*
X178803628Y-52922216D01*
X178796165Y-52894358D01*
X178796164Y-52894357D01*
X178796164Y-52894355D01*
X178795342Y-52892932D01*
X178787289Y-52875219D01*
X178786761Y-52873676D01*
X178770666Y-52849728D01*
X178767049Y-52843928D01*
X178755823Y-52824484D01*
X178742896Y-52763668D01*
X178768185Y-52706869D01*
X178822029Y-52675782D01*
X178858681Y-52674823D01*
X178874883Y-52677389D01*
X178888209Y-52679500D01*
X178888211Y-52679500D01*
X180927389Y-52679500D01*
X180927400Y-52679500D01*
X180967997Y-52676305D01*
X180999084Y-52671381D01*
X181019066Y-52667406D01*
X181111017Y-52625016D01*
X181161317Y-52588471D01*
X181206112Y-52547063D01*
X181255586Y-52458722D01*
X181274799Y-52399591D01*
X181287500Y-52319400D01*
X181287500Y-45900600D01*
X181284305Y-45860003D01*
X181279381Y-45828916D01*
X181275406Y-45808934D01*
X181233016Y-45716983D01*
X181196471Y-45666683D01*
X181196469Y-45666681D01*
X181196469Y-45666680D01*
X181155064Y-45621889D01*
X181155063Y-45621888D01*
X181066721Y-45572413D01*
X181007596Y-45553202D01*
X181007586Y-45553200D01*
X180927404Y-45540500D01*
X180927400Y-45540500D01*
X175413600Y-45540500D01*
X175413590Y-45540500D01*
X175373004Y-45543694D01*
X175373002Y-45543695D01*
X175341933Y-45548616D01*
X175341925Y-45548617D01*
X175341916Y-45548619D01*
X175321934Y-45552594D01*
X175321932Y-45552594D01*
X175321931Y-45552595D01*
X175278943Y-45572413D01*
X175229983Y-45594984D01*
X175229979Y-45594986D01*
X175229975Y-45594989D01*
X175179682Y-45631529D01*
X175179680Y-45631530D01*
X175134889Y-45672935D01*
X175134888Y-45672936D01*
X175085413Y-45761278D01*
X175066202Y-45820403D01*
X175066200Y-45820413D01*
X175053500Y-45900595D01*
X175053500Y-50785365D01*
X175052639Y-50798496D01*
X175033115Y-50946796D01*
X175033115Y-50946803D01*
X175052639Y-51095105D01*
X175053500Y-51108236D01*
X175053500Y-52191912D01*
X175056184Y-52226008D01*
X175041669Y-52286464D01*
X174994391Y-52326843D01*
X174955898Y-52334500D01*
X174934349Y-52334500D01*
X174870806Y-52344564D01*
X174843138Y-52348946D01*
X174843136Y-52348946D01*
X174843134Y-52348947D01*
X174733207Y-52404957D01*
X174645957Y-52492207D01*
X174589947Y-52602134D01*
X174589945Y-52602140D01*
X174575500Y-52693341D01*
X174575500Y-53024650D01*
X174583670Y-53076235D01*
X174589946Y-53115862D01*
X174589946Y-53115863D01*
X174589947Y-53115865D01*
X174645957Y-53225792D01*
X174645958Y-53225793D01*
X174645960Y-53225796D01*
X174718031Y-53297867D01*
X174746256Y-53353263D01*
X174736530Y-53414671D01*
X174718032Y-53440131D01*
X174667664Y-53490500D01*
X174645957Y-53512207D01*
X174589947Y-53622134D01*
X174589945Y-53622140D01*
X174575500Y-53713341D01*
X174575500Y-54044650D01*
X174583670Y-54096235D01*
X174589946Y-54135862D01*
X174589946Y-54135863D01*
X174589947Y-54135865D01*
X174645957Y-54245792D01*
X174645958Y-54245793D01*
X174645960Y-54245796D01*
X174733204Y-54333040D01*
X174733206Y-54333041D01*
X174733207Y-54333042D01*
X174843134Y-54389052D01*
X174843138Y-54389054D01*
X174934347Y-54403500D01*
X175365652Y-54403499D01*
X175456862Y-54389054D01*
X175566796Y-54333040D01*
X175654040Y-54245796D01*
X175678838Y-54197128D01*
X175722802Y-54153165D01*
X175768473Y-54142200D01*
X175794900Y-54142200D01*
X175854031Y-54161413D01*
X175890576Y-54211713D01*
X175895500Y-54242800D01*
X175895500Y-54300840D01*
X175910501Y-54395552D01*
X175910502Y-54395555D01*
X175968674Y-54509723D01*
X176059277Y-54600326D01*
X176075369Y-54608525D01*
X176119334Y-54652486D01*
X176130300Y-54698161D01*
X176130300Y-54921568D01*
X176111087Y-54980699D01*
X176089989Y-55002101D01*
X176057458Y-55026454D01*
X176057457Y-55026455D01*
X176057456Y-55026456D01*
X176036683Y-55054204D01*
X175974825Y-55136835D01*
X175974823Y-55136839D01*
X175926640Y-55266025D01*
X175926640Y-55266027D01*
X175920500Y-55323136D01*
X175920500Y-55914863D01*
X175926640Y-55971972D01*
X175926640Y-55971974D01*
X175974823Y-56101160D01*
X175974826Y-56101164D01*
X176057456Y-56211544D01*
X176062544Y-56216632D01*
X176061090Y-56218085D01*
X176091210Y-56260811D01*
X176095700Y-56290530D01*
X176095700Y-57018400D01*
X176076487Y-57077531D01*
X176026187Y-57114076D01*
X175995100Y-57119000D01*
X173000600Y-57119000D01*
X172941469Y-57099787D01*
X172904924Y-57049487D01*
X172900000Y-57018400D01*
X172900000Y-44900600D01*
X172919213Y-44841469D01*
X172969513Y-44804924D01*
X173000600Y-44800000D01*
X183213400Y-44800000D01*
X183272531Y-44819213D01*
G37*
G04 #@! TD.AperFunction*
G04 #@! TA.AperFunction,Conductor*
G36*
X165747637Y-73785729D02*
G01*
X165765943Y-73829923D01*
X165765943Y-78604923D01*
X165747637Y-78649117D01*
X165703443Y-78667423D01*
X160762500Y-78667423D01*
X160718306Y-78649117D01*
X160700000Y-78604923D01*
X160700000Y-78151006D01*
X162186001Y-78151006D01*
X162200613Y-78243271D01*
X162257273Y-78354473D01*
X162345526Y-78442726D01*
X162456725Y-78499385D01*
X162456735Y-78499388D01*
X162548979Y-78513998D01*
X162548994Y-78513999D01*
X162622999Y-78513999D01*
X162877000Y-78513999D01*
X162951003Y-78513999D01*
X162951006Y-78513998D01*
X163043271Y-78499386D01*
X163154473Y-78442726D01*
X163242726Y-78354473D01*
X163299385Y-78243274D01*
X163299388Y-78243264D01*
X163313998Y-78151020D01*
X163314000Y-78151004D01*
X163314000Y-78107000D01*
X162877000Y-78107000D01*
X162877000Y-78513999D01*
X162622999Y-78513999D01*
X162623000Y-78513998D01*
X162623000Y-78107000D01*
X162186001Y-78107000D01*
X162186001Y-78151006D01*
X160700000Y-78151006D01*
X160700000Y-75278900D01*
X160718306Y-75234706D01*
X160762500Y-75216400D01*
X161934477Y-75216400D01*
X161978671Y-75234706D01*
X162078794Y-75334829D01*
X162097100Y-75379023D01*
X162097100Y-76065054D01*
X162097101Y-76065058D01*
X162105971Y-76109656D01*
X162105972Y-76109658D01*
X162139766Y-76160234D01*
X162190342Y-76194028D01*
X162234943Y-76202900D01*
X162271099Y-76202899D01*
X162315293Y-76221204D01*
X162333600Y-76265397D01*
X162333600Y-76699714D01*
X162328275Y-76724959D01*
X162289940Y-76811780D01*
X162289940Y-76811781D01*
X162287100Y-76836258D01*
X162287100Y-77203733D01*
X162289940Y-77228218D01*
X162289940Y-77228220D01*
X162289941Y-77228221D01*
X162334172Y-77328396D01*
X162334173Y-77328397D01*
X162402300Y-77396524D01*
X162420606Y-77440718D01*
X162402300Y-77484912D01*
X162386481Y-77496406D01*
X162345525Y-77517274D01*
X162257273Y-77605526D01*
X162200614Y-77716725D01*
X162200611Y-77716735D01*
X162186001Y-77808979D01*
X162186000Y-77808995D01*
X162186000Y-77853000D01*
X163313999Y-77853000D01*
X163313999Y-77808997D01*
X163313998Y-77808993D01*
X163299386Y-77716728D01*
X163242726Y-77605526D01*
X163154474Y-77517274D01*
X163113518Y-77496406D01*
X163082452Y-77460031D01*
X163086205Y-77412343D01*
X163097696Y-77396527D01*
X163165828Y-77328396D01*
X163210059Y-77228221D01*
X163212900Y-77203734D01*
X163212900Y-76836266D01*
X163210059Y-76811779D01*
X163165828Y-76711604D01*
X163088396Y-76634172D01*
X162988221Y-76589941D01*
X162988220Y-76589940D01*
X162988218Y-76589940D01*
X162963734Y-76587100D01*
X162828900Y-76587100D01*
X162784706Y-76568794D01*
X162766400Y-76524600D01*
X162766400Y-76265399D01*
X162784706Y-76221205D01*
X162828900Y-76202899D01*
X162865055Y-76202899D01*
X162865056Y-76202899D01*
X162909658Y-76194028D01*
X162960234Y-76160234D01*
X162994028Y-76109658D01*
X163002900Y-76065057D01*
X163002899Y-75009821D01*
X163021205Y-74965628D01*
X163065399Y-74947322D01*
X163109592Y-74965627D01*
X163307886Y-75163922D01*
X163478794Y-75334830D01*
X163497100Y-75379024D01*
X163497100Y-76065054D01*
X163497101Y-76065058D01*
X163505971Y-76109656D01*
X163505972Y-76109658D01*
X163539766Y-76160234D01*
X163590342Y-76194028D01*
X163634943Y-76202900D01*
X163671099Y-76202899D01*
X163715293Y-76221204D01*
X163733600Y-76265397D01*
X163733600Y-76536288D01*
X163715294Y-76580482D01*
X163634173Y-76661602D01*
X163589940Y-76761781D01*
X163587100Y-76786266D01*
X163587100Y-77213733D01*
X163589940Y-77238218D01*
X163589940Y-77238220D01*
X163589941Y-77238221D01*
X163634172Y-77338396D01*
X163711604Y-77415828D01*
X163811779Y-77460059D01*
X163836266Y-77462900D01*
X164203734Y-77462900D01*
X164228221Y-77460059D01*
X164328396Y-77415828D01*
X164396525Y-77347698D01*
X164440718Y-77329393D01*
X164484912Y-77347699D01*
X164496406Y-77363518D01*
X164517274Y-77404474D01*
X164605526Y-77492726D01*
X164716725Y-77549385D01*
X164716735Y-77549388D01*
X164808980Y-77563998D01*
X164808995Y-77563999D01*
X165107000Y-77563999D01*
X165151003Y-77563999D01*
X165151006Y-77563998D01*
X165243271Y-77549386D01*
X165354473Y-77492726D01*
X165442726Y-77404473D01*
X165499385Y-77293274D01*
X165499388Y-77293264D01*
X165513998Y-77201020D01*
X165514000Y-77201004D01*
X165514000Y-77127000D01*
X165107000Y-77127000D01*
X165107000Y-77563999D01*
X164808995Y-77563999D01*
X164853000Y-77563998D01*
X164853000Y-76873000D01*
X165107000Y-76873000D01*
X165513999Y-76873000D01*
X165513999Y-76798997D01*
X165513998Y-76798993D01*
X165499386Y-76706728D01*
X165442726Y-76595526D01*
X165354473Y-76507273D01*
X165243274Y-76450614D01*
X165243264Y-76450611D01*
X165151020Y-76436001D01*
X165151005Y-76436000D01*
X165107000Y-76436000D01*
X165107000Y-76873000D01*
X164853000Y-76873000D01*
X164853000Y-76436000D01*
X164852999Y-76435999D01*
X164808997Y-76436000D01*
X164808992Y-76436001D01*
X164716728Y-76450613D01*
X164605526Y-76507273D01*
X164517274Y-76595525D01*
X164496406Y-76636481D01*
X164460031Y-76667547D01*
X164412343Y-76663794D01*
X164396524Y-76652300D01*
X164328397Y-76584173D01*
X164328396Y-76584172D01*
X164228221Y-76539941D01*
X164228217Y-76539940D01*
X164228214Y-76539939D01*
X164228215Y-76539939D01*
X164221696Y-76539183D01*
X164179906Y-76515905D01*
X164166400Y-76477100D01*
X164166400Y-76265399D01*
X164184706Y-76221205D01*
X164228900Y-76202899D01*
X164265055Y-76202899D01*
X164265056Y-76202899D01*
X164309658Y-76194028D01*
X164360234Y-76160234D01*
X164394028Y-76109658D01*
X164402900Y-76065057D01*
X164402899Y-74934944D01*
X164394028Y-74890342D01*
X164360234Y-74839766D01*
X164309658Y-74805972D01*
X164309657Y-74805971D01*
X164273928Y-74798864D01*
X164265057Y-74797100D01*
X164265056Y-74797100D01*
X163634945Y-74797100D01*
X163599469Y-74804156D01*
X163552553Y-74794821D01*
X163543085Y-74787050D01*
X163142246Y-74386211D01*
X163142246Y-74386210D01*
X163072581Y-74316545D01*
X162993045Y-74283600D01*
X162993043Y-74283600D01*
X160762500Y-74283600D01*
X160718306Y-74265294D01*
X160700000Y-74221100D01*
X160700000Y-73829923D01*
X160718306Y-73785729D01*
X160762500Y-73767423D01*
X165703443Y-73767423D01*
X165747637Y-73785729D01*
G37*
G04 #@! TD.AperFunction*
M02*
