G04 #@! TF.GenerationSoftware,KiCad,Pcbnew,8.0.5-1.fc40*
G04 #@! TF.CreationDate,2024-10-08T11:32:39-07:00*
G04 #@! TF.ProjectId,stm32simh,73746d33-3273-4696-9d68-2e6b69636164,rev?*
G04 #@! TF.SameCoordinates,Original*
G04 #@! TF.FileFunction,Copper,L2,Inr*
G04 #@! TF.FilePolarity,Positive*
%FSLAX46Y46*%
G04 Gerber Fmt 4.6, Leading zero omitted, Abs format (unit mm)*
G04 Created by KiCad (PCBNEW 8.0.5-1.fc40) date 2024-10-08 11:32:39*
%MOMM*%
%LPD*%
G01*
G04 APERTURE LIST*
G04 #@! TA.AperFunction,ComponentPad*
%ADD10C,3.800000*%
G04 #@! TD*
G04 #@! TA.AperFunction,ComponentPad*
%ADD11R,1.700000X1.700000*%
G04 #@! TD*
G04 #@! TA.AperFunction,ComponentPad*
%ADD12O,1.700000X1.700000*%
G04 #@! TD*
G04 #@! TA.AperFunction,ComponentPad*
%ADD13O,2.100000X1.000000*%
G04 #@! TD*
G04 #@! TA.AperFunction,ComponentPad*
%ADD14O,1.600000X1.000000*%
G04 #@! TD*
G04 #@! TA.AperFunction,ComponentPad*
%ADD15C,1.890000*%
G04 #@! TD*
G04 #@! TA.AperFunction,ComponentPad*
%ADD16R,1.900000X1.900000*%
G04 #@! TD*
G04 #@! TA.AperFunction,ComponentPad*
%ADD17C,1.900000*%
G04 #@! TD*
G04 #@! TA.AperFunction,ComponentPad*
%ADD18C,2.600000*%
G04 #@! TD*
G04 #@! TA.AperFunction,ViaPad*
%ADD19C,0.350000*%
G04 #@! TD*
G04 #@! TA.AperFunction,ViaPad*
%ADD20C,0.450000*%
G04 #@! TD*
G04 #@! TA.AperFunction,ViaPad*
%ADD21C,0.600000*%
G04 #@! TD*
G04 APERTURE END LIST*
D10*
X186200000Y-30900000D03*
D11*
X186500000Y-88330000D03*
D12*
X186500000Y-85790000D03*
X186500000Y-83250000D03*
D13*
X181395000Y-74820000D03*
D14*
X185575000Y-74820000D03*
D13*
X181395000Y-66180000D03*
D14*
X185575000Y-66180000D03*
D15*
X116675000Y-34150000D03*
X119215000Y-32630000D03*
X126785000Y-34150000D03*
X129325000Y-32630000D03*
D16*
X127445000Y-43870000D03*
D17*
X126175000Y-46410000D03*
X124905000Y-43870000D03*
X123635000Y-46410000D03*
X122365000Y-43870000D03*
X121095000Y-46410000D03*
X119825000Y-43870000D03*
X118555000Y-46410000D03*
D18*
X130775000Y-40580000D03*
X115225000Y-40580000D03*
D10*
X112100000Y-30900000D03*
X112100000Y-104900000D03*
X186200000Y-104900000D03*
D19*
X142200000Y-55600000D03*
D20*
X183500000Y-96200000D03*
D21*
X182094800Y-45663600D03*
D20*
X135900000Y-65700000D03*
X162200000Y-63200000D03*
X161900000Y-63700000D03*
D19*
X139500000Y-71500000D03*
D20*
X142200000Y-86100000D03*
D19*
X171100000Y-70800000D03*
D20*
X133400000Y-97400000D03*
D19*
X155000000Y-45480000D03*
X182700000Y-64600000D03*
D21*
X174424000Y-55976000D03*
D20*
X179400000Y-31500000D03*
X119000000Y-56900000D03*
X146000000Y-85500000D03*
X126900000Y-52500000D03*
X161800000Y-82700000D03*
D19*
X163300000Y-76300000D03*
X152200000Y-45600000D03*
X115799998Y-77800000D03*
X147500000Y-50500000D03*
X187100000Y-62799992D03*
X161600000Y-74000000D03*
D20*
X147500000Y-101300000D03*
D19*
X152300000Y-43300000D03*
D20*
X119000000Y-81300000D03*
D19*
X173648800Y-65800000D03*
D20*
X135100000Y-92100000D03*
D19*
X145295000Y-88900000D03*
D20*
X164400000Y-57000000D03*
X134700000Y-80300000D03*
D19*
X151700000Y-48200000D03*
X165300000Y-74600000D03*
X168600000Y-66000000D03*
D20*
X157400000Y-56700000D03*
D19*
X143600000Y-44400000D03*
D20*
X177700000Y-37800000D03*
D19*
X115800000Y-96500000D03*
X161500000Y-75600000D03*
D20*
X135800000Y-78000000D03*
D19*
X165900000Y-64400000D03*
X150500000Y-50800000D03*
X166500000Y-69100000D03*
D21*
X174474800Y-50032400D03*
D20*
X150900000Y-56700000D03*
D19*
X150800000Y-47500000D03*
X172200000Y-68200000D03*
X150400000Y-41500000D03*
X146100000Y-40900000D03*
X146200000Y-44400000D03*
D21*
X174497790Y-45649002D03*
D20*
X150300000Y-82700000D03*
X148900000Y-36900000D03*
D21*
X177980000Y-45206400D03*
D19*
X145800000Y-50300000D03*
X148000000Y-46200000D03*
D20*
X161900000Y-71600000D03*
D19*
X150400000Y-43300000D03*
X179900000Y-66600000D03*
X145700000Y-47400000D03*
D20*
X145900000Y-56700000D03*
D19*
X138245000Y-88900002D03*
X161800000Y-78000000D03*
X180100000Y-74400000D03*
X154600000Y-79300000D03*
D21*
X181891600Y-49727600D03*
D20*
X146200000Y-82700000D03*
X156700000Y-83000000D03*
D19*
X176649994Y-74249994D03*
D21*
X182196400Y-55976000D03*
D19*
X165300000Y-78100000D03*
X180000000Y-76600000D03*
D20*
X124000000Y-94600000D03*
D19*
X152300000Y-41500000D03*
X139600000Y-55700000D03*
D20*
X135400000Y-102500000D03*
D19*
X112900000Y-93600000D03*
D20*
X177700000Y-39500000D03*
D19*
X131000000Y-96200000D03*
D20*
X163000000Y-80800000D03*
X163100000Y-60400000D03*
D19*
X114900000Y-92700000D03*
X144400000Y-46400000D03*
D20*
X161900000Y-55000000D03*
X130990000Y-89200000D03*
X118000000Y-56900000D03*
D19*
X171000000Y-75200000D03*
D20*
X118000000Y-81300000D03*
D19*
X166200000Y-75200000D03*
D21*
X179995400Y-46476400D03*
D20*
X158200000Y-84100000D03*
X130990000Y-92600000D03*
D19*
X164500000Y-69300000D03*
D20*
X141200000Y-85300000D03*
D21*
X180062800Y-51099200D03*
X176964000Y-46527200D03*
D19*
X154400000Y-43100000D03*
D21*
X180062800Y-49778400D03*
X175592400Y-50946800D03*
D20*
X130173400Y-87026584D03*
X160300000Y-84000000D03*
D19*
X174099996Y-69600000D03*
X173700000Y-73400000D03*
D20*
X144400000Y-36700000D03*
X138200000Y-44100000D03*
X138200000Y-39300000D03*
X138200000Y-41700000D03*
X138200000Y-45600000D03*
X158200000Y-76100000D03*
X159000000Y-85800000D03*
D19*
X175001198Y-72501208D03*
X174284799Y-71835913D03*
X137000000Y-89400000D03*
X132700000Y-89600000D03*
X132800000Y-91100000D03*
X141600000Y-89400000D03*
X138000000Y-83200000D03*
X135400000Y-84100000D03*
X143825608Y-86189378D03*
X141087500Y-82400000D03*
X143749999Y-89698800D03*
X132700000Y-95000000D03*
X143295422Y-86495422D03*
X141300000Y-83100000D03*
X142645001Y-89698800D03*
X132700000Y-93500000D03*
X132500000Y-82400000D03*
X139800000Y-81700000D03*
D20*
X132887498Y-41600000D03*
X129500000Y-44400000D03*
D19*
X150676836Y-45232320D03*
X145284199Y-41415801D03*
X144733272Y-41655576D03*
X149527247Y-45720820D03*
X145900000Y-38999996D03*
X137900000Y-59700000D03*
X139100000Y-58900000D03*
X145900000Y-40300006D03*
X118300000Y-63900000D03*
X136732601Y-64049459D03*
X114300000Y-67200000D03*
X139300000Y-67100000D03*
X136913642Y-63072459D03*
X118500000Y-62800000D03*
X156587500Y-78700000D03*
X122000000Y-76357500D03*
X121900000Y-61700000D03*
X148300000Y-61500000D03*
X143087500Y-63000000D03*
X119895422Y-62704578D03*
X151500000Y-39500000D03*
X152200000Y-60800000D03*
X149415002Y-66620002D03*
X113819998Y-67560002D03*
X144400000Y-79000000D03*
X121300000Y-76611500D03*
X139300004Y-64800000D03*
X125900000Y-65400000D03*
X157800000Y-74000000D03*
X115833744Y-72733744D03*
X165900000Y-71500000D03*
X163950000Y-69850000D03*
X143587500Y-62600000D03*
X120374772Y-62343710D03*
X118600000Y-63400000D03*
X136202106Y-63769140D03*
X158300000Y-72400000D03*
X114700000Y-71488500D03*
X123700000Y-80200000D03*
X157600000Y-78200000D03*
X146900000Y-72027500D03*
X119300000Y-75900000D03*
X143900000Y-73700000D03*
X120750000Y-76611500D03*
X114788500Y-69354578D03*
X139900000Y-68800000D03*
X122500000Y-61200000D03*
X147900004Y-61000000D03*
X121200000Y-64700000D03*
X142200000Y-64400000D03*
X118700000Y-77111500D03*
X143000000Y-79100000D03*
X147587500Y-60400000D03*
X122850000Y-60750000D03*
X122100000Y-69900000D03*
X140600000Y-69900000D03*
X158173400Y-77500000D03*
X122800000Y-75100000D03*
X122339795Y-75862988D03*
X155900000Y-77000000D03*
X151000000Y-66500000D03*
X114000000Y-68100000D03*
X157399996Y-53400000D03*
X159700000Y-55500000D03*
X158000000Y-73500000D03*
X115682672Y-72038282D03*
X158100000Y-71500004D03*
X114056412Y-68733079D03*
X120152530Y-76666574D03*
X145300000Y-73004502D03*
X144100000Y-62200000D03*
X120818464Y-61963072D03*
X142000000Y-78900000D03*
X117532864Y-77576291D03*
X142087500Y-60200000D03*
X118000000Y-60400000D03*
X141000000Y-69400000D03*
X123300000Y-69400000D03*
X115066721Y-71963388D03*
X158200000Y-73000000D03*
X146200000Y-72516000D03*
X119800000Y-76200000D03*
X144900000Y-81600000D03*
X121900000Y-80400000D03*
X149100000Y-66200000D03*
X114154478Y-66617912D03*
X157600000Y-72100000D03*
X114100000Y-71000000D03*
X139460002Y-58119998D03*
D20*
X147000000Y-82700000D03*
X144900000Y-56700000D03*
X149900000Y-56700000D03*
X151300000Y-82700000D03*
X161100000Y-65200004D03*
X161800000Y-70600000D03*
X160600000Y-59100000D03*
X156700000Y-82023400D03*
X135700000Y-79000000D03*
X156400000Y-56700000D03*
X135900000Y-66700000D03*
G04 #@! TA.AperFunction,Conductor*
G36*
X188681194Y-28218806D02*
G01*
X188699500Y-28263000D01*
X188699500Y-107137000D01*
X188681194Y-107181194D01*
X188637000Y-107199500D01*
X109763000Y-107199500D01*
X109718806Y-107181194D01*
X109700500Y-107137000D01*
X109700500Y-104899995D01*
X110067762Y-104899995D01*
X110067762Y-104900004D01*
X110086688Y-105176714D01*
X110086689Y-105176717D01*
X110143123Y-105448290D01*
X110143126Y-105448299D01*
X110236006Y-105709643D01*
X110236008Y-105709646D01*
X110363616Y-105955918D01*
X110523570Y-106182521D01*
X110712890Y-106385233D01*
X110928048Y-106560277D01*
X110928050Y-106560278D01*
X111165030Y-106704390D01*
X111165034Y-106704392D01*
X111165038Y-106704394D01*
X111419445Y-106814898D01*
X111686529Y-106889732D01*
X111961315Y-106927500D01*
X111961316Y-106927500D01*
X112238684Y-106927500D01*
X112238685Y-106927500D01*
X112513471Y-106889732D01*
X112780555Y-106814898D01*
X113034962Y-106704394D01*
X113271952Y-106560277D01*
X113487110Y-106385233D01*
X113676430Y-106182521D01*
X113836384Y-105955918D01*
X113963992Y-105709646D01*
X114056877Y-105448291D01*
X114113310Y-105176723D01*
X114132238Y-104900000D01*
X114132238Y-104899995D01*
X184167762Y-104899995D01*
X184167762Y-104900004D01*
X184186688Y-105176714D01*
X184186689Y-105176717D01*
X184243123Y-105448290D01*
X184243126Y-105448299D01*
X184336006Y-105709643D01*
X184336008Y-105709646D01*
X184463616Y-105955918D01*
X184623570Y-106182521D01*
X184812890Y-106385233D01*
X185028048Y-106560277D01*
X185028050Y-106560278D01*
X185265030Y-106704390D01*
X185265034Y-106704392D01*
X185265038Y-106704394D01*
X185519445Y-106814898D01*
X185786529Y-106889732D01*
X186061315Y-106927500D01*
X186061316Y-106927500D01*
X186338684Y-106927500D01*
X186338685Y-106927500D01*
X186613471Y-106889732D01*
X186880555Y-106814898D01*
X187134962Y-106704394D01*
X187371952Y-106560277D01*
X187587110Y-106385233D01*
X187776430Y-106182521D01*
X187936384Y-105955918D01*
X188063992Y-105709646D01*
X188156877Y-105448291D01*
X188213310Y-105176723D01*
X188232238Y-104900000D01*
X188213310Y-104623277D01*
X188156877Y-104351709D01*
X188063992Y-104090354D01*
X187936384Y-103844082D01*
X187776430Y-103617479D01*
X187587110Y-103414767D01*
X187371952Y-103239723D01*
X187371949Y-103239721D01*
X187134969Y-103095609D01*
X187104969Y-103082578D01*
X186880555Y-102985102D01*
X186880553Y-102985101D01*
X186880552Y-102985101D01*
X186880550Y-102985100D01*
X186613477Y-102910269D01*
X186613465Y-102910267D01*
X186338690Y-102872500D01*
X186338685Y-102872500D01*
X186061315Y-102872500D01*
X186061309Y-102872500D01*
X185786534Y-102910267D01*
X185786522Y-102910269D01*
X185519449Y-102985100D01*
X185519447Y-102985101D01*
X185265030Y-103095609D01*
X185028050Y-103239721D01*
X184812891Y-103414765D01*
X184623574Y-103617474D01*
X184463612Y-103844088D01*
X184336006Y-104090356D01*
X184243126Y-104351700D01*
X184243123Y-104351709D01*
X184186689Y-104623282D01*
X184186688Y-104623285D01*
X184167762Y-104899995D01*
X114132238Y-104899995D01*
X114113310Y-104623277D01*
X114056877Y-104351709D01*
X113963992Y-104090354D01*
X113836384Y-103844082D01*
X113676430Y-103617479D01*
X113487110Y-103414767D01*
X113271952Y-103239723D01*
X113271949Y-103239721D01*
X113034969Y-103095609D01*
X113004969Y-103082578D01*
X112780555Y-102985102D01*
X112780553Y-102985101D01*
X112780552Y-102985101D01*
X112780550Y-102985100D01*
X112513477Y-102910269D01*
X112513465Y-102910267D01*
X112238690Y-102872500D01*
X112238685Y-102872500D01*
X111961315Y-102872500D01*
X111961309Y-102872500D01*
X111686534Y-102910267D01*
X111686522Y-102910269D01*
X111419449Y-102985100D01*
X111419447Y-102985101D01*
X111165030Y-103095609D01*
X110928050Y-103239721D01*
X110712891Y-103414765D01*
X110523574Y-103617474D01*
X110363612Y-103844088D01*
X110236006Y-104090356D01*
X110143126Y-104351700D01*
X110143123Y-104351709D01*
X110086689Y-104623282D01*
X110086688Y-104623285D01*
X110067762Y-104899995D01*
X109700500Y-104899995D01*
X109700500Y-96199996D01*
X130645131Y-96199996D01*
X130645131Y-96200003D01*
X130662498Y-96309657D01*
X130662500Y-96309662D01*
X130712904Y-96408586D01*
X130712905Y-96408587D01*
X130791413Y-96487095D01*
X130890339Y-96537500D01*
X130890342Y-96537501D01*
X130999997Y-96554869D01*
X131000000Y-96554869D01*
X131000003Y-96554869D01*
X131109657Y-96537501D01*
X131109658Y-96537500D01*
X131109661Y-96537500D01*
X131208587Y-96487095D01*
X131287095Y-96408587D01*
X131337500Y-96309661D01*
X131354869Y-96200000D01*
X131354869Y-96199996D01*
X131337501Y-96090342D01*
X131337499Y-96090337D01*
X131287095Y-95991413D01*
X131208586Y-95912904D01*
X131109662Y-95862500D01*
X131109657Y-95862498D01*
X131000003Y-95845131D01*
X130999997Y-95845131D01*
X130890342Y-95862498D01*
X130890337Y-95862500D01*
X130791413Y-95912904D01*
X130712904Y-95991413D01*
X130662500Y-96090337D01*
X130662498Y-96090342D01*
X130645131Y-96199996D01*
X109700500Y-96199996D01*
X109700500Y-94999996D01*
X132345131Y-94999996D01*
X132345131Y-95000003D01*
X132362498Y-95109657D01*
X132362500Y-95109662D01*
X132412904Y-95208586D01*
X132412905Y-95208587D01*
X132491413Y-95287095D01*
X132590339Y-95337500D01*
X132590342Y-95337501D01*
X132699997Y-95354869D01*
X132700000Y-95354869D01*
X132700003Y-95354869D01*
X132809657Y-95337501D01*
X132809658Y-95337500D01*
X132809661Y-95337500D01*
X132908587Y-95287095D01*
X132987095Y-95208587D01*
X133037500Y-95109661D01*
X133054869Y-95000000D01*
X133054869Y-94999996D01*
X133037501Y-94890342D01*
X133037499Y-94890337D01*
X132987095Y-94791413D01*
X132908586Y-94712904D01*
X132809662Y-94662500D01*
X132809657Y-94662498D01*
X132700003Y-94645131D01*
X132699997Y-94645131D01*
X132590342Y-94662498D01*
X132590337Y-94662500D01*
X132491413Y-94712904D01*
X132412904Y-94791413D01*
X132362500Y-94890337D01*
X132362498Y-94890342D01*
X132345131Y-94999996D01*
X109700500Y-94999996D01*
X109700500Y-93499996D01*
X132345131Y-93499996D01*
X132345131Y-93500003D01*
X132362498Y-93609657D01*
X132362500Y-93609662D01*
X132412904Y-93708586D01*
X132412905Y-93708587D01*
X132491413Y-93787095D01*
X132590339Y-93837500D01*
X132590342Y-93837501D01*
X132699997Y-93854869D01*
X132700000Y-93854869D01*
X132700003Y-93854869D01*
X132809657Y-93837501D01*
X132809658Y-93837500D01*
X132809661Y-93837500D01*
X132908587Y-93787095D01*
X132987095Y-93708587D01*
X133037500Y-93609661D01*
X133054869Y-93500000D01*
X133054869Y-93499996D01*
X133037501Y-93390342D01*
X133037499Y-93390337D01*
X132987095Y-93291413D01*
X132908586Y-93212904D01*
X132809662Y-93162500D01*
X132809657Y-93162498D01*
X132700003Y-93145131D01*
X132699997Y-93145131D01*
X132590342Y-93162498D01*
X132590337Y-93162500D01*
X132491413Y-93212904D01*
X132412904Y-93291413D01*
X132362500Y-93390337D01*
X132362498Y-93390342D01*
X132345131Y-93499996D01*
X109700500Y-93499996D01*
X109700500Y-92699996D01*
X114545131Y-92699996D01*
X114545131Y-92700003D01*
X114562498Y-92809657D01*
X114562500Y-92809662D01*
X114612904Y-92908586D01*
X114612905Y-92908587D01*
X114691413Y-92987095D01*
X114790339Y-93037500D01*
X114790342Y-93037501D01*
X114899997Y-93054869D01*
X114900000Y-93054869D01*
X114900003Y-93054869D01*
X115009657Y-93037501D01*
X115009658Y-93037500D01*
X115009661Y-93037500D01*
X115108587Y-92987095D01*
X115187095Y-92908587D01*
X115237500Y-92809661D01*
X115253240Y-92710286D01*
X115254869Y-92700003D01*
X115254869Y-92699996D01*
X115239030Y-92599996D01*
X130633106Y-92599996D01*
X130633106Y-92600003D01*
X130650572Y-92710282D01*
X130650574Y-92710287D01*
X130701208Y-92809662D01*
X130701267Y-92809777D01*
X130780223Y-92888733D01*
X130879714Y-92939426D01*
X130879717Y-92939427D01*
X130989997Y-92956894D01*
X130990000Y-92956894D01*
X130990003Y-92956894D01*
X131100282Y-92939427D01*
X131100283Y-92939426D01*
X131100286Y-92939426D01*
X131199777Y-92888733D01*
X131278733Y-92809777D01*
X131329426Y-92710286D01*
X131331055Y-92700003D01*
X131346894Y-92600003D01*
X131346894Y-92599996D01*
X131329427Y-92489717D01*
X131329425Y-92489712D01*
X131278733Y-92390223D01*
X131199776Y-92311266D01*
X131100287Y-92260574D01*
X131100282Y-92260572D01*
X130990003Y-92243106D01*
X130989997Y-92243106D01*
X130879717Y-92260572D01*
X130879712Y-92260574D01*
X130780223Y-92311266D01*
X130701266Y-92390223D01*
X130650574Y-92489712D01*
X130650572Y-92489717D01*
X130633106Y-92599996D01*
X115239030Y-92599996D01*
X115237501Y-92590342D01*
X115237499Y-92590337D01*
X115187095Y-92491413D01*
X115108586Y-92412904D01*
X115009662Y-92362500D01*
X115009657Y-92362498D01*
X114900003Y-92345131D01*
X114899997Y-92345131D01*
X114790342Y-92362498D01*
X114790337Y-92362500D01*
X114691413Y-92412904D01*
X114612904Y-92491413D01*
X114562500Y-92590337D01*
X114562498Y-92590342D01*
X114545131Y-92699996D01*
X109700500Y-92699996D01*
X109700500Y-91099996D01*
X132445131Y-91099996D01*
X132445131Y-91100003D01*
X132462498Y-91209657D01*
X132462500Y-91209662D01*
X132512904Y-91308586D01*
X132512905Y-91308587D01*
X132591413Y-91387095D01*
X132690339Y-91437500D01*
X132690342Y-91437501D01*
X132799997Y-91454869D01*
X132800000Y-91454869D01*
X132800003Y-91454869D01*
X132909657Y-91437501D01*
X132909658Y-91437500D01*
X132909661Y-91437500D01*
X133008587Y-91387095D01*
X133087095Y-91308587D01*
X133137500Y-91209661D01*
X133154869Y-91100000D01*
X133154869Y-91099996D01*
X133137501Y-90990342D01*
X133137499Y-90990337D01*
X133087095Y-90891413D01*
X133008586Y-90812904D01*
X132909662Y-90762500D01*
X132909657Y-90762498D01*
X132800003Y-90745131D01*
X132799997Y-90745131D01*
X132690342Y-90762498D01*
X132690337Y-90762500D01*
X132591413Y-90812904D01*
X132512904Y-90891413D01*
X132462500Y-90990337D01*
X132462498Y-90990342D01*
X132445131Y-91099996D01*
X109700500Y-91099996D01*
X109700500Y-89599996D01*
X132345131Y-89599996D01*
X132345131Y-89600003D01*
X132362498Y-89709657D01*
X132362500Y-89709662D01*
X132412841Y-89808462D01*
X132412905Y-89808587D01*
X132491413Y-89887095D01*
X132590339Y-89937500D01*
X132590342Y-89937501D01*
X132699997Y-89954869D01*
X132700000Y-89954869D01*
X132700003Y-89954869D01*
X132809657Y-89937501D01*
X132809658Y-89937500D01*
X132809661Y-89937500D01*
X132908587Y-89887095D01*
X132987095Y-89808587D01*
X133037500Y-89709661D01*
X133039220Y-89698803D01*
X133054869Y-89600003D01*
X133054869Y-89599996D01*
X133037501Y-89490342D01*
X133037499Y-89490337D01*
X132991468Y-89399996D01*
X136645131Y-89399996D01*
X136645131Y-89400003D01*
X136662498Y-89509657D01*
X136662500Y-89509662D01*
X136712904Y-89608586D01*
X136791413Y-89687095D01*
X136835703Y-89709662D01*
X136890339Y-89737500D01*
X136890342Y-89737501D01*
X136999997Y-89754869D01*
X137000000Y-89754869D01*
X137000003Y-89754869D01*
X137109657Y-89737501D01*
X137109658Y-89737500D01*
X137109661Y-89737500D01*
X137208587Y-89687095D01*
X137287095Y-89608587D01*
X137337500Y-89509661D01*
X137340560Y-89490342D01*
X137354869Y-89400003D01*
X137354869Y-89399996D01*
X141245131Y-89399996D01*
X141245131Y-89400003D01*
X141262498Y-89509657D01*
X141262500Y-89509662D01*
X141312904Y-89608586D01*
X141391413Y-89687095D01*
X141435703Y-89709662D01*
X141490339Y-89737500D01*
X141490342Y-89737501D01*
X141599997Y-89754869D01*
X141600000Y-89754869D01*
X141600003Y-89754869D01*
X141709657Y-89737501D01*
X141709658Y-89737500D01*
X141709661Y-89737500D01*
X141785622Y-89698796D01*
X142290132Y-89698796D01*
X142290132Y-89698803D01*
X142307499Y-89808457D01*
X142307501Y-89808462D01*
X142357905Y-89907386D01*
X142357906Y-89907387D01*
X142436414Y-89985895D01*
X142535340Y-90036300D01*
X142535343Y-90036301D01*
X142644998Y-90053669D01*
X142645001Y-90053669D01*
X142645004Y-90053669D01*
X142754658Y-90036301D01*
X142754659Y-90036300D01*
X142754662Y-90036300D01*
X142853588Y-89985895D01*
X142932096Y-89907387D01*
X142982501Y-89808461D01*
X142982502Y-89808457D01*
X142999870Y-89698803D01*
X142999870Y-89698796D01*
X143395130Y-89698796D01*
X143395130Y-89698803D01*
X143412497Y-89808457D01*
X143412499Y-89808462D01*
X143462903Y-89907386D01*
X143462904Y-89907387D01*
X143541412Y-89985895D01*
X143640338Y-90036300D01*
X143640341Y-90036301D01*
X143749996Y-90053669D01*
X143749999Y-90053669D01*
X143750002Y-90053669D01*
X143859656Y-90036301D01*
X143859657Y-90036300D01*
X143859660Y-90036300D01*
X143958586Y-89985895D01*
X144037094Y-89907387D01*
X144087499Y-89808461D01*
X144087500Y-89808457D01*
X144104868Y-89698803D01*
X144104868Y-89698796D01*
X144087500Y-89589142D01*
X144087498Y-89589137D01*
X144037094Y-89490213D01*
X143958585Y-89411704D01*
X143859661Y-89361300D01*
X143859656Y-89361298D01*
X143750002Y-89343931D01*
X143749996Y-89343931D01*
X143640341Y-89361298D01*
X143640336Y-89361300D01*
X143541412Y-89411704D01*
X143462903Y-89490213D01*
X143412499Y-89589137D01*
X143412497Y-89589142D01*
X143395130Y-89698796D01*
X142999870Y-89698796D01*
X142982502Y-89589142D01*
X142982500Y-89589137D01*
X142932096Y-89490213D01*
X142853587Y-89411704D01*
X142754663Y-89361300D01*
X142754658Y-89361298D01*
X142645004Y-89343931D01*
X142644998Y-89343931D01*
X142535343Y-89361298D01*
X142535338Y-89361300D01*
X142436414Y-89411704D01*
X142357905Y-89490213D01*
X142307501Y-89589137D01*
X142307499Y-89589142D01*
X142290132Y-89698796D01*
X141785622Y-89698796D01*
X141808587Y-89687095D01*
X141887095Y-89608587D01*
X141937500Y-89509661D01*
X141940560Y-89490342D01*
X141954869Y-89400003D01*
X141954869Y-89399996D01*
X141937501Y-89290342D01*
X141937499Y-89290337D01*
X141887095Y-89191413D01*
X141808586Y-89112904D01*
X141709662Y-89062500D01*
X141709657Y-89062498D01*
X141600003Y-89045131D01*
X141599997Y-89045131D01*
X141490342Y-89062498D01*
X141490337Y-89062500D01*
X141391413Y-89112904D01*
X141312904Y-89191413D01*
X141262500Y-89290337D01*
X141262498Y-89290342D01*
X141245131Y-89399996D01*
X137354869Y-89399996D01*
X137337501Y-89290342D01*
X137337499Y-89290337D01*
X137287095Y-89191413D01*
X137208586Y-89112904D01*
X137109662Y-89062500D01*
X137109657Y-89062498D01*
X137000003Y-89045131D01*
X136999997Y-89045131D01*
X136890342Y-89062498D01*
X136890337Y-89062500D01*
X136791413Y-89112904D01*
X136712904Y-89191413D01*
X136662500Y-89290337D01*
X136662498Y-89290342D01*
X136645131Y-89399996D01*
X132991468Y-89399996D01*
X132987095Y-89391413D01*
X132908586Y-89312904D01*
X132809662Y-89262500D01*
X132809657Y-89262498D01*
X132700003Y-89245131D01*
X132699997Y-89245131D01*
X132590342Y-89262498D01*
X132590337Y-89262500D01*
X132491413Y-89312904D01*
X132412904Y-89391413D01*
X132362500Y-89490337D01*
X132362498Y-89490342D01*
X132345131Y-89599996D01*
X109700500Y-89599996D01*
X109700500Y-89199996D01*
X130633106Y-89199996D01*
X130633106Y-89200003D01*
X130650572Y-89310282D01*
X130650574Y-89310287D01*
X130701266Y-89409776D01*
X130701267Y-89409777D01*
X130780223Y-89488733D01*
X130879714Y-89539426D01*
X130879717Y-89539427D01*
X130989997Y-89556894D01*
X130990000Y-89556894D01*
X130990003Y-89556894D01*
X131100282Y-89539427D01*
X131100283Y-89539426D01*
X131100286Y-89539426D01*
X131199777Y-89488733D01*
X131278733Y-89409777D01*
X131329426Y-89310286D01*
X131329427Y-89310282D01*
X131346894Y-89200003D01*
X131346894Y-89199996D01*
X131329427Y-89089717D01*
X131329425Y-89089712D01*
X131278733Y-88990223D01*
X131199776Y-88911266D01*
X131100287Y-88860574D01*
X131100282Y-88860572D01*
X130990003Y-88843106D01*
X130989997Y-88843106D01*
X130879717Y-88860572D01*
X130879712Y-88860574D01*
X130780223Y-88911266D01*
X130701266Y-88990223D01*
X130650574Y-89089712D01*
X130650572Y-89089717D01*
X130633106Y-89199996D01*
X109700500Y-89199996D01*
X109700500Y-87467442D01*
X185522500Y-87467442D01*
X185522500Y-89192558D01*
X185523981Y-89200003D01*
X185529898Y-89229748D01*
X185529898Y-89229749D01*
X185558077Y-89271922D01*
X185585638Y-89290337D01*
X185600252Y-89300102D01*
X185637442Y-89307500D01*
X185637443Y-89307500D01*
X187362557Y-89307500D01*
X187362558Y-89307500D01*
X187399748Y-89300102D01*
X187441922Y-89271922D01*
X187470102Y-89229748D01*
X187477500Y-89192558D01*
X187477500Y-87467442D01*
X187470102Y-87430252D01*
X187470101Y-87430250D01*
X187441922Y-87388077D01*
X187399748Y-87359898D01*
X187362558Y-87352500D01*
X185637442Y-87352500D01*
X185618847Y-87356199D01*
X185600251Y-87359898D01*
X185600250Y-87359898D01*
X185558077Y-87388077D01*
X185529898Y-87430250D01*
X185529898Y-87430251D01*
X185529898Y-87430252D01*
X185522500Y-87467442D01*
X109700500Y-87467442D01*
X109700500Y-87026580D01*
X129816506Y-87026580D01*
X129816506Y-87026587D01*
X129833972Y-87136866D01*
X129833974Y-87136871D01*
X129884666Y-87236360D01*
X129884667Y-87236361D01*
X129963623Y-87315317D01*
X130063114Y-87366010D01*
X130063117Y-87366011D01*
X130173397Y-87383478D01*
X130173400Y-87383478D01*
X130173403Y-87383478D01*
X130283682Y-87366011D01*
X130283683Y-87366010D01*
X130283686Y-87366010D01*
X130383177Y-87315317D01*
X130462133Y-87236361D01*
X130512826Y-87136870D01*
X130530294Y-87026584D01*
X130530294Y-87026580D01*
X130512827Y-86916301D01*
X130512825Y-86916296D01*
X130462133Y-86816807D01*
X130383176Y-86737850D01*
X130283687Y-86687158D01*
X130283682Y-86687156D01*
X130173403Y-86669690D01*
X130173397Y-86669690D01*
X130063117Y-86687156D01*
X130063112Y-86687158D01*
X129963623Y-86737850D01*
X129884666Y-86816807D01*
X129833974Y-86916296D01*
X129833972Y-86916301D01*
X129816506Y-87026580D01*
X109700500Y-87026580D01*
X109700500Y-86495418D01*
X142940553Y-86495418D01*
X142940553Y-86495425D01*
X142957920Y-86605079D01*
X142957922Y-86605084D01*
X142999740Y-86687156D01*
X143008327Y-86704009D01*
X143086835Y-86782517D01*
X143185761Y-86832922D01*
X143185764Y-86832923D01*
X143295419Y-86850291D01*
X143295422Y-86850291D01*
X143295425Y-86850291D01*
X143405079Y-86832923D01*
X143405080Y-86832922D01*
X143405083Y-86832922D01*
X143504009Y-86782517D01*
X143582517Y-86704009D01*
X143632922Y-86605083D01*
X143637318Y-86577324D01*
X143662310Y-86536540D01*
X143708824Y-86525372D01*
X143713448Y-86526482D01*
X143715946Y-86526877D01*
X143715947Y-86526878D01*
X143745252Y-86531519D01*
X143825605Y-86544247D01*
X143825608Y-86544247D01*
X143825611Y-86544247D01*
X143935265Y-86526879D01*
X143935266Y-86526878D01*
X143935269Y-86526878D01*
X144034195Y-86476473D01*
X144112703Y-86397965D01*
X144163108Y-86299039D01*
X144180477Y-86189378D01*
X144180477Y-86189374D01*
X144163109Y-86079720D01*
X144163107Y-86079715D01*
X144112703Y-85980791D01*
X144034194Y-85902282D01*
X143935270Y-85851878D01*
X143935265Y-85851876D01*
X143825611Y-85834509D01*
X143825605Y-85834509D01*
X143715950Y-85851876D01*
X143715945Y-85851878D01*
X143617021Y-85902282D01*
X143538512Y-85980791D01*
X143488108Y-86079715D01*
X143488107Y-86079719D01*
X143483711Y-86107474D01*
X143458717Y-86148260D01*
X143412203Y-86159426D01*
X143407587Y-86158318D01*
X143295425Y-86140553D01*
X143295419Y-86140553D01*
X143185764Y-86157920D01*
X143185759Y-86157922D01*
X143086835Y-86208326D01*
X143008326Y-86286835D01*
X142957922Y-86385759D01*
X142957920Y-86385764D01*
X142940553Y-86495418D01*
X109700500Y-86495418D01*
X109700500Y-85799996D01*
X158643106Y-85799996D01*
X158643106Y-85800003D01*
X158660572Y-85910282D01*
X158660574Y-85910287D01*
X158696921Y-85981622D01*
X158711267Y-86009777D01*
X158790223Y-86088733D01*
X158889714Y-86139426D01*
X158889717Y-86139427D01*
X158999997Y-86156894D01*
X159000000Y-86156894D01*
X159000003Y-86156894D01*
X159110282Y-86139427D01*
X159110283Y-86139426D01*
X159110286Y-86139426D01*
X159209777Y-86088733D01*
X159288733Y-86009777D01*
X159339426Y-85910286D01*
X159340694Y-85902282D01*
X159356894Y-85800003D01*
X159356894Y-85799996D01*
X159355311Y-85789999D01*
X185517770Y-85789999D01*
X185517770Y-85790000D01*
X185536642Y-85981622D01*
X185536643Y-85981624D01*
X185592538Y-86165883D01*
X185615224Y-86208326D01*
X185683302Y-86335692D01*
X185683306Y-86335698D01*
X185805459Y-86484541D01*
X185954302Y-86606694D01*
X185954304Y-86606695D01*
X185954307Y-86606697D01*
X185998491Y-86630313D01*
X186124117Y-86697462D01*
X186308376Y-86753357D01*
X186500000Y-86772230D01*
X186691624Y-86753357D01*
X186875883Y-86697462D01*
X187045698Y-86606694D01*
X187194541Y-86484541D01*
X187316694Y-86335698D01*
X187407462Y-86165883D01*
X187463357Y-85981624D01*
X187482230Y-85790000D01*
X187463357Y-85598376D01*
X187407462Y-85414117D01*
X187316694Y-85244302D01*
X187194541Y-85095459D01*
X187045698Y-84973306D01*
X187045692Y-84973302D01*
X186938695Y-84916112D01*
X186875883Y-84882538D01*
X186758111Y-84846811D01*
X186691622Y-84826642D01*
X186500000Y-84807770D01*
X186308377Y-84826642D01*
X186190604Y-84862369D01*
X186124117Y-84882538D01*
X186124115Y-84882538D01*
X186124115Y-84882539D01*
X185954307Y-84973302D01*
X185954301Y-84973306D01*
X185805459Y-85095459D01*
X185683306Y-85244301D01*
X185683302Y-85244307D01*
X185592539Y-85414115D01*
X185536642Y-85598377D01*
X185517770Y-85789999D01*
X159355311Y-85789999D01*
X159339427Y-85689717D01*
X159339425Y-85689712D01*
X159288733Y-85590223D01*
X159209776Y-85511266D01*
X159110287Y-85460574D01*
X159110282Y-85460572D01*
X159000003Y-85443106D01*
X158999997Y-85443106D01*
X158889717Y-85460572D01*
X158889712Y-85460574D01*
X158790223Y-85511266D01*
X158711266Y-85590223D01*
X158660574Y-85689712D01*
X158660572Y-85689717D01*
X158643106Y-85799996D01*
X109700500Y-85799996D01*
X109700500Y-85299996D01*
X140843106Y-85299996D01*
X140843106Y-85300003D01*
X140860572Y-85410282D01*
X140860574Y-85410287D01*
X140911266Y-85509776D01*
X140911267Y-85509777D01*
X140990223Y-85588733D01*
X141089714Y-85639426D01*
X141089717Y-85639427D01*
X141199997Y-85656894D01*
X141200000Y-85656894D01*
X141200003Y-85656894D01*
X141310282Y-85639427D01*
X141310283Y-85639426D01*
X141310286Y-85639426D01*
X141409777Y-85588733D01*
X141488733Y-85509777D01*
X141539426Y-85410286D01*
X141556894Y-85300000D01*
X141556894Y-85299996D01*
X141539427Y-85189717D01*
X141539425Y-85189712D01*
X141488733Y-85090223D01*
X141409776Y-85011266D01*
X141310287Y-84960574D01*
X141310282Y-84960572D01*
X141200003Y-84943106D01*
X141199997Y-84943106D01*
X141089717Y-84960572D01*
X141089712Y-84960574D01*
X140990223Y-85011266D01*
X140911266Y-85090223D01*
X140860574Y-85189712D01*
X140860572Y-85189717D01*
X140843106Y-85299996D01*
X109700500Y-85299996D01*
X109700500Y-84099996D01*
X135045131Y-84099996D01*
X135045131Y-84100003D01*
X135062498Y-84209657D01*
X135062500Y-84209662D01*
X135112904Y-84308586D01*
X135112905Y-84308587D01*
X135191413Y-84387095D01*
X135290339Y-84437500D01*
X135290342Y-84437501D01*
X135399997Y-84454869D01*
X135400000Y-84454869D01*
X135400003Y-84454869D01*
X135509657Y-84437501D01*
X135509658Y-84437500D01*
X135509661Y-84437500D01*
X135608587Y-84387095D01*
X135687095Y-84308587D01*
X135737500Y-84209661D01*
X135737501Y-84209657D01*
X135754869Y-84100003D01*
X135754869Y-84099996D01*
X157843106Y-84099996D01*
X157843106Y-84100003D01*
X157860572Y-84210282D01*
X157860574Y-84210287D01*
X157911266Y-84309776D01*
X157911267Y-84309777D01*
X157990223Y-84388733D01*
X158089714Y-84439426D01*
X158089717Y-84439427D01*
X158199997Y-84456894D01*
X158200000Y-84456894D01*
X158200003Y-84456894D01*
X158310282Y-84439427D01*
X158310283Y-84439426D01*
X158310286Y-84439426D01*
X158409777Y-84388733D01*
X158488733Y-84309777D01*
X158539426Y-84210286D01*
X158539526Y-84209657D01*
X158556894Y-84100003D01*
X158556894Y-84099996D01*
X158541055Y-83999996D01*
X159943106Y-83999996D01*
X159943106Y-84000003D01*
X159960572Y-84110282D01*
X159960574Y-84110287D01*
X160011208Y-84209662D01*
X160011267Y-84209777D01*
X160090223Y-84288733D01*
X160189714Y-84339426D01*
X160189717Y-84339427D01*
X160299997Y-84356894D01*
X160300000Y-84356894D01*
X160300003Y-84356894D01*
X160410282Y-84339427D01*
X160410283Y-84339426D01*
X160410286Y-84339426D01*
X160509777Y-84288733D01*
X160588733Y-84209777D01*
X160639426Y-84110286D01*
X160641055Y-84100003D01*
X160656894Y-84000003D01*
X160656894Y-83999996D01*
X160639427Y-83889717D01*
X160639425Y-83889712D01*
X160588733Y-83790223D01*
X160509776Y-83711266D01*
X160410287Y-83660574D01*
X160410282Y-83660572D01*
X160300003Y-83643106D01*
X160299997Y-83643106D01*
X160189717Y-83660572D01*
X160189712Y-83660574D01*
X160090223Y-83711266D01*
X160011266Y-83790223D01*
X159960574Y-83889712D01*
X159960572Y-83889717D01*
X159943106Y-83999996D01*
X158541055Y-83999996D01*
X158539427Y-83989717D01*
X158539425Y-83989712D01*
X158488733Y-83890223D01*
X158409776Y-83811266D01*
X158310287Y-83760574D01*
X158310282Y-83760572D01*
X158200003Y-83743106D01*
X158199997Y-83743106D01*
X158089717Y-83760572D01*
X158089712Y-83760574D01*
X157990223Y-83811266D01*
X157911266Y-83890223D01*
X157860574Y-83989712D01*
X157860572Y-83989717D01*
X157843106Y-84099996D01*
X135754869Y-84099996D01*
X135737501Y-83990342D01*
X135737499Y-83990337D01*
X135687095Y-83891413D01*
X135608586Y-83812904D01*
X135509662Y-83762500D01*
X135509657Y-83762498D01*
X135400003Y-83745131D01*
X135399997Y-83745131D01*
X135290342Y-83762498D01*
X135290337Y-83762500D01*
X135191413Y-83812904D01*
X135112904Y-83891413D01*
X135062500Y-83990337D01*
X135062498Y-83990342D01*
X135045131Y-84099996D01*
X109700500Y-84099996D01*
X109700500Y-83199996D01*
X137645131Y-83199996D01*
X137645131Y-83200003D01*
X137662498Y-83309657D01*
X137662500Y-83309662D01*
X137701954Y-83387095D01*
X137712905Y-83408587D01*
X137791413Y-83487095D01*
X137890339Y-83537500D01*
X137890342Y-83537501D01*
X137999997Y-83554869D01*
X138000000Y-83554869D01*
X138000003Y-83554869D01*
X138109657Y-83537501D01*
X138109658Y-83537500D01*
X138109661Y-83537500D01*
X138208587Y-83487095D01*
X138287095Y-83408587D01*
X138337500Y-83309661D01*
X138337670Y-83308587D01*
X138354869Y-83200003D01*
X138354869Y-83199996D01*
X138337501Y-83090342D01*
X138337499Y-83090337D01*
X138287095Y-82991413D01*
X138208586Y-82912904D01*
X138109662Y-82862500D01*
X138109657Y-82862498D01*
X138000003Y-82845131D01*
X137999997Y-82845131D01*
X137890342Y-82862498D01*
X137890337Y-82862500D01*
X137791413Y-82912904D01*
X137712904Y-82991413D01*
X137662500Y-83090337D01*
X137662498Y-83090342D01*
X137645131Y-83199996D01*
X109700500Y-83199996D01*
X109700500Y-82399996D01*
X132145131Y-82399996D01*
X132145131Y-82400003D01*
X132162498Y-82509657D01*
X132162500Y-82509662D01*
X132203290Y-82589717D01*
X132212905Y-82608587D01*
X132291413Y-82687095D01*
X132390339Y-82737500D01*
X132390342Y-82737501D01*
X132499997Y-82754869D01*
X132500000Y-82754869D01*
X132500003Y-82754869D01*
X132609657Y-82737501D01*
X132609658Y-82737500D01*
X132609661Y-82737500D01*
X132708587Y-82687095D01*
X132787095Y-82608587D01*
X132837500Y-82509661D01*
X132837501Y-82509657D01*
X132854869Y-82400003D01*
X132854869Y-82399996D01*
X140732631Y-82399996D01*
X140732631Y-82400003D01*
X140749998Y-82509657D01*
X140750000Y-82509662D01*
X140790790Y-82589717D01*
X140800405Y-82608587D01*
X140878913Y-82687095D01*
X140977839Y-82737500D01*
X141019827Y-82744150D01*
X141060612Y-82769143D01*
X141071780Y-82815656D01*
X141054244Y-82850074D01*
X141012903Y-82891415D01*
X140962500Y-82990337D01*
X140962498Y-82990342D01*
X140945131Y-83099996D01*
X140945131Y-83100003D01*
X140962498Y-83209657D01*
X140962500Y-83209662D01*
X141012904Y-83308586D01*
X141012905Y-83308587D01*
X141091413Y-83387095D01*
X141190339Y-83437500D01*
X141190342Y-83437501D01*
X141299997Y-83454869D01*
X141300000Y-83454869D01*
X141300003Y-83454869D01*
X141409657Y-83437501D01*
X141409658Y-83437500D01*
X141409661Y-83437500D01*
X141508587Y-83387095D01*
X141587095Y-83308587D01*
X141637500Y-83209661D01*
X141639030Y-83200003D01*
X141651227Y-83122999D01*
X185403037Y-83122999D01*
X185403038Y-83123000D01*
X186016392Y-83123000D01*
X186000000Y-83184174D01*
X186000000Y-83315826D01*
X186016392Y-83377000D01*
X185403037Y-83377000D01*
X185410146Y-83453721D01*
X185410148Y-83453732D01*
X185466140Y-83650519D01*
X185557339Y-83833670D01*
X185557342Y-83833676D01*
X185680630Y-83996937D01*
X185680637Y-83996944D01*
X185831839Y-84134785D01*
X186005796Y-84242493D01*
X186196586Y-84316405D01*
X186373000Y-84349382D01*
X186373000Y-83733608D01*
X186434174Y-83750000D01*
X186565826Y-83750000D01*
X186627000Y-83733608D01*
X186627000Y-84349381D01*
X186803413Y-84316405D01*
X186994203Y-84242493D01*
X187168160Y-84134785D01*
X187319362Y-83996944D01*
X187319369Y-83996937D01*
X187442657Y-83833676D01*
X187442660Y-83833670D01*
X187533859Y-83650519D01*
X187589851Y-83453732D01*
X187589853Y-83453721D01*
X187596962Y-83377000D01*
X186983608Y-83377000D01*
X187000000Y-83315826D01*
X187000000Y-83184174D01*
X186983608Y-83123000D01*
X187596962Y-83123000D01*
X187596962Y-83122999D01*
X187589853Y-83046278D01*
X187589851Y-83046267D01*
X187533859Y-82849480D01*
X187442660Y-82666329D01*
X187442657Y-82666323D01*
X187319369Y-82503062D01*
X187319362Y-82503055D01*
X187168160Y-82365214D01*
X186994203Y-82257506D01*
X186803412Y-82183593D01*
X186627000Y-82150617D01*
X186627000Y-82766391D01*
X186565826Y-82750000D01*
X186434174Y-82750000D01*
X186373000Y-82766391D01*
X186373000Y-82150617D01*
X186196587Y-82183593D01*
X186005796Y-82257506D01*
X185831839Y-82365214D01*
X185680637Y-82503055D01*
X185680630Y-82503062D01*
X185557342Y-82666323D01*
X185557339Y-82666329D01*
X185466140Y-82849480D01*
X185410148Y-83046267D01*
X185410146Y-83046278D01*
X185403037Y-83122999D01*
X141651227Y-83122999D01*
X141654869Y-83100003D01*
X141654869Y-83099996D01*
X141637501Y-82990342D01*
X141637499Y-82990337D01*
X141587095Y-82891413D01*
X141508586Y-82812904D01*
X141409662Y-82762500D01*
X141409657Y-82762498D01*
X141367673Y-82755849D01*
X141326886Y-82730855D01*
X141319478Y-82699996D01*
X146643106Y-82699996D01*
X146643106Y-82700003D01*
X146660572Y-82810282D01*
X146660574Y-82810287D01*
X146687177Y-82862498D01*
X146711267Y-82909777D01*
X146790223Y-82988733D01*
X146889714Y-83039426D01*
X146889717Y-83039427D01*
X146999997Y-83056894D01*
X147000000Y-83056894D01*
X147000003Y-83056894D01*
X147110282Y-83039427D01*
X147110283Y-83039426D01*
X147110286Y-83039426D01*
X147209777Y-82988733D01*
X147288733Y-82909777D01*
X147339426Y-82810286D01*
X147346995Y-82762498D01*
X147356894Y-82700003D01*
X147356894Y-82699996D01*
X150943106Y-82699996D01*
X150943106Y-82700003D01*
X150960572Y-82810282D01*
X150960574Y-82810287D01*
X150987177Y-82862498D01*
X151011267Y-82909777D01*
X151090223Y-82988733D01*
X151189714Y-83039426D01*
X151189717Y-83039427D01*
X151299997Y-83056894D01*
X151300000Y-83056894D01*
X151300003Y-83056894D01*
X151410282Y-83039427D01*
X151410283Y-83039426D01*
X151410286Y-83039426D01*
X151509777Y-82988733D01*
X151588733Y-82909777D01*
X151639426Y-82810286D01*
X151646995Y-82762498D01*
X151656894Y-82700003D01*
X151656894Y-82699996D01*
X151639427Y-82589717D01*
X151639425Y-82589712D01*
X151588733Y-82490223D01*
X151509776Y-82411266D01*
X151410287Y-82360574D01*
X151410282Y-82360572D01*
X151300003Y-82343106D01*
X151299997Y-82343106D01*
X151189717Y-82360572D01*
X151189712Y-82360574D01*
X151090223Y-82411266D01*
X151011266Y-82490223D01*
X150960574Y-82589712D01*
X150960572Y-82589717D01*
X150943106Y-82699996D01*
X147356894Y-82699996D01*
X147339427Y-82589717D01*
X147339425Y-82589712D01*
X147288733Y-82490223D01*
X147209776Y-82411266D01*
X147110287Y-82360574D01*
X147110282Y-82360572D01*
X147000003Y-82343106D01*
X146999997Y-82343106D01*
X146889717Y-82360572D01*
X146889712Y-82360574D01*
X146790223Y-82411266D01*
X146711266Y-82490223D01*
X146660574Y-82589712D01*
X146660572Y-82589717D01*
X146643106Y-82699996D01*
X141319478Y-82699996D01*
X141315720Y-82684342D01*
X141333253Y-82649928D01*
X141374595Y-82608587D01*
X141425000Y-82509661D01*
X141425001Y-82509657D01*
X141442369Y-82400003D01*
X141442369Y-82399996D01*
X141425001Y-82290342D01*
X141424999Y-82290337D01*
X141374595Y-82191413D01*
X141296086Y-82112904D01*
X141197162Y-82062500D01*
X141197157Y-82062498D01*
X141087503Y-82045131D01*
X141087497Y-82045131D01*
X140977842Y-82062498D01*
X140977837Y-82062500D01*
X140878913Y-82112904D01*
X140800404Y-82191413D01*
X140750000Y-82290337D01*
X140749998Y-82290342D01*
X140732631Y-82399996D01*
X132854869Y-82399996D01*
X132837501Y-82290342D01*
X132837499Y-82290337D01*
X132787095Y-82191413D01*
X132708586Y-82112904D01*
X132609662Y-82062500D01*
X132609657Y-82062498D01*
X132500003Y-82045131D01*
X132499997Y-82045131D01*
X132390342Y-82062498D01*
X132390337Y-82062500D01*
X132291413Y-82112904D01*
X132212904Y-82191413D01*
X132162500Y-82290337D01*
X132162498Y-82290342D01*
X132145131Y-82399996D01*
X109700500Y-82399996D01*
X109700500Y-81699996D01*
X139445131Y-81699996D01*
X139445131Y-81700003D01*
X139462498Y-81809657D01*
X139462500Y-81809662D01*
X139501954Y-81887095D01*
X139512905Y-81908587D01*
X139591413Y-81987095D01*
X139690339Y-82037500D01*
X139690342Y-82037501D01*
X139799997Y-82054869D01*
X139800000Y-82054869D01*
X139800003Y-82054869D01*
X139909657Y-82037501D01*
X139909658Y-82037500D01*
X139909661Y-82037500D01*
X139937342Y-82023396D01*
X156343106Y-82023396D01*
X156343106Y-82023403D01*
X156360572Y-82133682D01*
X156360574Y-82133687D01*
X156389987Y-82191413D01*
X156411267Y-82233177D01*
X156490223Y-82312133D01*
X156589714Y-82362826D01*
X156589717Y-82362827D01*
X156699997Y-82380294D01*
X156700000Y-82380294D01*
X156700003Y-82380294D01*
X156810282Y-82362827D01*
X156810283Y-82362826D01*
X156810286Y-82362826D01*
X156909777Y-82312133D01*
X156988733Y-82233177D01*
X157039426Y-82133686D01*
X157039427Y-82133682D01*
X157056894Y-82023403D01*
X157056894Y-82023396D01*
X157039427Y-81913117D01*
X157039425Y-81913112D01*
X156988733Y-81813623D01*
X156909776Y-81734666D01*
X156810287Y-81683974D01*
X156810282Y-81683972D01*
X156700003Y-81666506D01*
X156699997Y-81666506D01*
X156589717Y-81683972D01*
X156589712Y-81683974D01*
X156490223Y-81734666D01*
X156411266Y-81813623D01*
X156360574Y-81913112D01*
X156360572Y-81913117D01*
X156343106Y-82023396D01*
X139937342Y-82023396D01*
X140008587Y-81987095D01*
X140087095Y-81908587D01*
X140137500Y-81809661D01*
X140137670Y-81808587D01*
X140154869Y-81700003D01*
X140154869Y-81699996D01*
X140139030Y-81599996D01*
X144545131Y-81599996D01*
X144545131Y-81600003D01*
X144562498Y-81709657D01*
X144562500Y-81709662D01*
X144575241Y-81734667D01*
X144612905Y-81808587D01*
X144691413Y-81887095D01*
X144790339Y-81937500D01*
X144790342Y-81937501D01*
X144899997Y-81954869D01*
X144900000Y-81954869D01*
X144900003Y-81954869D01*
X145009657Y-81937501D01*
X145009658Y-81937500D01*
X145009661Y-81937500D01*
X145108587Y-81887095D01*
X145187095Y-81808587D01*
X145237500Y-81709661D01*
X145239030Y-81700003D01*
X145254869Y-81600003D01*
X145254869Y-81599996D01*
X145237501Y-81490342D01*
X145237499Y-81490337D01*
X145187095Y-81391413D01*
X145108586Y-81312904D01*
X145009662Y-81262500D01*
X145009657Y-81262498D01*
X144900003Y-81245131D01*
X144899997Y-81245131D01*
X144790342Y-81262498D01*
X144790337Y-81262500D01*
X144691413Y-81312904D01*
X144612904Y-81391413D01*
X144562500Y-81490337D01*
X144562498Y-81490342D01*
X144545131Y-81599996D01*
X140139030Y-81599996D01*
X140137501Y-81590342D01*
X140137499Y-81590337D01*
X140087095Y-81491413D01*
X140008586Y-81412904D01*
X139909662Y-81362500D01*
X139909657Y-81362498D01*
X139800003Y-81345131D01*
X139799997Y-81345131D01*
X139690342Y-81362498D01*
X139690337Y-81362500D01*
X139591413Y-81412904D01*
X139512904Y-81491413D01*
X139462500Y-81590337D01*
X139462498Y-81590342D01*
X139445131Y-81699996D01*
X109700500Y-81699996D01*
X109700500Y-81299996D01*
X117643106Y-81299996D01*
X117643106Y-81300003D01*
X117660572Y-81410282D01*
X117660574Y-81410287D01*
X117701364Y-81490342D01*
X117711267Y-81509777D01*
X117790223Y-81588733D01*
X117889714Y-81639426D01*
X117889717Y-81639427D01*
X117999997Y-81656894D01*
X118000000Y-81656894D01*
X118000003Y-81656894D01*
X118110282Y-81639427D01*
X118110283Y-81639426D01*
X118110286Y-81639426D01*
X118209777Y-81588733D01*
X118288733Y-81509777D01*
X118339426Y-81410286D01*
X118339427Y-81410282D01*
X118356894Y-81300003D01*
X118356894Y-81299996D01*
X118339427Y-81189717D01*
X118339425Y-81189712D01*
X118288733Y-81090223D01*
X118209776Y-81011266D01*
X118110287Y-80960574D01*
X118110282Y-80960572D01*
X118000003Y-80943106D01*
X117999997Y-80943106D01*
X117889717Y-80960572D01*
X117889712Y-80960574D01*
X117790223Y-81011266D01*
X117711266Y-81090223D01*
X117660574Y-81189712D01*
X117660572Y-81189717D01*
X117643106Y-81299996D01*
X109700500Y-81299996D01*
X109700500Y-80799996D01*
X162643106Y-80799996D01*
X162643106Y-80800003D01*
X162660572Y-80910282D01*
X162660574Y-80910287D01*
X162711266Y-81009776D01*
X162711267Y-81009777D01*
X162790223Y-81088733D01*
X162889714Y-81139426D01*
X162889717Y-81139427D01*
X162999997Y-81156894D01*
X163000000Y-81156894D01*
X163000003Y-81156894D01*
X163110282Y-81139427D01*
X163110283Y-81139426D01*
X163110286Y-81139426D01*
X163209777Y-81088733D01*
X163288733Y-81009777D01*
X163339426Y-80910286D01*
X163356894Y-80800000D01*
X163356894Y-80799996D01*
X163339427Y-80689717D01*
X163339425Y-80689712D01*
X163288733Y-80590223D01*
X163209776Y-80511266D01*
X163110287Y-80460574D01*
X163110282Y-80460572D01*
X163000003Y-80443106D01*
X162999997Y-80443106D01*
X162889717Y-80460572D01*
X162889712Y-80460574D01*
X162790223Y-80511266D01*
X162711266Y-80590223D01*
X162660574Y-80689712D01*
X162660572Y-80689717D01*
X162643106Y-80799996D01*
X109700500Y-80799996D01*
X109700500Y-80399996D01*
X121545131Y-80399996D01*
X121545131Y-80400003D01*
X121562498Y-80509657D01*
X121562500Y-80509662D01*
X121576685Y-80537501D01*
X121612905Y-80608587D01*
X121691413Y-80687095D01*
X121790339Y-80737500D01*
X121790342Y-80737501D01*
X121899997Y-80754869D01*
X121900000Y-80754869D01*
X121900003Y-80754869D01*
X122009657Y-80737501D01*
X122009658Y-80737500D01*
X122009661Y-80737500D01*
X122108587Y-80687095D01*
X122187095Y-80608587D01*
X122237500Y-80509661D01*
X122237501Y-80509657D01*
X122254869Y-80400003D01*
X122254869Y-80399996D01*
X122237501Y-80290342D01*
X122237499Y-80290337D01*
X122191468Y-80199996D01*
X123345131Y-80199996D01*
X123345131Y-80200003D01*
X123362498Y-80309657D01*
X123362500Y-80309662D01*
X123412904Y-80408586D01*
X123491413Y-80487095D01*
X123538853Y-80511267D01*
X123590339Y-80537500D01*
X123590342Y-80537501D01*
X123699997Y-80554869D01*
X123700000Y-80554869D01*
X123700003Y-80554869D01*
X123809657Y-80537501D01*
X123809658Y-80537500D01*
X123809661Y-80537500D01*
X123908587Y-80487095D01*
X123987095Y-80408587D01*
X124037500Y-80309661D01*
X124040560Y-80290342D01*
X124054869Y-80200003D01*
X124054869Y-80199996D01*
X124037501Y-80090342D01*
X124037499Y-80090337D01*
X123987095Y-79991413D01*
X123908586Y-79912904D01*
X123809662Y-79862500D01*
X123809657Y-79862498D01*
X123700003Y-79845131D01*
X123699997Y-79845131D01*
X123590342Y-79862498D01*
X123590337Y-79862500D01*
X123491413Y-79912904D01*
X123412904Y-79991413D01*
X123362500Y-80090337D01*
X123362498Y-80090342D01*
X123345131Y-80199996D01*
X122191468Y-80199996D01*
X122187095Y-80191413D01*
X122108586Y-80112904D01*
X122009662Y-80062500D01*
X122009657Y-80062498D01*
X121900003Y-80045131D01*
X121899997Y-80045131D01*
X121790342Y-80062498D01*
X121790337Y-80062500D01*
X121691413Y-80112904D01*
X121612904Y-80191413D01*
X121562500Y-80290337D01*
X121562498Y-80290342D01*
X121545131Y-80399996D01*
X109700500Y-80399996D01*
X109700500Y-78999996D01*
X135343106Y-78999996D01*
X135343106Y-79000003D01*
X135360572Y-79110282D01*
X135360574Y-79110287D01*
X135411208Y-79209662D01*
X135411267Y-79209777D01*
X135490223Y-79288733D01*
X135589714Y-79339426D01*
X135589717Y-79339427D01*
X135699997Y-79356894D01*
X135700000Y-79356894D01*
X135700003Y-79356894D01*
X135810282Y-79339427D01*
X135810283Y-79339426D01*
X135810286Y-79339426D01*
X135909777Y-79288733D01*
X135988733Y-79209777D01*
X136039426Y-79110286D01*
X136039695Y-79108587D01*
X136056894Y-79000003D01*
X136056894Y-78999996D01*
X136041055Y-78899996D01*
X141645131Y-78899996D01*
X141645131Y-78900003D01*
X141662498Y-79009657D01*
X141662500Y-79009662D01*
X141712904Y-79108586D01*
X141791413Y-79187095D01*
X141835703Y-79209662D01*
X141890339Y-79237500D01*
X141890342Y-79237501D01*
X141999997Y-79254869D01*
X142000000Y-79254869D01*
X142000003Y-79254869D01*
X142109657Y-79237501D01*
X142109658Y-79237500D01*
X142109661Y-79237500D01*
X142208587Y-79187095D01*
X142287095Y-79108587D01*
X142291472Y-79099996D01*
X142645131Y-79099996D01*
X142645131Y-79100003D01*
X142662498Y-79209657D01*
X142662500Y-79209662D01*
X142712904Y-79308586D01*
X142712905Y-79308587D01*
X142791413Y-79387095D01*
X142890339Y-79437500D01*
X142890342Y-79437501D01*
X142999997Y-79454869D01*
X143000000Y-79454869D01*
X143000003Y-79454869D01*
X143109657Y-79437501D01*
X143109658Y-79437500D01*
X143109661Y-79437500D01*
X143208587Y-79387095D01*
X143287095Y-79308587D01*
X143337500Y-79209661D01*
X143337670Y-79208587D01*
X143354869Y-79100003D01*
X143354869Y-79099996D01*
X143339030Y-78999996D01*
X144045131Y-78999996D01*
X144045131Y-79000003D01*
X144062498Y-79109657D01*
X144062500Y-79109662D01*
X144101954Y-79187095D01*
X144112905Y-79208587D01*
X144191413Y-79287095D01*
X144290339Y-79337500D01*
X144290342Y-79337501D01*
X144399997Y-79354869D01*
X144400000Y-79354869D01*
X144400003Y-79354869D01*
X144509657Y-79337501D01*
X144509658Y-79337500D01*
X144509661Y-79337500D01*
X144608587Y-79287095D01*
X144687095Y-79208587D01*
X144737500Y-79109661D01*
X144737670Y-79108587D01*
X144754869Y-79000003D01*
X144754869Y-78999996D01*
X144737501Y-78890342D01*
X144737499Y-78890337D01*
X144687095Y-78791413D01*
X144608586Y-78712904D01*
X144583252Y-78699996D01*
X156232631Y-78699996D01*
X156232631Y-78700003D01*
X156249998Y-78809657D01*
X156250000Y-78809662D01*
X156300404Y-78908586D01*
X156378913Y-78987095D01*
X156423203Y-79009662D01*
X156477839Y-79037500D01*
X156477842Y-79037501D01*
X156587497Y-79054869D01*
X156587500Y-79054869D01*
X156587503Y-79054869D01*
X156697157Y-79037501D01*
X156697158Y-79037500D01*
X156697161Y-79037500D01*
X156796087Y-78987095D01*
X156874595Y-78908587D01*
X156925000Y-78809661D01*
X156925001Y-78809657D01*
X156942369Y-78700003D01*
X156942369Y-78699996D01*
X156925001Y-78590342D01*
X156924999Y-78590337D01*
X156874595Y-78491413D01*
X156796086Y-78412904D01*
X156697162Y-78362500D01*
X156697157Y-78362498D01*
X156587503Y-78345131D01*
X156587497Y-78345131D01*
X156477842Y-78362498D01*
X156477837Y-78362500D01*
X156378913Y-78412904D01*
X156300404Y-78491413D01*
X156250000Y-78590337D01*
X156249998Y-78590342D01*
X156232631Y-78699996D01*
X144583252Y-78699996D01*
X144509662Y-78662500D01*
X144509657Y-78662498D01*
X144400003Y-78645131D01*
X144399997Y-78645131D01*
X144290342Y-78662498D01*
X144290337Y-78662500D01*
X144191413Y-78712904D01*
X144112904Y-78791413D01*
X144062500Y-78890337D01*
X144062498Y-78890342D01*
X144045131Y-78999996D01*
X143339030Y-78999996D01*
X143337501Y-78990342D01*
X143337499Y-78990337D01*
X143287095Y-78891413D01*
X143208586Y-78812904D01*
X143109662Y-78762500D01*
X143109657Y-78762498D01*
X143000003Y-78745131D01*
X142999997Y-78745131D01*
X142890342Y-78762498D01*
X142890337Y-78762500D01*
X142791413Y-78812904D01*
X142712904Y-78891413D01*
X142662500Y-78990337D01*
X142662498Y-78990342D01*
X142645131Y-79099996D01*
X142291472Y-79099996D01*
X142337500Y-79009661D01*
X142339030Y-79000003D01*
X142354869Y-78900003D01*
X142354869Y-78899996D01*
X142337501Y-78790342D01*
X142337499Y-78790337D01*
X142287095Y-78691413D01*
X142208586Y-78612904D01*
X142109662Y-78562500D01*
X142109657Y-78562498D01*
X142000003Y-78545131D01*
X141999997Y-78545131D01*
X141890342Y-78562498D01*
X141890337Y-78562500D01*
X141791413Y-78612904D01*
X141712904Y-78691413D01*
X141662500Y-78790337D01*
X141662498Y-78790342D01*
X141645131Y-78899996D01*
X136041055Y-78899996D01*
X136039427Y-78889717D01*
X136039425Y-78889712D01*
X135988733Y-78790223D01*
X135909776Y-78711266D01*
X135810287Y-78660574D01*
X135810282Y-78660572D01*
X135700003Y-78643106D01*
X135699997Y-78643106D01*
X135589717Y-78660572D01*
X135589712Y-78660574D01*
X135490223Y-78711266D01*
X135411266Y-78790223D01*
X135360574Y-78889712D01*
X135360572Y-78889717D01*
X135343106Y-78999996D01*
X109700500Y-78999996D01*
X109700500Y-78199996D01*
X157245131Y-78199996D01*
X157245131Y-78200003D01*
X157262498Y-78309657D01*
X157262500Y-78309662D01*
X157312904Y-78408586D01*
X157312905Y-78408587D01*
X157391413Y-78487095D01*
X157490339Y-78537500D01*
X157490342Y-78537501D01*
X157599997Y-78554869D01*
X157600000Y-78554869D01*
X157600003Y-78554869D01*
X157709657Y-78537501D01*
X157709658Y-78537500D01*
X157709661Y-78537500D01*
X157808587Y-78487095D01*
X157887095Y-78408587D01*
X157937500Y-78309661D01*
X157954869Y-78200000D01*
X157954869Y-78199996D01*
X157937501Y-78090342D01*
X157937499Y-78090337D01*
X157887095Y-77991413D01*
X157808586Y-77912904D01*
X157709662Y-77862500D01*
X157709657Y-77862498D01*
X157600003Y-77845131D01*
X157599997Y-77845131D01*
X157490342Y-77862498D01*
X157490337Y-77862500D01*
X157391413Y-77912904D01*
X157312904Y-77991413D01*
X157262500Y-78090337D01*
X157262498Y-78090342D01*
X157245131Y-78199996D01*
X109700500Y-78199996D01*
X109700500Y-77576287D01*
X117177995Y-77576287D01*
X117177995Y-77576294D01*
X117195362Y-77685948D01*
X117195364Y-77685953D01*
X117206897Y-77708587D01*
X117245769Y-77784878D01*
X117324277Y-77863386D01*
X117423203Y-77913791D01*
X117423206Y-77913792D01*
X117532861Y-77931160D01*
X117532864Y-77931160D01*
X117532867Y-77931160D01*
X117642521Y-77913792D01*
X117642522Y-77913791D01*
X117642525Y-77913791D01*
X117741451Y-77863386D01*
X117819959Y-77784878D01*
X117870364Y-77685952D01*
X117870365Y-77685948D01*
X117887733Y-77576294D01*
X117887733Y-77576287D01*
X117875649Y-77499996D01*
X157818531Y-77499996D01*
X157818531Y-77500003D01*
X157835898Y-77609657D01*
X157835900Y-77609662D01*
X157874772Y-77685953D01*
X157886305Y-77708587D01*
X157964813Y-77787095D01*
X158063739Y-77837500D01*
X158063742Y-77837501D01*
X158173397Y-77854869D01*
X158173400Y-77854869D01*
X158173403Y-77854869D01*
X158283057Y-77837501D01*
X158283058Y-77837500D01*
X158283061Y-77837500D01*
X158381987Y-77787095D01*
X158460495Y-77708587D01*
X158510900Y-77609661D01*
X158516185Y-77576294D01*
X158528269Y-77500003D01*
X158528269Y-77499996D01*
X158510901Y-77390342D01*
X158510899Y-77390337D01*
X158460495Y-77291413D01*
X158381986Y-77212904D01*
X158283062Y-77162500D01*
X158283057Y-77162498D01*
X158173403Y-77145131D01*
X158173397Y-77145131D01*
X158063742Y-77162498D01*
X158063737Y-77162500D01*
X157964813Y-77212904D01*
X157886304Y-77291413D01*
X157835900Y-77390337D01*
X157835898Y-77390342D01*
X157818531Y-77499996D01*
X117875649Y-77499996D01*
X117870365Y-77466633D01*
X117870363Y-77466628D01*
X117819959Y-77367704D01*
X117741450Y-77289195D01*
X117642526Y-77238791D01*
X117642521Y-77238789D01*
X117532867Y-77221422D01*
X117532861Y-77221422D01*
X117423206Y-77238789D01*
X117423201Y-77238791D01*
X117324277Y-77289195D01*
X117245768Y-77367704D01*
X117195364Y-77466628D01*
X117195362Y-77466633D01*
X117177995Y-77576287D01*
X109700500Y-77576287D01*
X109700500Y-77111496D01*
X118345131Y-77111496D01*
X118345131Y-77111503D01*
X118362498Y-77221157D01*
X118362500Y-77221162D01*
X118412904Y-77320086D01*
X118412905Y-77320087D01*
X118491413Y-77398595D01*
X118590339Y-77449000D01*
X118590342Y-77449001D01*
X118699997Y-77466369D01*
X118700000Y-77466369D01*
X118700003Y-77466369D01*
X118809657Y-77449001D01*
X118809658Y-77449000D01*
X118809661Y-77449000D01*
X118908587Y-77398595D01*
X118987095Y-77320087D01*
X119037500Y-77221161D01*
X119039492Y-77208586D01*
X119054869Y-77111503D01*
X119054869Y-77111496D01*
X119037501Y-77001842D01*
X119037499Y-77001837D01*
X118987095Y-76902913D01*
X118908586Y-76824404D01*
X118809662Y-76774000D01*
X118809657Y-76773998D01*
X118700003Y-76756631D01*
X118699997Y-76756631D01*
X118590342Y-76773998D01*
X118590337Y-76774000D01*
X118491413Y-76824404D01*
X118412904Y-76902913D01*
X118362500Y-77001837D01*
X118362498Y-77001842D01*
X118345131Y-77111496D01*
X109700500Y-77111496D01*
X109700500Y-75899996D01*
X118945131Y-75899996D01*
X118945131Y-75900003D01*
X118962498Y-76009657D01*
X118962500Y-76009662D01*
X119008531Y-76100003D01*
X119012905Y-76108587D01*
X119091413Y-76187095D01*
X119190339Y-76237500D01*
X119190342Y-76237501D01*
X119299997Y-76254869D01*
X119300000Y-76254869D01*
X119300002Y-76254869D01*
X119353053Y-76246465D01*
X119388326Y-76240879D01*
X119434840Y-76252045D01*
X119459834Y-76292831D01*
X119460038Y-76294115D01*
X119462500Y-76309662D01*
X119512904Y-76408586D01*
X119591413Y-76487095D01*
X119690337Y-76537499D01*
X119690339Y-76537500D01*
X119753248Y-76547464D01*
X119794033Y-76572457D01*
X119805200Y-76618970D01*
X119798307Y-76662500D01*
X119797661Y-76666576D01*
X119797661Y-76666577D01*
X119815028Y-76776231D01*
X119815030Y-76776236D01*
X119865434Y-76875160D01*
X119865435Y-76875161D01*
X119943943Y-76953669D01*
X120042869Y-77004074D01*
X120042872Y-77004075D01*
X120152527Y-77021443D01*
X120152530Y-77021443D01*
X120152533Y-77021443D01*
X120262187Y-77004075D01*
X120262188Y-77004074D01*
X120262191Y-77004074D01*
X120270195Y-76999996D01*
X155545131Y-76999996D01*
X155545131Y-77000003D01*
X155562498Y-77109657D01*
X155562500Y-77109662D01*
X155612904Y-77208586D01*
X155612905Y-77208587D01*
X155691413Y-77287095D01*
X155790339Y-77337500D01*
X155790342Y-77337501D01*
X155899997Y-77354869D01*
X155900000Y-77354869D01*
X155900003Y-77354869D01*
X156009657Y-77337501D01*
X156009658Y-77337500D01*
X156009661Y-77337500D01*
X156108587Y-77287095D01*
X156187095Y-77208587D01*
X156237500Y-77109661D01*
X156254224Y-77004073D01*
X156254869Y-77000003D01*
X156254869Y-76999996D01*
X156237501Y-76890342D01*
X156237499Y-76890337D01*
X156187095Y-76791413D01*
X156108586Y-76712904D01*
X156009662Y-76662500D01*
X156009657Y-76662498D01*
X155900003Y-76645131D01*
X155899997Y-76645131D01*
X155790342Y-76662498D01*
X155790337Y-76662500D01*
X155691413Y-76712904D01*
X155612904Y-76791413D01*
X155562500Y-76890337D01*
X155562498Y-76890342D01*
X155545131Y-76999996D01*
X120270195Y-76999996D01*
X120361117Y-76953669D01*
X120434608Y-76880178D01*
X120478802Y-76861872D01*
X120522996Y-76880178D01*
X120541413Y-76898595D01*
X120640339Y-76949000D01*
X120640342Y-76949001D01*
X120749997Y-76966369D01*
X120750000Y-76966369D01*
X120750003Y-76966369D01*
X120859657Y-76949001D01*
X120859658Y-76949000D01*
X120859661Y-76949000D01*
X120958587Y-76898595D01*
X120980806Y-76876376D01*
X121025000Y-76858070D01*
X121069194Y-76876376D01*
X121091413Y-76898595D01*
X121190339Y-76949000D01*
X121190342Y-76949001D01*
X121299997Y-76966369D01*
X121300000Y-76966369D01*
X121300003Y-76966369D01*
X121409657Y-76949001D01*
X121409658Y-76949000D01*
X121409661Y-76949000D01*
X121508587Y-76898595D01*
X121587095Y-76820087D01*
X121637500Y-76721161D01*
X121649824Y-76643346D01*
X121674818Y-76602561D01*
X121721332Y-76591394D01*
X121755749Y-76608931D01*
X121791413Y-76644595D01*
X121890339Y-76695000D01*
X121890342Y-76695001D01*
X121999997Y-76712369D01*
X122000000Y-76712369D01*
X122000003Y-76712369D01*
X122109657Y-76695001D01*
X122109658Y-76695000D01*
X122109661Y-76695000D01*
X122208587Y-76644595D01*
X122287095Y-76566087D01*
X122337500Y-76467161D01*
X122337501Y-76467157D01*
X122354869Y-76357503D01*
X122354869Y-76357497D01*
X122342701Y-76280676D01*
X122353867Y-76234162D01*
X122394652Y-76209168D01*
X122449456Y-76200488D01*
X122548382Y-76150083D01*
X122598469Y-76099996D01*
X157843106Y-76099996D01*
X157843106Y-76100003D01*
X157860572Y-76210282D01*
X157860574Y-76210287D01*
X157911208Y-76309662D01*
X157911267Y-76309777D01*
X157990223Y-76388733D01*
X158089714Y-76439426D01*
X158089717Y-76439427D01*
X158199997Y-76456894D01*
X158200000Y-76456894D01*
X158200003Y-76456894D01*
X158310282Y-76439427D01*
X158310283Y-76439426D01*
X158310286Y-76439426D01*
X158409777Y-76388733D01*
X158488733Y-76309777D01*
X158539426Y-76210286D01*
X158539603Y-76209168D01*
X158556894Y-76100003D01*
X158556894Y-76099996D01*
X158539427Y-75989717D01*
X158539425Y-75989712D01*
X158488733Y-75890223D01*
X158409776Y-75811266D01*
X158310287Y-75760574D01*
X158310282Y-75760572D01*
X158200003Y-75743106D01*
X158199997Y-75743106D01*
X158089717Y-75760572D01*
X158089712Y-75760574D01*
X157990223Y-75811266D01*
X157911266Y-75890223D01*
X157860574Y-75989712D01*
X157860572Y-75989717D01*
X157843106Y-76099996D01*
X122598469Y-76099996D01*
X122626890Y-76071575D01*
X122677295Y-75972649D01*
X122686758Y-75912904D01*
X122694664Y-75862991D01*
X122694664Y-75862984D01*
X122677296Y-75753330D01*
X122677294Y-75753325D01*
X122626890Y-75654401D01*
X122548381Y-75575892D01*
X122449457Y-75525488D01*
X122449452Y-75525486D01*
X122339798Y-75508119D01*
X122339792Y-75508119D01*
X122230137Y-75525486D01*
X122230132Y-75525488D01*
X122131208Y-75575892D01*
X122052699Y-75654401D01*
X122002295Y-75753325D01*
X122002293Y-75753330D01*
X121984926Y-75862984D01*
X121984926Y-75862985D01*
X121984926Y-75862988D01*
X121990789Y-75900003D01*
X121997094Y-75939812D01*
X121985926Y-75986326D01*
X121945141Y-76011319D01*
X121890341Y-76019999D01*
X121890337Y-76020000D01*
X121791413Y-76070404D01*
X121712904Y-76148913D01*
X121662500Y-76247837D01*
X121662499Y-76247842D01*
X121650174Y-76325652D01*
X121625180Y-76366438D01*
X121578666Y-76377604D01*
X121544250Y-76360068D01*
X121508586Y-76324404D01*
X121409662Y-76274000D01*
X121409657Y-76273998D01*
X121300003Y-76256631D01*
X121299997Y-76256631D01*
X121190342Y-76273998D01*
X121190337Y-76274000D01*
X121091413Y-76324404D01*
X121069194Y-76346624D01*
X121025000Y-76364930D01*
X120980806Y-76346624D01*
X120958586Y-76324404D01*
X120859662Y-76274000D01*
X120859657Y-76273998D01*
X120750003Y-76256631D01*
X120749997Y-76256631D01*
X120640342Y-76273998D01*
X120640337Y-76274000D01*
X120541413Y-76324404D01*
X120467922Y-76397896D01*
X120423728Y-76416202D01*
X120379534Y-76397896D01*
X120361116Y-76379478D01*
X120262192Y-76329074D01*
X120262188Y-76329073D01*
X120199282Y-76319109D01*
X120158496Y-76294115D01*
X120147330Y-76247602D01*
X120154869Y-76200003D01*
X120154869Y-76199996D01*
X120137501Y-76090342D01*
X120137499Y-76090337D01*
X120087095Y-75991413D01*
X120008586Y-75912904D01*
X119909662Y-75862500D01*
X119909657Y-75862498D01*
X119800003Y-75845131D01*
X119800001Y-75845131D01*
X119800000Y-75845131D01*
X119727803Y-75856566D01*
X119711672Y-75859121D01*
X119665158Y-75847953D01*
X119640165Y-75807169D01*
X119637500Y-75790339D01*
X119637498Y-75790335D01*
X119637498Y-75790334D01*
X119587095Y-75691413D01*
X119508586Y-75612904D01*
X119409662Y-75562500D01*
X119409657Y-75562498D01*
X119300003Y-75545131D01*
X119299997Y-75545131D01*
X119190342Y-75562498D01*
X119190337Y-75562500D01*
X119091413Y-75612904D01*
X119012904Y-75691413D01*
X118962500Y-75790337D01*
X118962498Y-75790342D01*
X118945131Y-75899996D01*
X109700500Y-75899996D01*
X109700500Y-75099996D01*
X122445131Y-75099996D01*
X122445131Y-75100003D01*
X122462498Y-75209657D01*
X122462500Y-75209662D01*
X122512904Y-75308586D01*
X122512905Y-75308587D01*
X122591413Y-75387095D01*
X122690339Y-75437500D01*
X122690342Y-75437501D01*
X122799997Y-75454869D01*
X122800000Y-75454869D01*
X122800003Y-75454869D01*
X122909657Y-75437501D01*
X122909658Y-75437500D01*
X122909661Y-75437500D01*
X123008587Y-75387095D01*
X123087095Y-75308587D01*
X123137500Y-75209661D01*
X123139030Y-75200003D01*
X123139031Y-75199996D01*
X165845131Y-75199996D01*
X165845131Y-75200003D01*
X165862498Y-75309657D01*
X165862500Y-75309662D01*
X165912904Y-75408586D01*
X165912905Y-75408587D01*
X165991413Y-75487095D01*
X166090339Y-75537500D01*
X166090342Y-75537501D01*
X166199997Y-75554869D01*
X166200000Y-75554869D01*
X166200003Y-75554869D01*
X166309657Y-75537501D01*
X166309658Y-75537500D01*
X166309661Y-75537500D01*
X166408587Y-75487095D01*
X166487095Y-75408587D01*
X166537500Y-75309661D01*
X166537670Y-75308587D01*
X166554869Y-75200003D01*
X166554869Y-75199996D01*
X170645131Y-75199996D01*
X170645131Y-75200003D01*
X170662498Y-75309657D01*
X170662500Y-75309662D01*
X170712904Y-75408586D01*
X170712905Y-75408587D01*
X170791413Y-75487095D01*
X170890339Y-75537500D01*
X170890342Y-75537501D01*
X170999997Y-75554869D01*
X171000000Y-75554869D01*
X171000003Y-75554869D01*
X171109657Y-75537501D01*
X171109658Y-75537500D01*
X171109661Y-75537500D01*
X171208587Y-75487095D01*
X171287095Y-75408587D01*
X171337500Y-75309661D01*
X171337670Y-75308587D01*
X171354869Y-75200003D01*
X171354869Y-75199996D01*
X171337501Y-75090342D01*
X171337499Y-75090337D01*
X171287095Y-74991413D01*
X171208586Y-74912904D01*
X171109662Y-74862500D01*
X171109657Y-74862498D01*
X171000003Y-74845131D01*
X170999997Y-74845131D01*
X170890342Y-74862498D01*
X170890337Y-74862500D01*
X170791413Y-74912904D01*
X170712904Y-74991413D01*
X170662500Y-75090337D01*
X170662498Y-75090342D01*
X170645131Y-75199996D01*
X166554869Y-75199996D01*
X166537501Y-75090342D01*
X166537499Y-75090337D01*
X166487095Y-74991413D01*
X166408586Y-74912904D01*
X166309662Y-74862500D01*
X166309657Y-74862498D01*
X166200003Y-74845131D01*
X166199997Y-74845131D01*
X166090342Y-74862498D01*
X166090337Y-74862500D01*
X165991413Y-74912904D01*
X165912904Y-74991413D01*
X165862500Y-75090337D01*
X165862498Y-75090342D01*
X165845131Y-75199996D01*
X123139031Y-75199996D01*
X123154869Y-75100003D01*
X123154869Y-75099996D01*
X123137501Y-74990342D01*
X123137499Y-74990337D01*
X123087095Y-74891413D01*
X123008586Y-74812904D01*
X122909662Y-74762500D01*
X122909657Y-74762498D01*
X122800003Y-74745131D01*
X122799997Y-74745131D01*
X122690342Y-74762498D01*
X122690337Y-74762500D01*
X122591413Y-74812904D01*
X122512904Y-74891413D01*
X122462500Y-74990337D01*
X122462498Y-74990342D01*
X122445131Y-75099996D01*
X109700500Y-75099996D01*
X109700500Y-74692999D01*
X180101490Y-74692999D01*
X180101490Y-74693000D01*
X180571913Y-74693000D01*
X180565444Y-74704204D01*
X180545000Y-74780504D01*
X180545000Y-74859496D01*
X180565444Y-74935796D01*
X180571913Y-74947000D01*
X180101490Y-74947000D01*
X180119975Y-75039932D01*
X180119975Y-75039933D01*
X180176814Y-75177153D01*
X180176815Y-75177155D01*
X180259329Y-75300646D01*
X180364353Y-75405670D01*
X180487844Y-75488184D01*
X180487846Y-75488185D01*
X180625067Y-75545024D01*
X180770737Y-75573999D01*
X180770738Y-75574000D01*
X181268000Y-75574000D01*
X181268000Y-75120000D01*
X181522000Y-75120000D01*
X181522000Y-75574000D01*
X182019262Y-75574000D01*
X182019262Y-75573999D01*
X182164932Y-75545024D01*
X182164933Y-75545024D01*
X182302153Y-75488185D01*
X182302155Y-75488184D01*
X182425646Y-75405670D01*
X182530670Y-75300646D01*
X182613184Y-75177155D01*
X182613185Y-75177153D01*
X182670024Y-75039933D01*
X182670024Y-75039932D01*
X182688510Y-74947000D01*
X182218087Y-74947000D01*
X182224556Y-74935796D01*
X182245000Y-74859496D01*
X182245000Y-74780504D01*
X182224556Y-74704204D01*
X182218087Y-74693000D01*
X182688510Y-74693000D01*
X182688509Y-74692999D01*
X184531490Y-74692999D01*
X184531490Y-74693000D01*
X185001913Y-74693000D01*
X184995444Y-74704204D01*
X184975000Y-74780504D01*
X184975000Y-74859496D01*
X184995444Y-74935796D01*
X185001913Y-74947000D01*
X184531490Y-74947000D01*
X184549975Y-75039932D01*
X184549975Y-75039933D01*
X184606814Y-75177153D01*
X184606815Y-75177155D01*
X184689329Y-75300646D01*
X184794353Y-75405670D01*
X184917844Y-75488184D01*
X184917846Y-75488185D01*
X185055067Y-75545024D01*
X185200737Y-75573999D01*
X185200738Y-75574000D01*
X185448000Y-75574000D01*
X185448000Y-75120000D01*
X185702000Y-75120000D01*
X185702000Y-75574000D01*
X185949262Y-75574000D01*
X185949262Y-75573999D01*
X186094932Y-75545024D01*
X186094933Y-75545024D01*
X186232153Y-75488185D01*
X186232155Y-75488184D01*
X186355646Y-75405670D01*
X186460670Y-75300646D01*
X186543184Y-75177155D01*
X186543185Y-75177153D01*
X186600024Y-75039933D01*
X186600024Y-75039932D01*
X186618510Y-74947000D01*
X186148087Y-74947000D01*
X186154556Y-74935796D01*
X186175000Y-74859496D01*
X186175000Y-74780504D01*
X186154556Y-74704204D01*
X186148087Y-74693000D01*
X186618510Y-74693000D01*
X186618509Y-74692999D01*
X186600024Y-74600067D01*
X186600024Y-74600066D01*
X186543185Y-74462846D01*
X186543184Y-74462844D01*
X186460670Y-74339353D01*
X186355646Y-74234329D01*
X186232155Y-74151815D01*
X186232153Y-74151814D01*
X186094932Y-74094975D01*
X185949262Y-74066000D01*
X185702000Y-74066000D01*
X185702000Y-74520000D01*
X185448000Y-74520000D01*
X185448000Y-74066000D01*
X185200738Y-74066000D01*
X185055067Y-74094975D01*
X185055066Y-74094975D01*
X184917846Y-74151814D01*
X184917844Y-74151815D01*
X184794353Y-74234329D01*
X184689329Y-74339353D01*
X184606815Y-74462844D01*
X184606814Y-74462846D01*
X184549975Y-74600066D01*
X184549975Y-74600067D01*
X184531490Y-74692999D01*
X182688509Y-74692999D01*
X182670024Y-74600067D01*
X182670024Y-74600066D01*
X182613185Y-74462846D01*
X182613184Y-74462844D01*
X182530670Y-74339353D01*
X182425646Y-74234329D01*
X182302155Y-74151815D01*
X182302153Y-74151814D01*
X182164933Y-74094975D01*
X182039058Y-74069937D01*
X181999285Y-74043361D01*
X181989953Y-73996444D01*
X182016529Y-73956671D01*
X182035068Y-73948270D01*
X182117135Y-73926281D01*
X182248365Y-73850515D01*
X182355515Y-73743365D01*
X182431281Y-73612135D01*
X182470500Y-73465766D01*
X182470500Y-73314234D01*
X182431281Y-73167865D01*
X182355515Y-73036635D01*
X182355513Y-73036633D01*
X182355510Y-73036629D01*
X182248370Y-72929489D01*
X182248366Y-72929486D01*
X182248365Y-72929485D01*
X182146840Y-72870869D01*
X182117134Y-72853718D01*
X182117131Y-72853717D01*
X181970772Y-72814501D01*
X181970767Y-72814500D01*
X181970766Y-72814500D01*
X181819234Y-72814500D01*
X181819233Y-72814500D01*
X181819227Y-72814501D01*
X181672868Y-72853717D01*
X181672865Y-72853718D01*
X181541633Y-72929486D01*
X181541629Y-72929489D01*
X181434489Y-73036629D01*
X181434486Y-73036633D01*
X181358718Y-73167865D01*
X181358717Y-73167868D01*
X181319501Y-73314227D01*
X181319500Y-73314235D01*
X181319500Y-73465764D01*
X181319501Y-73465772D01*
X181358717Y-73612131D01*
X181358718Y-73612134D01*
X181383401Y-73654885D01*
X181431099Y-73737501D01*
X181434486Y-73743366D01*
X181434489Y-73743370D01*
X181541629Y-73850510D01*
X181541633Y-73850513D01*
X181541635Y-73850515D01*
X181672862Y-73926279D01*
X181672865Y-73926281D01*
X181672868Y-73926282D01*
X181735745Y-73943130D01*
X181773696Y-73972250D01*
X181779939Y-74019676D01*
X181750819Y-74057627D01*
X181719569Y-74066000D01*
X181522000Y-74066000D01*
X181522000Y-74520000D01*
X181268000Y-74520000D01*
X181268000Y-74066000D01*
X180770738Y-74066000D01*
X180625067Y-74094975D01*
X180625066Y-74094975D01*
X180487846Y-74151814D01*
X180487844Y-74151815D01*
X180364353Y-74234329D01*
X180259329Y-74339353D01*
X180176815Y-74462844D01*
X180176814Y-74462846D01*
X180119975Y-74600066D01*
X180119975Y-74600067D01*
X180101490Y-74692999D01*
X109700500Y-74692999D01*
X109700500Y-73699996D01*
X143545131Y-73699996D01*
X143545131Y-73700003D01*
X143562498Y-73809657D01*
X143562500Y-73809662D01*
X143612904Y-73908586D01*
X143612905Y-73908587D01*
X143691413Y-73987095D01*
X143790339Y-74037500D01*
X143790342Y-74037501D01*
X143899997Y-74054869D01*
X143900000Y-74054869D01*
X143900003Y-74054869D01*
X144009657Y-74037501D01*
X144009658Y-74037500D01*
X144009661Y-74037500D01*
X144108587Y-73987095D01*
X144187095Y-73908587D01*
X144237500Y-73809661D01*
X144237644Y-73808753D01*
X144254869Y-73700003D01*
X144254869Y-73699996D01*
X144237501Y-73590342D01*
X144237499Y-73590337D01*
X144187095Y-73491413D01*
X144108586Y-73412904D01*
X144009662Y-73362500D01*
X144009657Y-73362498D01*
X143900003Y-73345131D01*
X143899997Y-73345131D01*
X143790342Y-73362498D01*
X143790337Y-73362500D01*
X143691413Y-73412904D01*
X143612904Y-73491413D01*
X143562500Y-73590337D01*
X143562498Y-73590342D01*
X143545131Y-73699996D01*
X109700500Y-73699996D01*
X109700500Y-70999996D01*
X113745131Y-70999996D01*
X113745131Y-71000003D01*
X113762498Y-71109657D01*
X113762500Y-71109662D01*
X113812904Y-71208586D01*
X113812905Y-71208587D01*
X113891413Y-71287095D01*
X113990339Y-71337500D01*
X113990342Y-71337501D01*
X114099997Y-71354869D01*
X114100000Y-71354869D01*
X114100003Y-71354869D01*
X114209657Y-71337501D01*
X114209658Y-71337500D01*
X114209661Y-71337500D01*
X114274479Y-71304473D01*
X114322164Y-71300721D01*
X114358539Y-71331787D01*
X114361846Y-71373754D01*
X114363269Y-71373980D01*
X114345131Y-71488496D01*
X114345131Y-71488503D01*
X114362498Y-71598157D01*
X114362500Y-71598162D01*
X114412904Y-71697086D01*
X114491413Y-71775595D01*
X114590337Y-71825999D01*
X114590339Y-71826000D01*
X114668377Y-71838360D01*
X114709161Y-71863353D01*
X114720329Y-71909867D01*
X114714674Y-71945575D01*
X114711852Y-71963390D01*
X114711852Y-71963391D01*
X114729219Y-72073045D01*
X114729221Y-72073050D01*
X114777825Y-72168441D01*
X114779626Y-72171975D01*
X114858134Y-72250483D01*
X114957060Y-72300888D01*
X114957063Y-72300889D01*
X115066718Y-72318257D01*
X115066721Y-72318257D01*
X115066724Y-72318257D01*
X115176378Y-72300889D01*
X115176379Y-72300888D01*
X115176382Y-72300888D01*
X115275308Y-72250483D01*
X115295373Y-72230417D01*
X115339566Y-72212111D01*
X115383760Y-72230416D01*
X115395256Y-72246239D01*
X115395576Y-72246868D01*
X115474085Y-72325377D01*
X115577393Y-72378015D01*
X115576070Y-72380611D01*
X115605203Y-72405443D01*
X115609004Y-72453127D01*
X115593739Y-72478067D01*
X115546647Y-72525159D01*
X115496244Y-72624081D01*
X115496242Y-72624086D01*
X115478875Y-72733740D01*
X115478875Y-72733747D01*
X115496242Y-72843401D01*
X115496244Y-72843406D01*
X115546648Y-72942330D01*
X115546649Y-72942331D01*
X115625157Y-73020839D01*
X115724083Y-73071244D01*
X115724086Y-73071245D01*
X115833741Y-73088613D01*
X115833744Y-73088613D01*
X115833747Y-73088613D01*
X115943401Y-73071245D01*
X115943402Y-73071244D01*
X115943405Y-73071244D01*
X116042331Y-73020839D01*
X116058672Y-73004498D01*
X144945131Y-73004498D01*
X144945131Y-73004505D01*
X144962498Y-73114159D01*
X144962500Y-73114164D01*
X145012811Y-73212905D01*
X145012905Y-73213089D01*
X145091413Y-73291597D01*
X145190339Y-73342002D01*
X145190342Y-73342003D01*
X145299997Y-73359371D01*
X145300000Y-73359371D01*
X145300003Y-73359371D01*
X145409657Y-73342003D01*
X145409658Y-73342002D01*
X145409661Y-73342002D01*
X145508587Y-73291597D01*
X145587095Y-73213089D01*
X145637500Y-73114163D01*
X145637501Y-73114159D01*
X145654869Y-73004505D01*
X145654869Y-73004498D01*
X145637501Y-72894844D01*
X145637499Y-72894839D01*
X145587095Y-72795915D01*
X145508586Y-72717406D01*
X145409662Y-72667002D01*
X145409657Y-72667000D01*
X145300003Y-72649633D01*
X145299997Y-72649633D01*
X145190342Y-72667000D01*
X145190337Y-72667002D01*
X145091413Y-72717406D01*
X145012904Y-72795915D01*
X144962500Y-72894839D01*
X144962498Y-72894844D01*
X144945131Y-73004498D01*
X116058672Y-73004498D01*
X116120839Y-72942331D01*
X116171244Y-72843405D01*
X116175822Y-72814501D01*
X116188613Y-72733747D01*
X116188613Y-72733740D01*
X116171245Y-72624086D01*
X116171243Y-72624081D01*
X116120839Y-72525157D01*
X116111678Y-72515996D01*
X145845131Y-72515996D01*
X145845131Y-72516003D01*
X145862498Y-72625657D01*
X145862500Y-72625662D01*
X145912904Y-72724586D01*
X145912905Y-72724587D01*
X145991413Y-72803095D01*
X146090339Y-72853500D01*
X146090342Y-72853501D01*
X146199997Y-72870869D01*
X146200000Y-72870869D01*
X146200003Y-72870869D01*
X146309657Y-72853501D01*
X146309658Y-72853500D01*
X146309661Y-72853500D01*
X146408587Y-72803095D01*
X146487095Y-72724587D01*
X146537500Y-72625661D01*
X146537501Y-72625657D01*
X146554869Y-72516003D01*
X146554869Y-72515996D01*
X146537501Y-72406342D01*
X146537499Y-72406337D01*
X146487095Y-72307413D01*
X146408586Y-72228904D01*
X146309662Y-72178500D01*
X146309657Y-72178498D01*
X146200003Y-72161131D01*
X146199997Y-72161131D01*
X146090342Y-72178498D01*
X146090337Y-72178500D01*
X145991413Y-72228904D01*
X145912904Y-72307413D01*
X145862500Y-72406337D01*
X145862498Y-72406342D01*
X145845131Y-72515996D01*
X116111678Y-72515996D01*
X116042330Y-72446648D01*
X115939023Y-72394011D01*
X115940338Y-72391430D01*
X115911179Y-72366518D01*
X115907433Y-72318829D01*
X115922673Y-72293962D01*
X115969767Y-72246869D01*
X116020172Y-72147943D01*
X116021880Y-72137161D01*
X116037541Y-72038285D01*
X116037541Y-72038278D01*
X116035833Y-72027496D01*
X146545131Y-72027496D01*
X146545131Y-72027503D01*
X146562498Y-72137157D01*
X146562500Y-72137162D01*
X146612904Y-72236086D01*
X146612905Y-72236087D01*
X146691413Y-72314595D01*
X146790339Y-72365000D01*
X146790342Y-72365001D01*
X146899997Y-72382369D01*
X146900000Y-72382369D01*
X146900003Y-72382369D01*
X147009657Y-72365001D01*
X147009658Y-72365000D01*
X147009661Y-72365000D01*
X147108587Y-72314595D01*
X147187095Y-72236087D01*
X147237500Y-72137161D01*
X147241342Y-72112904D01*
X147243387Y-72099996D01*
X157245131Y-72099996D01*
X157245131Y-72100003D01*
X157262498Y-72209657D01*
X157262500Y-72209662D01*
X157312904Y-72308586D01*
X157312905Y-72308587D01*
X157391413Y-72387095D01*
X157490339Y-72437500D01*
X157490342Y-72437501D01*
X157599997Y-72454869D01*
X157600000Y-72454869D01*
X157600003Y-72454869D01*
X157709657Y-72437501D01*
X157709658Y-72437500D01*
X157709661Y-72437500D01*
X157808587Y-72387095D01*
X157838437Y-72357245D01*
X157882631Y-72338939D01*
X157926825Y-72357245D01*
X157942635Y-72395415D01*
X157944361Y-72395142D01*
X157962498Y-72509657D01*
X157962500Y-72509662D01*
X158012904Y-72608586D01*
X158013928Y-72609610D01*
X158014299Y-72610506D01*
X158015795Y-72612565D01*
X158015300Y-72612924D01*
X158032234Y-72653804D01*
X158013928Y-72697998D01*
X157998114Y-72709489D01*
X157991414Y-72712903D01*
X157912904Y-72791413D01*
X157862500Y-72890337D01*
X157862498Y-72890342D01*
X157845131Y-72999996D01*
X157845131Y-73000003D01*
X157862498Y-73109657D01*
X157864020Y-73114339D01*
X157861858Y-73115041D01*
X157864984Y-73154885D01*
X157833924Y-73191243D01*
X157791413Y-73212904D01*
X157712904Y-73291413D01*
X157662500Y-73390337D01*
X157662498Y-73390342D01*
X157645131Y-73499996D01*
X157645131Y-73500003D01*
X157662498Y-73609657D01*
X157664020Y-73614339D01*
X157661858Y-73615041D01*
X157664984Y-73654885D01*
X157633924Y-73691243D01*
X157591413Y-73712904D01*
X157512904Y-73791413D01*
X157462500Y-73890337D01*
X157462498Y-73890342D01*
X157445131Y-73999996D01*
X157445131Y-74000003D01*
X157462498Y-74109657D01*
X157462500Y-74109662D01*
X157483978Y-74151815D01*
X157512905Y-74208587D01*
X157591413Y-74287095D01*
X157690339Y-74337500D01*
X157690342Y-74337501D01*
X157799997Y-74354869D01*
X157800000Y-74354869D01*
X157800003Y-74354869D01*
X157909657Y-74337501D01*
X157909658Y-74337500D01*
X157909661Y-74337500D01*
X158008587Y-74287095D01*
X158087095Y-74208587D01*
X158137500Y-74109661D01*
X158143792Y-74069937D01*
X158154869Y-74000003D01*
X158154869Y-73999996D01*
X158137501Y-73890342D01*
X158135980Y-73885661D01*
X158138145Y-73884957D01*
X158135006Y-73845137D01*
X158166064Y-73808760D01*
X158208587Y-73787095D01*
X158287095Y-73708587D01*
X158337500Y-73609661D01*
X158337670Y-73608587D01*
X158354869Y-73500003D01*
X158354869Y-73499996D01*
X158339030Y-73399996D01*
X173345131Y-73399996D01*
X173345131Y-73400003D01*
X173362498Y-73509657D01*
X173362500Y-73509662D01*
X173412904Y-73608586D01*
X173412905Y-73608587D01*
X173491413Y-73687095D01*
X173590339Y-73737500D01*
X173590342Y-73737501D01*
X173699997Y-73754869D01*
X173700000Y-73754869D01*
X173700003Y-73754869D01*
X173809657Y-73737501D01*
X173809658Y-73737500D01*
X173809661Y-73737500D01*
X173908587Y-73687095D01*
X173987095Y-73608587D01*
X174037500Y-73509661D01*
X174039030Y-73500003D01*
X174054869Y-73400003D01*
X174054869Y-73399996D01*
X174037501Y-73290342D01*
X174037499Y-73290337D01*
X173987095Y-73191413D01*
X173908586Y-73112904D01*
X173809662Y-73062500D01*
X173809657Y-73062498D01*
X173700003Y-73045131D01*
X173699997Y-73045131D01*
X173590342Y-73062498D01*
X173590337Y-73062500D01*
X173491413Y-73112904D01*
X173412904Y-73191413D01*
X173362500Y-73290337D01*
X173362498Y-73290342D01*
X173345131Y-73399996D01*
X158339030Y-73399996D01*
X158337501Y-73390342D01*
X158335980Y-73385661D01*
X158338145Y-73384957D01*
X158335006Y-73345137D01*
X158366064Y-73308760D01*
X158408587Y-73287095D01*
X158487095Y-73208587D01*
X158537500Y-73109661D01*
X158547721Y-73045131D01*
X158554869Y-73000003D01*
X158554869Y-72999996D01*
X158537501Y-72890342D01*
X158537499Y-72890337D01*
X158487095Y-72791413D01*
X158486070Y-72790388D01*
X158485697Y-72789489D01*
X158484205Y-72787435D01*
X158484698Y-72787076D01*
X158467764Y-72746194D01*
X158486070Y-72702000D01*
X158501890Y-72690506D01*
X158508587Y-72687095D01*
X158587095Y-72608587D01*
X158637500Y-72509661D01*
X158637501Y-72509657D01*
X158638840Y-72501204D01*
X174646329Y-72501204D01*
X174646329Y-72501211D01*
X174663696Y-72610865D01*
X174663698Y-72610870D01*
X174704273Y-72690503D01*
X174714103Y-72709795D01*
X174792611Y-72788303D01*
X174891537Y-72838708D01*
X174891540Y-72838709D01*
X175001195Y-72856077D01*
X175001198Y-72856077D01*
X175001201Y-72856077D01*
X175110855Y-72838709D01*
X175110856Y-72838708D01*
X175110859Y-72838708D01*
X175209785Y-72788303D01*
X175288293Y-72709795D01*
X175338698Y-72610869D01*
X175338699Y-72610865D01*
X175356067Y-72501211D01*
X175356067Y-72501204D01*
X175338699Y-72391550D01*
X175338697Y-72391545D01*
X175288293Y-72292621D01*
X175209784Y-72214112D01*
X175110860Y-72163708D01*
X175110855Y-72163706D01*
X175001201Y-72146339D01*
X175001195Y-72146339D01*
X174891540Y-72163706D01*
X174891535Y-72163708D01*
X174792611Y-72214112D01*
X174714102Y-72292621D01*
X174663698Y-72391545D01*
X174663696Y-72391550D01*
X174646329Y-72501204D01*
X158638840Y-72501204D01*
X158654869Y-72400003D01*
X158654869Y-72399996D01*
X158637501Y-72290342D01*
X158637499Y-72290337D01*
X158587095Y-72191413D01*
X158508586Y-72112904D01*
X158409662Y-72062500D01*
X158409657Y-72062498D01*
X158300003Y-72045131D01*
X158299997Y-72045131D01*
X158190342Y-72062498D01*
X158190337Y-72062500D01*
X158091413Y-72112904D01*
X158061563Y-72142755D01*
X158017369Y-72161061D01*
X157973175Y-72142755D01*
X157957364Y-72104584D01*
X157955639Y-72104858D01*
X157937501Y-71990342D01*
X157937499Y-71990337D01*
X157901120Y-71918938D01*
X157897367Y-71871250D01*
X157928434Y-71834876D01*
X157976122Y-71831123D01*
X157985185Y-71834878D01*
X157990336Y-71837503D01*
X157990342Y-71837505D01*
X158099997Y-71854873D01*
X158100000Y-71854873D01*
X158100003Y-71854873D01*
X158209657Y-71837505D01*
X158209658Y-71837504D01*
X158209661Y-71837504D01*
X158308587Y-71787099D01*
X158387095Y-71708591D01*
X158437500Y-71609665D01*
X158437500Y-71609662D01*
X158437501Y-71609661D01*
X158454869Y-71500007D01*
X158454869Y-71500000D01*
X158454868Y-71499996D01*
X165545131Y-71499996D01*
X165545131Y-71500003D01*
X165562498Y-71609657D01*
X165562500Y-71609662D01*
X165607045Y-71697087D01*
X165612905Y-71708587D01*
X165691413Y-71787095D01*
X165790339Y-71837500D01*
X165790342Y-71837501D01*
X165899997Y-71854869D01*
X165900000Y-71854869D01*
X165900003Y-71854869D01*
X166009657Y-71837501D01*
X166009658Y-71837500D01*
X166009661Y-71837500D01*
X166012784Y-71835909D01*
X173929930Y-71835909D01*
X173929930Y-71835916D01*
X173947297Y-71945570D01*
X173947299Y-71945575D01*
X173994537Y-72038285D01*
X173997704Y-72044500D01*
X174076212Y-72123008D01*
X174175138Y-72173413D01*
X174175141Y-72173414D01*
X174284796Y-72190782D01*
X174284799Y-72190782D01*
X174284802Y-72190782D01*
X174394456Y-72173414D01*
X174394457Y-72173413D01*
X174394460Y-72173413D01*
X174493386Y-72123008D01*
X174571894Y-72044500D01*
X174622299Y-71945574D01*
X174624984Y-71928624D01*
X174639668Y-71835916D01*
X174639668Y-71835909D01*
X174622300Y-71726255D01*
X174622298Y-71726250D01*
X174571894Y-71627326D01*
X174493385Y-71548817D01*
X174394461Y-71498413D01*
X174394456Y-71498411D01*
X174284802Y-71481044D01*
X174284796Y-71481044D01*
X174175141Y-71498411D01*
X174175136Y-71498413D01*
X174076212Y-71548817D01*
X173997703Y-71627326D01*
X173947299Y-71726250D01*
X173947297Y-71726255D01*
X173929930Y-71835909D01*
X166012784Y-71835909D01*
X166108587Y-71787095D01*
X166187095Y-71708587D01*
X166237500Y-71609661D01*
X166237681Y-71608519D01*
X166254869Y-71500003D01*
X166254869Y-71499996D01*
X166237501Y-71390342D01*
X166237499Y-71390337D01*
X166187095Y-71291413D01*
X166108586Y-71212904D01*
X166009662Y-71162500D01*
X166009657Y-71162498D01*
X165900003Y-71145131D01*
X165899997Y-71145131D01*
X165790342Y-71162498D01*
X165790337Y-71162500D01*
X165691413Y-71212904D01*
X165612904Y-71291413D01*
X165562500Y-71390337D01*
X165562498Y-71390342D01*
X165545131Y-71499996D01*
X158454868Y-71499996D01*
X158437501Y-71390346D01*
X158437499Y-71390341D01*
X158387095Y-71291417D01*
X158308586Y-71212908D01*
X158209662Y-71162504D01*
X158209657Y-71162502D01*
X158100003Y-71145135D01*
X158099997Y-71145135D01*
X157990342Y-71162502D01*
X157990337Y-71162504D01*
X157891413Y-71212908D01*
X157812904Y-71291417D01*
X157762500Y-71390341D01*
X157762498Y-71390346D01*
X157745131Y-71500000D01*
X157745131Y-71500007D01*
X157762498Y-71609661D01*
X157762500Y-71609666D01*
X157798879Y-71681065D01*
X157802632Y-71728753D01*
X157771565Y-71765127D01*
X157723877Y-71768880D01*
X157714820Y-71765128D01*
X157709661Y-71762500D01*
X157709660Y-71762499D01*
X157709659Y-71762499D01*
X157709657Y-71762498D01*
X157600003Y-71745131D01*
X157599997Y-71745131D01*
X157490342Y-71762498D01*
X157490337Y-71762500D01*
X157391413Y-71812904D01*
X157312904Y-71891413D01*
X157262500Y-71990337D01*
X157262498Y-71990342D01*
X157245131Y-72099996D01*
X147243387Y-72099996D01*
X147254869Y-72027503D01*
X147254869Y-72027496D01*
X147237501Y-71917842D01*
X147237499Y-71917837D01*
X147187095Y-71818913D01*
X147108586Y-71740404D01*
X147009662Y-71690000D01*
X147009657Y-71689998D01*
X146900003Y-71672631D01*
X146899997Y-71672631D01*
X146790342Y-71689998D01*
X146790337Y-71690000D01*
X146691413Y-71740404D01*
X146612904Y-71818913D01*
X146562500Y-71917837D01*
X146562498Y-71917842D01*
X146545131Y-72027496D01*
X116035833Y-72027496D01*
X116020173Y-71928624D01*
X116020171Y-71928619D01*
X115969767Y-71829695D01*
X115891258Y-71751186D01*
X115792334Y-71700782D01*
X115792329Y-71700780D01*
X115682675Y-71683413D01*
X115682669Y-71683413D01*
X115573014Y-71700780D01*
X115573009Y-71700782D01*
X115474085Y-71751186D01*
X115454018Y-71771253D01*
X115409824Y-71789558D01*
X115365630Y-71771251D01*
X115354134Y-71755426D01*
X115353815Y-71754800D01*
X115275307Y-71676292D01*
X115176383Y-71625888D01*
X115176379Y-71625887D01*
X115098344Y-71613527D01*
X115057558Y-71588533D01*
X115046392Y-71542019D01*
X115054869Y-71488502D01*
X115054869Y-71488496D01*
X115037501Y-71378842D01*
X115037499Y-71378837D01*
X114987095Y-71279913D01*
X114908586Y-71201404D01*
X114809662Y-71151000D01*
X114809657Y-71150998D01*
X114700003Y-71133631D01*
X114699997Y-71133631D01*
X114590342Y-71150998D01*
X114590337Y-71151000D01*
X114525522Y-71184025D01*
X114477834Y-71187778D01*
X114441460Y-71156711D01*
X114438157Y-71114745D01*
X114436731Y-71114520D01*
X114454869Y-71000003D01*
X114454869Y-70999996D01*
X114437501Y-70890342D01*
X114437499Y-70890337D01*
X114387095Y-70791413D01*
X114308586Y-70712904D01*
X114209662Y-70662500D01*
X114209657Y-70662498D01*
X114100003Y-70645131D01*
X114099997Y-70645131D01*
X113990342Y-70662498D01*
X113990337Y-70662500D01*
X113891413Y-70712904D01*
X113812904Y-70791413D01*
X113762500Y-70890337D01*
X113762498Y-70890342D01*
X113745131Y-70999996D01*
X109700500Y-70999996D01*
X109700500Y-70599996D01*
X161443106Y-70599996D01*
X161443106Y-70600003D01*
X161460572Y-70710282D01*
X161460574Y-70710287D01*
X161461908Y-70712905D01*
X161511267Y-70809777D01*
X161590223Y-70888733D01*
X161689714Y-70939426D01*
X161689717Y-70939427D01*
X161799997Y-70956894D01*
X161800000Y-70956894D01*
X161800003Y-70956894D01*
X161910282Y-70939427D01*
X161910283Y-70939426D01*
X161910286Y-70939426D01*
X162009777Y-70888733D01*
X162088733Y-70809777D01*
X162139426Y-70710286D01*
X162156894Y-70600000D01*
X162156894Y-70599996D01*
X162139427Y-70489717D01*
X162139425Y-70489712D01*
X162088733Y-70390223D01*
X162009776Y-70311266D01*
X161910287Y-70260574D01*
X161910282Y-70260572D01*
X161800003Y-70243106D01*
X161799997Y-70243106D01*
X161689717Y-70260572D01*
X161689712Y-70260574D01*
X161590223Y-70311266D01*
X161511266Y-70390223D01*
X161460574Y-70489712D01*
X161460572Y-70489717D01*
X161443106Y-70599996D01*
X109700500Y-70599996D01*
X109700500Y-69899996D01*
X121745131Y-69899996D01*
X121745131Y-69900003D01*
X121762498Y-70009657D01*
X121762500Y-70009662D01*
X121812904Y-70108586D01*
X121812905Y-70108587D01*
X121891413Y-70187095D01*
X121990339Y-70237500D01*
X121990342Y-70237501D01*
X122099997Y-70254869D01*
X122100000Y-70254869D01*
X122100003Y-70254869D01*
X122209657Y-70237501D01*
X122209658Y-70237500D01*
X122209661Y-70237500D01*
X122308587Y-70187095D01*
X122387095Y-70108587D01*
X122437500Y-70009661D01*
X122437501Y-70009657D01*
X122454869Y-69900003D01*
X122454869Y-69899996D01*
X140245131Y-69899996D01*
X140245131Y-69900003D01*
X140262498Y-70009657D01*
X140262500Y-70009662D01*
X140312904Y-70108586D01*
X140312905Y-70108587D01*
X140391413Y-70187095D01*
X140490339Y-70237500D01*
X140490342Y-70237501D01*
X140599997Y-70254869D01*
X140600000Y-70254869D01*
X140600003Y-70254869D01*
X140709657Y-70237501D01*
X140709658Y-70237500D01*
X140709661Y-70237500D01*
X140808587Y-70187095D01*
X140887095Y-70108587D01*
X140937500Y-70009661D01*
X140937501Y-70009657D01*
X140954869Y-69900003D01*
X140954869Y-69899997D01*
X140946950Y-69850003D01*
X140946949Y-69849996D01*
X163595131Y-69849996D01*
X163595131Y-69850003D01*
X163612498Y-69959657D01*
X163612500Y-69959662D01*
X163662904Y-70058586D01*
X163662905Y-70058587D01*
X163741413Y-70137095D01*
X163840339Y-70187500D01*
X163840342Y-70187501D01*
X163949997Y-70204869D01*
X163950000Y-70204869D01*
X163950003Y-70204869D01*
X164059657Y-70187501D01*
X164059658Y-70187500D01*
X164059661Y-70187500D01*
X164158587Y-70137095D01*
X164237095Y-70058587D01*
X164287500Y-69959661D01*
X164291010Y-69937500D01*
X164304869Y-69850003D01*
X164304869Y-69849996D01*
X164287501Y-69740342D01*
X164287500Y-69740340D01*
X164287500Y-69740339D01*
X164267993Y-69702055D01*
X164264241Y-69654369D01*
X164295307Y-69617994D01*
X164342995Y-69614241D01*
X164352052Y-69617991D01*
X164390339Y-69637500D01*
X164390340Y-69637500D01*
X164390342Y-69637501D01*
X164499997Y-69654869D01*
X164500000Y-69654869D01*
X164500003Y-69654869D01*
X164609657Y-69637501D01*
X164609658Y-69637500D01*
X164609661Y-69637500D01*
X164683267Y-69599996D01*
X173745127Y-69599996D01*
X173745127Y-69600003D01*
X173762494Y-69709657D01*
X173762496Y-69709662D01*
X173812900Y-69808586D01*
X173812901Y-69808587D01*
X173891409Y-69887095D01*
X173990335Y-69937500D01*
X173990338Y-69937501D01*
X174099993Y-69954869D01*
X174099996Y-69954869D01*
X174099999Y-69954869D01*
X174209653Y-69937501D01*
X174209654Y-69937500D01*
X174209657Y-69937500D01*
X174308583Y-69887095D01*
X174387091Y-69808587D01*
X174437496Y-69709661D01*
X174437530Y-69709447D01*
X174454865Y-69600003D01*
X174454865Y-69599996D01*
X174437497Y-69490342D01*
X174437495Y-69490337D01*
X174387091Y-69391413D01*
X174308582Y-69312904D01*
X174209658Y-69262500D01*
X174209653Y-69262498D01*
X174099999Y-69245131D01*
X174099993Y-69245131D01*
X173990338Y-69262498D01*
X173990333Y-69262500D01*
X173891409Y-69312904D01*
X173812900Y-69391413D01*
X173762496Y-69490337D01*
X173762494Y-69490342D01*
X173745127Y-69599996D01*
X164683267Y-69599996D01*
X164708587Y-69587095D01*
X164787095Y-69508587D01*
X164837500Y-69409661D01*
X164839030Y-69400003D01*
X164854869Y-69300003D01*
X164854869Y-69299996D01*
X164837501Y-69190342D01*
X164837499Y-69190337D01*
X164787095Y-69091413D01*
X164708586Y-69012904D01*
X164609662Y-68962500D01*
X164609657Y-68962498D01*
X164500003Y-68945131D01*
X164499997Y-68945131D01*
X164390342Y-68962498D01*
X164390337Y-68962500D01*
X164291413Y-69012904D01*
X164212904Y-69091413D01*
X164162500Y-69190337D01*
X164162498Y-69190342D01*
X164145131Y-69299996D01*
X164145131Y-69300003D01*
X164162498Y-69409657D01*
X164162500Y-69409662D01*
X164182005Y-69447943D01*
X164185758Y-69495631D01*
X164154691Y-69532005D01*
X164107003Y-69535758D01*
X164097943Y-69532005D01*
X164059662Y-69512500D01*
X164059657Y-69512498D01*
X163950003Y-69495131D01*
X163949997Y-69495131D01*
X163840342Y-69512498D01*
X163840337Y-69512500D01*
X163741413Y-69562904D01*
X163662904Y-69641413D01*
X163612500Y-69740337D01*
X163612498Y-69740342D01*
X163595131Y-69849996D01*
X140946949Y-69849996D01*
X140943326Y-69827123D01*
X140954492Y-69780611D01*
X140995278Y-69755617D01*
X140995279Y-69755616D01*
X140999997Y-69754868D01*
X141000000Y-69754869D01*
X141109661Y-69737500D01*
X141208587Y-69687095D01*
X141287095Y-69608587D01*
X141337500Y-69509661D01*
X141337670Y-69508587D01*
X141354869Y-69400003D01*
X141354869Y-69399996D01*
X141337501Y-69290342D01*
X141337499Y-69290337D01*
X141287095Y-69191413D01*
X141208586Y-69112904D01*
X141109662Y-69062500D01*
X141109657Y-69062498D01*
X141000003Y-69045131D01*
X140999997Y-69045131D01*
X140890342Y-69062498D01*
X140890337Y-69062500D01*
X140791413Y-69112904D01*
X140712904Y-69191413D01*
X140662500Y-69290337D01*
X140662498Y-69290342D01*
X140645131Y-69399996D01*
X140645131Y-69400003D01*
X140656673Y-69472875D01*
X140645507Y-69519388D01*
X140604721Y-69544382D01*
X140490341Y-69562499D01*
X140490337Y-69562500D01*
X140391413Y-69612904D01*
X140312904Y-69691413D01*
X140262500Y-69790337D01*
X140262498Y-69790342D01*
X140245131Y-69899996D01*
X122454869Y-69899996D01*
X122437501Y-69790342D01*
X122437499Y-69790337D01*
X122387095Y-69691413D01*
X122308586Y-69612904D01*
X122209662Y-69562500D01*
X122209657Y-69562498D01*
X122100003Y-69545131D01*
X122099997Y-69545131D01*
X121990342Y-69562498D01*
X121990337Y-69562500D01*
X121891413Y-69612904D01*
X121812904Y-69691413D01*
X121762500Y-69790337D01*
X121762498Y-69790342D01*
X121745131Y-69899996D01*
X109700500Y-69899996D01*
X109700500Y-69354574D01*
X114433631Y-69354574D01*
X114433631Y-69354581D01*
X114450998Y-69464235D01*
X114451000Y-69464240D01*
X114501404Y-69563164D01*
X114501405Y-69563165D01*
X114579913Y-69641673D01*
X114678839Y-69692078D01*
X114678842Y-69692079D01*
X114788497Y-69709447D01*
X114788500Y-69709447D01*
X114788503Y-69709447D01*
X114898157Y-69692079D01*
X114898158Y-69692078D01*
X114898161Y-69692078D01*
X114997087Y-69641673D01*
X115075595Y-69563165D01*
X115126000Y-69464239D01*
X115128581Y-69447943D01*
X115136176Y-69399996D01*
X122945131Y-69399996D01*
X122945131Y-69400003D01*
X122962498Y-69509657D01*
X122962500Y-69509662D01*
X123012904Y-69608586D01*
X123091413Y-69687095D01*
X123135703Y-69709662D01*
X123190339Y-69737500D01*
X123190342Y-69737501D01*
X123299997Y-69754869D01*
X123300000Y-69754869D01*
X123300003Y-69754869D01*
X123409657Y-69737501D01*
X123409658Y-69737500D01*
X123409661Y-69737500D01*
X123508587Y-69687095D01*
X123587095Y-69608587D01*
X123637500Y-69509661D01*
X123637670Y-69508587D01*
X123654869Y-69400003D01*
X123654869Y-69399996D01*
X123637501Y-69290342D01*
X123637499Y-69290337D01*
X123587095Y-69191413D01*
X123508586Y-69112904D01*
X123409662Y-69062500D01*
X123409657Y-69062498D01*
X123300003Y-69045131D01*
X123299997Y-69045131D01*
X123190342Y-69062498D01*
X123190337Y-69062500D01*
X123091413Y-69112904D01*
X123012904Y-69191413D01*
X122962500Y-69290337D01*
X122962498Y-69290342D01*
X122945131Y-69399996D01*
X115136176Y-69399996D01*
X115143369Y-69354581D01*
X115143369Y-69354574D01*
X115126001Y-69244920D01*
X115125999Y-69244915D01*
X115075595Y-69145991D01*
X114997086Y-69067482D01*
X114898162Y-69017078D01*
X114898157Y-69017076D01*
X114788503Y-68999709D01*
X114788497Y-68999709D01*
X114678842Y-69017076D01*
X114678837Y-69017078D01*
X114579913Y-69067482D01*
X114501404Y-69145991D01*
X114451000Y-69244915D01*
X114450998Y-69244920D01*
X114433631Y-69354574D01*
X109700500Y-69354574D01*
X109700500Y-67559998D01*
X113465129Y-67559998D01*
X113465129Y-67560005D01*
X113482496Y-67669659D01*
X113482498Y-67669664D01*
X113532902Y-67768588D01*
X113611411Y-67847097D01*
X113654224Y-67868911D01*
X113685291Y-67905285D01*
X113681539Y-67952972D01*
X113662499Y-67990340D01*
X113662498Y-67990343D01*
X113645131Y-68099996D01*
X113645131Y-68100003D01*
X113662498Y-68209657D01*
X113662500Y-68209662D01*
X113712904Y-68308586D01*
X113791414Y-68387096D01*
X113795394Y-68389988D01*
X113794629Y-68391039D01*
X113822211Y-68423325D01*
X113818465Y-68471014D01*
X113806968Y-68486841D01*
X113769315Y-68524494D01*
X113718912Y-68623416D01*
X113718910Y-68623421D01*
X113701543Y-68733075D01*
X113701543Y-68733082D01*
X113718910Y-68842736D01*
X113718912Y-68842741D01*
X113753010Y-68909662D01*
X113769317Y-68941666D01*
X113847825Y-69020174D01*
X113946751Y-69070579D01*
X113946754Y-69070580D01*
X114056409Y-69087948D01*
X114056412Y-69087948D01*
X114056415Y-69087948D01*
X114166069Y-69070580D01*
X114166070Y-69070579D01*
X114166073Y-69070579D01*
X114264999Y-69020174D01*
X114343507Y-68941666D01*
X114393912Y-68842740D01*
X114400682Y-68800000D01*
X114400683Y-68799996D01*
X139545131Y-68799996D01*
X139545131Y-68800003D01*
X139562498Y-68909657D01*
X139562500Y-68909662D01*
X139608381Y-68999709D01*
X139612905Y-69008587D01*
X139691413Y-69087095D01*
X139790339Y-69137500D01*
X139790342Y-69137501D01*
X139899997Y-69154869D01*
X139900000Y-69154869D01*
X139900003Y-69154869D01*
X140009657Y-69137501D01*
X140009658Y-69137500D01*
X140009661Y-69137500D01*
X140108587Y-69087095D01*
X140187095Y-69008587D01*
X140237500Y-68909661D01*
X140237501Y-68909657D01*
X140254869Y-68800003D01*
X140254869Y-68799996D01*
X140237501Y-68690342D01*
X140237499Y-68690337D01*
X140187095Y-68591413D01*
X140108586Y-68512904D01*
X140009662Y-68462500D01*
X140009657Y-68462498D01*
X139900003Y-68445131D01*
X139899997Y-68445131D01*
X139790342Y-68462498D01*
X139790337Y-68462500D01*
X139691413Y-68512904D01*
X139612904Y-68591413D01*
X139562500Y-68690337D01*
X139562498Y-68690342D01*
X139545131Y-68799996D01*
X114400683Y-68799996D01*
X114411281Y-68733082D01*
X114411281Y-68733075D01*
X114393913Y-68623421D01*
X114393911Y-68623416D01*
X114343507Y-68524492D01*
X114264997Y-68445982D01*
X114261018Y-68443091D01*
X114261781Y-68442040D01*
X114234197Y-68409741D01*
X114237953Y-68362054D01*
X114249445Y-68346237D01*
X114287095Y-68308587D01*
X114337500Y-68209661D01*
X114341327Y-68185500D01*
X114354869Y-68100003D01*
X114354869Y-68099996D01*
X114337501Y-67990342D01*
X114337499Y-67990337D01*
X114287095Y-67891413D01*
X114208586Y-67812904D01*
X114165773Y-67791090D01*
X114134706Y-67754716D01*
X114138458Y-67707029D01*
X114157498Y-67669663D01*
X114168945Y-67597387D01*
X114193938Y-67556604D01*
X114240448Y-67545436D01*
X114275790Y-67551034D01*
X114299998Y-67554869D01*
X114300000Y-67554869D01*
X114300003Y-67554869D01*
X114409657Y-67537501D01*
X114409658Y-67537500D01*
X114409661Y-67537500D01*
X114508587Y-67487095D01*
X114587095Y-67408587D01*
X114637500Y-67309661D01*
X114637670Y-67308587D01*
X114654869Y-67200003D01*
X114654869Y-67199996D01*
X114639030Y-67099996D01*
X138945131Y-67099996D01*
X138945131Y-67100003D01*
X138962498Y-67209657D01*
X138962500Y-67209662D01*
X138994725Y-67272907D01*
X139012905Y-67308587D01*
X139091413Y-67387095D01*
X139190339Y-67437500D01*
X139190342Y-67437501D01*
X139299997Y-67454869D01*
X139300000Y-67454869D01*
X139300003Y-67454869D01*
X139409657Y-67437501D01*
X139409658Y-67437500D01*
X139409661Y-67437500D01*
X139508587Y-67387095D01*
X139587095Y-67308587D01*
X139637500Y-67209661D01*
X139637501Y-67209657D01*
X139654869Y-67100003D01*
X139654869Y-67099996D01*
X139637501Y-66990342D01*
X139637499Y-66990337D01*
X139587095Y-66891413D01*
X139508586Y-66812904D01*
X139409662Y-66762500D01*
X139409657Y-66762498D01*
X139300003Y-66745131D01*
X139299997Y-66745131D01*
X139190342Y-66762498D01*
X139190337Y-66762500D01*
X139091413Y-66812904D01*
X139012904Y-66891413D01*
X138962500Y-66990337D01*
X138962498Y-66990342D01*
X138945131Y-67099996D01*
X114639030Y-67099996D01*
X114637501Y-67090342D01*
X114637499Y-67090337D01*
X114587095Y-66991413D01*
X114508587Y-66912905D01*
X114476120Y-66896362D01*
X114445054Y-66859987D01*
X114448806Y-66812301D01*
X114491978Y-66727573D01*
X114491979Y-66727569D01*
X114496346Y-66699996D01*
X135543106Y-66699996D01*
X135543106Y-66700003D01*
X135560572Y-66810282D01*
X135560574Y-66810287D01*
X135608845Y-66905024D01*
X135611267Y-66909777D01*
X135690223Y-66988733D01*
X135789714Y-67039426D01*
X135789717Y-67039427D01*
X135899997Y-67056894D01*
X135900000Y-67056894D01*
X135900003Y-67056894D01*
X136010282Y-67039427D01*
X136010283Y-67039426D01*
X136010286Y-67039426D01*
X136109777Y-66988733D01*
X136188733Y-66909777D01*
X136239426Y-66810286D01*
X136239427Y-66810282D01*
X136256894Y-66700003D01*
X136256894Y-66699996D01*
X136239427Y-66589717D01*
X136239425Y-66589712D01*
X136188733Y-66490223D01*
X136109776Y-66411266D01*
X136010287Y-66360574D01*
X136010282Y-66360572D01*
X135900003Y-66343106D01*
X135899997Y-66343106D01*
X135789717Y-66360572D01*
X135789712Y-66360574D01*
X135690223Y-66411266D01*
X135611266Y-66490223D01*
X135560574Y-66589712D01*
X135560572Y-66589717D01*
X135543106Y-66699996D01*
X114496346Y-66699996D01*
X114509347Y-66617915D01*
X114509347Y-66617908D01*
X114491979Y-66508254D01*
X114491977Y-66508249D01*
X114441573Y-66409325D01*
X114363064Y-66330816D01*
X114264140Y-66280412D01*
X114264135Y-66280410D01*
X114154481Y-66263043D01*
X114154475Y-66263043D01*
X114044820Y-66280410D01*
X114044815Y-66280412D01*
X113945891Y-66330816D01*
X113867382Y-66409325D01*
X113816978Y-66508249D01*
X113816976Y-66508254D01*
X113799609Y-66617908D01*
X113799609Y-66617915D01*
X113816976Y-66727569D01*
X113816978Y-66727574D01*
X113867382Y-66826498D01*
X113945891Y-66905007D01*
X113978356Y-66921549D01*
X114009423Y-66957923D01*
X114005670Y-67005611D01*
X113962500Y-67090337D01*
X113962499Y-67090341D01*
X113951052Y-67162612D01*
X113926058Y-67203398D01*
X113879545Y-67214564D01*
X113820001Y-67205133D01*
X113819995Y-67205133D01*
X113710340Y-67222500D01*
X113710335Y-67222502D01*
X113611411Y-67272906D01*
X113532902Y-67351415D01*
X113482498Y-67450339D01*
X113482496Y-67450344D01*
X113465129Y-67559998D01*
X109700500Y-67559998D01*
X109700500Y-66199996D01*
X148745131Y-66199996D01*
X148745131Y-66200003D01*
X148762498Y-66309657D01*
X148762500Y-66309662D01*
X148812904Y-66408586D01*
X148891413Y-66487095D01*
X148990337Y-66537499D01*
X148990339Y-66537500D01*
X149009442Y-66540525D01*
X149050227Y-66565519D01*
X149061395Y-66612030D01*
X149060133Y-66620000D01*
X149060133Y-66620005D01*
X149077500Y-66729659D01*
X149077502Y-66729664D01*
X149126842Y-66826499D01*
X149127907Y-66828589D01*
X149206415Y-66907097D01*
X149305341Y-66957502D01*
X149305344Y-66957503D01*
X149414999Y-66974871D01*
X149415002Y-66974871D01*
X149415005Y-66974871D01*
X149524659Y-66957503D01*
X149524660Y-66957502D01*
X149524663Y-66957502D01*
X149623589Y-66907097D01*
X149702097Y-66828589D01*
X149752502Y-66729663D01*
X149752833Y-66727573D01*
X149769871Y-66620005D01*
X149769871Y-66619998D01*
X149752503Y-66510344D01*
X149752501Y-66510339D01*
X149747231Y-66499996D01*
X150645131Y-66499996D01*
X150645131Y-66500003D01*
X150662498Y-66609657D01*
X150662500Y-66609662D01*
X150708531Y-66700003D01*
X150712905Y-66708587D01*
X150791413Y-66787095D01*
X150890339Y-66837500D01*
X150890342Y-66837501D01*
X150999997Y-66854869D01*
X151000000Y-66854869D01*
X151000003Y-66854869D01*
X151109657Y-66837501D01*
X151109658Y-66837500D01*
X151109661Y-66837500D01*
X151208587Y-66787095D01*
X151287095Y-66708587D01*
X151337500Y-66609661D01*
X151340659Y-66589717D01*
X151354869Y-66500003D01*
X151354869Y-66499996D01*
X151337501Y-66390342D01*
X151337499Y-66390337D01*
X151287095Y-66291413D01*
X151208586Y-66212904D01*
X151109662Y-66162500D01*
X151109657Y-66162498D01*
X151000003Y-66145131D01*
X150999997Y-66145131D01*
X150890342Y-66162498D01*
X150890337Y-66162500D01*
X150791413Y-66212904D01*
X150712904Y-66291413D01*
X150662500Y-66390337D01*
X150662498Y-66390342D01*
X150645131Y-66499996D01*
X149747231Y-66499996D01*
X149702097Y-66411415D01*
X149623588Y-66332906D01*
X149524664Y-66282502D01*
X149524660Y-66282501D01*
X149505558Y-66279475D01*
X149464772Y-66254480D01*
X149453607Y-66207966D01*
X149453607Y-66207965D01*
X149454869Y-66200003D01*
X149454869Y-66200000D01*
X149454869Y-66199999D01*
X149454869Y-66199996D01*
X149437501Y-66090342D01*
X149437499Y-66090337D01*
X149418474Y-66052999D01*
X180101490Y-66052999D01*
X180101490Y-66053000D01*
X180571913Y-66053000D01*
X180565444Y-66064204D01*
X180545000Y-66140504D01*
X180545000Y-66219496D01*
X180565444Y-66295796D01*
X180571913Y-66307000D01*
X180101490Y-66307000D01*
X180119975Y-66399932D01*
X180119975Y-66399933D01*
X180176814Y-66537153D01*
X180176815Y-66537155D01*
X180259329Y-66660646D01*
X180364353Y-66765670D01*
X180487844Y-66848184D01*
X180487846Y-66848185D01*
X180625067Y-66905024D01*
X180770737Y-66933999D01*
X180770738Y-66934000D01*
X181268000Y-66934000D01*
X181268000Y-66480000D01*
X181522000Y-66480000D01*
X181522000Y-66934000D01*
X181719569Y-66934000D01*
X181763763Y-66952306D01*
X181782069Y-66996500D01*
X181763763Y-67040694D01*
X181735745Y-67056870D01*
X181672868Y-67073717D01*
X181672865Y-67073718D01*
X181541633Y-67149486D01*
X181541629Y-67149489D01*
X181434489Y-67256629D01*
X181434486Y-67256633D01*
X181358718Y-67387865D01*
X181358717Y-67387868D01*
X181319501Y-67534227D01*
X181319500Y-67534235D01*
X181319500Y-67685764D01*
X181319501Y-67685772D01*
X181358717Y-67832131D01*
X181358718Y-67832134D01*
X181434486Y-67963366D01*
X181434489Y-67963370D01*
X181541629Y-68070510D01*
X181541633Y-68070513D01*
X181541635Y-68070515D01*
X181672865Y-68146281D01*
X181672868Y-68146282D01*
X181762435Y-68170281D01*
X181819234Y-68185500D01*
X181819235Y-68185500D01*
X181970765Y-68185500D01*
X181970766Y-68185500D01*
X182117135Y-68146281D01*
X182248365Y-68070515D01*
X182355515Y-67963365D01*
X182431281Y-67832135D01*
X182470500Y-67685766D01*
X182470500Y-67534234D01*
X182455281Y-67477435D01*
X182431282Y-67387868D01*
X182431281Y-67387865D01*
X182386130Y-67309662D01*
X182355515Y-67256635D01*
X182355513Y-67256633D01*
X182355510Y-67256629D01*
X182248370Y-67149489D01*
X182248366Y-67149486D01*
X182248365Y-67149485D01*
X182145922Y-67090339D01*
X182117134Y-67073718D01*
X182117131Y-67073717D01*
X182035076Y-67051731D01*
X181997125Y-67022611D01*
X181990882Y-66975185D01*
X182020002Y-66937234D01*
X182039059Y-66930062D01*
X182164932Y-66905024D01*
X182164933Y-66905024D01*
X182302153Y-66848185D01*
X182302155Y-66848184D01*
X182425646Y-66765670D01*
X182530670Y-66660646D01*
X182613184Y-66537155D01*
X182613185Y-66537153D01*
X182670024Y-66399933D01*
X182670024Y-66399932D01*
X182688510Y-66307000D01*
X182218087Y-66307000D01*
X182224556Y-66295796D01*
X182245000Y-66219496D01*
X182245000Y-66140504D01*
X182224556Y-66064204D01*
X182218087Y-66053000D01*
X182688510Y-66053000D01*
X182688509Y-66052999D01*
X184531490Y-66052999D01*
X184531490Y-66053000D01*
X185001913Y-66053000D01*
X184995444Y-66064204D01*
X184975000Y-66140504D01*
X184975000Y-66219496D01*
X184995444Y-66295796D01*
X185001913Y-66307000D01*
X184531490Y-66307000D01*
X184549975Y-66399932D01*
X184549975Y-66399933D01*
X184606814Y-66537153D01*
X184606815Y-66537155D01*
X184689329Y-66660646D01*
X184794353Y-66765670D01*
X184917844Y-66848184D01*
X184917846Y-66848185D01*
X185055067Y-66905024D01*
X185200737Y-66933999D01*
X185200738Y-66934000D01*
X185448000Y-66934000D01*
X185448000Y-66480000D01*
X185702000Y-66480000D01*
X185702000Y-66934000D01*
X185949262Y-66934000D01*
X185949262Y-66933999D01*
X186094932Y-66905024D01*
X186094933Y-66905024D01*
X186232153Y-66848185D01*
X186232155Y-66848184D01*
X186355646Y-66765670D01*
X186460670Y-66660646D01*
X186543184Y-66537155D01*
X186543185Y-66537153D01*
X186600024Y-66399933D01*
X186600024Y-66399932D01*
X186618510Y-66307000D01*
X186148087Y-66307000D01*
X186154556Y-66295796D01*
X186175000Y-66219496D01*
X186175000Y-66140504D01*
X186154556Y-66064204D01*
X186148087Y-66053000D01*
X186618510Y-66053000D01*
X186618509Y-66052999D01*
X186600024Y-65960067D01*
X186600024Y-65960066D01*
X186543185Y-65822846D01*
X186543184Y-65822844D01*
X186460670Y-65699353D01*
X186355646Y-65594329D01*
X186232155Y-65511815D01*
X186232153Y-65511814D01*
X186094932Y-65454975D01*
X185949262Y-65426000D01*
X185702000Y-65426000D01*
X185702000Y-65880000D01*
X185448000Y-65880000D01*
X185448000Y-65426000D01*
X185200738Y-65426000D01*
X185055067Y-65454975D01*
X185055066Y-65454975D01*
X184917846Y-65511814D01*
X184917844Y-65511815D01*
X184794353Y-65594329D01*
X184689329Y-65699353D01*
X184606815Y-65822844D01*
X184606814Y-65822846D01*
X184549975Y-65960066D01*
X184549975Y-65960067D01*
X184531490Y-66052999D01*
X182688509Y-66052999D01*
X182670024Y-65960067D01*
X182670024Y-65960066D01*
X182613185Y-65822846D01*
X182613184Y-65822844D01*
X182530670Y-65699353D01*
X182425646Y-65594329D01*
X182302155Y-65511815D01*
X182302153Y-65511814D01*
X182164932Y-65454975D01*
X182019262Y-65426000D01*
X181522000Y-65426000D01*
X181522000Y-65880000D01*
X181268000Y-65880000D01*
X181268000Y-65426000D01*
X180770738Y-65426000D01*
X180625067Y-65454975D01*
X180625066Y-65454975D01*
X180487846Y-65511814D01*
X180487844Y-65511815D01*
X180364353Y-65594329D01*
X180259329Y-65699353D01*
X180176815Y-65822844D01*
X180176814Y-65822846D01*
X180119975Y-65960066D01*
X180119975Y-65960067D01*
X180101490Y-66052999D01*
X149418474Y-66052999D01*
X149387095Y-65991413D01*
X149308586Y-65912904D01*
X149209662Y-65862500D01*
X149209657Y-65862498D01*
X149100003Y-65845131D01*
X149099997Y-65845131D01*
X148990342Y-65862498D01*
X148990337Y-65862500D01*
X148891413Y-65912904D01*
X148812904Y-65991413D01*
X148762500Y-66090337D01*
X148762498Y-66090342D01*
X148745131Y-66199996D01*
X109700500Y-66199996D01*
X109700500Y-65399996D01*
X125545131Y-65399996D01*
X125545131Y-65400003D01*
X125562498Y-65509657D01*
X125562500Y-65509662D01*
X125577668Y-65539431D01*
X125612905Y-65608587D01*
X125691413Y-65687095D01*
X125790339Y-65737500D01*
X125790342Y-65737501D01*
X125899997Y-65754869D01*
X125900000Y-65754869D01*
X125900003Y-65754869D01*
X126009657Y-65737501D01*
X126009658Y-65737500D01*
X126009661Y-65737500D01*
X126108587Y-65687095D01*
X126187095Y-65608587D01*
X126237500Y-65509661D01*
X126237501Y-65509657D01*
X126254869Y-65400003D01*
X126254869Y-65399996D01*
X126237501Y-65290342D01*
X126237499Y-65290337D01*
X126191470Y-65200000D01*
X160743106Y-65200000D01*
X160743106Y-65200007D01*
X160760572Y-65310286D01*
X160760574Y-65310291D01*
X160811266Y-65409780D01*
X160811267Y-65409781D01*
X160890223Y-65488737D01*
X160989714Y-65539430D01*
X160989717Y-65539431D01*
X161099997Y-65556898D01*
X161100000Y-65556898D01*
X161100003Y-65556898D01*
X161210282Y-65539431D01*
X161210283Y-65539430D01*
X161210286Y-65539430D01*
X161309777Y-65488737D01*
X161388733Y-65409781D01*
X161439426Y-65310290D01*
X161442586Y-65290339D01*
X161456894Y-65200007D01*
X161456894Y-65200000D01*
X161439427Y-65089721D01*
X161439425Y-65089716D01*
X161388733Y-64990227D01*
X161309776Y-64911270D01*
X161210287Y-64860578D01*
X161210282Y-64860576D01*
X161100003Y-64843110D01*
X161099997Y-64843110D01*
X160989717Y-64860576D01*
X160989712Y-64860578D01*
X160890223Y-64911270D01*
X160811266Y-64990227D01*
X160760574Y-65089716D01*
X160760572Y-65089721D01*
X160743106Y-65200000D01*
X126191470Y-65200000D01*
X126187095Y-65191413D01*
X126108586Y-65112904D01*
X126009662Y-65062500D01*
X126009657Y-65062498D01*
X125900003Y-65045131D01*
X125899997Y-65045131D01*
X125790342Y-65062498D01*
X125790337Y-65062500D01*
X125691413Y-65112904D01*
X125612904Y-65191413D01*
X125562500Y-65290337D01*
X125562498Y-65290342D01*
X125545131Y-65399996D01*
X109700500Y-65399996D01*
X109700500Y-64699996D01*
X120845131Y-64699996D01*
X120845131Y-64700003D01*
X120862498Y-64809657D01*
X120862500Y-64809662D01*
X120879543Y-64843110D01*
X120912905Y-64908587D01*
X120991413Y-64987095D01*
X121090339Y-65037500D01*
X121090342Y-65037501D01*
X121199997Y-65054869D01*
X121200000Y-65054869D01*
X121200003Y-65054869D01*
X121309657Y-65037501D01*
X121309658Y-65037500D01*
X121309661Y-65037500D01*
X121408587Y-64987095D01*
X121487095Y-64908587D01*
X121537500Y-64809661D01*
X121539030Y-64800003D01*
X121539031Y-64799996D01*
X138945135Y-64799996D01*
X138945135Y-64800003D01*
X138962502Y-64909657D01*
X138962504Y-64909662D01*
X138963324Y-64911271D01*
X139012909Y-65008587D01*
X139091417Y-65087095D01*
X139190343Y-65137500D01*
X139190346Y-65137501D01*
X139300001Y-65154869D01*
X139300004Y-65154869D01*
X139300007Y-65154869D01*
X139409661Y-65137501D01*
X139409662Y-65137500D01*
X139409665Y-65137500D01*
X139508591Y-65087095D01*
X139587099Y-65008587D01*
X139637504Y-64909661D01*
X139637674Y-64908587D01*
X139654873Y-64800003D01*
X139654873Y-64799996D01*
X139637505Y-64690342D01*
X139637503Y-64690337D01*
X139587099Y-64591413D01*
X139508590Y-64512904D01*
X139409666Y-64462500D01*
X139409661Y-64462498D01*
X139300007Y-64445131D01*
X139300001Y-64445131D01*
X139190346Y-64462498D01*
X139190341Y-64462500D01*
X139091417Y-64512904D01*
X139012908Y-64591413D01*
X138962504Y-64690337D01*
X138962502Y-64690342D01*
X138945135Y-64799996D01*
X121539031Y-64799996D01*
X121554869Y-64700003D01*
X121554869Y-64699996D01*
X121537501Y-64590342D01*
X121537499Y-64590337D01*
X121487095Y-64491413D01*
X121408586Y-64412904D01*
X121309662Y-64362500D01*
X121309657Y-64362498D01*
X121200003Y-64345131D01*
X121199997Y-64345131D01*
X121090342Y-64362498D01*
X121090337Y-64362500D01*
X120991413Y-64412904D01*
X120912904Y-64491413D01*
X120862500Y-64590337D01*
X120862498Y-64590342D01*
X120845131Y-64699996D01*
X109700500Y-64699996D01*
X109700500Y-63899996D01*
X117945131Y-63899996D01*
X117945131Y-63900003D01*
X117962498Y-64009657D01*
X117962500Y-64009662D01*
X118011913Y-64106641D01*
X118012905Y-64108587D01*
X118091413Y-64187095D01*
X118190339Y-64237500D01*
X118190342Y-64237501D01*
X118299997Y-64254869D01*
X118300000Y-64254869D01*
X118300003Y-64254869D01*
X118409657Y-64237501D01*
X118409658Y-64237500D01*
X118409661Y-64237500D01*
X118508587Y-64187095D01*
X118587095Y-64108587D01*
X118637500Y-64009661D01*
X118642558Y-63977727D01*
X118654869Y-63900003D01*
X118654869Y-63899997D01*
X118640879Y-63811673D01*
X118651090Y-63769136D01*
X135847237Y-63769136D01*
X135847237Y-63769143D01*
X135864604Y-63878797D01*
X135864606Y-63878802D01*
X135915010Y-63977726D01*
X135915011Y-63977727D01*
X135993519Y-64056235D01*
X136092445Y-64106640D01*
X136092448Y-64106641D01*
X136202103Y-64124009D01*
X136202106Y-64124009D01*
X136202109Y-64124009D01*
X136311761Y-64106641D01*
X136311761Y-64106640D01*
X136311767Y-64106640D01*
X136311772Y-64106637D01*
X136313517Y-64106071D01*
X136314750Y-64106168D01*
X136316626Y-64105871D01*
X136316697Y-64106321D01*
X136361205Y-64109821D01*
X136392274Y-64146194D01*
X136394564Y-64155733D01*
X136395100Y-64159116D01*
X136395101Y-64159121D01*
X136443887Y-64254869D01*
X136445506Y-64258046D01*
X136524014Y-64336554D01*
X136622940Y-64386959D01*
X136622943Y-64386960D01*
X136732598Y-64404328D01*
X136732601Y-64404328D01*
X136732604Y-64404328D01*
X136759954Y-64399996D01*
X141845131Y-64399996D01*
X141845131Y-64400003D01*
X141862498Y-64509657D01*
X141862500Y-64509662D01*
X141904154Y-64591413D01*
X141912905Y-64608587D01*
X141991413Y-64687095D01*
X142090339Y-64737500D01*
X142090342Y-64737501D01*
X142199997Y-64754869D01*
X142200000Y-64754869D01*
X142200003Y-64754869D01*
X142309657Y-64737501D01*
X142309658Y-64737500D01*
X142309661Y-64737500D01*
X142408587Y-64687095D01*
X142487095Y-64608587D01*
X142537500Y-64509661D01*
X142537501Y-64509657D01*
X142554869Y-64400003D01*
X142554869Y-64399996D01*
X142537501Y-64290342D01*
X142537499Y-64290337D01*
X142487095Y-64191413D01*
X142408586Y-64112904D01*
X142309662Y-64062500D01*
X142309657Y-64062498D01*
X142200003Y-64045131D01*
X142199997Y-64045131D01*
X142090342Y-64062498D01*
X142090337Y-64062500D01*
X141991413Y-64112904D01*
X141912904Y-64191413D01*
X141862500Y-64290337D01*
X141862498Y-64290342D01*
X141845131Y-64399996D01*
X136759954Y-64399996D01*
X136842258Y-64386960D01*
X136842259Y-64386959D01*
X136842262Y-64386959D01*
X136941188Y-64336554D01*
X137019696Y-64258046D01*
X137070101Y-64159120D01*
X137070102Y-64159116D01*
X137087470Y-64049462D01*
X137087470Y-64049455D01*
X137070102Y-63939801D01*
X137070100Y-63939796D01*
X137019696Y-63840872D01*
X136941187Y-63762363D01*
X136842263Y-63711959D01*
X136842258Y-63711957D01*
X136732604Y-63694590D01*
X136732598Y-63694590D01*
X136622935Y-63711959D01*
X136621175Y-63712531D01*
X136619940Y-63712433D01*
X136618082Y-63712728D01*
X136618011Y-63712281D01*
X136573488Y-63708770D01*
X136542428Y-63672390D01*
X136540141Y-63662860D01*
X136539606Y-63659479D01*
X136539604Y-63659475D01*
X136539604Y-63659474D01*
X136489201Y-63560553D01*
X136410692Y-63482044D01*
X136311768Y-63431640D01*
X136311763Y-63431638D01*
X136202109Y-63414271D01*
X136202103Y-63414271D01*
X136092448Y-63431638D01*
X136092443Y-63431640D01*
X135993519Y-63482044D01*
X135915010Y-63560553D01*
X135864606Y-63659477D01*
X135864604Y-63659482D01*
X135847237Y-63769136D01*
X118651090Y-63769136D01*
X118652045Y-63765159D01*
X118692829Y-63740165D01*
X118709661Y-63737500D01*
X118808587Y-63687095D01*
X118887095Y-63608587D01*
X118937500Y-63509661D01*
X118937501Y-63509657D01*
X118954869Y-63400003D01*
X118954869Y-63399996D01*
X118937501Y-63290342D01*
X118937499Y-63290337D01*
X118887095Y-63191413D01*
X118808586Y-63112904D01*
X118801892Y-63109494D01*
X118770824Y-63073121D01*
X118770876Y-63072455D01*
X136558773Y-63072455D01*
X136558773Y-63072462D01*
X136576140Y-63182116D01*
X136576142Y-63182121D01*
X136626546Y-63281045D01*
X136626547Y-63281046D01*
X136705055Y-63359554D01*
X136803981Y-63409959D01*
X136803984Y-63409960D01*
X136913639Y-63427328D01*
X136913642Y-63427328D01*
X136913645Y-63427328D01*
X137023299Y-63409960D01*
X137023300Y-63409959D01*
X137023303Y-63409959D01*
X137122229Y-63359554D01*
X137200737Y-63281046D01*
X137251142Y-63182120D01*
X137251143Y-63182116D01*
X137268511Y-63072462D01*
X137268511Y-63072455D01*
X137257034Y-62999996D01*
X142732631Y-62999996D01*
X142732631Y-63000003D01*
X142749998Y-63109657D01*
X142750000Y-63109662D01*
X142791654Y-63191413D01*
X142800405Y-63208587D01*
X142878913Y-63287095D01*
X142977839Y-63337500D01*
X142977842Y-63337501D01*
X143087497Y-63354869D01*
X143087500Y-63354869D01*
X143087503Y-63354869D01*
X143197157Y-63337501D01*
X143197158Y-63337500D01*
X143197161Y-63337500D01*
X143296087Y-63287095D01*
X143374595Y-63208587D01*
X143425000Y-63109661D01*
X143442369Y-63000000D01*
X143442368Y-62999997D01*
X143443116Y-62995279D01*
X143468110Y-62954492D01*
X143514620Y-62943325D01*
X143557988Y-62950194D01*
X143587498Y-62954869D01*
X143587500Y-62954869D01*
X143587503Y-62954869D01*
X143697157Y-62937501D01*
X143697158Y-62937500D01*
X143697161Y-62937500D01*
X143796087Y-62887095D01*
X143874595Y-62808587D01*
X143925000Y-62709661D01*
X143925806Y-62704574D01*
X143943139Y-62595142D01*
X143945502Y-62595516D01*
X143960675Y-62558886D01*
X144004869Y-62540580D01*
X144014645Y-62541349D01*
X144034892Y-62544556D01*
X144099998Y-62554869D01*
X144100000Y-62554869D01*
X144100003Y-62554869D01*
X144209657Y-62537501D01*
X144209658Y-62537500D01*
X144209661Y-62537500D01*
X144308587Y-62487095D01*
X144387095Y-62408587D01*
X144437500Y-62309661D01*
X144437911Y-62307066D01*
X144454869Y-62200003D01*
X144454869Y-62199996D01*
X144437501Y-62090342D01*
X144437499Y-62090337D01*
X144387095Y-61991413D01*
X144308586Y-61912904D01*
X144209662Y-61862500D01*
X144209657Y-61862498D01*
X144100003Y-61845131D01*
X144099997Y-61845131D01*
X143990342Y-61862498D01*
X143990337Y-61862500D01*
X143891413Y-61912904D01*
X143812904Y-61991413D01*
X143762500Y-62090337D01*
X143762498Y-62090342D01*
X143744361Y-62204858D01*
X143741997Y-62204483D01*
X143726825Y-62241113D01*
X143682631Y-62259419D01*
X143672854Y-62258650D01*
X143663300Y-62257136D01*
X143587500Y-62245131D01*
X143587498Y-62245131D01*
X143587497Y-62245131D01*
X143477842Y-62262498D01*
X143477837Y-62262500D01*
X143378913Y-62312904D01*
X143300404Y-62391413D01*
X143250000Y-62490337D01*
X143249999Y-62490341D01*
X143231882Y-62604721D01*
X143206888Y-62645507D01*
X143160375Y-62656673D01*
X143087503Y-62645131D01*
X143087497Y-62645131D01*
X142977842Y-62662498D01*
X142977837Y-62662500D01*
X142878913Y-62712904D01*
X142800404Y-62791413D01*
X142750000Y-62890337D01*
X142749998Y-62890342D01*
X142732631Y-62999996D01*
X137257034Y-62999996D01*
X137251143Y-62962801D01*
X137251141Y-62962796D01*
X137200737Y-62863872D01*
X137122228Y-62785363D01*
X137023304Y-62734959D01*
X137023299Y-62734957D01*
X136913645Y-62717590D01*
X136913639Y-62717590D01*
X136803984Y-62734957D01*
X136803979Y-62734959D01*
X136705055Y-62785363D01*
X136626546Y-62863872D01*
X136576142Y-62962796D01*
X136576140Y-62962801D01*
X136558773Y-63072455D01*
X118770876Y-63072455D01*
X118774575Y-63025433D01*
X118786072Y-63009609D01*
X118787095Y-63008587D01*
X118837500Y-62909661D01*
X118840560Y-62890342D01*
X118854869Y-62800003D01*
X118854869Y-62799996D01*
X118839755Y-62704574D01*
X119540553Y-62704574D01*
X119540553Y-62704581D01*
X119557920Y-62814235D01*
X119557922Y-62814240D01*
X119608326Y-62913164D01*
X119608327Y-62913165D01*
X119686835Y-62991673D01*
X119785761Y-63042078D01*
X119785764Y-63042079D01*
X119895419Y-63059447D01*
X119895422Y-63059447D01*
X119895425Y-63059447D01*
X120005079Y-63042079D01*
X120005080Y-63042078D01*
X120005083Y-63042078D01*
X120104009Y-62991673D01*
X120182517Y-62913165D01*
X120232922Y-62814239D01*
X120244487Y-62741219D01*
X120269480Y-62700436D01*
X120315990Y-62689268D01*
X120349543Y-62694583D01*
X120374770Y-62698579D01*
X120374772Y-62698579D01*
X120374775Y-62698579D01*
X120484429Y-62681211D01*
X120484430Y-62681210D01*
X120484433Y-62681210D01*
X120583359Y-62630805D01*
X120661867Y-62552297D01*
X120712272Y-62453371D01*
X120726019Y-62366575D01*
X120751012Y-62325792D01*
X120797524Y-62314624D01*
X120797526Y-62314624D01*
X120797527Y-62314625D01*
X120818462Y-62317941D01*
X120818464Y-62317941D01*
X120818467Y-62317941D01*
X120928121Y-62300573D01*
X120928122Y-62300572D01*
X120928125Y-62300572D01*
X121027051Y-62250167D01*
X121105559Y-62171659D01*
X121155964Y-62072733D01*
X121158517Y-62056614D01*
X121173333Y-61963075D01*
X121173333Y-61963068D01*
X121155965Y-61853414D01*
X121155963Y-61853409D01*
X121105559Y-61754485D01*
X121051070Y-61699996D01*
X121545131Y-61699996D01*
X121545131Y-61700003D01*
X121562498Y-61809657D01*
X121562500Y-61809662D01*
X121612904Y-61908586D01*
X121612905Y-61908587D01*
X121691413Y-61987095D01*
X121790339Y-62037500D01*
X121790342Y-62037501D01*
X121899997Y-62054869D01*
X121900000Y-62054869D01*
X121900003Y-62054869D01*
X122009657Y-62037501D01*
X122009658Y-62037500D01*
X122009661Y-62037500D01*
X122108587Y-61987095D01*
X122187095Y-61908587D01*
X122237500Y-61809661D01*
X122237501Y-61809657D01*
X122254869Y-61700003D01*
X122254869Y-61699996D01*
X122237501Y-61590342D01*
X122237500Y-61590340D01*
X122237500Y-61590339D01*
X122234870Y-61585179D01*
X122231118Y-61537492D01*
X122262184Y-61501117D01*
X122309872Y-61497364D01*
X122318932Y-61501116D01*
X122390339Y-61537500D01*
X122390342Y-61537501D01*
X122499997Y-61554869D01*
X122500000Y-61554869D01*
X122500003Y-61554869D01*
X122609657Y-61537501D01*
X122609658Y-61537500D01*
X122609661Y-61537500D01*
X122708587Y-61487095D01*
X122787095Y-61408587D01*
X122837500Y-61309661D01*
X122837501Y-61309657D01*
X122854869Y-61200003D01*
X122854869Y-61199999D01*
X122849828Y-61168177D01*
X122860993Y-61121663D01*
X122901779Y-61096668D01*
X122901779Y-61096667D01*
X122959661Y-61087500D01*
X123058587Y-61037095D01*
X123137095Y-60958587D01*
X123187500Y-60859661D01*
X123189539Y-60846787D01*
X123204869Y-60750003D01*
X123204869Y-60749996D01*
X123187501Y-60640342D01*
X123187499Y-60640337D01*
X123137095Y-60541413D01*
X123058586Y-60462904D01*
X122959662Y-60412500D01*
X122959657Y-60412498D01*
X122850003Y-60395131D01*
X122849997Y-60395131D01*
X122740342Y-60412498D01*
X122740337Y-60412500D01*
X122641413Y-60462904D01*
X122562904Y-60541413D01*
X122512500Y-60640337D01*
X122512498Y-60640342D01*
X122495131Y-60749996D01*
X122495131Y-60750003D01*
X122500171Y-60781824D01*
X122489005Y-60828337D01*
X122448219Y-60853331D01*
X122390342Y-60862498D01*
X122390337Y-60862500D01*
X122291413Y-60912904D01*
X122212904Y-60991413D01*
X122162500Y-61090337D01*
X122162498Y-61090342D01*
X122145131Y-61199996D01*
X122145131Y-61200003D01*
X122162498Y-61309657D01*
X122162499Y-61309660D01*
X122165129Y-61314821D01*
X122168880Y-61362509D01*
X122137813Y-61398883D01*
X122090125Y-61402634D01*
X122081066Y-61398882D01*
X122009662Y-61362500D01*
X122009657Y-61362498D01*
X121900003Y-61345131D01*
X121899997Y-61345131D01*
X121790342Y-61362498D01*
X121790337Y-61362500D01*
X121691413Y-61412904D01*
X121612904Y-61491413D01*
X121562500Y-61590337D01*
X121562498Y-61590342D01*
X121545131Y-61699996D01*
X121051070Y-61699996D01*
X121027050Y-61675976D01*
X120928126Y-61625572D01*
X120928121Y-61625570D01*
X120818467Y-61608203D01*
X120818461Y-61608203D01*
X120708806Y-61625570D01*
X120708801Y-61625572D01*
X120609877Y-61675976D01*
X120531368Y-61754485D01*
X120480964Y-61853409D01*
X120480963Y-61853413D01*
X120467216Y-61940204D01*
X120442222Y-61980990D01*
X120395710Y-61992157D01*
X120384036Y-61990308D01*
X120374772Y-61988841D01*
X120374771Y-61988841D01*
X120374769Y-61988841D01*
X120265114Y-62006208D01*
X120265109Y-62006210D01*
X120166185Y-62056614D01*
X120087676Y-62135123D01*
X120037272Y-62234047D01*
X120037271Y-62234051D01*
X120025706Y-62307066D01*
X120000712Y-62347852D01*
X119954199Y-62359018D01*
X119895425Y-62349709D01*
X119895419Y-62349709D01*
X119785764Y-62367076D01*
X119785759Y-62367078D01*
X119686835Y-62417482D01*
X119608326Y-62495991D01*
X119557922Y-62594915D01*
X119557920Y-62594920D01*
X119540553Y-62704574D01*
X118839755Y-62704574D01*
X118837501Y-62690342D01*
X118837499Y-62690337D01*
X118787095Y-62591413D01*
X118708586Y-62512904D01*
X118609662Y-62462500D01*
X118609657Y-62462498D01*
X118500003Y-62445131D01*
X118499997Y-62445131D01*
X118390342Y-62462498D01*
X118390337Y-62462500D01*
X118291413Y-62512904D01*
X118212904Y-62591413D01*
X118162500Y-62690337D01*
X118162498Y-62690342D01*
X118145131Y-62799996D01*
X118145131Y-62800003D01*
X118162498Y-62909657D01*
X118162500Y-62909662D01*
X118212904Y-63008586D01*
X118291413Y-63087095D01*
X118298106Y-63090505D01*
X118329174Y-63126878D01*
X118325423Y-63174566D01*
X118313933Y-63190383D01*
X118312906Y-63191409D01*
X118312906Y-63191410D01*
X118262500Y-63290337D01*
X118262498Y-63290342D01*
X118245131Y-63399996D01*
X118245131Y-63399997D01*
X118245131Y-63400000D01*
X118258126Y-63482044D01*
X118259121Y-63488326D01*
X118247954Y-63534840D01*
X118207170Y-63559833D01*
X118190341Y-63562499D01*
X118190337Y-63562500D01*
X118091413Y-63612904D01*
X118012904Y-63691413D01*
X117962500Y-63790337D01*
X117962498Y-63790342D01*
X117945131Y-63899996D01*
X109700500Y-63899996D01*
X109700500Y-60399996D01*
X117645131Y-60399996D01*
X117645131Y-60400003D01*
X117662498Y-60509657D01*
X117662500Y-60509662D01*
X117698658Y-60580626D01*
X117712905Y-60608587D01*
X117791413Y-60687095D01*
X117890339Y-60737500D01*
X117890342Y-60737501D01*
X117999997Y-60754869D01*
X118000000Y-60754869D01*
X118000003Y-60754869D01*
X118109657Y-60737501D01*
X118109658Y-60737500D01*
X118109661Y-60737500D01*
X118208587Y-60687095D01*
X118287095Y-60608587D01*
X118337500Y-60509661D01*
X118337501Y-60509657D01*
X118354869Y-60400003D01*
X118354869Y-60399996D01*
X118337501Y-60290342D01*
X118337499Y-60290337D01*
X118291468Y-60199996D01*
X141732631Y-60199996D01*
X141732631Y-60200003D01*
X141749998Y-60309657D01*
X141750000Y-60309662D01*
X141800404Y-60408586D01*
X141878913Y-60487095D01*
X141923203Y-60509662D01*
X141977839Y-60537500D01*
X141977842Y-60537501D01*
X142087497Y-60554869D01*
X142087500Y-60554869D01*
X142087503Y-60554869D01*
X142197157Y-60537501D01*
X142197158Y-60537500D01*
X142197161Y-60537500D01*
X142296087Y-60487095D01*
X142374595Y-60408587D01*
X142378972Y-60399996D01*
X147232631Y-60399996D01*
X147232631Y-60400003D01*
X147249998Y-60509657D01*
X147250000Y-60509662D01*
X147286158Y-60580626D01*
X147300405Y-60608587D01*
X147378913Y-60687095D01*
X147477839Y-60737500D01*
X147477842Y-60737501D01*
X147543276Y-60747865D01*
X147584063Y-60772859D01*
X147595229Y-60819372D01*
X147589187Y-60837969D01*
X147562504Y-60890337D01*
X147562502Y-60890342D01*
X147545135Y-60999996D01*
X147545135Y-61000003D01*
X147562502Y-61109657D01*
X147562504Y-61109662D01*
X147612908Y-61208586D01*
X147691417Y-61287095D01*
X147790341Y-61337499D01*
X147790343Y-61337500D01*
X147900004Y-61354869D01*
X147900006Y-61354868D01*
X147904720Y-61355615D01*
X147945507Y-61380609D01*
X147956674Y-61427123D01*
X147945131Y-61500002D01*
X147945131Y-61500003D01*
X147962498Y-61609657D01*
X147962500Y-61609662D01*
X148012904Y-61708586D01*
X148091413Y-61787095D01*
X148135703Y-61809662D01*
X148190339Y-61837500D01*
X148190342Y-61837501D01*
X148299997Y-61854869D01*
X148300000Y-61854869D01*
X148300003Y-61854869D01*
X148409657Y-61837501D01*
X148409658Y-61837500D01*
X148409661Y-61837500D01*
X148508587Y-61787095D01*
X148587095Y-61708587D01*
X148637500Y-61609661D01*
X148640560Y-61590342D01*
X148654869Y-61500003D01*
X148654869Y-61499996D01*
X148637501Y-61390342D01*
X148637499Y-61390337D01*
X148587095Y-61291413D01*
X148508586Y-61212904D01*
X148409662Y-61162500D01*
X148409658Y-61162499D01*
X148295282Y-61144383D01*
X148254496Y-61119389D01*
X148243330Y-61072875D01*
X148254873Y-61000002D01*
X148254873Y-60999996D01*
X148237505Y-60890342D01*
X148237503Y-60890337D01*
X148191472Y-60799996D01*
X151845131Y-60799996D01*
X151845131Y-60800003D01*
X151862498Y-60909657D01*
X151862500Y-60909662D01*
X151912904Y-61008586D01*
X151991413Y-61087095D01*
X152035703Y-61109662D01*
X152090339Y-61137500D01*
X152090342Y-61137501D01*
X152199997Y-61154869D01*
X152200000Y-61154869D01*
X152200003Y-61154869D01*
X152309657Y-61137501D01*
X152309658Y-61137500D01*
X152309661Y-61137500D01*
X152408587Y-61087095D01*
X152487095Y-61008587D01*
X152537500Y-60909661D01*
X152540560Y-60890342D01*
X152554869Y-60800003D01*
X152554869Y-60799996D01*
X152537501Y-60690342D01*
X152537499Y-60690337D01*
X152487095Y-60591413D01*
X152408586Y-60512904D01*
X152309662Y-60462500D01*
X152309657Y-60462498D01*
X152200003Y-60445131D01*
X152199997Y-60445131D01*
X152090342Y-60462498D01*
X152090337Y-60462500D01*
X151991413Y-60512904D01*
X151912904Y-60591413D01*
X151862500Y-60690337D01*
X151862498Y-60690342D01*
X151845131Y-60799996D01*
X148191472Y-60799996D01*
X148187099Y-60791413D01*
X148108590Y-60712904D01*
X148009666Y-60662500D01*
X148009661Y-60662499D01*
X147944226Y-60652134D01*
X147903440Y-60627140D01*
X147892274Y-60580626D01*
X147898313Y-60562036D01*
X147925000Y-60509661D01*
X147925001Y-60509657D01*
X147942369Y-60400003D01*
X147942369Y-60399996D01*
X162743106Y-60399996D01*
X162743106Y-60400003D01*
X162760572Y-60510282D01*
X162760574Y-60510287D01*
X162811266Y-60609776D01*
X162811267Y-60609777D01*
X162890223Y-60688733D01*
X162989714Y-60739426D01*
X162989717Y-60739427D01*
X163099997Y-60756894D01*
X163100000Y-60756894D01*
X163100003Y-60756894D01*
X163210282Y-60739427D01*
X163210283Y-60739426D01*
X163210286Y-60739426D01*
X163309777Y-60688733D01*
X163388733Y-60609777D01*
X163439426Y-60510286D01*
X163439525Y-60509661D01*
X163456894Y-60400003D01*
X163456894Y-60399996D01*
X163439427Y-60289717D01*
X163439425Y-60289712D01*
X163388733Y-60190223D01*
X163309776Y-60111266D01*
X163210287Y-60060574D01*
X163210282Y-60060572D01*
X163100003Y-60043106D01*
X163099997Y-60043106D01*
X162989717Y-60060572D01*
X162989712Y-60060574D01*
X162890223Y-60111266D01*
X162811266Y-60190223D01*
X162760574Y-60289712D01*
X162760572Y-60289717D01*
X162743106Y-60399996D01*
X147942369Y-60399996D01*
X147925001Y-60290342D01*
X147924999Y-60290337D01*
X147874595Y-60191413D01*
X147796086Y-60112904D01*
X147697162Y-60062500D01*
X147697157Y-60062498D01*
X147587503Y-60045131D01*
X147587497Y-60045131D01*
X147477842Y-60062498D01*
X147477837Y-60062500D01*
X147378913Y-60112904D01*
X147300404Y-60191413D01*
X147250000Y-60290337D01*
X147249998Y-60290342D01*
X147232631Y-60399996D01*
X142378972Y-60399996D01*
X142425000Y-60309661D01*
X142428060Y-60290342D01*
X142442369Y-60200003D01*
X142442369Y-60199996D01*
X142425001Y-60090342D01*
X142424999Y-60090337D01*
X142374595Y-59991413D01*
X142296086Y-59912904D01*
X142197162Y-59862500D01*
X142197157Y-59862498D01*
X142087503Y-59845131D01*
X142087497Y-59845131D01*
X141977842Y-59862498D01*
X141977837Y-59862500D01*
X141878913Y-59912904D01*
X141800404Y-59991413D01*
X141750000Y-60090337D01*
X141749998Y-60090342D01*
X141732631Y-60199996D01*
X118291468Y-60199996D01*
X118287095Y-60191413D01*
X118208586Y-60112904D01*
X118109662Y-60062500D01*
X118109657Y-60062498D01*
X118000003Y-60045131D01*
X117999997Y-60045131D01*
X117890342Y-60062498D01*
X117890337Y-60062500D01*
X117791413Y-60112904D01*
X117712904Y-60191413D01*
X117662500Y-60290337D01*
X117662498Y-60290342D01*
X117645131Y-60399996D01*
X109700500Y-60399996D01*
X109700500Y-59699996D01*
X137545131Y-59699996D01*
X137545131Y-59700003D01*
X137562498Y-59809657D01*
X137562500Y-59809662D01*
X137612904Y-59908586D01*
X137612905Y-59908587D01*
X137691413Y-59987095D01*
X137790339Y-60037500D01*
X137790342Y-60037501D01*
X137899997Y-60054869D01*
X137900000Y-60054869D01*
X137900003Y-60054869D01*
X138009657Y-60037501D01*
X138009658Y-60037500D01*
X138009661Y-60037500D01*
X138108587Y-59987095D01*
X138187095Y-59908587D01*
X138237500Y-59809661D01*
X138254869Y-59700000D01*
X138254869Y-59699996D01*
X138237501Y-59590342D01*
X138237499Y-59590337D01*
X138187095Y-59491413D01*
X138108586Y-59412904D01*
X138009662Y-59362500D01*
X138009657Y-59362498D01*
X137900003Y-59345131D01*
X137899997Y-59345131D01*
X137790342Y-59362498D01*
X137790337Y-59362500D01*
X137691413Y-59412904D01*
X137612904Y-59491413D01*
X137562500Y-59590337D01*
X137562498Y-59590342D01*
X137545131Y-59699996D01*
X109700500Y-59699996D01*
X109700500Y-58899996D01*
X138745131Y-58899996D01*
X138745131Y-58900003D01*
X138762498Y-59009657D01*
X138762500Y-59009662D01*
X138808531Y-59100003D01*
X138812905Y-59108587D01*
X138891413Y-59187095D01*
X138990339Y-59237500D01*
X138990342Y-59237501D01*
X139099997Y-59254869D01*
X139100000Y-59254869D01*
X139100003Y-59254869D01*
X139209657Y-59237501D01*
X139209658Y-59237500D01*
X139209661Y-59237500D01*
X139308587Y-59187095D01*
X139387095Y-59108587D01*
X139391472Y-59099996D01*
X160243106Y-59099996D01*
X160243106Y-59100003D01*
X160260572Y-59210282D01*
X160260574Y-59210287D01*
X160283290Y-59254869D01*
X160311267Y-59309777D01*
X160390223Y-59388733D01*
X160489714Y-59439426D01*
X160489717Y-59439427D01*
X160599997Y-59456894D01*
X160600000Y-59456894D01*
X160600003Y-59456894D01*
X160710282Y-59439427D01*
X160710283Y-59439426D01*
X160710286Y-59439426D01*
X160809777Y-59388733D01*
X160888733Y-59309777D01*
X160939426Y-59210286D01*
X160939427Y-59210282D01*
X160956894Y-59100003D01*
X160956894Y-59099996D01*
X160939427Y-58989717D01*
X160939425Y-58989712D01*
X160888733Y-58890223D01*
X160809776Y-58811266D01*
X160710287Y-58760574D01*
X160710282Y-58760572D01*
X160600003Y-58743106D01*
X160599997Y-58743106D01*
X160489717Y-58760572D01*
X160489712Y-58760574D01*
X160390223Y-58811266D01*
X160311266Y-58890223D01*
X160260574Y-58989712D01*
X160260572Y-58989717D01*
X160243106Y-59099996D01*
X139391472Y-59099996D01*
X139437500Y-59009661D01*
X139440659Y-58989717D01*
X139454869Y-58900003D01*
X139454869Y-58899996D01*
X139437501Y-58790342D01*
X139437499Y-58790337D01*
X139387095Y-58691413D01*
X139308586Y-58612904D01*
X139209662Y-58562500D01*
X139209657Y-58562498D01*
X139100003Y-58545131D01*
X139099997Y-58545131D01*
X138990342Y-58562498D01*
X138990337Y-58562500D01*
X138891413Y-58612904D01*
X138812904Y-58691413D01*
X138762500Y-58790337D01*
X138762498Y-58790342D01*
X138745131Y-58899996D01*
X109700500Y-58899996D01*
X109700500Y-58119994D01*
X139105133Y-58119994D01*
X139105133Y-58120001D01*
X139122500Y-58229655D01*
X139122502Y-58229660D01*
X139172906Y-58328584D01*
X139172907Y-58328585D01*
X139251415Y-58407093D01*
X139350341Y-58457498D01*
X139350344Y-58457499D01*
X139459999Y-58474867D01*
X139460002Y-58474867D01*
X139460005Y-58474867D01*
X139569659Y-58457499D01*
X139569660Y-58457498D01*
X139569663Y-58457498D01*
X139668589Y-58407093D01*
X139747097Y-58328585D01*
X139797502Y-58229659D01*
X139814871Y-58119998D01*
X139814871Y-58119994D01*
X139797503Y-58010340D01*
X139797501Y-58010335D01*
X139747097Y-57911411D01*
X139668588Y-57832902D01*
X139569664Y-57782498D01*
X139569659Y-57782496D01*
X139460005Y-57765129D01*
X139459999Y-57765129D01*
X139350344Y-57782496D01*
X139350339Y-57782498D01*
X139251415Y-57832902D01*
X139172906Y-57911411D01*
X139122502Y-58010335D01*
X139122500Y-58010340D01*
X139105133Y-58119994D01*
X109700500Y-58119994D01*
X109700500Y-56899996D01*
X117643106Y-56899996D01*
X117643106Y-56900003D01*
X117660572Y-57010282D01*
X117660574Y-57010287D01*
X117711266Y-57109776D01*
X117711267Y-57109777D01*
X117790223Y-57188733D01*
X117889714Y-57239426D01*
X117889717Y-57239427D01*
X117999997Y-57256894D01*
X118000000Y-57256894D01*
X118000003Y-57256894D01*
X118110282Y-57239427D01*
X118110283Y-57239426D01*
X118110286Y-57239426D01*
X118209777Y-57188733D01*
X118288733Y-57109777D01*
X118339426Y-57010286D01*
X118342840Y-56988733D01*
X118356894Y-56900003D01*
X118356894Y-56899996D01*
X118339427Y-56789717D01*
X118339425Y-56789712D01*
X118293713Y-56699996D01*
X144543106Y-56699996D01*
X144543106Y-56700003D01*
X144560572Y-56810282D01*
X144560574Y-56810287D01*
X144611266Y-56909776D01*
X144611267Y-56909777D01*
X144690223Y-56988733D01*
X144789714Y-57039426D01*
X144789717Y-57039427D01*
X144899997Y-57056894D01*
X144900000Y-57056894D01*
X144900003Y-57056894D01*
X145010282Y-57039427D01*
X145010283Y-57039426D01*
X145010286Y-57039426D01*
X145109777Y-56988733D01*
X145188733Y-56909777D01*
X145239426Y-56810286D01*
X145242684Y-56789717D01*
X145256894Y-56700003D01*
X145256894Y-56699996D01*
X149543106Y-56699996D01*
X149543106Y-56700003D01*
X149560572Y-56810282D01*
X149560574Y-56810287D01*
X149611266Y-56909776D01*
X149611267Y-56909777D01*
X149690223Y-56988733D01*
X149789714Y-57039426D01*
X149789717Y-57039427D01*
X149899997Y-57056894D01*
X149900000Y-57056894D01*
X149900003Y-57056894D01*
X150010282Y-57039427D01*
X150010283Y-57039426D01*
X150010286Y-57039426D01*
X150109777Y-56988733D01*
X150188733Y-56909777D01*
X150239426Y-56810286D01*
X150242684Y-56789717D01*
X150256894Y-56700003D01*
X150256894Y-56699996D01*
X156043106Y-56699996D01*
X156043106Y-56700003D01*
X156060572Y-56810282D01*
X156060574Y-56810287D01*
X156111266Y-56909776D01*
X156111267Y-56909777D01*
X156190223Y-56988733D01*
X156289714Y-57039426D01*
X156289717Y-57039427D01*
X156399997Y-57056894D01*
X156400000Y-57056894D01*
X156400003Y-57056894D01*
X156510282Y-57039427D01*
X156510283Y-57039426D01*
X156510286Y-57039426D01*
X156609777Y-56988733D01*
X156688733Y-56909777D01*
X156739426Y-56810286D01*
X156742684Y-56789717D01*
X156756894Y-56700003D01*
X156756894Y-56699996D01*
X156739427Y-56589717D01*
X156739425Y-56589712D01*
X156688733Y-56490223D01*
X156609776Y-56411266D01*
X156510287Y-56360574D01*
X156510282Y-56360572D01*
X156400003Y-56343106D01*
X156399997Y-56343106D01*
X156289717Y-56360572D01*
X156289712Y-56360574D01*
X156190223Y-56411266D01*
X156111266Y-56490223D01*
X156060574Y-56589712D01*
X156060572Y-56589717D01*
X156043106Y-56699996D01*
X150256894Y-56699996D01*
X150239427Y-56589717D01*
X150239425Y-56589712D01*
X150188733Y-56490223D01*
X150109776Y-56411266D01*
X150010287Y-56360574D01*
X150010282Y-56360572D01*
X149900003Y-56343106D01*
X149899997Y-56343106D01*
X149789717Y-56360572D01*
X149789712Y-56360574D01*
X149690223Y-56411266D01*
X149611266Y-56490223D01*
X149560574Y-56589712D01*
X149560572Y-56589717D01*
X149543106Y-56699996D01*
X145256894Y-56699996D01*
X145239427Y-56589717D01*
X145239425Y-56589712D01*
X145188733Y-56490223D01*
X145109776Y-56411266D01*
X145010287Y-56360574D01*
X145010282Y-56360572D01*
X144900003Y-56343106D01*
X144899997Y-56343106D01*
X144789717Y-56360572D01*
X144789712Y-56360574D01*
X144690223Y-56411266D01*
X144611266Y-56490223D01*
X144560574Y-56589712D01*
X144560572Y-56589717D01*
X144543106Y-56699996D01*
X118293713Y-56699996D01*
X118288733Y-56690223D01*
X118209776Y-56611266D01*
X118110287Y-56560574D01*
X118110282Y-56560572D01*
X118000003Y-56543106D01*
X117999997Y-56543106D01*
X117889717Y-56560572D01*
X117889712Y-56560574D01*
X117790223Y-56611266D01*
X117711266Y-56690223D01*
X117660574Y-56789712D01*
X117660572Y-56789717D01*
X117643106Y-56899996D01*
X109700500Y-56899996D01*
X109700500Y-55499996D01*
X159345131Y-55499996D01*
X159345131Y-55500003D01*
X159362498Y-55609657D01*
X159362500Y-55609662D01*
X159412904Y-55708586D01*
X159412905Y-55708587D01*
X159491413Y-55787095D01*
X159590339Y-55837500D01*
X159590342Y-55837501D01*
X159699997Y-55854869D01*
X159700000Y-55854869D01*
X159700003Y-55854869D01*
X159809657Y-55837501D01*
X159809658Y-55837500D01*
X159809661Y-55837500D01*
X159908587Y-55787095D01*
X159987095Y-55708587D01*
X160037500Y-55609661D01*
X160054869Y-55500000D01*
X160054869Y-55499996D01*
X160037501Y-55390342D01*
X160037499Y-55390337D01*
X159987095Y-55291413D01*
X159908586Y-55212904D01*
X159809662Y-55162500D01*
X159809657Y-55162498D01*
X159700003Y-55145131D01*
X159699997Y-55145131D01*
X159590342Y-55162498D01*
X159590337Y-55162500D01*
X159491413Y-55212904D01*
X159412904Y-55291413D01*
X159362500Y-55390337D01*
X159362498Y-55390342D01*
X159345131Y-55499996D01*
X109700500Y-55499996D01*
X109700500Y-54999996D01*
X161543106Y-54999996D01*
X161543106Y-55000003D01*
X161560572Y-55110282D01*
X161560574Y-55110287D01*
X161578328Y-55145131D01*
X161611267Y-55209777D01*
X161690223Y-55288733D01*
X161789714Y-55339426D01*
X161789717Y-55339427D01*
X161899997Y-55356894D01*
X161900000Y-55356894D01*
X161900003Y-55356894D01*
X162010282Y-55339427D01*
X162010283Y-55339426D01*
X162010286Y-55339426D01*
X162109777Y-55288733D01*
X162188733Y-55209777D01*
X162239426Y-55110286D01*
X162256894Y-55000000D01*
X162256894Y-54999996D01*
X162239427Y-54889717D01*
X162239425Y-54889712D01*
X162188733Y-54790223D01*
X162109776Y-54711266D01*
X162010287Y-54660574D01*
X162010282Y-54660572D01*
X161900003Y-54643106D01*
X161899997Y-54643106D01*
X161789717Y-54660572D01*
X161789712Y-54660574D01*
X161690223Y-54711266D01*
X161611266Y-54790223D01*
X161560574Y-54889712D01*
X161560572Y-54889717D01*
X161543106Y-54999996D01*
X109700500Y-54999996D01*
X109700500Y-53399996D01*
X157045127Y-53399996D01*
X157045127Y-53400003D01*
X157062494Y-53509657D01*
X157062496Y-53509662D01*
X157112900Y-53608586D01*
X157112901Y-53608587D01*
X157191409Y-53687095D01*
X157290335Y-53737500D01*
X157290338Y-53737501D01*
X157399993Y-53754869D01*
X157399996Y-53754869D01*
X157399999Y-53754869D01*
X157509653Y-53737501D01*
X157509654Y-53737500D01*
X157509657Y-53737500D01*
X157608583Y-53687095D01*
X157687091Y-53608587D01*
X157737496Y-53509661D01*
X157754865Y-53400000D01*
X157754865Y-53399996D01*
X157737497Y-53290342D01*
X157737495Y-53290337D01*
X157687091Y-53191413D01*
X157608582Y-53112904D01*
X157509658Y-53062500D01*
X157509653Y-53062498D01*
X157399999Y-53045131D01*
X157399993Y-53045131D01*
X157290338Y-53062498D01*
X157290333Y-53062500D01*
X157191409Y-53112904D01*
X157112900Y-53191413D01*
X157062496Y-53290337D01*
X157062494Y-53290342D01*
X157045127Y-53399996D01*
X109700500Y-53399996D01*
X109700500Y-50946800D01*
X175160504Y-50946800D01*
X175177998Y-51068477D01*
X175177999Y-51068480D01*
X175229065Y-51180300D01*
X175229069Y-51180306D01*
X175309566Y-51273203D01*
X175309568Y-51273205D01*
X175412984Y-51339666D01*
X175412986Y-51339666D01*
X175412987Y-51339667D01*
X175530934Y-51374300D01*
X175530935Y-51374300D01*
X175653865Y-51374300D01*
X175771816Y-51339666D01*
X175875232Y-51273205D01*
X175955734Y-51180301D01*
X175992771Y-51099200D01*
X179630904Y-51099200D01*
X179648398Y-51220877D01*
X179648399Y-51220880D01*
X179699465Y-51332700D01*
X179699469Y-51332706D01*
X179779966Y-51425603D01*
X179779968Y-51425605D01*
X179883384Y-51492066D01*
X179883386Y-51492066D01*
X179883387Y-51492067D01*
X180001334Y-51526700D01*
X180001335Y-51526700D01*
X180124265Y-51526700D01*
X180242216Y-51492066D01*
X180345632Y-51425605D01*
X180426134Y-51332701D01*
X180477201Y-51220879D01*
X180494696Y-51099200D01*
X180477201Y-50977521D01*
X180426134Y-50865699D01*
X180426130Y-50865693D01*
X180345633Y-50772796D01*
X180345632Y-50772795D01*
X180242216Y-50706334D01*
X180242214Y-50706333D01*
X180242212Y-50706332D01*
X180124266Y-50671700D01*
X180124265Y-50671700D01*
X180001335Y-50671700D01*
X180001334Y-50671700D01*
X179883387Y-50706332D01*
X179779966Y-50772796D01*
X179699469Y-50865693D01*
X179699465Y-50865699D01*
X179648399Y-50977519D01*
X179648398Y-50977522D01*
X179630904Y-51099200D01*
X175992771Y-51099200D01*
X176006801Y-51068479D01*
X176024296Y-50946800D01*
X176006801Y-50825121D01*
X175955734Y-50713299D01*
X175955730Y-50713293D01*
X175875233Y-50620396D01*
X175875232Y-50620395D01*
X175771816Y-50553934D01*
X175771814Y-50553933D01*
X175771812Y-50553932D01*
X175653866Y-50519300D01*
X175653865Y-50519300D01*
X175530935Y-50519300D01*
X175530934Y-50519300D01*
X175412987Y-50553932D01*
X175309566Y-50620396D01*
X175229069Y-50713293D01*
X175229065Y-50713299D01*
X175177999Y-50825119D01*
X175177998Y-50825122D01*
X175160504Y-50946800D01*
X109700500Y-50946800D01*
X109700500Y-49778400D01*
X179630904Y-49778400D01*
X179648398Y-49900077D01*
X179648399Y-49900080D01*
X179699465Y-50011900D01*
X179699469Y-50011906D01*
X179779966Y-50104803D01*
X179779968Y-50104805D01*
X179883384Y-50171266D01*
X179883386Y-50171266D01*
X179883387Y-50171267D01*
X180001334Y-50205900D01*
X180001335Y-50205900D01*
X180124265Y-50205900D01*
X180242216Y-50171266D01*
X180345632Y-50104805D01*
X180426134Y-50011901D01*
X180477201Y-49900079D01*
X180494696Y-49778400D01*
X180477201Y-49656721D01*
X180426134Y-49544899D01*
X180426130Y-49544893D01*
X180345633Y-49451996D01*
X180345632Y-49451995D01*
X180242216Y-49385534D01*
X180242214Y-49385533D01*
X180242212Y-49385532D01*
X180124266Y-49350900D01*
X180124265Y-49350900D01*
X180001335Y-49350900D01*
X180001334Y-49350900D01*
X179883387Y-49385532D01*
X179779966Y-49451996D01*
X179699469Y-49544893D01*
X179699465Y-49544899D01*
X179648399Y-49656719D01*
X179648398Y-49656722D01*
X179630904Y-49778400D01*
X109700500Y-49778400D01*
X109700500Y-46409995D01*
X117345842Y-46409995D01*
X117345842Y-46410004D01*
X117366428Y-46632174D01*
X117366430Y-46632185D01*
X117427494Y-46846798D01*
X117526953Y-47046539D01*
X117618124Y-47167269D01*
X118159836Y-46625556D01*
X118194910Y-46686306D01*
X118278694Y-46770090D01*
X118339441Y-46805162D01*
X117796687Y-47347916D01*
X117826317Y-47374927D01*
X117826319Y-47374929D01*
X118016028Y-47492392D01*
X118016030Y-47492393D01*
X118224101Y-47572999D01*
X118443428Y-47613999D01*
X118443436Y-47614000D01*
X118666564Y-47614000D01*
X118666571Y-47613999D01*
X118885898Y-47572999D01*
X119093969Y-47492393D01*
X119093971Y-47492392D01*
X119283675Y-47374931D01*
X119283679Y-47374929D01*
X119313311Y-47347915D01*
X118770558Y-46805162D01*
X118831306Y-46770090D01*
X118915090Y-46686306D01*
X118950162Y-46625557D01*
X119491874Y-47167269D01*
X119583046Y-47046539D01*
X119682505Y-46846798D01*
X119743569Y-46632185D01*
X119743571Y-46632174D01*
X119764158Y-46410004D01*
X119764158Y-46409995D01*
X120012884Y-46409995D01*
X120012884Y-46410004D01*
X120031307Y-46608830D01*
X120031309Y-46608841D01*
X120053575Y-46687095D01*
X120077189Y-46770090D01*
X120085958Y-46800907D01*
X120174963Y-46979656D01*
X120174964Y-46979658D01*
X120174966Y-46979661D01*
X120295307Y-47139017D01*
X120442878Y-47273546D01*
X120442877Y-47273546D01*
X120612655Y-47378669D01*
X120612656Y-47378670D01*
X120612659Y-47378671D01*
X120798865Y-47450807D01*
X120995155Y-47487500D01*
X120995158Y-47487500D01*
X121194842Y-47487500D01*
X121194845Y-47487500D01*
X121391135Y-47450807D01*
X121577341Y-47378671D01*
X121747121Y-47273547D01*
X121894693Y-47139017D01*
X122015034Y-46979661D01*
X122104043Y-46800905D01*
X122158691Y-46608838D01*
X122158692Y-46608830D01*
X122177116Y-46410004D01*
X122177116Y-46409995D01*
X122552884Y-46409995D01*
X122552884Y-46410004D01*
X122571307Y-46608830D01*
X122571309Y-46608841D01*
X122593575Y-46687095D01*
X122617189Y-46770090D01*
X122625958Y-46800907D01*
X122714963Y-46979656D01*
X122714964Y-46979658D01*
X122714966Y-46979661D01*
X122835307Y-47139017D01*
X122982878Y-47273546D01*
X122982877Y-47273546D01*
X123152655Y-47378669D01*
X123152656Y-47378670D01*
X123152659Y-47378671D01*
X123338865Y-47450807D01*
X123535155Y-47487500D01*
X123535158Y-47487500D01*
X123734842Y-47487500D01*
X123734845Y-47487500D01*
X123931135Y-47450807D01*
X124117341Y-47378671D01*
X124287121Y-47273547D01*
X124434693Y-47139017D01*
X124555034Y-46979661D01*
X124644043Y-46800905D01*
X124698691Y-46608838D01*
X124698692Y-46608830D01*
X124717116Y-46410004D01*
X124717116Y-46409995D01*
X125092884Y-46409995D01*
X125092884Y-46410004D01*
X125111307Y-46608830D01*
X125111309Y-46608841D01*
X125133575Y-46687095D01*
X125157189Y-46770090D01*
X125165958Y-46800907D01*
X125254963Y-46979656D01*
X125254964Y-46979658D01*
X125254966Y-46979661D01*
X125375307Y-47139017D01*
X125522878Y-47273546D01*
X125522877Y-47273546D01*
X125692655Y-47378669D01*
X125692656Y-47378670D01*
X125692659Y-47378671D01*
X125878865Y-47450807D01*
X126075155Y-47487500D01*
X126075158Y-47487500D01*
X126274842Y-47487500D01*
X126274845Y-47487500D01*
X126471135Y-47450807D01*
X126657341Y-47378671D01*
X126827121Y-47273547D01*
X126974693Y-47139017D01*
X127095034Y-46979661D01*
X127184043Y-46800905D01*
X127238691Y-46608838D01*
X127238692Y-46608830D01*
X127257116Y-46410004D01*
X127257116Y-46409995D01*
X127256189Y-46399996D01*
X144045131Y-46399996D01*
X144045131Y-46400003D01*
X144062498Y-46509657D01*
X144062500Y-46509662D01*
X144107551Y-46598080D01*
X144112905Y-46608587D01*
X144191413Y-46687095D01*
X144290339Y-46737500D01*
X144290342Y-46737501D01*
X144399997Y-46754869D01*
X144400000Y-46754869D01*
X144400003Y-46754869D01*
X144509657Y-46737501D01*
X144509658Y-46737500D01*
X144509661Y-46737500D01*
X144608587Y-46687095D01*
X144687095Y-46608587D01*
X144728563Y-46527200D01*
X176532104Y-46527200D01*
X176549598Y-46648877D01*
X176549599Y-46648880D01*
X176600665Y-46760700D01*
X176600669Y-46760706D01*
X176681166Y-46853603D01*
X176681168Y-46853605D01*
X176784584Y-46920066D01*
X176784586Y-46920066D01*
X176784587Y-46920067D01*
X176902534Y-46954700D01*
X176902535Y-46954700D01*
X177025465Y-46954700D01*
X177143416Y-46920066D01*
X177246832Y-46853605D01*
X177302208Y-46789697D01*
X177327330Y-46760706D01*
X177327331Y-46760704D01*
X177327334Y-46760701D01*
X177378401Y-46648879D01*
X177395896Y-46527200D01*
X177388592Y-46476400D01*
X179563504Y-46476400D01*
X179580998Y-46598077D01*
X179580999Y-46598080D01*
X179632065Y-46709900D01*
X179632069Y-46709906D01*
X179710923Y-46800907D01*
X179712568Y-46802805D01*
X179815984Y-46869266D01*
X179815986Y-46869266D01*
X179815987Y-46869267D01*
X179933934Y-46903900D01*
X179933935Y-46903900D01*
X180056865Y-46903900D01*
X180174816Y-46869266D01*
X180278232Y-46802805D01*
X180358734Y-46709901D01*
X180409801Y-46598079D01*
X180427296Y-46476400D01*
X180409801Y-46354721D01*
X180358734Y-46242899D01*
X180358730Y-46242893D01*
X180278233Y-46149996D01*
X180278232Y-46149995D01*
X180174816Y-46083534D01*
X180174814Y-46083533D01*
X180174812Y-46083532D01*
X180056866Y-46048900D01*
X180056865Y-46048900D01*
X179933935Y-46048900D01*
X179933934Y-46048900D01*
X179815987Y-46083532D01*
X179712566Y-46149996D01*
X179632069Y-46242893D01*
X179632065Y-46242899D01*
X179580999Y-46354719D01*
X179580998Y-46354722D01*
X179563504Y-46476400D01*
X177388592Y-46476400D01*
X177378401Y-46405521D01*
X177327334Y-46293699D01*
X177327330Y-46293693D01*
X177246833Y-46200796D01*
X177246832Y-46200795D01*
X177143416Y-46134334D01*
X177143414Y-46134333D01*
X177143412Y-46134332D01*
X177025466Y-46099700D01*
X177025465Y-46099700D01*
X176902535Y-46099700D01*
X176902534Y-46099700D01*
X176784587Y-46134332D01*
X176681166Y-46200796D01*
X176600669Y-46293693D01*
X176600665Y-46293699D01*
X176549599Y-46405519D01*
X176549598Y-46405522D01*
X176532104Y-46527200D01*
X144728563Y-46527200D01*
X144737500Y-46509661D01*
X144737501Y-46509657D01*
X144754869Y-46400003D01*
X144754869Y-46399996D01*
X144737501Y-46290342D01*
X144737499Y-46290337D01*
X144687095Y-46191413D01*
X144608586Y-46112904D01*
X144509662Y-46062500D01*
X144509657Y-46062498D01*
X144400003Y-46045131D01*
X144399997Y-46045131D01*
X144290342Y-46062498D01*
X144290337Y-46062500D01*
X144191413Y-46112904D01*
X144112904Y-46191413D01*
X144062500Y-46290337D01*
X144062498Y-46290342D01*
X144045131Y-46399996D01*
X127256189Y-46399996D01*
X127238692Y-46211169D01*
X127238690Y-46211158D01*
X127232048Y-46187814D01*
X127184043Y-46019095D01*
X127095034Y-45840339D01*
X126974693Y-45680983D01*
X126885859Y-45600000D01*
X137794508Y-45600000D01*
X137814354Y-45725304D01*
X137814354Y-45725305D01*
X137838891Y-45773460D01*
X137871950Y-45838342D01*
X137961658Y-45928050D01*
X138074696Y-45985646D01*
X138200000Y-46005492D01*
X138325304Y-45985646D01*
X138438342Y-45928050D01*
X138528050Y-45838342D01*
X138585646Y-45725304D01*
X138586357Y-45720816D01*
X149172378Y-45720816D01*
X149172378Y-45720823D01*
X149189745Y-45830477D01*
X149189747Y-45830482D01*
X149240151Y-45929406D01*
X149240152Y-45929407D01*
X149318660Y-46007915D01*
X149417586Y-46058320D01*
X149417589Y-46058321D01*
X149527244Y-46075689D01*
X149527247Y-46075689D01*
X149527250Y-46075689D01*
X149636904Y-46058321D01*
X149636905Y-46058320D01*
X149636908Y-46058320D01*
X149735834Y-46007915D01*
X149814342Y-45929407D01*
X149864747Y-45830481D01*
X149864748Y-45830477D01*
X149882116Y-45720823D01*
X149882116Y-45720816D01*
X149864748Y-45611162D01*
X149864746Y-45611157D01*
X149814342Y-45512233D01*
X149735833Y-45433724D01*
X149636909Y-45383320D01*
X149636904Y-45383318D01*
X149527250Y-45365951D01*
X149527244Y-45365951D01*
X149417589Y-45383318D01*
X149417584Y-45383320D01*
X149318660Y-45433724D01*
X149240151Y-45512233D01*
X149189747Y-45611157D01*
X149189745Y-45611162D01*
X149172378Y-45720816D01*
X138586357Y-45720816D01*
X138605492Y-45600000D01*
X138585646Y-45474696D01*
X138528050Y-45361658D01*
X138438342Y-45271950D01*
X138360556Y-45232316D01*
X150321967Y-45232316D01*
X150321967Y-45232323D01*
X150339334Y-45341977D01*
X150339336Y-45341982D01*
X150389740Y-45440906D01*
X150389741Y-45440907D01*
X150468249Y-45519415D01*
X150567175Y-45569820D01*
X150567178Y-45569821D01*
X150676833Y-45587189D01*
X150676836Y-45587189D01*
X150676839Y-45587189D01*
X150786493Y-45569821D01*
X150786494Y-45569820D01*
X150786497Y-45569820D01*
X150885423Y-45519415D01*
X150963931Y-45440907D01*
X151014336Y-45341981D01*
X151016613Y-45327605D01*
X151031705Y-45232323D01*
X151031705Y-45232316D01*
X151014337Y-45122662D01*
X151014335Y-45122657D01*
X150963931Y-45023733D01*
X150885422Y-44945224D01*
X150786498Y-44894820D01*
X150786493Y-44894818D01*
X150676839Y-44877451D01*
X150676833Y-44877451D01*
X150567178Y-44894818D01*
X150567173Y-44894820D01*
X150468249Y-44945224D01*
X150389740Y-45023733D01*
X150339336Y-45122657D01*
X150339334Y-45122662D01*
X150321967Y-45232316D01*
X138360556Y-45232316D01*
X138325304Y-45214354D01*
X138200000Y-45194508D01*
X138074695Y-45214354D01*
X138074694Y-45214354D01*
X137961657Y-45271950D01*
X137871950Y-45361657D01*
X137814354Y-45474694D01*
X137814354Y-45474695D01*
X137794508Y-45600000D01*
X126885859Y-45600000D01*
X126827121Y-45546453D01*
X126827122Y-45546453D01*
X126657344Y-45441330D01*
X126657343Y-45441329D01*
X126507601Y-45383320D01*
X126471135Y-45369193D01*
X126471132Y-45369192D01*
X126471131Y-45369192D01*
X126274849Y-45332500D01*
X126274845Y-45332500D01*
X126075155Y-45332500D01*
X126075150Y-45332500D01*
X125878868Y-45369192D01*
X125692656Y-45441329D01*
X125692655Y-45441330D01*
X125522877Y-45546453D01*
X125375305Y-45680985D01*
X125375303Y-45680987D01*
X125254966Y-45840339D01*
X125254963Y-45840343D01*
X125165958Y-46019092D01*
X125111309Y-46211158D01*
X125111307Y-46211169D01*
X125092884Y-46409995D01*
X124717116Y-46409995D01*
X124698692Y-46211169D01*
X124698690Y-46211158D01*
X124692048Y-46187814D01*
X124644043Y-46019095D01*
X124555034Y-45840339D01*
X124434693Y-45680983D01*
X124287121Y-45546453D01*
X124287122Y-45546453D01*
X124117344Y-45441330D01*
X124117343Y-45441329D01*
X123967601Y-45383320D01*
X123931135Y-45369193D01*
X123931132Y-45369192D01*
X123931131Y-45369192D01*
X123734849Y-45332500D01*
X123734845Y-45332500D01*
X123535155Y-45332500D01*
X123535150Y-45332500D01*
X123338868Y-45369192D01*
X123152656Y-45441329D01*
X123152655Y-45441330D01*
X122982877Y-45546453D01*
X122835305Y-45680985D01*
X122835303Y-45680987D01*
X122714966Y-45840339D01*
X122714963Y-45840343D01*
X122625958Y-46019092D01*
X122571309Y-46211158D01*
X122571307Y-46211169D01*
X122552884Y-46409995D01*
X122177116Y-46409995D01*
X122158692Y-46211169D01*
X122158690Y-46211158D01*
X122152048Y-46187814D01*
X122104043Y-46019095D01*
X122015034Y-45840339D01*
X121894693Y-45680983D01*
X121747121Y-45546453D01*
X121747122Y-45546453D01*
X121577344Y-45441330D01*
X121577343Y-45441329D01*
X121427601Y-45383320D01*
X121391135Y-45369193D01*
X121391132Y-45369192D01*
X121391131Y-45369192D01*
X121194849Y-45332500D01*
X121194845Y-45332500D01*
X120995155Y-45332500D01*
X120995150Y-45332500D01*
X120798868Y-45369192D01*
X120612656Y-45441329D01*
X120612655Y-45441330D01*
X120442877Y-45546453D01*
X120295305Y-45680985D01*
X120295303Y-45680987D01*
X120174966Y-45840339D01*
X120174963Y-45840343D01*
X120085958Y-46019092D01*
X120031309Y-46211158D01*
X120031307Y-46211169D01*
X120012884Y-46409995D01*
X119764158Y-46409995D01*
X119743571Y-46187825D01*
X119743569Y-46187814D01*
X119682505Y-45973201D01*
X119583046Y-45773460D01*
X119491874Y-45652729D01*
X118950162Y-46194441D01*
X118915090Y-46133694D01*
X118831306Y-46049910D01*
X118770556Y-46014836D01*
X119313311Y-45472082D01*
X119283678Y-45445069D01*
X119093971Y-45327607D01*
X119093969Y-45327606D01*
X118885898Y-45247000D01*
X118666571Y-45206000D01*
X118443428Y-45206000D01*
X118224101Y-45247000D01*
X118016033Y-45327605D01*
X117826321Y-45445069D01*
X117796688Y-45472083D01*
X118339442Y-46014837D01*
X118278694Y-46049910D01*
X118194910Y-46133694D01*
X118159837Y-46194442D01*
X117618124Y-45652729D01*
X117526955Y-45773456D01*
X117427494Y-45973201D01*
X117366430Y-46187814D01*
X117366428Y-46187825D01*
X117345842Y-46409995D01*
X109700500Y-46409995D01*
X109700500Y-43869995D01*
X118742884Y-43869995D01*
X118742884Y-43870004D01*
X118761307Y-44068830D01*
X118761309Y-44068841D01*
X118815958Y-44260907D01*
X118904963Y-44439656D01*
X118904964Y-44439658D01*
X118904966Y-44439661D01*
X119025307Y-44599017D01*
X119172878Y-44733546D01*
X119172877Y-44733546D01*
X119342655Y-44838669D01*
X119342656Y-44838670D01*
X119342659Y-44838671D01*
X119528865Y-44910807D01*
X119725155Y-44947500D01*
X119725158Y-44947500D01*
X119924842Y-44947500D01*
X119924845Y-44947500D01*
X120121135Y-44910807D01*
X120307341Y-44838671D01*
X120477121Y-44733547D01*
X120624693Y-44599017D01*
X120745034Y-44439661D01*
X120834043Y-44260905D01*
X120888691Y-44068838D01*
X120889457Y-44060572D01*
X120907116Y-43870004D01*
X120907116Y-43869995D01*
X121282884Y-43869995D01*
X121282884Y-43870004D01*
X121301307Y-44068830D01*
X121301309Y-44068841D01*
X121355958Y-44260907D01*
X121444963Y-44439656D01*
X121444964Y-44439658D01*
X121444966Y-44439661D01*
X121565307Y-44599017D01*
X121712878Y-44733546D01*
X121712877Y-44733546D01*
X121882655Y-44838669D01*
X121882656Y-44838670D01*
X121882659Y-44838671D01*
X122068865Y-44910807D01*
X122265155Y-44947500D01*
X122265158Y-44947500D01*
X122464842Y-44947500D01*
X122464845Y-44947500D01*
X122661135Y-44910807D01*
X122847341Y-44838671D01*
X123017121Y-44733547D01*
X123164693Y-44599017D01*
X123285034Y-44439661D01*
X123374043Y-44260905D01*
X123428691Y-44068838D01*
X123429457Y-44060572D01*
X123447116Y-43870004D01*
X123447116Y-43869995D01*
X123822884Y-43869995D01*
X123822884Y-43870004D01*
X123841307Y-44068830D01*
X123841309Y-44068841D01*
X123895958Y-44260907D01*
X123984963Y-44439656D01*
X123984964Y-44439658D01*
X123984966Y-44439661D01*
X124105307Y-44599017D01*
X124252878Y-44733546D01*
X124252877Y-44733546D01*
X124422655Y-44838669D01*
X124422656Y-44838670D01*
X124422659Y-44838671D01*
X124608865Y-44910807D01*
X124805155Y-44947500D01*
X124805158Y-44947500D01*
X125004842Y-44947500D01*
X125004845Y-44947500D01*
X125201135Y-44910807D01*
X125387341Y-44838671D01*
X125557121Y-44733547D01*
X125704693Y-44599017D01*
X125825034Y-44439661D01*
X125914043Y-44260905D01*
X125968691Y-44068838D01*
X125969457Y-44060572D01*
X125987116Y-43870004D01*
X125987116Y-43869995D01*
X125968692Y-43671169D01*
X125968690Y-43671158D01*
X125962814Y-43650508D01*
X125914043Y-43479095D01*
X125825034Y-43300339D01*
X125704693Y-43140983D01*
X125557121Y-43006453D01*
X125557122Y-43006453D01*
X125397215Y-42907442D01*
X126367500Y-42907442D01*
X126367500Y-44832557D01*
X126374898Y-44869748D01*
X126374898Y-44869749D01*
X126403077Y-44911922D01*
X126431257Y-44930750D01*
X126445252Y-44940102D01*
X126482442Y-44947500D01*
X126482443Y-44947500D01*
X128407557Y-44947500D01*
X128407558Y-44947500D01*
X128444748Y-44940102D01*
X128486922Y-44911922D01*
X128515102Y-44869748D01*
X128522500Y-44832558D01*
X128522500Y-44399996D01*
X129143106Y-44399996D01*
X129143106Y-44400003D01*
X129160572Y-44510282D01*
X129160574Y-44510287D01*
X129211266Y-44609776D01*
X129211267Y-44609777D01*
X129290223Y-44688733D01*
X129389714Y-44739426D01*
X129389717Y-44739427D01*
X129499997Y-44756894D01*
X129500000Y-44756894D01*
X129500003Y-44756894D01*
X129610282Y-44739427D01*
X129610283Y-44739426D01*
X129610286Y-44739426D01*
X129709777Y-44688733D01*
X129788733Y-44609777D01*
X129839426Y-44510286D01*
X129839427Y-44510282D01*
X129856894Y-44400003D01*
X129856894Y-44399996D01*
X129839427Y-44289717D01*
X129839425Y-44289712D01*
X129788733Y-44190223D01*
X129709776Y-44111266D01*
X129687665Y-44100000D01*
X137794508Y-44100000D01*
X137814354Y-44225304D01*
X137814354Y-44225305D01*
X137847174Y-44289717D01*
X137871950Y-44338342D01*
X137961658Y-44428050D01*
X138074696Y-44485646D01*
X138200000Y-44505492D01*
X138325304Y-44485646D01*
X138438342Y-44428050D01*
X138528050Y-44338342D01*
X138585646Y-44225304D01*
X138605492Y-44100000D01*
X138585646Y-43974696D01*
X138528050Y-43861658D01*
X138438342Y-43771950D01*
X138325304Y-43714354D01*
X138200000Y-43694508D01*
X138074695Y-43714354D01*
X138074694Y-43714354D01*
X137961657Y-43771950D01*
X137871950Y-43861657D01*
X137814354Y-43974694D01*
X137814354Y-43974695D01*
X137794508Y-44100000D01*
X129687665Y-44100000D01*
X129610287Y-44060574D01*
X129610282Y-44060572D01*
X129500003Y-44043106D01*
X129499997Y-44043106D01*
X129389717Y-44060572D01*
X129389712Y-44060574D01*
X129290223Y-44111266D01*
X129211266Y-44190223D01*
X129160574Y-44289712D01*
X129160572Y-44289717D01*
X129143106Y-44399996D01*
X128522500Y-44399996D01*
X128522500Y-43099996D01*
X154045131Y-43099996D01*
X154045131Y-43100003D01*
X154062498Y-43209657D01*
X154062500Y-43209662D01*
X154108702Y-43300339D01*
X154112905Y-43308587D01*
X154191413Y-43387095D01*
X154290339Y-43437500D01*
X154290342Y-43437501D01*
X154399997Y-43454869D01*
X154400000Y-43454869D01*
X154400003Y-43454869D01*
X154509657Y-43437501D01*
X154509658Y-43437500D01*
X154509661Y-43437500D01*
X154608587Y-43387095D01*
X154687095Y-43308587D01*
X154737500Y-43209661D01*
X154737501Y-43209657D01*
X154754869Y-43100003D01*
X154754869Y-43099996D01*
X154737501Y-42990342D01*
X154737499Y-42990337D01*
X154687095Y-42891413D01*
X154608586Y-42812904D01*
X154509662Y-42762500D01*
X154509657Y-42762498D01*
X154400003Y-42745131D01*
X154399997Y-42745131D01*
X154290342Y-42762498D01*
X154290337Y-42762500D01*
X154191413Y-42812904D01*
X154112904Y-42891413D01*
X154062500Y-42990337D01*
X154062498Y-42990342D01*
X154045131Y-43099996D01*
X128522500Y-43099996D01*
X128522500Y-42907442D01*
X128515102Y-42870252D01*
X128515101Y-42870250D01*
X128486922Y-42828077D01*
X128444748Y-42799898D01*
X128407558Y-42792500D01*
X126482442Y-42792500D01*
X126463847Y-42796199D01*
X126445251Y-42799898D01*
X126445250Y-42799898D01*
X126403077Y-42828077D01*
X126374898Y-42870250D01*
X126374898Y-42870251D01*
X126367500Y-42907442D01*
X125397215Y-42907442D01*
X125387344Y-42901330D01*
X125387343Y-42901329D01*
X125278405Y-42859127D01*
X125201135Y-42829193D01*
X125201132Y-42829192D01*
X125201131Y-42829192D01*
X125004849Y-42792500D01*
X125004845Y-42792500D01*
X124805155Y-42792500D01*
X124805150Y-42792500D01*
X124608868Y-42829192D01*
X124422656Y-42901329D01*
X124422655Y-42901330D01*
X124252877Y-43006453D01*
X124105305Y-43140985D01*
X124105303Y-43140987D01*
X123984966Y-43300339D01*
X123984963Y-43300343D01*
X123895958Y-43479092D01*
X123841309Y-43671158D01*
X123841307Y-43671169D01*
X123822884Y-43869995D01*
X123447116Y-43869995D01*
X123428692Y-43671169D01*
X123428690Y-43671158D01*
X123422814Y-43650508D01*
X123374043Y-43479095D01*
X123285034Y-43300339D01*
X123164693Y-43140983D01*
X123017121Y-43006453D01*
X123017122Y-43006453D01*
X122847344Y-42901330D01*
X122847343Y-42901329D01*
X122738405Y-42859127D01*
X122661135Y-42829193D01*
X122661132Y-42829192D01*
X122661131Y-42829192D01*
X122464849Y-42792500D01*
X122464845Y-42792500D01*
X122265155Y-42792500D01*
X122265150Y-42792500D01*
X122068868Y-42829192D01*
X121882656Y-42901329D01*
X121882655Y-42901330D01*
X121712877Y-43006453D01*
X121565305Y-43140985D01*
X121565303Y-43140987D01*
X121444966Y-43300339D01*
X121444963Y-43300343D01*
X121355958Y-43479092D01*
X121301309Y-43671158D01*
X121301307Y-43671169D01*
X121282884Y-43869995D01*
X120907116Y-43869995D01*
X120888692Y-43671169D01*
X120888690Y-43671158D01*
X120882814Y-43650508D01*
X120834043Y-43479095D01*
X120745034Y-43300339D01*
X120624693Y-43140983D01*
X120477121Y-43006453D01*
X120477122Y-43006453D01*
X120307344Y-42901330D01*
X120307343Y-42901329D01*
X120198405Y-42859127D01*
X120121135Y-42829193D01*
X120121132Y-42829192D01*
X120121131Y-42829192D01*
X119924849Y-42792500D01*
X119924845Y-42792500D01*
X119725155Y-42792500D01*
X119725150Y-42792500D01*
X119528868Y-42829192D01*
X119342656Y-42901329D01*
X119342655Y-42901330D01*
X119172877Y-43006453D01*
X119025305Y-43140985D01*
X119025303Y-43140987D01*
X118904966Y-43300339D01*
X118904963Y-43300343D01*
X118815958Y-43479092D01*
X118761309Y-43671158D01*
X118761307Y-43671169D01*
X118742884Y-43869995D01*
X109700500Y-43869995D01*
X109700500Y-40579994D01*
X113666195Y-40579994D01*
X113666195Y-40580005D01*
X113685384Y-40823843D01*
X113685385Y-40823848D01*
X113742486Y-41061691D01*
X113742489Y-41061700D01*
X113836092Y-41287677D01*
X113836094Y-41287681D01*
X113963898Y-41496240D01*
X113963902Y-41496246D01*
X114040021Y-41585370D01*
X114040022Y-41585371D01*
X114576291Y-41049101D01*
X114603599Y-41089970D01*
X114715030Y-41201401D01*
X114755896Y-41228707D01*
X114219627Y-41764976D01*
X114219628Y-41764977D01*
X114308753Y-41841097D01*
X114308759Y-41841101D01*
X114517318Y-41968905D01*
X114517322Y-41968907D01*
X114743299Y-42062510D01*
X114743308Y-42062513D01*
X114981151Y-42119614D01*
X114981156Y-42119615D01*
X115224995Y-42138805D01*
X115225005Y-42138805D01*
X115468843Y-42119615D01*
X115468848Y-42119614D01*
X115706691Y-42062513D01*
X115706700Y-42062510D01*
X115932677Y-41968907D01*
X115932681Y-41968905D01*
X116141243Y-41841099D01*
X116230371Y-41764976D01*
X115694102Y-41228707D01*
X115734970Y-41201401D01*
X115846401Y-41089970D01*
X115873707Y-41049102D01*
X116409976Y-41585371D01*
X116486099Y-41496243D01*
X116613905Y-41287681D01*
X116613907Y-41287677D01*
X116707510Y-41061700D01*
X116707513Y-41061691D01*
X116764614Y-40823848D01*
X116764615Y-40823843D01*
X116783805Y-40580005D01*
X116783805Y-40579994D01*
X129216195Y-40579994D01*
X129216195Y-40580005D01*
X129235384Y-40823843D01*
X129235385Y-40823848D01*
X129292486Y-41061691D01*
X129292489Y-41061700D01*
X129386092Y-41287677D01*
X129386094Y-41287681D01*
X129513898Y-41496240D01*
X129513902Y-41496246D01*
X129590021Y-41585370D01*
X129590022Y-41585371D01*
X130126291Y-41049101D01*
X130153599Y-41089970D01*
X130265030Y-41201401D01*
X130305896Y-41228707D01*
X129769627Y-41764976D01*
X129769628Y-41764977D01*
X129858753Y-41841097D01*
X129858759Y-41841101D01*
X130067318Y-41968905D01*
X130067322Y-41968907D01*
X130293299Y-42062510D01*
X130293308Y-42062513D01*
X130531151Y-42119614D01*
X130531156Y-42119615D01*
X130774995Y-42138805D01*
X130775005Y-42138805D01*
X131018843Y-42119615D01*
X131018848Y-42119614D01*
X131256691Y-42062513D01*
X131256700Y-42062510D01*
X131482677Y-41968907D01*
X131482681Y-41968905D01*
X131691243Y-41841099D01*
X131780371Y-41764976D01*
X131615391Y-41599996D01*
X132530604Y-41599996D01*
X132530604Y-41600003D01*
X132548070Y-41710282D01*
X132548072Y-41710287D01*
X132598764Y-41809776D01*
X132677721Y-41888733D01*
X132775084Y-41938342D01*
X132777212Y-41939426D01*
X132777215Y-41939427D01*
X132887495Y-41956894D01*
X132887498Y-41956894D01*
X132887501Y-41956894D01*
X132997780Y-41939427D01*
X132997781Y-41939426D01*
X132997784Y-41939426D01*
X133097275Y-41888733D01*
X133176231Y-41809777D01*
X133226924Y-41710286D01*
X133227719Y-41705269D01*
X133228554Y-41700000D01*
X137794508Y-41700000D01*
X137814354Y-41825304D01*
X137814354Y-41825305D01*
X137846673Y-41888733D01*
X137871950Y-41938342D01*
X137961658Y-42028050D01*
X138074696Y-42085646D01*
X138200000Y-42105492D01*
X138325304Y-42085646D01*
X138438342Y-42028050D01*
X138528050Y-41938342D01*
X138585646Y-41825304D01*
X138605492Y-41700000D01*
X138598455Y-41655572D01*
X144378403Y-41655572D01*
X144378403Y-41655579D01*
X144395770Y-41765233D01*
X144395772Y-41765238D01*
X144434424Y-41841097D01*
X144446177Y-41864163D01*
X144524685Y-41942671D01*
X144623611Y-41993076D01*
X144623614Y-41993077D01*
X144733269Y-42010445D01*
X144733272Y-42010445D01*
X144733275Y-42010445D01*
X144842929Y-41993077D01*
X144842930Y-41993076D01*
X144842933Y-41993076D01*
X144941859Y-41942671D01*
X145020367Y-41864163D01*
X145068613Y-41769474D01*
X145104986Y-41738408D01*
X145152674Y-41742161D01*
X145174536Y-41753300D01*
X145174538Y-41753301D01*
X145174541Y-41753302D01*
X145284196Y-41770670D01*
X145284199Y-41770670D01*
X145284202Y-41770670D01*
X145393856Y-41753302D01*
X145393857Y-41753301D01*
X145393860Y-41753301D01*
X145492786Y-41702896D01*
X145571294Y-41624388D01*
X145621699Y-41525462D01*
X145621700Y-41525458D01*
X145639068Y-41415804D01*
X145639068Y-41415797D01*
X145621700Y-41306143D01*
X145621698Y-41306138D01*
X145571294Y-41207214D01*
X145492785Y-41128705D01*
X145393861Y-41078301D01*
X145393856Y-41078299D01*
X145284202Y-41060932D01*
X145284196Y-41060932D01*
X145174541Y-41078299D01*
X145174536Y-41078301D01*
X145075612Y-41128705D01*
X144997104Y-41207213D01*
X144948858Y-41301902D01*
X144912483Y-41332968D01*
X144864796Y-41329215D01*
X144842934Y-41318076D01*
X144842929Y-41318074D01*
X144733275Y-41300707D01*
X144733269Y-41300707D01*
X144623614Y-41318074D01*
X144623609Y-41318076D01*
X144524685Y-41368480D01*
X144446176Y-41446989D01*
X144395772Y-41545913D01*
X144395770Y-41545918D01*
X144378403Y-41655572D01*
X138598455Y-41655572D01*
X138585646Y-41574696D01*
X138528050Y-41461658D01*
X138438342Y-41371950D01*
X138325304Y-41314354D01*
X138200000Y-41294508D01*
X138074695Y-41314354D01*
X138074694Y-41314354D01*
X137961657Y-41371950D01*
X137871950Y-41461657D01*
X137814354Y-41574694D01*
X137814354Y-41574695D01*
X137794508Y-41700000D01*
X133228554Y-41700000D01*
X133244392Y-41600003D01*
X133244392Y-41599996D01*
X133226925Y-41489717D01*
X133226923Y-41489712D01*
X133176231Y-41390223D01*
X133097274Y-41311266D01*
X132997785Y-41260574D01*
X132997780Y-41260572D01*
X132887501Y-41243106D01*
X132887495Y-41243106D01*
X132777215Y-41260572D01*
X132777210Y-41260574D01*
X132677721Y-41311266D01*
X132598764Y-41390223D01*
X132548072Y-41489712D01*
X132548070Y-41489717D01*
X132530604Y-41599996D01*
X131615391Y-41599996D01*
X131244102Y-41228707D01*
X131284970Y-41201401D01*
X131396401Y-41089970D01*
X131423707Y-41049102D01*
X131959976Y-41585371D01*
X132036099Y-41496243D01*
X132163905Y-41287681D01*
X132163907Y-41287677D01*
X132257510Y-41061700D01*
X132257513Y-41061691D01*
X132314614Y-40823848D01*
X132314615Y-40823843D01*
X132333805Y-40580005D01*
X132333805Y-40579994D01*
X132314615Y-40336156D01*
X132314614Y-40336151D01*
X132305935Y-40300002D01*
X145545131Y-40300002D01*
X145545131Y-40300009D01*
X145562498Y-40409663D01*
X145562500Y-40409668D01*
X145612904Y-40508592D01*
X145612905Y-40508593D01*
X145691413Y-40587101D01*
X145790339Y-40637506D01*
X145790342Y-40637507D01*
X145899997Y-40654875D01*
X145900000Y-40654875D01*
X145900003Y-40654875D01*
X146009657Y-40637507D01*
X146009658Y-40637506D01*
X146009661Y-40637506D01*
X146108587Y-40587101D01*
X146187095Y-40508593D01*
X146237500Y-40409667D01*
X146238969Y-40400394D01*
X146254869Y-40300009D01*
X146254869Y-40300002D01*
X146237501Y-40190348D01*
X146237499Y-40190343D01*
X146187095Y-40091419D01*
X146108586Y-40012910D01*
X146009662Y-39962506D01*
X146009657Y-39962504D01*
X145900003Y-39945137D01*
X145899997Y-39945137D01*
X145790342Y-39962504D01*
X145790337Y-39962506D01*
X145691413Y-40012910D01*
X145612904Y-40091419D01*
X145562500Y-40190343D01*
X145562498Y-40190348D01*
X145545131Y-40300002D01*
X132305935Y-40300002D01*
X132257513Y-40098308D01*
X132257510Y-40098299D01*
X132163907Y-39872322D01*
X132163905Y-39872318D01*
X132036101Y-39663759D01*
X132036097Y-39663753D01*
X131959977Y-39574628D01*
X131959976Y-39574627D01*
X131423707Y-40110896D01*
X131396401Y-40070030D01*
X131284970Y-39958599D01*
X131244101Y-39931291D01*
X131780371Y-39395022D01*
X131780370Y-39395021D01*
X131691246Y-39318902D01*
X131691240Y-39318898D01*
X131660401Y-39300000D01*
X137794508Y-39300000D01*
X137814354Y-39425304D01*
X137814354Y-39425305D01*
X137852414Y-39500000D01*
X137871950Y-39538342D01*
X137961658Y-39628050D01*
X138074696Y-39685646D01*
X138200000Y-39705492D01*
X138325304Y-39685646D01*
X138438342Y-39628050D01*
X138528050Y-39538342D01*
X138547588Y-39499996D01*
X151145131Y-39499996D01*
X151145131Y-39500003D01*
X151162498Y-39609657D01*
X151162500Y-39609662D01*
X151211328Y-39705492D01*
X151212905Y-39708587D01*
X151291413Y-39787095D01*
X151390339Y-39837500D01*
X151390342Y-39837501D01*
X151499997Y-39854869D01*
X151500000Y-39854869D01*
X151500003Y-39854869D01*
X151609657Y-39837501D01*
X151609658Y-39837500D01*
X151609661Y-39837500D01*
X151708587Y-39787095D01*
X151787095Y-39708587D01*
X151837500Y-39609661D01*
X151843049Y-39574627D01*
X151854869Y-39500003D01*
X151854869Y-39499996D01*
X177343106Y-39499996D01*
X177343106Y-39500003D01*
X177360572Y-39610282D01*
X177360574Y-39610287D01*
X177411266Y-39709776D01*
X177411267Y-39709777D01*
X177490223Y-39788733D01*
X177589714Y-39839426D01*
X177589717Y-39839427D01*
X177699997Y-39856894D01*
X177700000Y-39856894D01*
X177700003Y-39856894D01*
X177810282Y-39839427D01*
X177810283Y-39839426D01*
X177810286Y-39839426D01*
X177909777Y-39788733D01*
X177988733Y-39709777D01*
X178039426Y-39610286D01*
X178045074Y-39574627D01*
X178056894Y-39500003D01*
X178056894Y-39499996D01*
X178039427Y-39389717D01*
X178039425Y-39389712D01*
X177988733Y-39290223D01*
X177909776Y-39211266D01*
X177810287Y-39160574D01*
X177810282Y-39160572D01*
X177700003Y-39143106D01*
X177699997Y-39143106D01*
X177589717Y-39160572D01*
X177589712Y-39160574D01*
X177490223Y-39211266D01*
X177411266Y-39290223D01*
X177360574Y-39389712D01*
X177360572Y-39389717D01*
X177343106Y-39499996D01*
X151854869Y-39499996D01*
X151837501Y-39390342D01*
X151837499Y-39390337D01*
X151787095Y-39291413D01*
X151708586Y-39212904D01*
X151609662Y-39162500D01*
X151609657Y-39162498D01*
X151500003Y-39145131D01*
X151499997Y-39145131D01*
X151390342Y-39162498D01*
X151390337Y-39162500D01*
X151291413Y-39212904D01*
X151212904Y-39291413D01*
X151162500Y-39390337D01*
X151162498Y-39390342D01*
X151145131Y-39499996D01*
X138547588Y-39499996D01*
X138585646Y-39425304D01*
X138605492Y-39300000D01*
X138585646Y-39174696D01*
X138528050Y-39061658D01*
X138466384Y-38999992D01*
X145545131Y-38999992D01*
X145545131Y-38999999D01*
X145562498Y-39109653D01*
X145562500Y-39109658D01*
X145612904Y-39208582D01*
X145612905Y-39208583D01*
X145691413Y-39287091D01*
X145790339Y-39337496D01*
X145790342Y-39337497D01*
X145899997Y-39354865D01*
X145900000Y-39354865D01*
X145900003Y-39354865D01*
X146009657Y-39337497D01*
X146009658Y-39337496D01*
X146009661Y-39337496D01*
X146108587Y-39287091D01*
X146187095Y-39208583D01*
X146237500Y-39109657D01*
X146237501Y-39109653D01*
X146254869Y-38999999D01*
X146254869Y-38999992D01*
X146237501Y-38890338D01*
X146237499Y-38890333D01*
X146187095Y-38791409D01*
X146108586Y-38712900D01*
X146009662Y-38662496D01*
X146009657Y-38662494D01*
X145900003Y-38645127D01*
X145899997Y-38645127D01*
X145790342Y-38662494D01*
X145790337Y-38662496D01*
X145691413Y-38712900D01*
X145612904Y-38791409D01*
X145562500Y-38890333D01*
X145562498Y-38890338D01*
X145545131Y-38999992D01*
X138466384Y-38999992D01*
X138438342Y-38971950D01*
X138325304Y-38914354D01*
X138200000Y-38894508D01*
X138074695Y-38914354D01*
X138074694Y-38914354D01*
X137961657Y-38971950D01*
X137871950Y-39061657D01*
X137814354Y-39174694D01*
X137814354Y-39174695D01*
X137794508Y-39300000D01*
X131660401Y-39300000D01*
X131482681Y-39191094D01*
X131482677Y-39191092D01*
X131256700Y-39097489D01*
X131256691Y-39097486D01*
X131018848Y-39040385D01*
X131018843Y-39040384D01*
X130775005Y-39021195D01*
X130774995Y-39021195D01*
X130531156Y-39040384D01*
X130531151Y-39040385D01*
X130293308Y-39097486D01*
X130293299Y-39097489D01*
X130067322Y-39191092D01*
X130067318Y-39191094D01*
X129858759Y-39318898D01*
X129858753Y-39318902D01*
X129769628Y-39395022D01*
X129769628Y-39395023D01*
X130305897Y-39931292D01*
X130265030Y-39958599D01*
X130153599Y-40070030D01*
X130126292Y-40110897D01*
X129590023Y-39574628D01*
X129590022Y-39574628D01*
X129513902Y-39663753D01*
X129513898Y-39663759D01*
X129386094Y-39872318D01*
X129386092Y-39872322D01*
X129292489Y-40098299D01*
X129292486Y-40098308D01*
X129235385Y-40336151D01*
X129235384Y-40336156D01*
X129216195Y-40579994D01*
X116783805Y-40579994D01*
X116764615Y-40336156D01*
X116764614Y-40336151D01*
X116707513Y-40098308D01*
X116707510Y-40098299D01*
X116613907Y-39872322D01*
X116613905Y-39872318D01*
X116486101Y-39663759D01*
X116486097Y-39663753D01*
X116409977Y-39574628D01*
X116409976Y-39574627D01*
X115873707Y-40110896D01*
X115846401Y-40070030D01*
X115734970Y-39958599D01*
X115694101Y-39931291D01*
X116230371Y-39395022D01*
X116230370Y-39395021D01*
X116141246Y-39318902D01*
X116141240Y-39318898D01*
X115932681Y-39191094D01*
X115932677Y-39191092D01*
X115706700Y-39097489D01*
X115706691Y-39097486D01*
X115468848Y-39040385D01*
X115468843Y-39040384D01*
X115225005Y-39021195D01*
X115224995Y-39021195D01*
X114981156Y-39040384D01*
X114981151Y-39040385D01*
X114743308Y-39097486D01*
X114743299Y-39097489D01*
X114517322Y-39191092D01*
X114517318Y-39191094D01*
X114308759Y-39318898D01*
X114308753Y-39318902D01*
X114219628Y-39395022D01*
X114219628Y-39395023D01*
X114755897Y-39931292D01*
X114715030Y-39958599D01*
X114603599Y-40070030D01*
X114576292Y-40110897D01*
X114040023Y-39574628D01*
X114040022Y-39574628D01*
X113963902Y-39663753D01*
X113963898Y-39663759D01*
X113836094Y-39872318D01*
X113836092Y-39872322D01*
X113742489Y-40098299D01*
X113742486Y-40098308D01*
X113685385Y-40336151D01*
X113685384Y-40336156D01*
X113666195Y-40579994D01*
X109700500Y-40579994D01*
X109700500Y-37407068D01*
X115409500Y-37407068D01*
X115409500Y-37652931D01*
X115441590Y-37896670D01*
X115441593Y-37896689D01*
X115505220Y-38134147D01*
X115599303Y-38361286D01*
X115599306Y-38361292D01*
X115722233Y-38574208D01*
X115871899Y-38769256D01*
X116045744Y-38943101D01*
X116240792Y-39092767D01*
X116453708Y-39215694D01*
X116680847Y-39309778D01*
X116680851Y-39309779D01*
X116918310Y-39373406D01*
X116918314Y-39373406D01*
X116918323Y-39373409D01*
X117162073Y-39405500D01*
X117162079Y-39405500D01*
X117407921Y-39405500D01*
X117407927Y-39405500D01*
X117651677Y-39373409D01*
X117651687Y-39373406D01*
X117651689Y-39373406D01*
X117785703Y-39337497D01*
X117889153Y-39309778D01*
X118116292Y-39215694D01*
X118329208Y-39092767D01*
X118524256Y-38943101D01*
X118698101Y-38769256D01*
X118847767Y-38574208D01*
X118970694Y-38361292D01*
X119064778Y-38134153D01*
X119128409Y-37896677D01*
X119160500Y-37652927D01*
X119160500Y-37407073D01*
X119160499Y-37407068D01*
X126839500Y-37407068D01*
X126839500Y-37652931D01*
X126871590Y-37896670D01*
X126871593Y-37896689D01*
X126935220Y-38134147D01*
X127029303Y-38361286D01*
X127029306Y-38361292D01*
X127152233Y-38574208D01*
X127301899Y-38769256D01*
X127475744Y-38943101D01*
X127670792Y-39092767D01*
X127883708Y-39215694D01*
X128110847Y-39309778D01*
X128110851Y-39309779D01*
X128348310Y-39373406D01*
X128348314Y-39373406D01*
X128348323Y-39373409D01*
X128592073Y-39405500D01*
X128592079Y-39405500D01*
X128837921Y-39405500D01*
X128837927Y-39405500D01*
X129081677Y-39373409D01*
X129081687Y-39373406D01*
X129081689Y-39373406D01*
X129215703Y-39337497D01*
X129319153Y-39309778D01*
X129546292Y-39215694D01*
X129759208Y-39092767D01*
X129954256Y-38943101D01*
X130128101Y-38769256D01*
X130277767Y-38574208D01*
X130400694Y-38361292D01*
X130494778Y-38134153D01*
X130558409Y-37896677D01*
X130590500Y-37652927D01*
X130590500Y-37407073D01*
X130558409Y-37163323D01*
X130542913Y-37105492D01*
X130494779Y-36925852D01*
X130494778Y-36925847D01*
X130401229Y-36700000D01*
X143994508Y-36700000D01*
X144014354Y-36825304D01*
X144014354Y-36825305D01*
X144065583Y-36925847D01*
X144071950Y-36938342D01*
X144161658Y-37028050D01*
X144274696Y-37085646D01*
X144400000Y-37105492D01*
X144525304Y-37085646D01*
X144638342Y-37028050D01*
X144728050Y-36938342D01*
X144785646Y-36825304D01*
X144805492Y-36700000D01*
X144785646Y-36574696D01*
X144728050Y-36461658D01*
X144638342Y-36371950D01*
X144525304Y-36314354D01*
X144400000Y-36294508D01*
X144274695Y-36314354D01*
X144274694Y-36314354D01*
X144161657Y-36371950D01*
X144071950Y-36461657D01*
X144014354Y-36574694D01*
X144014354Y-36574695D01*
X143994508Y-36700000D01*
X130401229Y-36700000D01*
X130400694Y-36698708D01*
X130277767Y-36485792D01*
X130128101Y-36290744D01*
X129954256Y-36116899D01*
X129759208Y-35967233D01*
X129741745Y-35957151D01*
X129546298Y-35844309D01*
X129546286Y-35844303D01*
X129429373Y-35795876D01*
X129319153Y-35750222D01*
X129319149Y-35750221D01*
X129319147Y-35750220D01*
X129319148Y-35750220D01*
X129081689Y-35686593D01*
X129081677Y-35686591D01*
X129081672Y-35686590D01*
X129081670Y-35686590D01*
X128837931Y-35654500D01*
X128837927Y-35654500D01*
X128592073Y-35654500D01*
X128592068Y-35654500D01*
X128348329Y-35686590D01*
X128348310Y-35686593D01*
X128110852Y-35750220D01*
X127883713Y-35844303D01*
X127883701Y-35844309D01*
X127670798Y-35967229D01*
X127670795Y-35967231D01*
X127670792Y-35967233D01*
X127567332Y-36046620D01*
X127475742Y-36116900D01*
X127301900Y-36290742D01*
X127283782Y-36314354D01*
X127152233Y-36485792D01*
X127152231Y-36485795D01*
X127152229Y-36485798D01*
X127029309Y-36698701D01*
X127029303Y-36698713D01*
X126935220Y-36925852D01*
X126871593Y-37163310D01*
X126871590Y-37163329D01*
X126839500Y-37407068D01*
X119160499Y-37407068D01*
X119128409Y-37163323D01*
X119112913Y-37105492D01*
X119064779Y-36925852D01*
X119064778Y-36925847D01*
X118970694Y-36698708D01*
X118847767Y-36485792D01*
X118698101Y-36290744D01*
X118524256Y-36116899D01*
X118329208Y-35967233D01*
X118311745Y-35957151D01*
X118116298Y-35844309D01*
X118116286Y-35844303D01*
X117999373Y-35795876D01*
X117889153Y-35750222D01*
X117889149Y-35750221D01*
X117889147Y-35750220D01*
X117889148Y-35750220D01*
X117651689Y-35686593D01*
X117651677Y-35686591D01*
X117651672Y-35686590D01*
X117651670Y-35686590D01*
X117407931Y-35654500D01*
X117407927Y-35654500D01*
X117162073Y-35654500D01*
X117162068Y-35654500D01*
X116918329Y-35686590D01*
X116918310Y-35686593D01*
X116680852Y-35750220D01*
X116453713Y-35844303D01*
X116453701Y-35844309D01*
X116240798Y-35967229D01*
X116240795Y-35967231D01*
X116240792Y-35967233D01*
X116137332Y-36046620D01*
X116045742Y-36116900D01*
X115871900Y-36290742D01*
X115853782Y-36314354D01*
X115722233Y-36485792D01*
X115722231Y-36485795D01*
X115722229Y-36485798D01*
X115599309Y-36698701D01*
X115599303Y-36698713D01*
X115505220Y-36925852D01*
X115441593Y-37163310D01*
X115441590Y-37163329D01*
X115409500Y-37407068D01*
X109700500Y-37407068D01*
X109700500Y-34149995D01*
X115597905Y-34149995D01*
X115597905Y-34150004D01*
X115616243Y-34347908D01*
X115616245Y-34347920D01*
X115637675Y-34423236D01*
X115670639Y-34539092D01*
X115759235Y-34717017D01*
X115879017Y-34875634D01*
X116025904Y-35009539D01*
X116025903Y-35009539D01*
X116194893Y-35114174D01*
X116194895Y-35114175D01*
X116194897Y-35114176D01*
X116380239Y-35185978D01*
X116575618Y-35222500D01*
X116575621Y-35222500D01*
X116774379Y-35222500D01*
X116774382Y-35222500D01*
X116969761Y-35185978D01*
X117155103Y-35114176D01*
X117324095Y-35009540D01*
X117470983Y-34875634D01*
X117590765Y-34717017D01*
X117679361Y-34539092D01*
X117733755Y-34347916D01*
X117735452Y-34329605D01*
X117752095Y-34150004D01*
X117752095Y-34149995D01*
X125580863Y-34149995D01*
X125580863Y-34150004D01*
X125601364Y-34371252D01*
X125601366Y-34371263D01*
X125662176Y-34584984D01*
X125761222Y-34783895D01*
X125851694Y-34903699D01*
X126393496Y-34361896D01*
X126428911Y-34423236D01*
X126511764Y-34506089D01*
X126573101Y-34541502D01*
X126030226Y-35084376D01*
X126059340Y-35110918D01*
X126248269Y-35227898D01*
X126455477Y-35308171D01*
X126673891Y-35348999D01*
X126673899Y-35349000D01*
X126896101Y-35349000D01*
X126896108Y-35348999D01*
X127114522Y-35308171D01*
X127321730Y-35227898D01*
X127510656Y-35110920D01*
X127539772Y-35084376D01*
X126996897Y-34541502D01*
X127058236Y-34506089D01*
X127141089Y-34423236D01*
X127176502Y-34361897D01*
X127718304Y-34903700D01*
X127718304Y-34903699D01*
X127808777Y-34783895D01*
X127907823Y-34584984D01*
X127968633Y-34371263D01*
X127968635Y-34371252D01*
X127989137Y-34150004D01*
X127989137Y-34149995D01*
X127968635Y-33928747D01*
X127968633Y-33928736D01*
X127907823Y-33715015D01*
X127808777Y-33516104D01*
X127718304Y-33396299D01*
X127176502Y-33938101D01*
X127141089Y-33876764D01*
X127058236Y-33793911D01*
X126996896Y-33758496D01*
X127539772Y-33215621D01*
X127510659Y-33189081D01*
X127321730Y-33072101D01*
X127114522Y-32991828D01*
X126896108Y-32951000D01*
X126673891Y-32951000D01*
X126455477Y-32991828D01*
X126248269Y-33072101D01*
X126059346Y-33189076D01*
X126030227Y-33215622D01*
X126573102Y-33758497D01*
X126511764Y-33793911D01*
X126428911Y-33876764D01*
X126393497Y-33938102D01*
X125851694Y-33396299D01*
X125761224Y-33516100D01*
X125662176Y-33715015D01*
X125601366Y-33928736D01*
X125601364Y-33928747D01*
X125580863Y-34149995D01*
X117752095Y-34149995D01*
X117733756Y-33952091D01*
X117733754Y-33952079D01*
X117712325Y-33876764D01*
X117679361Y-33760908D01*
X117590765Y-33582983D01*
X117470983Y-33424366D01*
X117324095Y-33290460D01*
X117324096Y-33290460D01*
X117155106Y-33185825D01*
X117155104Y-33185824D01*
X117078473Y-33156137D01*
X116969761Y-33114022D01*
X116969758Y-33114021D01*
X116969757Y-33114021D01*
X116774386Y-33077500D01*
X116774382Y-33077500D01*
X116575618Y-33077500D01*
X116575613Y-33077500D01*
X116380242Y-33114021D01*
X116194895Y-33185824D01*
X116194893Y-33185825D01*
X116025903Y-33290460D01*
X115879015Y-33424368D01*
X115879013Y-33424370D01*
X115759235Y-33582983D01*
X115670639Y-33760907D01*
X115616245Y-33952079D01*
X115616243Y-33952091D01*
X115597905Y-34149995D01*
X109700500Y-34149995D01*
X109700500Y-30899995D01*
X110067762Y-30899995D01*
X110067762Y-30900004D01*
X110086688Y-31176714D01*
X110086689Y-31176717D01*
X110143123Y-31448290D01*
X110143126Y-31448299D01*
X110236006Y-31709643D01*
X110336905Y-31904368D01*
X110363616Y-31955918D01*
X110523570Y-32182521D01*
X110686302Y-32356764D01*
X110712891Y-32385234D01*
X110762197Y-32425348D01*
X110928048Y-32560277D01*
X110928050Y-32560278D01*
X111165030Y-32704390D01*
X111165034Y-32704392D01*
X111165038Y-32704394D01*
X111419445Y-32814898D01*
X111686529Y-32889732D01*
X111961315Y-32927500D01*
X111961316Y-32927500D01*
X112238684Y-32927500D01*
X112238685Y-32927500D01*
X112513471Y-32889732D01*
X112780555Y-32814898D01*
X113034962Y-32704394D01*
X113157306Y-32629995D01*
X118010863Y-32629995D01*
X118010863Y-32630004D01*
X118031364Y-32851252D01*
X118031366Y-32851263D01*
X118092176Y-33064984D01*
X118191222Y-33263895D01*
X118281694Y-33383699D01*
X118823496Y-32841896D01*
X118858911Y-32903236D01*
X118941764Y-32986089D01*
X119003101Y-33021502D01*
X118460226Y-33564376D01*
X118489340Y-33590918D01*
X118678269Y-33707898D01*
X118885477Y-33788171D01*
X119103891Y-33828999D01*
X119103899Y-33829000D01*
X119326101Y-33829000D01*
X119326108Y-33828999D01*
X119544522Y-33788171D01*
X119751730Y-33707898D01*
X119940656Y-33590920D01*
X119969772Y-33564376D01*
X119426897Y-33021502D01*
X119488236Y-32986089D01*
X119571089Y-32903236D01*
X119606502Y-32841897D01*
X120148304Y-33383700D01*
X120148304Y-33383699D01*
X120238777Y-33263895D01*
X120337823Y-33064984D01*
X120398633Y-32851263D01*
X120398635Y-32851252D01*
X120419137Y-32630004D01*
X120419137Y-32629995D01*
X128247905Y-32629995D01*
X128247905Y-32630004D01*
X128266243Y-32827908D01*
X128266245Y-32827920D01*
X128301265Y-32951000D01*
X128320639Y-33019092D01*
X128409235Y-33197017D01*
X128529017Y-33355634D01*
X128675904Y-33489539D01*
X128675903Y-33489539D01*
X128844893Y-33594174D01*
X128844895Y-33594175D01*
X128844897Y-33594176D01*
X129030239Y-33665978D01*
X129225618Y-33702500D01*
X129225621Y-33702500D01*
X129424379Y-33702500D01*
X129424382Y-33702500D01*
X129619761Y-33665978D01*
X129805103Y-33594176D01*
X129974095Y-33489540D01*
X130120983Y-33355634D01*
X130240765Y-33197017D01*
X130329361Y-33019092D01*
X130383755Y-32827916D01*
X130384961Y-32814899D01*
X130402095Y-32630004D01*
X130402095Y-32629995D01*
X130383756Y-32432091D01*
X130383754Y-32432079D01*
X130338751Y-32273911D01*
X130329361Y-32240908D01*
X130240765Y-32062983D01*
X130120983Y-31904366D01*
X129974095Y-31770460D01*
X129974096Y-31770460D01*
X129805106Y-31665825D01*
X129805104Y-31665824D01*
X129728473Y-31636137D01*
X129619761Y-31594022D01*
X129619758Y-31594021D01*
X129619757Y-31594021D01*
X129424386Y-31557500D01*
X129424382Y-31557500D01*
X129225618Y-31557500D01*
X129225613Y-31557500D01*
X129030242Y-31594021D01*
X128844895Y-31665824D01*
X128844893Y-31665825D01*
X128675903Y-31770460D01*
X128529015Y-31904368D01*
X128529013Y-31904370D01*
X128409235Y-32062983D01*
X128320639Y-32240907D01*
X128266245Y-32432079D01*
X128266243Y-32432091D01*
X128247905Y-32629995D01*
X120419137Y-32629995D01*
X120398635Y-32408747D01*
X120398633Y-32408736D01*
X120337823Y-32195015D01*
X120238777Y-31996104D01*
X120148304Y-31876299D01*
X119606502Y-32418101D01*
X119571089Y-32356764D01*
X119488236Y-32273911D01*
X119426896Y-32238496D01*
X119969772Y-31695621D01*
X119940659Y-31669081D01*
X119751730Y-31552101D01*
X119544522Y-31471828D01*
X119326108Y-31431000D01*
X119103891Y-31431000D01*
X118885477Y-31471828D01*
X118678269Y-31552101D01*
X118489346Y-31669076D01*
X118460227Y-31695622D01*
X119003102Y-32238497D01*
X118941764Y-32273911D01*
X118858911Y-32356764D01*
X118823497Y-32418102D01*
X118281694Y-31876299D01*
X118191224Y-31996100D01*
X118092176Y-32195015D01*
X118031366Y-32408736D01*
X118031364Y-32408747D01*
X118010863Y-32629995D01*
X113157306Y-32629995D01*
X113271952Y-32560277D01*
X113487110Y-32385233D01*
X113676430Y-32182521D01*
X113836384Y-31955918D01*
X113963992Y-31709646D01*
X114056877Y-31448291D01*
X114113310Y-31176723D01*
X114132238Y-30900000D01*
X114132238Y-30899995D01*
X184167762Y-30899995D01*
X184167762Y-30900004D01*
X184186688Y-31176714D01*
X184186689Y-31176717D01*
X184243123Y-31448290D01*
X184243126Y-31448299D01*
X184336006Y-31709643D01*
X184436905Y-31904368D01*
X184463616Y-31955918D01*
X184623570Y-32182521D01*
X184786302Y-32356764D01*
X184812891Y-32385234D01*
X184862197Y-32425348D01*
X185028048Y-32560277D01*
X185028050Y-32560278D01*
X185265030Y-32704390D01*
X185265034Y-32704392D01*
X185265038Y-32704394D01*
X185519445Y-32814898D01*
X185786529Y-32889732D01*
X186061315Y-32927500D01*
X186061316Y-32927500D01*
X186338684Y-32927500D01*
X186338685Y-32927500D01*
X186613471Y-32889732D01*
X186880555Y-32814898D01*
X187134962Y-32704394D01*
X187371952Y-32560277D01*
X187587110Y-32385233D01*
X187776430Y-32182521D01*
X187936384Y-31955918D01*
X188063992Y-31709646D01*
X188156877Y-31448291D01*
X188213310Y-31176723D01*
X188232238Y-30900000D01*
X188213310Y-30623277D01*
X188156877Y-30351709D01*
X188063992Y-30090354D01*
X187936384Y-29844082D01*
X187776430Y-29617479D01*
X187587110Y-29414767D01*
X187371952Y-29239723D01*
X187371949Y-29239721D01*
X187134969Y-29095609D01*
X187104969Y-29082578D01*
X186880555Y-28985102D01*
X186880553Y-28985101D01*
X186880552Y-28985101D01*
X186880550Y-28985100D01*
X186613477Y-28910269D01*
X186613465Y-28910267D01*
X186338690Y-28872500D01*
X186338685Y-28872500D01*
X186061315Y-28872500D01*
X186061309Y-28872500D01*
X185786534Y-28910267D01*
X185786522Y-28910269D01*
X185519449Y-28985100D01*
X185519447Y-28985101D01*
X185265030Y-29095609D01*
X185028050Y-29239721D01*
X184812891Y-29414765D01*
X184623574Y-29617474D01*
X184463612Y-29844088D01*
X184336006Y-30090356D01*
X184243126Y-30351700D01*
X184243123Y-30351709D01*
X184186689Y-30623282D01*
X184186688Y-30623285D01*
X184167762Y-30899995D01*
X114132238Y-30899995D01*
X114113310Y-30623277D01*
X114056877Y-30351709D01*
X113963992Y-30090354D01*
X113836384Y-29844082D01*
X113676430Y-29617479D01*
X113487110Y-29414767D01*
X113271952Y-29239723D01*
X113271949Y-29239721D01*
X113034969Y-29095609D01*
X113004969Y-29082578D01*
X112780555Y-28985102D01*
X112780553Y-28985101D01*
X112780552Y-28985101D01*
X112780550Y-28985100D01*
X112513477Y-28910269D01*
X112513465Y-28910267D01*
X112238690Y-28872500D01*
X112238685Y-28872500D01*
X111961315Y-28872500D01*
X111961309Y-28872500D01*
X111686534Y-28910267D01*
X111686522Y-28910269D01*
X111419449Y-28985100D01*
X111419447Y-28985101D01*
X111165030Y-29095609D01*
X110928050Y-29239721D01*
X110712891Y-29414765D01*
X110523574Y-29617474D01*
X110363612Y-29844088D01*
X110236006Y-30090356D01*
X110143126Y-30351700D01*
X110143123Y-30351709D01*
X110086689Y-30623282D01*
X110086688Y-30623285D01*
X110067762Y-30899995D01*
X109700500Y-30899995D01*
X109700500Y-28263000D01*
X109718806Y-28218806D01*
X109763000Y-28200500D01*
X188637000Y-28200500D01*
X188681194Y-28218806D01*
G37*
G04 #@! TD.AperFunction*
M02*
